<?xml version="1.0" encoding="UTF-8"?>
<svg id="Layer_7" data-name="Layer 7" xmlns="http://www.w3.org/2000/svg" xmlns:xlink="http://www.w3.org/1999/xlink" viewBox="0 0 2197.27 1241.08">
  <defs>
    <style>
      .cls-1 {
        fill: #f60202;
      }

      .cls-1, .cls-2, .cls-3, .cls-4, .cls-5 {
        stroke-width: 0px;
      }

      .cls-3 {
        fill: none;
      }

      .cls-6 {
        font-family: SecularOne-Regular, 'Secular One';
        font-size: 480.03px;
      }

      .cls-4, .cls-7 {
        fill: #fff;
      }

      .cls-5 {
        fill: #0f32b4;
      }

      .cls-8 {
        letter-spacing: -.05em;
      }

      .cls-9 {
        clip-path: url(#clippath);
      }

      .cls-7 {
        stroke: #fff;
        stroke-miterlimit: 10;
        stroke-width: 14px;
      }
    </style>
    <clipPath id="clippath">
      <path class="cls-3" d="M536.1,1213.58h0c-5.94,0-514.82-287.77-514.82-815.36V21.29s1029.65,0,1029.65,0v376.93c0,527.58-514.82,815.36-514.82,815.36Z"/>
    </clipPath>
  </defs>
  <g id="Insenia_Color" data-name="Insenia Color">
    <g>
      <path class="cls-5" d="M536.1,1224.08c-2.46,0-4.99,0-29.33-14.95-12.82-7.88-33.6-21.25-59.79-40.26-44.15-32.04-110.91-85.45-178.22-157.98-74.86-80.67-134.54-167.54-177.37-258.21C37.89,639.47,10.77,520.21,10.77,398.22V10.79h1050.65v387.43c0,121.92-27.41,241.19-81.46,354.5-43.16,90.48-103.31,177.35-178.77,258.19-67.05,71.83-134.05,125.54-178.46,157.94-48.22,35.19-80.17,53.14-81.51,53.89l-2.39,1.33h-2.74Z"/>
      <path class="cls-2" d="M1050.92,21.29v376.93c0,527.58-514.82,815.36-514.82,815.36h0c-5.94,0-514.82-287.77-514.82-815.36V21.29h1029.65M1071.92.29H.27v397.93c0,123.55,27.46,244.32,81.62,358.95,43.3,91.64,103.58,179.4,179.17,260.86,67.89,73.16,135.22,127.03,179.75,159.34,26.46,19.2,47.48,32.74,60.46,40.71,8.5,5.22,14.44,8.61,17.92,10.53,6.91,3.82,11.11,5.97,16.91,5.97s8.55-1.59,16.49-6.3c5.1-3.03,10.93-6.6,16.85-10.35,13.11-8.29,34.08-22.06,59.48-40.6,44.77-32.67,112.33-86.83,179.94-159.26,76.19-81.63,136.95-169.39,180.57-260.84,54.73-114.73,82.49-235.52,82.49-359.02V.29h0Z"/>
    </g>
    <g class="cls-9">
      <polygon class="cls-1" points="-86.25 -49.4 -86.25 549.85 1143.46 554.13 1163.27 -98.17 -86.25 -49.4"/>
    </g>
  </g>
  <g id="B_W" data-name="B&amp;amp;W">
    <g>
      <polygon class="cls-7" points="83.85 566.09 105.66 542.61 122.9 526.8 152.99 504.8 205.85 465.46 234.51 447.27 261.28 432.8 281.75 424.23 297.61 418.7 309.37 416.7 325.37 417.84 336.61 419.37 355.37 422.89 373.96 430.42 421.18 447.27 432.9 452.23 468.04 466.89 643.4 455.24 660.8 448.85 722.39 426.67 752.44 422.23 775.47 424 818.9 441.02 861.56 467.05 920.99 510.86 953.63 535.88 972.8 554.13 989.56 572.19 982.96 581.34 942.07 580.07 922.26 580.45 910.96 574.1 746.77 556.45 650.77 569.78 400.71 563.29 350.51 547.37 169.37 571.29 137.75 573.08 96.04 575.94 83.85 566.09"/>
      <polygon class="cls-7" points="231.46 851.88 277.71 803.12 324.71 763.29 352.99 720.13 368.17 687.79 373.9 672.13 373.96 662.99 430.01 610.42 411.29 696.51 386.9 736.59 357.94 797.67 333.18 867.35 274.9 885.75 231.46 851.88"/>
      <polygon class="cls-7" points="760.04 244.08 789.81 268.68 629.05 441.02 595.02 410.29 760.04 244.08"/>
      <path class="cls-7" d="M118.21,76.49c2.2,10.6,22.8,36.7,81.5,103.6,21.2,24.1,45.7,52.1,54.5,62.2,8.8,10.2,22.3,25.4,30,33.9s16.3,18,19,21.1c7.1,8.1,38,42.4,44.5,49.5,3.1,3.3,9.4,10.3,14,15.5,13.9,15.6,16.2,18.2,22,24.5,3.1,3.3,9.1,10,13.5,15,4.3,4.9,10.4,11.7,13.5,15,3,3.3,8,8.8,11,12.2,3,3.5,5.7,6.3,6,6.3s.4-5,.2-11c-.5-11.9.1-13.7,4.4-14.2,2.7-.3,2.6-.4-27.6-33.8-18.8-20.7-36.9-40.8-41.4-45.9-2.7-3.1-9.3-10.3-14.6-16.1-5.4-5.8-11.9-13-14.5-16-9-10.2-51.1-56.4-61.6-67.5-11.2-11.9-25.2-27.5-27.5-30.7-1.4-1.8-3-3.8-3.7-4.3-.6-.6-4.6-4.8-8.7-9.5s-12.4-13.9-18.5-20.6c-6-6.6-18.9-20.8-28.5-31.5-27.7-30.9-52.1-54.4-60.4-58.3-7.2-3.4-7.9-3.3-7.1.6ZM162.41,122.79c1.1,2.3.2,1.7-3.7-2.5-2.8-3-5.8-6.9-6.6-8.5-1.1-2.3-.3-1.7,3.6,2.5,2.9,3,5.8,6.8,6.7,8.5ZM175.11,138.59c.5,2.1.4,2.1-1.4-.3-2.3-2.9-2.6-4.8-.6-3.1.8.6,1.6,2.2,2,3.4ZM207.01,176.59c2.5,5.7,2,6.5-1.3,2.1-2.1-2.8-2.9-5-2.9-7.9l-.1-4,1.4,3c.7,1.6,2,4.7,2.9,6.8ZM220.61,188.79c0,.5-.4,1.8-.8,2.9-.6,1.5-1,1-2.1-2.5-.7-2.4-1.7-4.8-2.2-5.4-.4-.5-.8-1.4-.8-2,.1-.5,1.4.6,3,2.5,1.7,1.9,3,3.9,2.9,4.5ZM231.41,206.89c-.3.3-1.9-.7-3.5-2.3-2.6-2.5-2.9-3.3-2.4-6.8l.5-4,3,6.3c1.6,3.5,2.7,6.5,2.4,6.8ZM241.71,213.69c0,2.6-.6,1.8-2.5-3l-1.6-3.9,2,2.5c1.1,1.4,2.1,3.4,2.1,4.4ZM272.01,247.99c2.2,2.2,3.7,4.7,3.5,5.4-.5,1.5-12.8-12.9-12.8-14.9,0-.8,1.2.1,2.7,2,1.4,1.8,4.4,5.2,6.6,7.5ZM283.11,260.49l1.9,3.3-3.7-3.4c-2-1.9-3.6-4.1-3.6-5,0-2,2.9.7,5.4,5.1ZM298.71,278.39c0,1.8-2.8-.9-4.5-4.5l-1.5-3.1,3,3.3c1.7,1.8,3,3.7,3,4.3ZM307.61,287.79l1.3,3-3-2.9c-1.8-1.6-2.8-3.4-2.5-4.3.7-1.8,2.3-.2,4.2,4.2ZM316.51,296.89c-.3,1.4-.7,1-1.6-1.6-1.2-3.2-1.1-3.4.4-1.9.9.9,1.4,2.5,1.2,3.5ZM338.91,317.59c1.1,2.1,3.8,12,3.4,12.5-.2.1-2-1.8-4-4.2-2-2.5-4.3-5.2-5.1-5.9-.7-.8-1.6-3.6-2-6.3l-.7-4.9,3.7,3.5c2,1.9,4.1,4.3,4.7,5.3ZM351.01,335.19c.5,6.1-.1,5.4-3.9-4.2-3-7.7-3-7.8.5-4.2,2.3,2.3,3,4.2,3.4,8.4ZM361.61,345.19l2.1,6.5-3.3-3.2c-2.7-2.6-3.3-4-3.5-7.9-.1-4,0-4.5,1.2-3.3.7.8,2.3,4.4,3.5,7.9ZM382.71,368.09c1.1,3.6,1.8,6.7,1.7,6.9-.2.2-2.5-2.3-5-5.6-3.7-4.7-4.7-6.7-4.7-9.7v-3.8l3,2.9c1.8,1.7,3.7,5.2,5,9.3ZM400.71,387.79v5l-3.3-3.5c-6.2-6.8-6.9-7.9-7.8-12.2-.5-2.4-1.2-5.2-1.5-6.3s2.4,1.1,6,5c6.2,6.7,6.5,7.2,6.6,12ZM423.01,414.09c.4,2.1.3,3.1-.3,2.7-.6-.3-1-2-1-3.7,0-3.8.5-3.4,1.3,1Z"/>
      <path class="cls-7" d="M940.01,82.49c-31.3,32.8-33.3,35-33.3,37.4s-2.3,4.8-44.2,47.7c-29.2,30-52.8,54.2-73.1,75.2l-9.6,10-3.2-3.2-3.3-3.2,2.2-1.8c3.2-2.7,1.9-6.7-3.4-10.3-5.3-3.7-6.4-3.7-10.4,0l-3.1,2.9-2.2-2.1c-1.2-1.1-3.5-2.8-5-3.8-6.5-4-16.7,3-16.7,11.5,0,2.8,5.3,8.5,7.9,8.5.8,0-5.5,6.9-14,15.3-13.3,13.1-51.2,52.2-59.4,61.2-3.2,3.5-44.9,46.6-64.2,66.5l-13.2,13.5,5,.3,4.9.3,14.3-14.7c7.8-8.1,17.1-17.7,20.7-21.4,6.5-6.6,13.6-14.4,28.6-31.5,6.6-7.5,23.6-25.2,48.4-50.5,2.5-2.5,7.5-7.5,11.3-11l6.7-6.3,2.5,2.3c1.4,1.3,2.5,2.6,2.5,2.9-.1.3-2.8,3.5-6.1,7.1-4.9,5.4-11.3,14-15.3,20.8-1.5,2.4,3.3-.6,11.6-7.5,4.3-3.6,7.8-6.2,7.8-5.9,0,.4-3.2,4.7-7,9.6-6.7,8.6-13,18-13,19.4,0,.3,3.9-2.7,8.8-6.7,8.7-7.4,24.9-23.8,33.4-33.9,5.4-6.3,14.1-18.8,13.6-19.3-.2-.2-4.9,3-10.3,7.2-9.3,7.1-10.6,7.5-4.6,1.3,1.3-1.4,4.4-5.3,6.8-8.8,2.5-3.4,4.8-6.2,5.2-6.2s1.9,1.2,3.3,2.7c1.4,1.6,3.6,3.7,4.9,4.7l2.3,1.9-5.9,5.5c-3.3,3-8,6.8-10.3,8.4-2.4,1.7-5,4.4-5.7,6.2-.7,1.7-5.7,7.4-10.9,12.6-12.1,11.9-49.5,51.6-64.1,68-6,6.7-17.7,19.2-26,27.7-8.3,8.4-14.7,15.7-14.2,16.2.4.4,1.1,6.6,1.4,13.6l.6,12.8,4.5-4.9c2.5-2.7,8.4-9,13.1-13.9,4.7-5,12.2-12.9,16.6-17.6,10.8-11.5,39.2-41.5,48.7-51.4,4.2-4.4,8.8-9.4,10.3-11,3.7-4,13.9-14.8,32.7-34.6,19.5-20.6,23.6-25.4,24.9-30,.9-3,.8-4.1-.6-6.3-2-3-2.5-2.2,13.2-18.9,4-4.4,7.2-8.5,7.1-9.2-.3-1.3,8.3-10.6,41.5-44.5,52.8-53.8,62-63,63.7-63,1.1,0,8.6-7.4,18.1-17.8,8.9-9.7,18-19.6,20.2-21.9l4-4.1-2.2-3.6c-2.8-4.5-6.7-7.6-9.6-7.6-1.5,0-4.6,2.5-9.2,7.2ZM765.71,252.79c1.1,1.3.9,1.9-1.1,3.6-3.8,3.3-10.9,8.1-10.9,7.3,0-1.5,8.9-12.3,10.1-12.4.4,0,1.2.7,1.9,1.5ZM782.11,268.19c1.7,1.8,1.4,2.2-6.1,10.3-4.3,4.6-10.5,11.4-13.8,15-3.3,3.7-10,10.9-15,16-9.7,10.1-16.3,17.2-38,40.8-3.7,4.1-14.1,15.1-23,24.5-8.9,9.3-18.4,19.4-21.1,22.2-2.6,2.9-5.2,5.3-5.7,5.3s4.6-6,11.4-13.3c6.7-7.2,15.6-17.5,19.9-22.7s13.5-16,20.6-23.9c7.1-7.8,14.6-16.4,16.7-19,4.5-5.3,27.1-29.5,30.5-32.6,6.9-6.1,10.5-10.1,15.2-16.9,2.9-4.2,5.6-7.6,6-7.6s1.5.9,2.4,1.9Z"/>
      <path class="cls-7" d="M432.98,371.55c1.06-2.34,1.5-4.81,2.41-7.19.67-1.75,1.61-3.43,2.97-4.75.33-.32.69-.61,1.08-.88.06-.04.59-.34.62-.4.21-.53-.83-1.77-.98-2.33-1.16-4.17.42-8.91,1.13-13.01.34-1.97.4-3.97.72-5.94.31-1.94.81-3.85,1.54-5.68.87-2.21,2.03-4.28,3.52-6.09-.06,0-.11,0-.17,0q-3.8,0-4.4,4.5c-.2,2.6-.7,4.8-.9,5-.2.2-1.7.1-3.4-.3-2.5-.7-3-1.5-3.8-5.6l-1-4.8-7,.7c-3.9.4-7.2.7-7.2.8-.1.1.2,7.8.7,17.2.4,9.3.8,20,.8,23.7l.1,6.8h12.45c.28-.58.55-1.16.82-1.74Z"/>
      <path class="cls-7" d="M527.51,264.99c-.3-10-1.9-14.2-8.2-22.1-1.8-2.3-4.2-5.8-5.4-7.9-3.2-5.6-9.4-12.7-10.5-12-1.6,1-4.5,8.6-5.2,14-.4,3.3-.1,8.2.9,13.5.8,4.6,1.7,9.4,1.8,10.6l.3,2.4,2.8-2.2c4.4-3.5,8.7-11.8,8.8-17,.1-4.3.1-4.4,1-1.5,1.1,3.7-.4,12.4-2.7,16.2-3.5,5.6-11.1,12.5-18.9,17.3-15.4,9.3-22.5,17.5-24.6,28.1-1.1,5.6-1.4,6-6.5,8.8-3.2,1.9-6.5,4.8-8.4,7.6-1.39,1.98-2.26,3.1-3.2,3.73-3,2.67-4.96,6.22-6.02,10.09-.51,1.88-.78,3.77-.93,5.7-.16,2.03-.57,4.02-.96,6.02-.43,2.2-.86,4.42-.84,6.68.01,1.13.07,2.23.62,3.23.38.7.72,1.38.67,2.21-.1,1.44-1.69,1.95-2.56,2.88-1.42,1.52-2.22,3.45-2.77,5.44-.57,2.08-1.2,4.04-2.11,6-.29.64-.6,1.27-.91,1.89v2.43c0,6.6,2.8,13.9,7,18.4,3.9,4,4,4.2,3.4,9.5l-.7,5.3h12.9c7.1,0,13.4-.4,13.9-.8.6-.4,1.5-2.5,2-4.6.6-2.2,1.6-4.2,2.4-4.4,1.1-.4,1.3.4.8,4.2l-.7,4.6h15.4l-3-3.1c-1.6-1.7-4.7-4.4-7-5.9l-4.1-2.9c1.38-9.99.98-14.2.17-16.02-1.16-2.62-1.3-3.73-1.58-5.95-.08-.6-.06-1.19-.06-1.19.06-3.01,1.53-3.15,2.43-7.56.49-2.39,1.03-4.82,1.18-7.26.11-1.68.21-3.54,1.58-4.71.54-.46,1.18-.75,1.77-1.13.89-.58,1.69-1.33,2.47-2.06,3.25-3.04,5.84-6.62,8.52-10.14,2.64-3.47,5.12-7.17,6.48-11.36.33-1,.42-1.96.44-3.01.02-.55.02-1.13.22-1.65.44-1.13,1.68-1.53,2.68-2.02,0,0,.01,0,.02,0,.38-.51.9-1.15,1.57-1.93,4.8-5.6,9.8-16.3,10.5-22.4.4-4.3,1.2-5.9,4.4-9.2,2.1-2.2,5-6.6,6.4-9.8,2.4-5.2,2.7-6.8,2.3-15ZM450.71,389.89c-.1-.6-.7,0-1.6,1.4l-1.5,2.5.7-2.5c1.7-6.3,10.5-16.8,19.9-23.9,4.4-3.3,6.5-3.8,6.5-1.7,0,1.7-24,25.8-24,24.2ZM477.81,338.39c-9.6,3.1-15,6.1-20.8,11.3-2.8,2.5-5.6,4.6-6.2,4.6-3.1,0,1.8-10.4,6.4-13.4,3.7-2.4,14.9-6.6,22-8.1,7.7-1.7,7.3-1.7,8.1-.3,1,1.6-1.9,3.4-9.5,5.9ZM493.81,302.79c-10.1,2.8-16.7,5.7-17.3,7.7-.2.6-1.1.9-2,.5-4.8-1.8,5-11.1,13-12.3,2.6-.3,6.5-1,8.7-1.4,5.6-1.1,5.8-1.1,7.5,0,2.4,1.5.3,2.6-9.9,5.5Z"/>
      <path class="cls-7" d="M642.01,326.09c-4.3-.3-8-.3-8.1-.2-.2.1-.6,2.1-.9,4.3q-.6,4.1-4.9,4.1h-4.4v-9.1l-6.7.3-6.8.3-.3,3.8c-.4,4.3-2.6,5.7-8.8,5.7-3,0-3.4-.3-3-2.3.3-1.2.7-3.3.8-4.6.3-2.8,2-2.5-20.9-2.9l-13.3-.2v-17.7l6.2-3.8c7.4-4.6,15.8-13.1,19.8-20,1.6-2.8,4.5-10.3,6.4-16.8,3.1-10.3,3.6-13.1,3.6-22-.1-5.6-.7-12.9-1.4-16.2-2.1-9.7-8.3-21.1-15.6-28.8-13.3-14.2-25.9-20.8-44.7-23.6-8.1-1.2-11.2-1.2-19.7,0-10.6,1.6-26.6,10.7-35,20-6.3,7-14.8,25-17.6,37.1-1.9,8-2.2,11.3-1.6,18.3.8,9.3,4.3,20.9,8.1,26.7,2.8,4.1,3.6,4.5,5.4,2.4.7-.8,4.2-3.3,7.9-5.5,3.7-2.2,8-5,9.5-6.3l2.8-2.3-2.2-10.4c-2.5-12.5-1.8-18.8,3.5-29.7,7.6-15.3,15.8-20.7,31.6-20.7,10.4,0,17.8,2,25.8,7.3,11.8,7.6,16.6,16.8,16.6,31.7-.1,6.3-.5,7.8-3.5,12.9-5.3,8.8-6.7,9.4-24.1,9.4h-14.7l-1.6,5.7c-2.1,7.2-5.7,14.3-9.3,18.5-1.8,2.1-3.3,5.5-4.1,9.3-2.08,9.49-8.89,21.67-13.14,24-.08.1-.19.19-.34.26-.45.22-1.48.5-1.79.94-.31.43-.11,1.45-.14,1.93-.13,2.15-1.03,4.21-1.92,6.14-1.8,3.87-4.46,7.12-6.96,10.53-2.46,3.36-5.1,6.62-8.27,9.34-.72.62-1.46,1.19-2.29,1.68-.58.34-1.16.62-1.44,1.27-.41.95-.35,2.14-.42,3.16-.07.96-.22,1.88-.4,2.82-.63,3.35-1.21,6.7-2.39,9.88,1.94-.35,5.61-.46,12.58-.46h14l-.3,18.5-.4,18.5h51.2l.7-7.7c.3-4.2.7-11.5.8-16.2l.1-8.6.8,8c.4,4.4.5,11.7.2,16.2l-.6,8.3h9.3v-17.5c0-16,.2-17.5,1.8-17.6.9-.1,13.3-.4,27.6-.8l25.9-.6,14.3-14.8,14.4-14.9v-16.6l-7.7-.4ZM540.01,188.29c-4.3.1-18.5,4.4-25.8,7.9-13.1,6.2-22.8,16.4-30.9,32.5-2.8,5.5-3,6.9-2.9,14.8.2,9.5-1,12.1-2.6,6.1-2.6-9.4-.8-23.1,4.5-33.6,3.3-6.4,12.5-18.2,17.2-21.9,4.6-3.7,13.9-8.5,19-9.8,3.7-.9,16.7-.6,21,.6,2.6.7,3,3.4.5,3.4ZM573.91,288.09c8-8.7,14.1-22.2,16.8-37.5,1.5-8.4,3.3-8.8,2.4-.5-1.7,16.4-11.1,35.7-19.8,41.1-1.8,1.2-3.5,2.1-3.8,2.1-.2,0,1.7-2.3,4.4-5.2ZM562.71,295.29c-.5,1.5-.8-2.7-.9-11,0-9.1.3-13,.9-12,.5.8.9,5.8.9,11-.1,5.2-.5,10.6-.9,12Z"/>
      <path class="cls-7" d="M704.21,310.49c-3.8,2.1-13.9,14-15.5,18.3-1.2,3.3-.5,6.2,1.8,7.4,3.5,1.8,6.7-.8,16.1-13.2,5.4-7.2,6.4-11,3.2-12.7-2.4-1.2-3.1-1.2-5.6.2Z"/>
      <path class="cls-7" d="M675.11,342.49c-2.2,2.3-5.6,6-7.7,8.2-7.3,7.6-8.6,11.5-4.6,13.6,2.7,1.5,7-1.8,14.9-11.3,6.3-7.6,7.8-11,5.9-13.3-2-2.4-4.5-1.6-8.5,2.8Z"/>
      <path class="cls-7" d="M682.71,352.59c-6.4,6.1-13.4,13.2-15.6,15.7-7.8,8.6-41.2,39.6-41.9,38.9-.2-.2,4.5-6.7,10.3-14.4s9.7-13.3,8.7-12.5c-9.8,7.5-30.5,26.1-30.5,27.4,0,.3,5,.5,11.1.5h11.1l9.6-8.7c16.5-15,22.2-21.2,33.8-36.7,7.3-9.7,15.6-21.5,15.2-21.5-.2,0-5.5,5.1-11.8,11.3Z"/>
      <path class="cls-7" d="M300.71,416.79c-19,4.1-52.9,19.6-75,34.1-26.3,17.2-42.9,28.9-59,41.4-24.3,19-26.4,20.6-31.5,23.5-2.7,1.6-10.2,7.7-16.5,13.5-6.4,5.8-14.2,12.7-17.5,15.5-3.3,2.7-8.7,7.4-12,10.3-3.3,3-7,6.3-8.2,7.4-3.3,2.9-4.1,11.6-1.6,16.5,3.3,6.3,6.3,7.8,15.6,7.8,6.9,0,9.3-.5,14.7-3,3.6-1.6,7.8-3.7,9.3-4.8,3.1-2.1,5.8-1.7,5.5,1-.5,6.9,1.6,9.7,7.2,9.5,2.9-.1,16.8-7.6,23.7-12.9,4.2-3.2,4.8-3.4,6.9-2.2,1.3.8,3.3,3,4.6,4.9,2.2,3.3,2.7,3.5,8.6,3.8,5.5.3,7-.1,11.9-2.9,3.1-1.8,7.1-4.5,8.9-6.1l3.3-2.9,4.1,3.2c3.2,2.6,5,3.3,8.8,3.3,4.1.1,5.7-.5,10.5-3.9,3.2-2.2,6.4-4.5,7.2-5,1.2-.7,3.3,0,8.4,2.7,3.8,2.1,8.3,3.8,10,3.8,4.3,0,10.7-3.4,15.8-8.3l4.2-4.1,5.5,2.8c10.5,5.3,17.9,4.4,26.5-3.4,2.5-2.2,4.8-4,5.3-4s3.1,1.1,5.8,2.5c8.7,4.4,18.9,3,24.8-3.5,2.5-2.7,3.2-2.9,5.4-2.1,1.4.5,2.9,1.5,3.3,2,1.2,2,11.4,1.3,14.6-1,3.2-2.2,5.3-1.7,4.6,1.1-.7,2.7,4.7,7.8,9.6,9.1,2.2.6,6.5.8,9.6.4,5.3-.6,5.7-.5,8.6,2.5,4.3,4.5,8.6,6,17.2,6,4.8,0,8.5.6,10.5,1.6,3.2,1.6,14.2,1.6,19.8-.1,1.7-.6-.8,2.7-8.5,10.6-6.1,6.3-15.3,15.8-20.5,21.1-5.1,5.4-9.7,9.8-10,9.8-.4,0-4.2-2.9-8.5-6.5s-8.2-6.5-8.6-6.5c-1.7,0-.9,2,1.6,3.6,3.7,2.4,4,5,1.1,9.5-1.8,2.7-2.4,4.7-2,6.3.5,2-.6,4-5.2,9.8-3.2,4-6.9,8.4-8.1,9.8-2.9,3.1-2.9,3.4.4,5.5,2.9,1.9,3.2,1.7,7.9-5,1.3-1.8,1.5-1.8,3-.3s1.2,2.2-4.7,8.7c-3.5,3.9-7,7.3-8,7.6-1.2.4-1.8,2.3-2.3,8.2-.3,4.2-.6,9.3-.6,11.3,0,7.1-14.4,32.3-27.6,48.4-4.1,5-18.9,21.5-28.3,31.6-1.3,1.4-8.4,9.1-15.9,17.2-12.4,13.6-23.6,23.4-33.8,30-5.1,3.2-11.3,9.5-20.6,20.6-7.8,9.3-17,20.9-18.2,22.9-.8,1.4,4.2,8.3,6.1,8.3.7,0,2.4,1.6,3.9,3.6s6.4,6.4,10.8,9.8c7.3,5.6,11.5,8.5,31.6,21.5,3,2,12.9,7.3,22,11.8l16.5,8.2,3.8-3.7c2.1-2,5.4-6.9,7.2-10.7,5.7-11.8,19.5-48.5,23-61,1.8-6.7,12.5-37.1,16.3-46.5,1.7-4.1,4.9-12.1,7.1-17.7,7.7-19.5,15.3-33.5,33.3-61.3,4.4-6.9,8.9-14,9.9-15.9,1-1.8,8.4-10,16.6-18.2l14.7-14.9h7.1c6.5,0,7.4.2,9.7,2.7,3.9,4.4,6.3,8.3,8.7,14.8,2,5.5,2.2,7.6,2.2,25-.1,10.4-.4,22.3-.8,26.4l-.6,7.4,6.9-.5c8-.6,24.8-6,37-12l8.2-4-1.3-5.1c-.8-2.9-2.5-12-4-20.2-1.5-8.3-3-17-3.5-19.5s-1.9-9.7-3-16c-1.2-6.3-2.3-12.5-2.6-13.7-.2-1.2-3.2-4.1-7.1-6.9-3.8-2.6-10.6-8.2-15.2-12.3-4.6-4.2-11.1-9.9-14.5-12.7-6.4-5.4-15-15.3-22.7-26.4-5.4-7.6-10-20.2-13.4-36.9-1.3-6.2-2.6-11.5-2.8-11.7-.6-.6-11.9,7.2-18.2,12.5-3.2,2.8-6.2,5.1-6.6,5.1-.3,0-.9-2.7-1.3-6.1-.6-5.8-.4-6.3,3.2-11.6,2-3,5-7.5,6.5-10.1,1.6-2.5,5.3-7.4,8.3-10.8l5.5-6.3-.7-8.5-.7-8.6-8.3,4.5c-7.5,4.1-8.4,4.4-8.4,2.6,0-4.1,2-6.8,9.4-12.9l7.6-6.2v-5.5c0-3-.4-5.5-.8-5.5-1,0-15.7,12.4-23.2,19.5-5.8,5.5-13.4,10-15,9-1.4-.9-1.2-4.2.4-7.3,2.8-5.4,33.3-28.9,36.1-27.8,1.2.4,1.5-.6,1.5-5.8,0-6.2,0-6.3-3.2-7.3-1.8-.6-13.6-4.8-26.3-9.3-24.8-8.8-55.7-18-67-20-9.7-1.7-34.6-1.4-41.2.5-2.9.8-7.4,2.1-10,2.9-11.9,3.4-49.7,24.1-63.9,34.9-2.7,2.1-11.6,8.1-19.9,13.3-8.2,5.3-17.2,11.1-20,12.9-12.7,8.6-38.3,30.7-63,54.5-6.6,6.4-13.6,12.6-15.6,13.8-2.1,1.2-4.4,3.4-5.3,4.7-1.7,2.6-3.6,3.3-3.6,1.4,0-1.2,3.2-5.5,12.7-16.9,9-10.8,12.4-13.6,76.3-62,30.4-23.1,64.6-44.4,86.5-54.1,28-12.3,39.7-14.9,59.3-12.9,19,2,29.6,4.7,51.2,13.2,4.1,1.7,11.3,4.3,16,5.9,4.7,1.5,11.9,4.1,16,5.7s10.5,4.1,14.3,5.5c4.9,1.9,6.7,2.3,6.7,1.3,0-.8-1.5-1.9-3.2-2.6-1.8-.6-5.3-2-7.8-3.1-6-2.5-28.8-11.1-37-13.9-3.6-1.3-9-3.4-12-4.7-20.2-9.1-51.2-13.5-68-9.8ZM286.71,440.09c-7.1,4.8-26.6,22.1-29.8,26.3-2.8,3.8-4.4,5-7.2,5.5-5.4.9-10.3,2.1-12.2,2.9-1.5.6-1.5.2.1-5.2,3.1-10.2,5.8-15.1,9.3-17.3,12.4-7.6,29.8-13.8,38.8-13.9h3.5l-2.5,1.7ZM314.31,440.49l8.2,1.2-4.6,2.9c-10,6.3-27.4,20.2-30.5,24.4s-4,4.7-15.2,8.3c-6.5,2.2-12.1,3.8-12.3,3.6-1-1.1,4.4-8.8,10-14.3,11.4-11.2,31.1-27.1,33.7-27.2,1.4-.1,6.2.4,10.7,1.1ZM340.41,444.89c3.7.8,6.9,1.7,7.1,1.8.1.2-2.8,2.3-6.5,4.7-7.6,4.9-22.2,18.5-25.4,23.5-1.2,2-3.4,3.7-5.4,4.4-4.6,1.5-18.9,4.9-19.3,4.6-.5-.6,2.7-7.2,4.8-9.9,1.3-1.6,7-6.5,12.9-11,5.8-4.5,13.3-10.8,16.6-13.9,3.3-3.2,6.5-5.7,7.2-5.8.6,0,4.2.7,8,1.6ZM364.01,451.39l7,2.1-5.9,3.2c-8.3,4.4-11.8,7-20,14.5-4.8,4.5-10.3,8.3-17.3,11.9-9.7,5-10.2,5.2-8.3,2.5,4.1-5.7,14.9-17.2,21.7-23.1,3.9-3.3,8.6-7.6,10.4-9.6,1.9-2,3.9-3.6,4.4-3.6.6,0,4.1.9,8,2.1ZM379.61,471.09c-11.9,12.5-16.7,15.6-26.5,17.2-3,.5-5.9,1.2-6.4,1.5-1.5.9-1.2-2.2.4-5.3,2.5-4.7,13.8-14.8,24-21.5l9.9-6.4,4.8,1.5,4.8,1.5-11,11.5ZM229.01,467.49c-1.4,3.5-3,8-3.7,10.2-.9,3.1-2.3,4.7-7.1,7.9-3.3,2.3-8,6-10.5,8.2-2.5,2.3-10.1,8.4-17,13.5s-16.3,12.8-21,17c-9.9,8.9-17.3,14.2-32.3,23.1-6,3.5-14.6,9.2-19.2,12.7-7,5.2-9.4,6.5-14.2,7.2-3.1.5-5.9.8-6.1.5-.7-.7,37.2-38,48.8-48,21.9-18.9,26.4-22.2,54.8-40,6.1-3.9,15.1-9.6,19.9-12.7,4.9-3.1,9.1-5.7,9.5-5.8.3,0-.5,2.8-1.9,6.2ZM409.01,469.69c-10.6,5.7-22.3,15.3-26,21.4-1.2,2-3,4-4,4.4-2.3.9-7.3,1-7.3.1,0-1.2,5.5-7.8,13.7-16.5,4.5-4.9,9.4-10.5,10.8-12.7l2.6-3.8,8,2,8.1,2-5.9,3.1ZM248.21,483.89l-2.4,6.9-10.8,7.8c-5.9,4.3-14.2,10.6-18.3,14s-10.6,8.6-14.5,11.6c-3.8,3-11.3,9.3-16.5,14.1-10,9.1-19.7,15.4-36.8,23.9l-10.3,5.2.6-3.8c.9-5.2,2.6-9.6,4.1-10.6,1.2-.7,21.4-17.2,33.7-27.5,2.9-2.4,15-11.8,27-20.8,16.7-12.7,22.7-16.6,25.3-16.9,3.1-.3,5.3-1.4,16.8-8.6,2.2-1.4,4.2-2.5,4.3-2.5.1.1-.8,3.3-2.2,7.2ZM279.71,484.49c-1.4,3.1-3.8,5.6-10.2,10.1-12.3,8.8-23.6,18.5-39.4,33.8-9.6,9.3-16.2,14.8-20.9,17.4-3.7,2.1-10.2,6.4-14.5,9.6-11.2,8.2-16,11.3-16.7,10.6-.3-.4.7-4.6,2.3-9.4,4-11.9,5.5-13.4,45.9-43.8,13.8-10.3,25.9-19,27-19.2,4-.9,19.1-7.8,23-10.5,2.2-1.5,4.3-2.7,4.7-2.8.4,0-.1,1.9-1.2,4.2ZM310.91,497.59l3.6,1.8-17.2,16.9c-20.1,19.8-33.9,30.1-43.8,32.8-3.2.9-3.9.7-5.9-1.4l-2.2-2.4,6.4-6.6c10.3-10.6,30.3-28.9,38.2-34.7,3.9-3,9.2-7.6,11.7-10.1l4.5-4.7.5,3.3c.4,2.6,1.3,3.7,4.2,5.1ZM294.31,493.59c-4.3,3.5-28,24.6-49.5,44.1-7.3,6.6-14.1,12.5-15,13s-3.3,2.2-5.3,3.8c-3.4,2.6-9.8,5.4-9.8,4.2,0-1.4,4.7-9.5,7.7-13.2,7.8-9.6,30.7-31.3,43.1-40.9,11.4-8.8,13.5-10.1,15.5-9.4,2.3.9,9.7-1.1,14.3-3.8,3.4-1.9,3-1.1-1,2.2ZM333.41,496.19c-1.1,4.9-1,5.5.8,6.7,1.9,1.2,1.3,2.1-10.5,14.2-7.7,8-14.2,13.8-17,15.2-2.5,1.3-7.7,4.5-11.7,7.1-4,2.7-7.7,4.9-8.3,4.9-.5,0-1-1.9-1-4.2,0-4,.5-4.6,18.2-22.7,15.1-15.4,29.3-28,30.4-26.8.1.1-.3,2.6-.9,5.6ZM359.71,496.79c-2.5,4.1-2.1,8,1,9,1.8.6,1.5,1.4-4,8.3-9,11.7-20,22.5-24.8,24.6-2.3,1.1-4.5,1.6-4.8,1.3-.9-.9,1.5-12.6,3.3-16.2,4.2-8,21.3-26.4,26.8-28.7,2.2-.9,4.1-1.7,4.3-1.7.2-.1-.6,1.5-1.8,3.4ZM381.01,506.49c1.7,4.1,3.8,5.9,7.8,6.7l3.1.6-8.5,9.1c-5.3,5.5-10.4,10-13.4,11.5-2.6,1.3-6.7,3.6-9,5.1-2.3,1.6-4.4,2.8-4.7,2.8-.8,0,.1-4.3,1.7-8.5,2.3-6.3,19.2-30.3,21.4-30.5.2,0,.9,1.5,1.6,3.2ZM406.91,515.99c1.3,1.6,5.7,1.7,9.4.3,2.6-1,2.5-.9-1,3-2,2.3-4.2,5.2-4.8,6.5s-4,4.7-7.6,7.7c-3.6,2.9-9,7.5-12.1,10.1l-5.6,4.9-.8-4.5c-.8-3.9-.5-5.2,2.2-10.6,1.7-3.3,6.6-10,10.9-14.8,6.9-7.8,7.7-8.5,8-6.3.2,1.4.9,3.1,1.4,3.7ZM398.01,681.59c5.9,5.5,10.7,10.6,10.7,11.4,0,3.9-3.5,1.7-14.2-8.9-6.3-6.2-13-12.5-14.8-13.9-3.1-2.3-3.3-2.8-2.1-4.3,1.5-1.8.8-2.4,20.4,15.7ZM388.41,702.99c7.9,8.6,8.1,8.9,6.5,11-1.7,2.2-1.8,2.1-10.7-7.7-10.5-11.8-10.9-12.3-10-15.8l.7-2.7,2.6,3.1c1.5,1.7,6.4,7.2,10.9,12.1ZM370.31,725.49c2.6,4,5.9,8.9,7.2,11l2.3,3.6-4.1,7.7-4.2,7.6-1.7-2.8c-1-1.5-4.3-7.8-7.5-13.9l-5.9-11.1,3.8-5.1c2.1-2.8,4.2-4.9,4.6-4.7.4.3,2.8,3.7,5.5,7.7ZM327.51,789.79c2.7,7.7,7.2,19.5,10,26.2l5.2,12.2-1.9,4.3c-1.1,2.4-3.4,9.4-5.2,15.5-1.7,6.2-3.5,11.3-3.9,11.3-.3,0-2.5-6.4-4.9-14.3-5.8-19.1-6.4-20.9-10.6-30.7-2-4.7-5-11.6-6.6-15.4l-2.9-6.8,2.3-2.8c1.2-1.5,4.4-5.4,7.2-8.8,2.7-3.4,5.3-5.8,5.7-5.4s2.9,7,5.6,14.7ZM268.11,849.49c2,5.6,3.4,10.3,3.1,10.6-.6.6-15.5-10.9-15.5-12,0-1.4,6.4-8.8,7.6-8.8.6,0,2.8,4.6,4.8,10.2Z"/>
      <path class="cls-7" d="M773.61,608.49c-2.5-10.2-9.9-30.2-13.3-36.2-.7-1.25-1.33-2.42-1.8-3.35-.16-.15-.34-.28-.57-.34-.41-.11-.88-.09-1.32-.05-.23.07-.46.12-.7.14-.24.02-.48.01-.72,0-.13.02-.27.03-.39.06-.24.06-.45.22-.68.33-.51.78-1.5,1.87-3.01,3.31-1.9,1.8-6.1,6.8-9.2,10.9-12.2,16.2-29.8,32.6-49.2,45.8-15.6,10.6-18.7,15.6-14,22.3,1.4,1.9,3.9,3.4,7.6,4.6,9.8,3.1,25.5-.1,48.3-9.6,5.2-2.2,7.7-2.8,8.6-2.1.9.7,1.4,6.7,1.8,19.8.5,16.7.8,19.6,3.2,27.2l2.7,8.5,2.4-4.5c1.3-2.5,2.3-5.2,2.4-5.9,0-.8,1.1-2.6,2.4-4,4.6-5,8.8-29.7,8.8-51.6,0-16-.9-21.8-5.8-38.1-2-6.4-3.4-11.8-3.1-12,.6-.7,6.1,12.7,8,19.6,5.6,20.1,4.3,57.5-2.6,74.9l-2.2,5.6,2.4,2.4c2.2,2.2,2.3,2.8,1.8,10.3-.6,9,0,9.1,4.5.8,10.6-19.3,12-54.7,3.7-88.8Z"/>
      <path class="cls-7" d="M980.71,557.99c-2.5-1.7-9.2-7.4-15-12.7-14.2-12.9-28.9-25.2-32.2-26.9-1.5-.8-11.2-8-21.5-16-22.9-17.8-29.6-22.7-43.8-32.1-6-4-13-8.7-15.5-10.5-18.9-13.6-54.5-30.8-76.5-37.1-6.4-1.8-22.6-2.5-33.5-1.4-13.6,1.3-28.3,5.1-40,10.3-3,1.3-9.8,3.9-15,5.7-5.2,1.9-16.7,6.2-25.5,9.7s-16.8,6.3-17.7,6.3c-1.1,0-1.8.8-1.8,2,0,2.1-1.5,2.6,21-6.2,4.1-1.6,12.5-4.6,18.5-6.7,6.1-2.1,12.8-4.6,15-5.5,9.3-4,28.3-9.7,36.8-11,22-3.6,35.5-3.1,50.1,1.9,18.6,6.2,54.3,24.2,66.6,33.5,1.9,1.5,10.7,7.5,19.4,13.4,8.8,5.9,18.5,12.7,21.5,15,3.1,2.3,13.8,10.5,23.7,18.2,10,7.6,21.2,16.1,25,18.8,9.9,7.3,23.8,19.7,29.7,26.8,7.8,9.2,12.7,15.7,12.7,16.8,0,1.7-1.6,1.1-4.1-1.6-1.3-1.5-4.6-4.3-7.4-6.4-2.7-2-9.3-7.9-14.5-13.1-12.8-12.7-40.3-37.2-52-46.2-5.2-4-17.1-12.2-26.5-18.1-9.3-6-18.8-12.1-21-13.7-11.2-8.2-19.1-13.2-28.1-17.9-5.4-2.9-11-6-12.4-7-4.3-3-22.1-10.7-31-13.3-11.7-3.5-27.8-4.4-42.5-2.3-13.4,2-37.7,8.9-68.7,19.8-32.9,11.4-31.8,10.9-31.8,15.7s.8,7.1,2.7,7.1c3,0,31.4,21.8,34.8,26.7,1.7,2.6,2.5,6.6,1.6,8.1-1.3,2.2-7.4-1-14.4-7.6-5.2-4.8-10.9-9.8-21.9-19-1.7-1.4-1.8-1.1-1.8,4.6v6.2l7,5.7c5.4,4.4,7.1,6.5,7.6,9.1.4,1.8.4,3.6.1,3.9-.3.3-3.6-1.1-7.3-3.1-3.6-2-6.9-3.5-7.1-3.2-.3.3-.9,3.9-1.4,8.2-.8,7.6-.8,7.7,2.1,11.4,1.6,2,3.6,4.3,4.5,5,.9.7,3.4,4.3,5.6,7.9,2.2,3.6,5.5,8.7,7.4,11.4,3.5,4.9,3.7,6.6,1.5,14.6l-.6,2.5-4.5-4.1c-4.4-4.1-18.7-14.3-20-14.3-.3,0-.9,1.9-1.3,4.2-2.8,17.7-8.7,32.2-18.1,44.5l-5.5,7.2,11.2,12.1,11.1,12.1,1.9-2.8c1.1-1.5,5.5-8.4,9.8-15.3,4.3-6.9,10.4-16.4,13.4-21.3,3.1-4.8,6.3-8.7,7.1-8.7.3,0,.58.06.82.16.7-.22,1.45-.35,2.25-.38.53-.02,1.07-.01,1.61-.02.23,0,.36,0,.44,0,.06-.02.15-.05.28-.08.42-.11.85-.25,1.28-.34.04,0,.07-.01.11-.02,1.76-1.21,3.87-2.77,5.33-3.92,3-2.5,4-2.7,10.8-2.5,6.5.2,8-.1,11.6-2.4,2.2-1.4,4.5-3.7,5-5,1.1-2.8,5-3.4,9.5-1.3,2.6,1.2,6.4.4,12.2-2.4,1.8-.9,2.8-.5,6.5,2.3,1.17.93,2.27,1.83,3.1,2.56,1.7.72,3.4,1.44,5.16,1.96,1.05.31,2.14.61,3.23.72.77.08,1.51,0,2.26-.14.67-.34,1.29-.58,1.85-.69,1.02-.22,1.79-.32,2.29-.27.95-.1,1.92-.08,2.87-.06.37-.15.72-.34,1.08-.49.25-.49,1.93-1.67,4.05-2.68l4-2.1,4.5,4.1c9.3,8.5,16.8,9.7,27.9,4.3l5.1-2.5,3.5,3.2c6.1,5.7,10.8,8.2,15.6,8.2,4.3,0,10.2-1.8,11.3-3.4.3-.4,2.2-1.4,4.2-2.2,3.2-1.4,3.7-1.4,4.9,0,2.2,2.7,9.9,7.6,13.5,8.6,4.1,1.1,9.3-.3,11.9-3.2,2.6-2.9,5-2.5,10.8,2,6.9,5.1,11.5,7,17.6,7,4.7,0,5.1-.2,9.1-5,4.4-5.2,5.9-5.9,8.3-3.6,1.8,1.8,13.1,8.7,19.6,12.1,8.4,4.2,12.7,3,13.7-4,1-6.8.9-6.7,6.5-3.4,2.8,1.6,8.6,4.2,12.8,5.6,13.9,4.6,22.8,1.9,26.7-8.2,3-7.9-1.2-15.9-12.6-23.8ZM796.81,444.89c7.4,1.7,16.8,5.7,26.6,11.4,5.6,3.2,6.5,4.6,10.4,16.4,2.4,7.3,2.4,7.9.1,6.7-1-.5-4.8-1.5-8.4-2.1-6.2-1.1-6.8-1.5-10.7-6.2-4.4-5.5-11.3-11.8-23.1-21.1-4.1-3.3-7.7-6.1-7.9-6.3-1-1,6.3-.3,13,1.2ZM754.31,445.79c2.7-.4,5.4-.8,5.9-1,.6-.2,3.1-.4,5.7-.4,4.5-.1,5,.2,20,12.7,16.8,14.1,21.7,19.1,24.8,25.2,1.1,2.2,1.9,4,1.8,4-.2,0-5.7-1.8-12.3-3.9-11.3-3.7-12.2-4.2-15.5-8.5-3.6-4.6-18.7-16.8-29.4-23.6l-5.9-3.8,4.9-.7ZM730.01,449.99c10-2.4,10.7-2.3,16.2,3.4,2.8,2.8,10.2,9,16.5,13.8,13.5,10.4,14.2,11.1,16.9,17.4,1.9,4.4,1.9,4.8.3,4.3-.9-.3-5.7-1.5-10.7-2.7-7.7-1.9-9.4-2.7-12-5.7-9-10.6-16.9-18-24.7-23.2l-8.7-5.9,6.2-1.4ZM702.71,457.89c.8-.3,4.2-1.4,7.5-2.5l6-1.8,14.4,13.6c7.9,7.5,16.3,16.2,18.8,19.3,2.4,3.2,4.1,5.8,3.8,5.8-.4,0-4.6-2.1-9.3-4.7-4.8-2.5-9.6-5.1-10.7-5.7-1.1-.6-3.8-3-5.9-5.4-4.7-5.2-11.8-10.5-20-14.8-3.9-2.1-5.5-3.5-4.6-3.8ZM685.61,462.99c2.5-.8,4.8-1.6,4.9-1.6.2-.1,5,2.9,10.5,6.6,11.8,7.7,21.1,16.1,23.9,21.6,1.1,2.2,1.7,4.1,1.4,4.4-.8.8-15.9-2.6-18.3-4.2-1.2-.8-2.7-1.5-3.2-1.5s-3.8-3-7.3-6.8c-3.4-3.7-8.6-9-11.4-11.8l-5.1-5.1,4.6-1.6ZM664.21,475.19c-3.8-2.1-6.8-3.9-6.5-4,.3,0,3.7-.9,7.5-1.8l7-1.8,3.5,4.1c1.9,2.2,6.4,7.2,10,11.1,7.4,7.9,14,15.9,14,16.9,0,.3-1.9.6-4.2.6-3.9,0-4.5-.3-6.3-3.7-2.6-4.9-16.2-16.5-25-21.4ZM687.51,549.19l-1.3,4-3.5-3.4c-1.9-1.8-6.4-5.5-9.9-8.2-7.6-5.6-20.8-21.9-16.5-20.3,5.4,2.1,10.4,0,10.4-4.4,0-3.5,13.3,11.7,18,20.6,3.9,7.4,4,7.8,2.8,11.7ZM715.61,546.19c-.3.7-2,.1-4.2-1.5-2.1-1.4-6.4-4-9.6-5.7-3.8-2.1-8.6-6.2-13.6-11.7l-7.8-8.4,2.8-.8c3.8-1,7.3-4.4,8-8,.6-2.5.9-2.7,2.2-1.6.9.7,3.4,3.8,5.7,6.8,11.6,15.7,17.7,27.2,16.5,30.9ZM745.31,544.99c-.3.4-2.9-.4-5.6-1.7-5.3-2.5-17.1-14.3-25.3-25.4l-4.4-5.8,2.4-2.4c2.9-2.9,2.9-3.3-.2-7.8l-2.5-3.7,2.2.7c1.3.3,3.5,1.3,5,2,4.6,2.3,22.9,22.8,24.7,27.7,1.8,4.6,4.3,15.8,3.7,16.4ZM786.41,544.79c-.3,2.1-.8,4-1.1,4.3-.3.3-3.8-1.8-7.8-4.5-4-2.8-9.3-6.1-11.8-7.3-2.7-1.3-9.6-7.5-17.2-15.2-12.6-12.8-12.7-12.9-10.8-14.8,2.4-2.4,2.4-2.6.5-8-.8-2.3-1.5-4.4-1.5-4.6s2.6,1.4,5.8,3.5c3.1,2.2,14.4,12.8,25.1,23.5q19.4,19.4,18.8,23.1ZM824.21,552.29c-3.4,3.8-8.6,2-23.5-8.2-10.8-7.4-45.2-40.8-42.1-40.8s7.1-3.9,7.1-6.8c0-2.5.4-2.3,6.3,3.4,3.4,3.4,8.9,8.1,12.2,10.6,8.8,6.6,29.1,25.4,35.9,33.2,5.7,6.5,5.8,6.7,4.1,8.6ZM848.51,559.99c-2.4-1.8-5.4-4-6.8-4.8-1.4-.9-6.8-5.7-12.1-10.5-13.6-12.6-39.6-35.8-48.5-43.2-4.1-3.4-7.3-6.2-7.1-6.2.3,0,3.1,1.2,6.3,2.6,4.2,1.8,7,2.5,9.6,2.1,3.4-.5,4.6.2,16,9,20.4,15.6,48,44.2,50.3,52,1,3.4-2.4,3-7.7-1ZM894.31,571.09c-.7.6-7-3.3-15.7-9.9-4.2-3.2-11.1-7.8-15.5-10.4-5.5-3.3-11.9-8.6-20.9-17.4-14.1-13.8-26.1-24.1-39.5-33.8-6.5-4.7-9.1-7.3-10.7-10.7l-2.2-4.4,6.2,3.7c3.4,2.1,10,5.2,14.7,7,4.7,1.8,9.5,3.8,10.7,4.4,3.9,2.2,49.7,37,57.3,43.6,8.9,7.9,9.7,8.7,10.9,12.6.6,1.6,1.9,5.7,3.1,8.9,1.1,3.3,1.8,6.1,1.6,6.4ZM932.51,571.29c-1.3,0-19.9-9.5-28.4-14.6-4.3-2.5-11.9-8.3-16.9-12.8-4.9-4.6-12.4-10.9-16.6-14.2-4.1-3.2-10.7-8.5-14.5-11.7-3.8-3.2-12.4-9.7-19.1-14.5-10.2-7.1-12.3-9.1-12.3-11.2,0-1.4-.9-4.4-2-6.8-1-2.3-1.7-4.2-1.4-4.2.2,0,4.4,2.5,9.1,5.5,5.7,3.6,9.8,5.5,11.7,5.5,2.4,0,7.7,3.5,24.7,16.2,11.8,9,25.3,19.4,29.9,23.3,4.6,3.8,13.9,11.5,20.7,17,6.8,5.6,13,11.2,13.7,12.7,1.6,3,2.5,9.8,1.4,9.8ZM968.51,572.29c-4.9-.7-7-1.7-13.6-6.7-4.3-3.2-11.5-8.1-16.1-10.8-16-9.5-28.7-18.5-37-26.1-4.7-4.2-13.7-11.5-20-16.2-6.4-4.7-14.8-11.4-18.7-14.8-4-3.4-9-7.3-11.3-8.6-2.2-1.2-4.1-2.9-4.1-3.5,0-.7-1.7-5.5-3.9-10.7l-3.9-9.5,5.7,3.6c3.1,2,8.5,5.4,12.1,7.6,35.5,21.6,48.9,31.4,73,52.9,11.7,10.5,44.3,42.9,43.7,43.4-.1.1-2.8-.2-5.9-.6Z"/>
      <path class="cls-7" d="M309.81,575.19c-5.9,5.9-13.6,20.9-18,35.1-2.2,6.9-4.2,14.1-4.5,16-1.6,9.5-3.6,28.1-3.6,33.3,0,7.7,3.4,22.6,6.8,29.6,3.8,7.8,10.9,15.1,14.8,15.1s7.1-2.4,8.9-6.7c1.6-3.8,3.3-28.4,3.1-44,0-5,.2-9.5.6-9.9.8-.8,11.6,1.3,13.3,2.6,1.8,1.3,22,7.8,28.2,9,9.7,1.9,15.6.1,9.8-3-4.1-2.2-4.3-5.5-.6-10,1.7-2.1,3.1-4.2,3.1-4.6s.7-1.6,1.7-2.6c.9-1,1.4-2,1.2-2.1-.2-.2-4.3-3.4-9.2-7.1-13.4-10.4-35.4-34.2-48-52.1-1-1.4-2.2-2.5-2.7-2.5-.6,0-2.8,1.8-4.9,3.9ZM314.71,592.69c0,.7-1.5,4.7-3.4,8.9-5.9,12.9-9.5,26.8-10.3,39.3-.7,13.8,1.1,31.4,4.3,40.9,4.4,13,2.1,17.3-3.3,6.2-5.1-10.2-6.8-19.9-6.7-37.7,0-15.4,0-15.5,4.3-29,3.9-12,9.5-25.3,12.3-28.8,1.4-1.6,2.8-1.5,2.8.2Z"/>
      <path class="cls-7" d="M603.31,614.19l-7.9,8,11.9,13.2c6.5,7.3,14.4,16,17.4,19.5,3,3.4,11.8,13.1,19.4,21.5,7.7,8.5,19.4,21.5,26,28.9,6.7,7.4,16.2,17.9,21.2,23.4l9,9.9-8.1,8.1c-38.3,38.2-39.8,85.8-3.7,119.7,4.8,4.5,11.4,9.9,14.6,12.2,7.5,5.1,26.6,14.2,34.2,16.3,9.2,2.5,23.7,3,31.4,1,8.5-2.2,21.9-9.8,28.8-16.2l5.4-5.2,3.4,1.4c3.8,1.6,10.8,2.1,13.9,1.1,1.5-.5,2.5.1,4.3,2.9,3,4.6,6.3,5.8,10.6,4,4.6-1.9,6.6-7.4,4.1-11.3-.9-1.4-2.9-3-4.5-3.6-2.5-1-2.6-1.3-1.7-4.3.7-2.1.6-5.9,0-11.3-1.2-9-2.4-10.9-14.6-23.7-3.7-3.9-10.5-11.4-15-16.7s-12.6-14.5-18-20.3c-5.4-5.9-14-15.7-19.2-21.8-5.1-6.1-11-12.7-13.1-14.6-4.6-4.1-3.3-2.5,6.7,9.1q26.2,30.4,32.9,37.5c2.7,2.8,7.5,8.4,10.8,12.5s9.5,11,13.7,15.4c10.9,11.2,12.4,13.5,13.5,19.6.4,3,1.1,6.2,1.5,7.1.5,1.2-1.2,3.5-5.9,8.2-3.6,3.6-6.3,6.6-5.9,6.6,1.7,0,7.8-4.7,9.4-7.4,1.2-1.9,1.9-2.5,1.9-1.5,0,1.5-7,8.7-8.8,9-.4.1-1.6.3-2.7.5-5.5,1-11.3.8-13.5-.6-1.1-.7-.1-2.2,5.2-7.4,10.2-9.9,12.1-12.9,11.4-17-.7-3.6-6.6-12.1-13.2-19.1-2.1-2.2-7.5-8.7-12.1-14.5-13.6-17.1-16.1-20.2-23.1-27.5-3.7-3.8-8.3-9-10.3-11.5s-6.8-7.9-10.7-12.1c-4-4.2-7.2-8-7.2-8.5,0-.4.7-1.5,1.5-2.4,2-2.2,1.3-4-2.4-6.5-1.6-1-2.7-2.3-2.4-2.8s0-1.3-.8-1.8c-1-.6.1-2.3,4.4-6.8,8.2-8.5,12.2-17.6,14.7-33.1,1.4-8.6-.9-18.4-2.6-11.3-.4,1.5-2.2,6-3.9,9.9-5.4,11.8-21,25.8-30.9,27.6-1.9.3-11.5-9.9-53.9-57.2-12.2-13.5-14.8-16.4-26.8-29.5-3.5-3.9-11.9-13.3-18.7-20.8s-12.7-13.7-13.1-13.7c-.3,0-4.2,3.6-8.5,7.9ZM624.31,634.19c3.5,8.6,4.6,12.3,3.4,11.6-.4-.2-3.3-3.6-6.4-7.4-4.2-5.1-6-8.4-7.2-12.7-.8-3.3-1.7-6.8-2-7.9s1.6.4,4.3,3.4c3,3.5,5.9,8.2,7.9,13ZM643.91,653.79c4.5,6,5.8,8.6,6.3,13.1.2,2.4.1,2.4-3.9-.9-3.6-3-4.4-4.4-6.3-11.7-1.2-4.6-1.8-7.9-1.4-7.4s2.8,3.6,5.3,6.9ZM674.51,691.99c3,3.6,5.2,7.2,5.2,8.5l-.1,2.3-2-2.5c-1.2-1.4-4.4-5-7.1-8-4.9-5.4-5.9-7-7.2-12-.6-2.1-.2-1.9,2.6,1.4,1.8,2.2,5.7,6.8,8.6,10.3ZM755.21,712.89c-4.8,10.9-12.8,20.9-19.5,24.4-1.9,1-7.8,5.6-13.1,10.2-5.3,4.5-16.4,14.1-24.8,21.2-18,15.3-24.6,22.3-27.7,29.3-2.7,6-3.3,6.6-2.7,2.5,1.9-12,5.1-19.7,14.5-34.3,8.6-13.2,17.7-19.9,46.4-33.8,14-6.9,16.6-8.5,20.7-13.2,2.6-2.9,5.5-7.3,6.4-9.6,1-2.4,1.9-3.9,2.1-3.5.1.5-.9,3.5-2.3,6.8ZM731.21,746.09c-.6.5-3.6,3.2-6.8,6.2-3.1,2.9-6,5.1-6.3,4.7-.5-.5,12.4-11.7,13.5-11.7.3,0,.1.4-.4.8ZM735.71,746.99c0,1.8-11.8,13.3-13.7,13.3-3.1,0-1.7-2.4,4.9-8.4,4-3.6,7.6-6.6,8.1-6.6.4,0,.7.8.7,1.7ZM736.71,752.49c0,1.6-11.3,10.8-13.1,10.8-1.4-.1,10.9-12,12.4-12,.4,0,.7.6.7,1.2ZM739.01,756.59c-1,1.8-10.4,9.7-11.5,9.7-2,0-.3-2.1,5.3-6.9,5.9-5,8-5.9,6.2-2.8ZM709.51,764.99c-4.6,4.9-13.4,17-25.1,34.8-5.5,8.2-11.7,20.5-11.7,23,0,.8-.4,1.6-.9,2-1.5.8-2.5-3.4-2.3-9.7.2-12.2,9.2-25,31.2-44.4,10.7-9.5,15.3-12.4,8.8-5.7ZM720.51,767.29c.7,0,1.2.7,1.2,1.5s.8,1.9,1.9,2.4c1,.6,2.2,2.2,2.5,3.6.4,1.4,2,3.2,3.9,4.1,3.7,2,5.6,4.2,5.7,6.7,0,1,2,3.8,4.5,6.4,2.5,2.5,4.5,5.5,4.5,6.6,0,2.2,3.6,6.7,5.5,6.7.6,0,2.3,1.9,3.8,4.2,1.5,2.4,4,5.2,5.7,6.3,1.6,1.1,3,2.6,3,3.4,0,1.9,3.9,6.1,5.7,6.1.7,0,1.3.7,1.3,1.5,0,.7.6,1.8,1.4,2.2s1.5,1.6,1.7,2.6,1.8,2.6,3.4,3.5c1.7.9,3.2,2.1,3.4,2.5.1.4,2.6,3,5.5,5.7,9.1,8.8,9.8,9.5,11.5,12,1.1,1.6,1.6,4.6,1.6,9v6.5l-6.6,6.7c-9.9,10-20.6,14.3-35.9,14.2-20.6-.2-30.3-4.6-54.9-25.3-7.2-6-18.2-19.3-23.5-28.4-2.6-4.3-2.6-4.4-1-9.8.9-3,2.4-6.8,3.3-8.4,1-1.7,2.4-4.6,3.2-6.5,1.9-5,8.6-16.6,13.1-22.7,2.1-2.9,3.8-5.5,3.8-5.8,0-1.2,4.9-7.8,10.5-14.2,5.3-5.9,5.9-6.3,7.4-4.9,1,.9,2.3,1.6,2.9,1.6ZM755.61,767.69c.9,1-.4,2.3-6.1,6.2-13.4,9.1-12.8,8.7-12.8,7.2,0-.8,2.4-3.1,5.3-5.1s6.6-5,8.2-6.7c3.2-3.4,3.8-3.6,5.4-1.6ZM765.21,781.09c-.6.5-5,3.7-9.8,7.1-6.5,4.7-9.2,6-10,5.2s-.8-1.1.2-1.1c1.5,0,13.7-8.8,16.6-12,1.3-1.4,2.2-1.7,2.9-1,.6.6.6,1.3.1,1.8ZM775.41,790.89c.2.5-1.1,1.8-2.9,2.9-1.8,1-6.6,4.3-10.5,7.2-4,3-7.3,5-7.3,4.6.1-.4,2.8-2.8,6-5.2,3.3-2.5,7.4-6,9.2-7.8,3.1-3.2,4.8-3.7,5.5-1.7ZM783.51,801.49c-.5,1.5-8.3,7.6-15,11.8-7.6,4.7-6.5,1.6,1.4-4.3,4-2.9,7.9-6.1,8.7-7,1.6-2,5.5-2.3,4.9-.5ZM790.11,817.09c-4.1,3.6-14.9,10.2-16.9,10.2-.3,0-.5-.6-.5-1.3,0-.6,2.9-2.5,6.4-4,3.5-1.6,8.1-4.6,10.1-6.7,2.1-2.2,4.3-3.6,4.9-3.3.5.4-1.2,2.6-4,5.1ZM668.31,824.79c2.6,8.6,10.5,21.7,19.8,32.9,4.8,5.9,20.5,19,29.4,24.8,3.4,2.3,6.2,4.2,6.2,4.4,0,.9-15.9-8-21.8-12.3-3.6-2.6-10.5-8.5-15.2-13.2-7.5-7.4-9.3-10-13.7-19.1-5-10.2-7.4-18.2-7.2-23.8.1-2,.2-2.2.6-.7.2,1.1,1.1,4.2,1.9,7ZM800.81,828.69c-1.9,1.9-5.9,4.5-9,5.7s-6.2,2.7-6.8,3.2c-.9.6-1.3.5-1.3-.5,0-.8,1.6-2.2,3.6-3.1,5.9-2.9,14.5-9.7,13.8-11-.4-.7.1-.4,1.2.5,1.8,1.7,1.7,1.9-1.5,5.2ZM812.61,835.99c-.1,1.4-14,12.3-15.6,12.3-.8,0,1.2-1.8,4.5-4s6.7-5.1,7.6-6.5c1.6-2.4,3.7-3.4,3.5-1.8ZM830.61,876.69c.9,1,.9,1.6.1,2.1-1.6,1-4-.2-4-2,0-1.9,2.4-2,3.9-.1Z"/>
      <path class="cls-7" d="M555.21,653.39c-9.9,6.7-16.9,10.9-18.5,10.8-1.4,0-7.1-3-13-6.9-5.7-3.8-10.6-6.7-10.8-6.5s.3,3.7,1.1,7.7c.9,4,2.3,11.3,3.2,16.3,3.4,19.3,6.6,36.3,8.2,43.2,1.7,7.1,1.6,7.3-.3,8.8-8.1,6.1-37,16.4-47,16.7-10.1.4-9.7,1.7-8.9-28.4.7-25,.7-25.9-1.4-31.1l-2.2-5.3-5.7,2.8c-8.6,4.2-17.4,6.7-26.5,7.4-7.4.6-8.5,1-11.5,3.8-1.8,1.7-4.7,5.6-6.5,8.6-1.7,3-5.7,9.5-8.9,14.5-3.2,4.9-5.8,9.3-5.8,9.7,0,.8,6.2,3.7,16,7.5,3.6,1.3,15.3,4.7,26,7.4,38.5,9.6,56.4,16.8,68.6,27.3,4.2,3.5,13.4,16.3,13.4,18.4,0,2.6-2.9.9-7.4-4.3-5.8-6.8-12.7-11.6-27.1-18.8-12.6-6.3-22.6-9.5-40.5-13.1-17.3-3.5-30.5-7-43.8-11.5l-11.3-3.8-2.5,3.6c-1.3,1.9-2.4,4-2.4,4.6,0,1.9,14.6,10.5,24.6,14.6,11,4.5,29,10,40.4,12.3,16.7,3.4,38.7,13,50.8,22.1,7.7,5.8,12.4,12.2,14.7,20.2,2.4,8.2,6,14.7,8.7,16,1.8.8,3.2.7,5.9-.4,5.5-2.3,8.8-6.2,13.9-16.3,13.2-26.1,23.5-32.9,64.5-42.6,3.9-.9,10.8-3.2,15.5-5,4.7-1.9,12.8-5,18-6.9,18-6.4,44-19.8,44-22.6,0-.6-1.7-2.8-3.7-5l-3.8-4-6.5,2.9c-12.5,5.7-42.7,16.1-68.6,23.6-31.7,9.2-42.6,13.2-51.8,19.4-11.3,7.5-17.4,14.8-21.7,26.4l-2,5.3.4-4.7c1.2-13.3,14.7-27.3,34.6-35.9,8.4-3.6,25.5-9,49.9-15.9,18.7-5.2,51.4-16.9,60.8-21.8l3.3-1.7-9.1-10c-5.1-5.5-12-13.2-15.5-17l-6.4-7-12.7.3c-11.2.3-13.4.1-18.6-1.9-18.6-6.9-36.1-22-44.1-38-2-3.8-3.6-6.9-3.8-6.8-.1,0-7.4,5-16.2,11Z"/>
      <path class="cls-7" d="M724.21,652.59c-13.9,6.7-15.6,7.8-23,15.2-4.4,4.5-9.9,8.9-12.2,9.9-2.4,1.1-4.3,2.2-4.3,2.5,0,.6,8.2,10.1,18.9,21.9l5.5,6.1,5-4.2c2.8-2.2,6-5,7.1-6.2,1.1-1.1,3.3-3.2,5-4.5,4.6-3.9-3.4,5.3-10.1,11.5l-5.4,5,2.8,3.4,2.8,3.3,5.4-4.3c2.9-2.4,8.3-7.8,12-11.9l6.7-7.5,1.7-22.9c.9-12.5,1.3-23.2,1-23.7-1-1.7-4-.7-18.9,6.4Z"/>
      <path class="cls-7" d="M321.21,655.49c1.1,15.4,4.6,34.9,7.1,39.9,1.2,2.5,14.9,16.4,16.8,17.1.5.2,2.2-1.3,3.8-3.3l2.9-3.6-5.2-6.9c-9.3-12.3-21.3-41.4-17.1-41.4.4,0,3.1,4.7,5.9,10.4,3.8,7.7,7.2,12.6,12.9,19,4.2,4.7,8,8.6,8.4,8.6.3,0,1.8-2.4,3.3-5.3,2.2-4.1,3-7.3,3.5-14.7.8-8.8.7-9.6-1.3-11.6-1.1-1.1-5.4-3.1-9.5-4.3-7.6-2.3-25.5-9.5-27.4-11-.6-.4-1.9-1.1-3-1.5-1.7-.6-1.8-.1-1.1,8.6Z"/>
      <path class="cls-7" d="M455.11,668.79c-.4,1.1-2.1,1.5-5.9,1.5-5.2,0-5.4.1-12.4,7.2-3.8,4-6.9,7.3-6.8,7.4s2.9-.2,6.2-.6c6.2-.9,24.4-9.3,25.2-11.7.4-1.2-3.4-5.3-4.9-5.3-.5,0-1.1.7-1.4,1.5Z"/>
      <path class="cls-7" d="M385.61,750.49c-1.6,3.8-1.3,8.6.8,14.8.9,2.7,1.5,7.4,1.4,11.6-.3,11.5,3.8,21.8,12.6,31.8,2.4,2.6,4.5,5.8,4.7,7,3,15.5,5.7,21.7,13.2,29.6,4.1,4.4,7.9,6.9,13.7,8.9,1.5.6,2.7,1.8,2.7,2.6,0,2.9,4.8,11.2,8.3,14.2,5,4.4,14,8.4,23.2,10.3,5.6,1.2,9.6,2.8,13.1,5.2,8.9,6,18.9,8.1,39.4,8.4,9.6.1,19.9.6,22.9,1.1,8.5,1.6,17.5.1,24.9-4,5.4-3.2,7.1-3.6,13-3.6,9.5,0,17.1-2.9,27-10.3,2.9-2.2,6.2-5.4,7.2-7.1,1.5-2.4,3.1-3.4,7.2-4.4,16-4.1,27.8-16.3,30.3-31.3.6-3.4,1.7-5.4,4.7-8.3l4-3.9-.7-6.6c-.3-3.7-.2-9.8.4-13.7.6-3.8.9-7.1.7-7.3-.2-.1-2.7,1.9-5.7,4.7-5.3,5-10.9,7.5-19.2,8.4-4.7.6-3.9-.6,3.6-5.5,22.3-14.8,23-15.3,24.4-18.8.8-1.9,2.1-4.9,2.9-6.7.8-1.7,1.4-3.4,1.4-3.7,0-.4,1.8-3.5,4-6.8,3.1-4.8,4-7.2,4-10.4,0-4.9-1.3-6.3-3.8-4.1-.9.8-4.2,2.7-7.2,4.2-6.7,3.4-17.3,11-22.1,16.2-8.1,8.5-11.4,15.1-16.4,33.3-1.5,5.2-1.9,5.7-7.7,9-9.1,5.2-14.1,10.1-18.2,18-2.6,5-4.3,7-5.6,7-4.8,0-18.1,7.2-22.9,12.4-2.3,2.5-2.6,2.5-11.5,1.9-9.3-.5-21.1,1.4-29.6,5-3.3,1.4-3.6,1.4-7.7-1.5-2.4-1.6-5.8-3.5-7.6-4.3-4.5-1.9-15.3-2.7-21.4-1.7-5,.8-5.4.7-8-2-4-4.2-16.9-12.8-22.1-14.8-3.8-1.5-4.7-2.4-6.2-6.2-3.5-9.2-13-20.3-20.2-23.5-3.6-1.6-3.8-1.9-3.8-6.3,0-10.8-3.2-20.6-10.1-30.6-2-2.9-4.1-4.6-7.6-5.9-7.5-2.8-18.4-8.4-23.4-12.1-2.6-1.9-4.9-3.4-5.2-3.4-.2,0-1.1,1.4-1.8,3.2ZM418.21,781.19c-.9,2.7-2.9,6.9-4.4,9.2-2.8,4.3-4.1,7.6-5.8,14.9-1.9,7.6-5.9,1.6-4.8-7,.8-5.5,5.8-14.3,10.2-17.6,1.7-1.3,3.7-4.1,4.5-6.1,1.2-3.7,1.3-3.7,1.6-1,.2,1.5-.4,5-1.3,7.6ZM433.71,819.59c.7,11.4-.1,28.2-1.5,28.2-1.8,0-4.6-11.9-4.8-20.5-.2-9.9.6-13.7,3.1-14.2,2.3-.5,2.8.5,3.2,6.5ZM643.31,837.19c-7.1,7.4-23.5,10.1-30.9,5.1-2-1.4-3.7-2.8-3.7-3.2,0-1.8,16.5-4.4,29.4-4.6l8-.2-2.8,2.9ZM466.01,865.69c1.5,3.2,3,7.3,3.3,9l.5,3-2.2-1.9c-5.5-5.1-10.7-20.1-9.2-26.5.5-2.1,1-1.5,2.8,4,1.2,3.6,3.4,9.2,4.8,12.4ZM587.21,861.39c3.4,1.5,7.1,2.2,12.8,2.3,4.8,0,8.2.5,8.4,1.2,1.5,4.6-12.9,4.5-22.2-.1-9.4-4.7-8.5-7.6,1-3.4ZM503.71,869.39c11.8,12.6,16.2,17.1,19,19.4,2.1,1.6,2.2,2,.8,2.3-3.3.7-13.1-5.1-19.2-11.3-5.8-5.8-13.1-17.6-11.9-18.9,1.5-1.4,3.3,0,11.3,8.5ZM539.71,868.59c0,2,15.9,12.3,20.5,13.4,2.4.5,4,1.4,4,2.3,0,2.8-8.9,1.4-18.2-2.8-4-1.8-11-12.1-9-13.4,1.8-1.1,2.7-1,2.7.5Z"/>
      <path class="cls-7" d="M825.41,854.09c-4.1,6.5-8.4,10.8-13.9,14.1-2.1,1.3-3.8,2.5-3.8,2.7,0,.3.3.4.8.2,11.3-5.6,13.6-7.7,18.7-17,3.8-6.9,2.6-6.9-1.8,0Z"/>
      <path class="cls-7" d="M825.71,858.99c-1.9,2.5-5.9,6.5-8.8,8.9-6.2,5.1-5.6,5.8,1.1,1.3,3.9-2.6,12.6-13.4,11.5-14.4-.1-.1-1.9,1.7-3.8,4.2Z"/>
      <g>
        <path class="cls-4" d="M528.52,653.28c-22.67-15.93-25.03-17.65-31.59-23.02-10.11-8.28-26.12-24.17-32.95-32.71-22.26-28.04-27.36-57.44-28.67-165.58l-.16-17.7,81.78-.31c44.07-.1,96.72-.32,108.15-.56,1.69-.02,3.41-.03,5.04-.03,3.01,0,5.46.03,7.37.08.2,5.03.47,13.3.84,24.28l.25,7.55.04,1.05c.43,11.03.97,24.76,1.3,30.74,1.18,19.33-2.08,49.65-8.51,79.18-4.21,19.37-5.52,22.27-11.83,31.52-13.89,20.68-40.45,44.73-72.89,66.04l-9.09,5.93-9.1-6.46Z"/>
        <path class="cls-4" d="M630.14,420.38c.21,0,.41,0,.61,0,.16,4.64.36,10.57.6,17.64l.25,7.49v.04s0,.04,0,.04l.03.77c.44,11.14.98,25.01,1.31,31.09v.05s0,.05,0,.05c1.14,18.68-2.06,48.27-8.37,77.22-3.99,18.37-4.96,20.54-10.77,29.06l-.02.04-.02.04c-13.37,19.9-39.21,43.24-70.86,64.03l-5.12,3.34-5.22-3.7-.03-.02-.03-.02c-22.45-15.77-24.78-17.46-31.15-22.69-9.62-7.88-25.41-23.54-31.89-31.64-19.83-24.97-25.79-49.19-27.15-161.27l-.1-10.69,74.73-.28c44.07-.1,96.66-.32,108.21-.56,1.72-.02,3.39-.03,4.98-.03M630.14,406.38c-1.66,0-3.4,0-5.2.03-10.55.22-59.18.44-108.03.56l-88.82.33.22,24.76c1.33,110.03,6.66,140.23,30.2,169.87,7.11,8.88,23.54,25.2,33.97,33.75,6.77,5.55,9.22,7.33,31.98,23.32l12.99,9.21,13.1-8.55c33.31-21.87,60.29-46.3,74.83-67.95,7.11-10.44,8.66-14.54,12.88-33.97,6.55-30.09,9.88-61.06,8.66-81.05-.33-6.11-.89-20.32-1.33-31.64-.89-26.42-1.22-36.97-1.44-38.08,0-.37-6.02-.58-14.01-.58h0Z"/>
      </g>
      <g>
        <path class="cls-4" d="M520.8,651.03c-20.75-14.57-22.93-16.17-29.19-21.29-9.83-8.05-24.91-23.04-31.63-31.44-22.41-28.22-27.51-56.15-28.73-157.29l-.26-29.36,87.04-.33c48.56-.11,88.52-.32,97.18-.5,1.72-.02,3.32-.03,4.84-.03,3.71,0,6.92.05,9.28.14,1.31.05,2.33.12,3.1.2,5.21.54,6.67,3.86,7.07,5.81h.02c.27,1.36.35,3.24,1.21,28.69l.23,6.74.03.79c.39,9.92.87,22.27,1.16,27.57,1.13,18.46-1.92,47.16-7.95,74.87-3.96,18.26-5.74,22.89-12.65,33.05-13.62,20.27-38.25,42.69-69.34,63.11l-15.81,10.31-15.59-11.06Z"/>
        <path class="cls-4" d="M620.02,417.79c7.2,0,12.63.19,12.63.53.2,1,.5,10.5,1.3,34.3.4,10.2.9,23,1.2,28.5,1.1,18-1.9,45.9-7.8,73-3.8,17.5-5.2,21.2-11.6,30.6-13.1,19.5-37.4,41.5-67.4,61.2l-11.8,7.7-11.7-8.3c-20.5-14.4-22.7-16-28.8-21-9.4-7.7-24.2-22.4-30.6-30.4-21.2-26.7-26-53.9-27.2-153l-.2-22.3,80-.3c44-.1,87.8-.3,97.3-.5,1.61-.02,3.18-.03,4.67-.03M620.02,403.79c-1.54,0-3.16,0-4.82.03h-.07s-.07,0-.07,0c-8.67.18-48.58.39-97.04.5l-80.02.3-14.07.05.13,14.07.2,22.3c1.18,97.17,5.29,130.16,30.24,161.58l.02.02.02.02c6.96,8.7,22.53,24.18,32.66,32.48,6.44,5.28,8.66,6.9,29.6,21.61l11.67,8.28,7.77,5.51,7.98-5.21,11.8-7.7c31.87-20.93,57.19-44.03,71.34-65.08,7.92-11.64,9.78-17.49,13.69-35.48,6.25-28.69,9.27-57.4,8.1-76.78-.29-5.31-.77-17.67-1.16-27.62l-.02-.58-.22-6.68c-.91-27.06-.94-27.89-1.34-29.86h0c-1.08-5.33-5.31-10.58-13.23-11.4-.92-.1-2.08-.17-3.55-.23-2.46-.1-5.77-.15-9.57-.15h0Z"/>
      </g>
      <g>
        <path class="cls-7" d="M497.53,450.87l33.75-17.75c1.04-.55,2.25-.67,3.38-.34l45.36,13.25c1.93.56,3.26,2.34,3.26,4.35v24.61c0,.31.03.63.1.93l20.14,95.66c.53,2.53-1.16,4.99-3.71,5.4l-77.38,12.5c-.64.1-1.28.07-1.91-.1l-44.26-11.98c-2.36-.64-3.79-3.04-3.22-5.43l21.74-90.98c.08-.33.12-.67.12-1.01l.21-25.16c.01-1.67.94-3.19,2.42-3.97Z"/>
        <path class="cls-7" d="M548.22,439.61c7.6,2.2,18.2,5.2,23.5,6.8l9.8,2.8v13.7l-3.6-.6-3.5-.7.7,3.5c.6,3.5.5,3.6-2.5,3.6-3.3,0-4.2,1.4-1.5,2.4.9.3,3,.6,4.7.6,1.8,0,3.9.5,4.7,1.1,1.1.8.3.9-3,.5-8.3-1.1-29.4-3.4-36.2-4.1l-6.8-.7v-5.9c0-3.3.4-5.9,1-5.9s1,1.3,1,3c0,2,.5,3,1.5,3s1.5-1,1.5-3,.5-3,1.5-3c.8,0,1.5-.5,1.5-1,0-.6-1.8-1-4-1h-4v-4.9c0-2.6-.3-6.9-.6-9.5-.4-2.5-.4-4.6-.1-4.6.4,0,6.9,1.8,14.4,3.9ZM531.52,437.91c0,.7-2.5,2.4-5.5,3.7-5.6,2.4-7.1,4.1-3.5,4.1,1.6,0,2,.7,2,3,0,1.6.5,3,1,3,.6,0,1-1.7,1-3.8,0-3.2.5-4.1,2.5-5l2.5-1.2v13.5c0,7.4-.1,13.5-.2,13.5-.2,0-7.8,2.2-17,4.9-14.9,4.3-16.8,4.7-16.8,3.1s1.6-2.6,7.3-4.4c1.8-.6,2.4-2.6.7-2.6s-1.1-3.2.7-4.6c2.9-2.1.5-2.9-3.2-1.1-2,.9-4,1.7-4.5,1.7-.6,0-1-2.7-1-6v-6l4.1-2.1,4.2-2.1-.7,3.6c-.9,4.7.7,5.3,7.4,3.1l5-1.7v-10.7l6.3-3.5c6.8-3.9,7.7-4.2,7.7-2.4ZM513.82,449.71c2.4,0,2.2,2.7-.3,3.4-1.1.3-2.9.9-4,1.2-1.7.4-2,.1-2-2.6,0-2.9.3-3.2,2.3-2.6,1.2.3,3,.6,4,.6ZM581.52,467.21c0,1.8-.5,2.5-2,2.5s-2-.7-2-2.5.5-2.5,2-2.5,2,.7,2,2.5ZM501.12,470.21c-.7,1.9-3.6,1.9-3.6,0,0-1.7,3.3-3.8,3.8-2.4.2.5.1,1.6-.2,2.4ZM560.42,474.21c11.2,1.3,20.7,2.7,21.1,3.2.3.4,2.3,8.9,4.4,18.8s5.9,28.1,8.6,40.5c5,23.5,7.4,36.9,6.9,37.5-.3.2-24.8,4.5-26,4.5-.2,0-.4-4.6-.3-10.3,0-8.6.3-10.2,1.6-10.5,1.1-.2,1.8.5,2,1.9.2,1.2.9,2.4,1.6,2.7,1.3.4,1.5-4.4.4-8.6-.8-2.7-2.8-2.8-2.4,0,.6,3.3-3.6,2.2-5.1-1.5-2.2-5.1-5.3-7.2-10.2-7.1-2.4,0-5.6.9-7,1.8-2.1,1.4-2.9,1.5-4.1.5-1.4-1.1-1.3-1.5.8-3,1.2-1,2-2,1.7-2.3-1-1-6.9,3.4-8.9,6.6-2.1,3.5-2.7,7.8-1,7.8.6,0,1-.9,1-1.9s.8-2.9,1.8-4.1c1.5-1.9,1.9-2,3-.7.9,1.1,1,2.2.2,4.1-.5,1.5-1,5.9-1,9.7,0,6.2-.2,6.9-2,6.9-1.2,0-2-.7-2-1.6s-.6-1.4-1.2-1.2c-.8.3-1.3,2.1-1.3,4.3s.5,4,1.3,4.2c.7.3,1.2-.4,1.2-1.6,0-1.4.6-2.1,2-2.1s2,.7,2,2.4c0,1.3.3,3.8.6,5.5.6,2.9.5,3.1-2.3,3.1-1.6,0-7.6.7-13.3,1.5-5.6.9-10.4,1.4-10.6,1.2-.4-.4,2.3-32.9,7.1-84.3,1.4-15,2.5-28.1,2.5-29.2,0-1.8.5-2,3.3-1.6,1.7.3,12.4,1.6,23.6,2.9ZM530.52,474.41c0,2.3-2.9,36.2-6.6,77l-.7,7.3-7.1.1c-3.9.1-6.1.4-4.8.6,1.5.3,2.2,1.1,2.2,2.9,0,2.1-.5,2.4-3.4,2.4-1.9,0-3.8.4-4.1,1-.4.6,1.1,1,3.7,1,5.1,0,7.1,1.1,6.2,3.3-.4,1.2-.1,1.7,1,1.7.9,0,1.6-.8,1.6-2,0-1.3.7-2,1.9-2,1.7,0,1.9.6,1.5,6.2-.7,9.3-1.4,12.8-2.5,12.8-2.7,0-43.5-11.3-44.6-12.3-.7-.7,8.2-34,9.7-36.4q1-1.6.5.4c-.8,3.1,1.3,3.9,2.5.9.5-1.4,1.6-2.6,2.5-2.6.8,0,1.5-.5,1.5-1,0-.6-1.4-1-3.1-1h-3.1l.7-4.8c.5-3.8,7.4-32.4,7.9-32.8,0-.1,1.3-.4,2.9-.8,3.2-.7,3.5.4,1.2,4.8l-1.5,2.9,4.2-.6c6.6-1,11.8-2.7,11.8-3.9,0-1-5.9-.5-9.4.8-1.2.5-1.6,0-1.6-1.9,0-1.7.7-2.6,2.2-3.1,1.5-.3,1.9-.9,1.3-1.5-.7-.7-2.5-.7-5.4,0-2.4.5-4.5.8-4.7.7-.4-.4,2.4-11.9,3-12.6.7-.6,29.4-9.9,31.4-10.1.7-.1,1.2,1.1,1.2,2.6ZM522.52,563.21c0,2.1-.5,2.5-3,2.5-2.3,0-3-.5-3-1.9,0-1.8,1.4-2.7,4.8-3,.6,0,1.2,1,1.2,2.4Z"/>
        <path class="cls-7" d="M549.21,457.79c-.4,3.1-.6,5.7-.4,5.9s3.8.7,8,1.1l7.7.7.7-5.2c.4-2.8.4-5.4.1-5.7-.7-.7-9-2.2-12.8-2.2-2.5-.1-2.7.3-3.3,5.4Z"/>
        <path class="cls-7" d="M551.91,486.99c-2.2.9-.2,2.3,3.4,2.3,2.4,0,3.4.5,3.4,1.5,0,.8-.9,1.5-2,1.5s-2,.4-2,1,2.8,1,6.5,1,6.5-.4,6.5-1-1.6-1-3.5-1c-2.4,0-3.5-.5-3.5-1.4,0-.8.5-1.6,1.2-1.8.6-.2.8-1,.4-1.6-.7-1.2-7.9-1.5-10.4-.5Z"/>
        <path class="cls-7" d="M557.71,499.69c0,.9,1.1,1.6,2.8,1.8,2.1.2,2.8.9,3,3,.4,3.8,2.2,3.6,2.2-.2,0-2.8.2-3,4.1-3,2.8,0,3.9-.4,3.7-1.3-.3-.8-3.1-1.3-8.1-1.5-6.3-.2-7.7,0-7.7,1.2Z"/>
        <path class="cls-7" d="M531.01,523.99c-2.2.8-1.4,2.3,1.2,2.3,2.1,0,2.5.5,2.5,3,0,2,.5,3,1.5,3s1.5-1,1.5-2.9c0-2.5.5-3,2.7-3.3,1.4-.2,2.8-.9,3.1-1.6.3-.9-1.2-1.2-5.5-1.1-3.2,0-6.4.3-7,.6Z"/>
        <path class="cls-7" d="M572.71,532.19c0,.5,1.7,1.2,3.8,1.6,2.9.4,3.8,1.1,3.8,2.6,0,1.4-.5,1.7-1.9,1.3-1-.3-3-.2-4.5.2l-2.7.7,3,.7c4.6,1.1,12.5,1.1,12.5,0,0-.6-.9-1-2-1-1.5,0-2-.7-2-2.5,0-1.6.6-2.5,1.5-2.5.8,0,1.5-.5,1.5-1,0-.6-2.8-1-6.5-1s-6.5.4-6.5.9Z"/>
        <path class="cls-7" d="M536.71,534.29c0,1,2,1.4,5.3,1.2,1.3-.1,1.7.6,1.7,2.8,0,1.7.5,3,1,3,.6,0,1-1.3,1-3,0-2.2.4-2.9,1.8-2.8,3.2.2,5.2-.2,5.2-1.2,0-.6-3.3-1-8-1s-8,.4-8,1Z"/>
      </g>
    </g>
    <g>
      <polygon class="cls-4" points="83.85 566.09 105.66 542.61 122.9 526.8 152.99 504.8 205.85 465.46 234.51 447.27 261.28 432.8 281.75 424.23 297.61 418.7 309.37 416.7 325.37 417.84 336.61 419.37 355.37 422.89 373.96 430.42 421.18 447.27 432.9 452.23 468.04 466.89 643.4 455.24 660.8 448.85 722.39 426.67 752.44 422.23 775.47 424 818.9 441.02 861.56 467.05 920.99 510.86 953.63 535.88 972.8 554.13 989.56 572.19 982.96 581.34 942.07 580.07 922.26 580.45 910.96 574.1 746.77 556.45 650.77 569.78 400.71 563.29 350.51 547.37 169.37 571.29 137.75 573.08 96.04 575.94 83.85 566.09"/>
      <polygon class="cls-4" points="231.46 851.88 277.71 803.12 324.71 763.29 352.99 720.13 368.17 687.79 373.9 672.13 373.96 662.99 430.01 610.42 411.29 696.51 386.9 736.59 357.94 797.67 333.18 867.35 274.9 885.75 231.46 851.88"/>
      <polygon class="cls-4" points="760.04 244.08 789.81 268.68 629.05 441.02 595.02 410.29 760.04 244.08"/>
      <path class="cls-2" d="M118.21,76.49c2.2,10.6,22.8,36.7,81.5,103.6,21.2,24.1,45.7,52.1,54.5,62.2,8.8,10.2,22.3,25.4,30,33.9s16.3,18,19,21.1c7.1,8.1,38,42.4,44.5,49.5,3.1,3.3,9.4,10.3,14,15.5,13.9,15.6,16.2,18.2,22,24.5,3.1,3.3,9.1,10,13.5,15,4.3,4.9,10.4,11.7,13.5,15,3,3.3,8,8.8,11,12.2,3,3.5,5.7,6.3,6,6.3s.4-5,.2-11c-.5-11.9.1-13.7,4.4-14.2,2.7-.3,2.6-.4-27.6-33.8-18.8-20.7-36.9-40.8-41.4-45.9-2.7-3.1-9.3-10.3-14.6-16.1-5.4-5.8-11.9-13-14.5-16-9-10.2-51.1-56.4-61.6-67.5-11.2-11.9-25.2-27.5-27.5-30.7-1.4-1.8-3-3.8-3.7-4.3-.6-.6-4.6-4.8-8.7-9.5s-12.4-13.9-18.5-20.6c-6-6.6-18.9-20.8-28.5-31.5-27.7-30.9-52.1-54.4-60.4-58.3-7.2-3.4-7.9-3.3-7.1.6ZM162.41,122.79c1.1,2.3.2,1.7-3.7-2.5-2.8-3-5.8-6.9-6.6-8.5-1.1-2.3-.3-1.7,3.6,2.5,2.9,3,5.8,6.8,6.7,8.5ZM175.11,138.59c.5,2.1.4,2.1-1.4-.3-2.3-2.9-2.6-4.8-.6-3.1.8.6,1.6,2.2,2,3.4ZM207.01,176.59c2.5,5.7,2,6.5-1.3,2.1-2.1-2.8-2.9-5-2.9-7.9l-.1-4,1.4,3c.7,1.6,2,4.7,2.9,6.8ZM220.61,188.79c0,.5-.4,1.8-.8,2.9-.6,1.5-1,1-2.1-2.5-.7-2.4-1.7-4.8-2.2-5.4-.4-.5-.8-1.4-.8-2,.1-.5,1.4.6,3,2.5,1.7,1.9,3,3.9,2.9,4.5ZM231.41,206.89c-.3.3-1.9-.7-3.5-2.3-2.6-2.5-2.9-3.3-2.4-6.8l.5-4,3,6.3c1.6,3.5,2.7,6.5,2.4,6.8ZM241.71,213.69c0,2.6-.6,1.8-2.5-3l-1.6-3.9,2,2.5c1.1,1.4,2.1,3.4,2.1,4.4ZM272.01,247.99c2.2,2.2,3.7,4.7,3.5,5.4-.5,1.5-12.8-12.9-12.8-14.9,0-.8,1.2.1,2.7,2,1.4,1.8,4.4,5.2,6.6,7.5ZM283.11,260.49l1.9,3.3-3.7-3.4c-2-1.9-3.6-4.1-3.6-5,0-2,2.9.7,5.4,5.1ZM298.71,278.39c0,1.8-2.8-.9-4.5-4.5l-1.5-3.1,3,3.3c1.7,1.8,3,3.7,3,4.3ZM307.61,287.79l1.3,3-3-2.9c-1.8-1.6-2.8-3.4-2.5-4.3.7-1.8,2.3-.2,4.2,4.2ZM316.51,296.89c-.3,1.4-.7,1-1.6-1.6-1.2-3.2-1.1-3.4.4-1.9.9.9,1.4,2.5,1.2,3.5ZM338.91,317.59c1.1,2.1,3.8,12,3.4,12.5-.2.1-2-1.8-4-4.2-2-2.5-4.3-5.2-5.1-5.9-.7-.8-1.6-3.6-2-6.3l-.7-4.9,3.7,3.5c2,1.9,4.1,4.3,4.7,5.3ZM351.01,335.19c.5,6.1-.1,5.4-3.9-4.2-3-7.7-3-7.8.5-4.2,2.3,2.3,3,4.2,3.4,8.4ZM361.61,345.19l2.1,6.5-3.3-3.2c-2.7-2.6-3.3-4-3.5-7.9-.1-4,0-4.5,1.2-3.3.7.8,2.3,4.4,3.5,7.9ZM382.71,368.09c1.1,3.6,1.8,6.7,1.7,6.9-.2.2-2.5-2.3-5-5.6-3.7-4.7-4.7-6.7-4.7-9.7v-3.8l3,2.9c1.8,1.7,3.7,5.2,5,9.3ZM400.71,387.79v5l-3.3-3.5c-6.2-6.8-6.9-7.9-7.8-12.2-.5-2.4-1.2-5.2-1.5-6.3s2.4,1.1,6,5c6.2,6.7,6.5,7.2,6.6,12ZM423.01,414.09c.4,2.1.3,3.1-.3,2.7-.6-.3-1-2-1-3.7,0-3.8.5-3.4,1.3,1Z"/>
      <path class="cls-2" d="M940.01,82.49c-31.3,32.8-33.3,35-33.3,37.4s-2.3,4.8-44.2,47.7c-29.2,30-52.8,54.2-73.1,75.2l-9.6,10-3.2-3.2-3.3-3.2,2.2-1.8c3.2-2.7,1.9-6.7-3.4-10.3-5.3-3.7-6.4-3.7-10.4,0l-3.1,2.9-2.2-2.1c-1.2-1.1-3.5-2.8-5-3.8-6.5-4-16.7,3-16.7,11.5,0,2.8,5.3,8.5,7.9,8.5.8,0-5.5,6.9-14,15.3-13.3,13.1-51.2,52.2-59.4,61.2-3.2,3.5-44.9,46.6-64.2,66.5l-13.2,13.5,5,.3,4.9.3,14.3-14.7c7.8-8.1,17.1-17.7,20.7-21.4,6.5-6.6,13.6-14.4,28.6-31.5,6.6-7.5,23.6-25.2,48.4-50.5,2.5-2.5,7.5-7.5,11.3-11l6.7-6.3,2.5,2.3c1.4,1.3,2.5,2.6,2.5,2.9-.1.3-2.8,3.5-6.1,7.1-4.9,5.4-11.3,14-15.3,20.8-1.5,2.4,3.3-.6,11.6-7.5,4.3-3.6,7.8-6.2,7.8-5.9,0,.4-3.2,4.7-7,9.6-6.7,8.6-13,18-13,19.4,0,.3,3.9-2.7,8.8-6.7,8.7-7.4,24.9-23.8,33.4-33.9,5.4-6.3,14.1-18.8,13.6-19.3-.2-.2-4.9,3-10.3,7.2-9.3,7.1-10.6,7.5-4.6,1.3,1.3-1.4,4.4-5.3,6.8-8.8,2.5-3.4,4.8-6.2,5.2-6.2s1.9,1.2,3.3,2.7c1.4,1.6,3.6,3.7,4.9,4.7l2.3,1.9-5.9,5.5c-3.3,3-8,6.8-10.3,8.4-2.4,1.7-5,4.4-5.7,6.2-.7,1.7-5.7,7.4-10.9,12.6-12.1,11.9-49.5,51.6-64.1,68-6,6.7-17.7,19.2-26,27.7-8.3,8.4-14.7,15.7-14.2,16.2.4.4,1.1,6.6,1.4,13.6l.6,12.8,4.5-4.9c2.5-2.7,8.4-9,13.1-13.9,4.7-5,12.2-12.9,16.6-17.6,10.8-11.5,39.2-41.5,48.7-51.4,4.2-4.4,8.8-9.4,10.3-11,3.7-4,13.9-14.8,32.7-34.6,19.5-20.6,23.6-25.4,24.9-30,.9-3,.8-4.1-.6-6.3-2-3-2.5-2.2,13.2-18.9,4-4.4,7.2-8.5,7.1-9.2-.3-1.3,8.3-10.6,41.5-44.5,52.8-53.8,62-63,63.7-63,1.1,0,8.6-7.4,18.1-17.8,8.9-9.7,18-19.6,20.2-21.9l4-4.1-2.2-3.6c-2.8-4.5-6.7-7.6-9.6-7.6-1.5,0-4.6,2.5-9.2,7.2ZM765.71,252.79c1.1,1.3.9,1.9-1.1,3.6-3.8,3.3-10.9,8.1-10.9,7.3,0-1.5,8.9-12.3,10.1-12.4.4,0,1.2.7,1.9,1.5ZM782.11,268.19c1.7,1.8,1.4,2.2-6.1,10.3-4.3,4.6-10.5,11.4-13.8,15-3.3,3.7-10,10.9-15,16-9.7,10.1-16.3,17.2-38,40.8-3.7,4.1-14.1,15.1-23,24.5-8.9,9.3-18.4,19.4-21.1,22.2-2.6,2.9-5.2,5.3-5.7,5.3s4.6-6,11.4-13.3c6.7-7.2,15.6-17.5,19.9-22.7s13.5-16,20.6-23.9c7.1-7.8,14.6-16.4,16.7-19,4.5-5.3,27.1-29.5,30.5-32.6,6.9-6.1,10.5-10.1,15.2-16.9,2.9-4.2,5.6-7.6,6-7.6s1.5.9,2.4,1.9Z"/>
      <path class="cls-2" d="M432.98,371.55c1.06-2.34,1.5-4.81,2.41-7.19.67-1.75,1.61-3.43,2.97-4.75.33-.32.69-.61,1.08-.88.06-.04.59-.34.62-.4.21-.53-.83-1.77-.98-2.33-1.16-4.17.42-8.91,1.13-13.01.34-1.97.4-3.97.72-5.94.31-1.94.81-3.85,1.54-5.68.87-2.21,2.03-4.28,3.52-6.09-.06,0-.11,0-.17,0q-3.8,0-4.4,4.5c-.2,2.6-.7,4.8-.9,5-.2.2-1.7.1-3.4-.3-2.5-.7-3-1.5-3.8-5.6l-1-4.8-7,.7c-3.9.4-7.2.7-7.2.8-.1.1.2,7.8.7,17.2.4,9.3.8,20,.8,23.7l.1,6.8h12.45c.28-.58.55-1.16.82-1.74Z"/>
      <path class="cls-2" d="M527.51,264.99c-.3-10-1.9-14.2-8.2-22.1-1.8-2.3-4.2-5.8-5.4-7.9-3.2-5.6-9.4-12.7-10.5-12-1.6,1-4.5,8.6-5.2,14-.4,3.3-.1,8.2.9,13.5.8,4.6,1.7,9.4,1.8,10.6l.3,2.4,2.8-2.2c4.4-3.5,8.7-11.8,8.8-17,.1-4.3.1-4.4,1-1.5,1.1,3.7-.4,12.4-2.7,16.2-3.5,5.6-11.1,12.5-18.9,17.3-15.4,9.3-22.5,17.5-24.6,28.1-1.1,5.6-1.4,6-6.5,8.8-3.2,1.9-6.5,4.8-8.4,7.6-1.39,1.98-2.26,3.1-3.2,3.73-3,2.67-4.96,6.22-6.02,10.09-.51,1.88-.78,3.77-.93,5.7-.16,2.03-.57,4.02-.96,6.02-.43,2.2-.86,4.42-.84,6.68.01,1.13.07,2.23.62,3.23.38.7.72,1.38.67,2.21-.1,1.44-1.69,1.95-2.56,2.88-1.42,1.52-2.22,3.45-2.77,5.44-.57,2.08-1.2,4.04-2.11,6-.29.64-.6,1.27-.91,1.89v2.43c0,6.6,2.8,13.9,7,18.4,3.9,4,4,4.2,3.4,9.5l-.7,5.3h12.9c7.1,0,13.4-.4,13.9-.8.6-.4,1.5-2.5,2-4.6.6-2.2,1.6-4.2,2.4-4.4,1.1-.4,1.3.4.8,4.2l-.7,4.6h15.4l-3-3.1c-1.6-1.7-4.7-4.4-7-5.9l-4.1-2.9c1.38-9.99.98-14.2.17-16.02-1.16-2.62-1.3-3.73-1.58-5.95-.08-.6-.06-1.19-.06-1.19.06-3.01,1.53-3.15,2.43-7.56.49-2.39,1.03-4.82,1.18-7.26.11-1.68.21-3.54,1.58-4.71.54-.46,1.18-.75,1.77-1.13.89-.58,1.69-1.33,2.47-2.06,3.25-3.04,5.84-6.62,8.52-10.14,2.64-3.47,5.12-7.17,6.48-11.36.33-1,.42-1.96.44-3.01.02-.55.02-1.13.22-1.65.44-1.13,1.68-1.53,2.68-2.02,0,0,.01,0,.02,0,.38-.51.9-1.15,1.57-1.93,4.8-5.6,9.8-16.3,10.5-22.4.4-4.3,1.2-5.9,4.4-9.2,2.1-2.2,5-6.6,6.4-9.8,2.4-5.2,2.7-6.8,2.3-15ZM450.71,389.89c-.1-.6-.7,0-1.6,1.4l-1.5,2.5.7-2.5c1.7-6.3,10.5-16.8,19.9-23.9,4.4-3.3,6.5-3.8,6.5-1.7,0,1.7-24,25.8-24,24.2ZM477.81,338.39c-9.6,3.1-15,6.1-20.8,11.3-2.8,2.5-5.6,4.6-6.2,4.6-3.1,0,1.8-10.4,6.4-13.4,3.7-2.4,14.9-6.6,22-8.1,7.7-1.7,7.3-1.7,8.1-.3,1,1.6-1.9,3.4-9.5,5.9ZM493.81,302.79c-10.1,2.8-16.7,5.7-17.3,7.7-.2.6-1.1.9-2,.5-4.8-1.8,5-11.1,13-12.3,2.6-.3,6.5-1,8.7-1.4,5.6-1.1,5.8-1.1,7.5,0,2.4,1.5.3,2.6-9.9,5.5Z"/>
      <path class="cls-2" d="M642.01,326.09c-4.3-.3-8-.3-8.1-.2-.2.1-.6,2.1-.9,4.3q-.6,4.1-4.9,4.1h-4.4v-9.1l-6.7.3-6.8.3-.3,3.8c-.4,4.3-2.6,5.7-8.8,5.7-3,0-3.4-.3-3-2.3.3-1.2.7-3.3.8-4.6.3-2.8,2-2.5-20.9-2.9l-13.3-.2v-17.7l6.2-3.8c7.4-4.6,15.8-13.1,19.8-20,1.6-2.8,4.5-10.3,6.4-16.8,3.1-10.3,3.6-13.1,3.6-22-.1-5.6-.7-12.9-1.4-16.2-2.1-9.7-8.3-21.1-15.6-28.8-13.3-14.2-25.9-20.8-44.7-23.6-8.1-1.2-11.2-1.2-19.7,0-10.6,1.6-26.6,10.7-35,20-6.3,7-14.8,25-17.6,37.1-1.9,8-2.2,11.3-1.6,18.3.8,9.3,4.3,20.9,8.1,26.7,2.8,4.1,3.6,4.5,5.4,2.4.7-.8,4.2-3.3,7.9-5.5,3.7-2.2,8-5,9.5-6.3l2.8-2.3-2.2-10.4c-2.5-12.5-1.8-18.8,3.5-29.7,7.6-15.3,15.8-20.7,31.6-20.7,10.4,0,17.8,2,25.8,7.3,11.8,7.6,16.6,16.8,16.6,31.7-.1,6.3-.5,7.8-3.5,12.9-5.3,8.8-6.7,9.4-24.1,9.4h-14.7l-1.6,5.7c-2.1,7.2-5.7,14.3-9.3,18.5-1.8,2.1-3.3,5.5-4.1,9.3-2.08,9.49-8.89,21.67-13.14,24-.08.1-.19.19-.34.26-.45.22-1.48.5-1.79.94-.31.43-.11,1.45-.14,1.93-.13,2.15-1.03,4.21-1.92,6.14-1.8,3.87-4.46,7.12-6.96,10.53-2.46,3.36-5.1,6.62-8.27,9.34-.72.62-1.46,1.19-2.29,1.68-.58.34-1.16.62-1.44,1.27-.41.95-.35,2.14-.42,3.16-.07.96-.22,1.88-.4,2.82-.63,3.35-1.21,6.7-2.39,9.88,1.94-.35,5.61-.46,12.58-.46h14l-.3,18.5-.4,18.5h51.2l.7-7.7c.3-4.2.7-11.5.8-16.2l.1-8.6.8,8c.4,4.4.5,11.7.2,16.2l-.6,8.3h9.3v-17.5c0-16,.2-17.5,1.8-17.6.9-.1,13.3-.4,27.6-.8l25.9-.6,14.3-14.8,14.4-14.9v-16.6l-7.7-.4ZM540.01,188.29c-4.3.1-18.5,4.4-25.8,7.9-13.1,6.2-22.8,16.4-30.9,32.5-2.8,5.5-3,6.9-2.9,14.8.2,9.5-1,12.1-2.6,6.1-2.6-9.4-.8-23.1,4.5-33.6,3.3-6.4,12.5-18.2,17.2-21.9,4.6-3.7,13.9-8.5,19-9.8,3.7-.9,16.7-.6,21,.6,2.6.7,3,3.4.5,3.4ZM573.91,288.09c8-8.7,14.1-22.2,16.8-37.5,1.5-8.4,3.3-8.8,2.4-.5-1.7,16.4-11.1,35.7-19.8,41.1-1.8,1.2-3.5,2.1-3.8,2.1-.2,0,1.7-2.3,4.4-5.2ZM562.71,295.29c-.5,1.5-.8-2.7-.9-11,0-9.1.3-13,.9-12,.5.8.9,5.8.9,11-.1,5.2-.5,10.6-.9,12Z"/>
      <path class="cls-2" d="M704.21,310.49c-3.8,2.1-13.9,14-15.5,18.3-1.2,3.3-.5,6.2,1.8,7.4,3.5,1.8,6.7-.8,16.1-13.2,5.4-7.2,6.4-11,3.2-12.7-2.4-1.2-3.1-1.2-5.6.2Z"/>
      <path class="cls-2" d="M675.11,342.49c-2.2,2.3-5.6,6-7.7,8.2-7.3,7.6-8.6,11.5-4.6,13.6,2.7,1.5,7-1.8,14.9-11.3,6.3-7.6,7.8-11,5.9-13.3-2-2.4-4.5-1.6-8.5,2.8Z"/>
      <path class="cls-2" d="M682.71,352.59c-6.4,6.1-13.4,13.2-15.6,15.7-7.8,8.6-41.2,39.6-41.9,38.9-.2-.2,4.5-6.7,10.3-14.4s9.7-13.3,8.7-12.5c-9.8,7.5-30.5,26.1-30.5,27.4,0,.3,5,.5,11.1.5h11.1l9.6-8.7c16.5-15,22.2-21.2,33.8-36.7,7.3-9.7,15.6-21.5,15.2-21.5-.2,0-5.5,5.1-11.8,11.3Z"/>
      <path class="cls-2" d="M300.71,416.79c-19,4.1-52.9,19.6-75,34.1-26.3,17.2-42.9,28.9-59,41.4-24.3,19-26.4,20.6-31.5,23.5-2.7,1.6-10.2,7.7-16.5,13.5-6.4,5.8-14.2,12.7-17.5,15.5-3.3,2.7-8.7,7.4-12,10.3-3.3,3-7,6.3-8.2,7.4-3.3,2.9-4.1,11.6-1.6,16.5,3.3,6.3,6.3,7.8,15.6,7.8,6.9,0,9.3-.5,14.7-3,3.6-1.6,7.8-3.7,9.3-4.8,3.1-2.1,5.8-1.7,5.5,1-.5,6.9,1.6,9.7,7.2,9.5,2.9-.1,16.8-7.6,23.7-12.9,4.2-3.2,4.8-3.4,6.9-2.2,1.3.8,3.3,3,4.6,4.9,2.2,3.3,2.7,3.5,8.6,3.8,5.5.3,7-.1,11.9-2.9,3.1-1.8,7.1-4.5,8.9-6.1l3.3-2.9,4.1,3.2c3.2,2.6,5,3.3,8.8,3.3,4.1.1,5.7-.5,10.5-3.9,3.2-2.2,6.4-4.5,7.2-5,1.2-.7,3.3,0,8.4,2.7,3.8,2.1,8.3,3.8,10,3.8,4.3,0,10.7-3.4,15.8-8.3l4.2-4.1,5.5,2.8c10.5,5.3,17.9,4.4,26.5-3.4,2.5-2.2,4.8-4,5.3-4s3.1,1.1,5.8,2.5c8.7,4.4,18.9,3,24.8-3.5,2.5-2.7,3.2-2.9,5.4-2.1,1.4.5,2.9,1.5,3.3,2,1.2,2,11.4,1.3,14.6-1,3.2-2.2,5.3-1.7,4.6,1.1-.7,2.7,4.7,7.8,9.6,9.1,2.2.6,6.5.8,9.6.4,5.3-.6,5.7-.5,8.6,2.5,4.3,4.5,8.6,6,17.2,6,4.8,0,8.5.6,10.5,1.6,3.2,1.6,14.2,1.6,19.8-.1,1.7-.6-.8,2.7-8.5,10.6-6.1,6.3-15.3,15.8-20.5,21.1-5.1,5.4-9.7,9.8-10,9.8-.4,0-4.2-2.9-8.5-6.5s-8.2-6.5-8.6-6.5c-1.7,0-.9,2,1.6,3.6,3.7,2.4,4,5,1.1,9.5-1.8,2.7-2.4,4.7-2,6.3.5,2-.6,4-5.2,9.8-3.2,4-6.9,8.4-8.1,9.8-2.9,3.1-2.9,3.4.4,5.5,2.9,1.9,3.2,1.7,7.9-5,1.3-1.8,1.5-1.8,3-.3s1.2,2.2-4.7,8.7c-3.5,3.9-7,7.3-8,7.6-1.2.4-1.8,2.3-2.3,8.2-.3,4.2-.6,9.3-.6,11.3,0,7.1-14.4,32.3-27.6,48.4-4.1,5-18.9,21.5-28.3,31.6-1.3,1.4-8.4,9.1-15.9,17.2-12.4,13.6-23.6,23.4-33.8,30-5.1,3.2-11.3,9.5-20.6,20.6-7.8,9.3-17,20.9-18.2,22.9-.8,1.4,4.2,8.3,6.1,8.3.7,0,2.4,1.6,3.9,3.6s6.4,6.4,10.8,9.8c7.3,5.6,11.5,8.5,31.6,21.5,3,2,12.9,7.3,22,11.8l16.5,8.2,3.8-3.7c2.1-2,5.4-6.9,7.2-10.7,5.7-11.8,19.5-48.5,23-61,1.8-6.7,12.5-37.1,16.3-46.5,1.7-4.1,4.9-12.1,7.1-17.7,7.7-19.5,15.3-33.5,33.3-61.3,4.4-6.9,8.9-14,9.9-15.9,1-1.8,8.4-10,16.6-18.2l14.7-14.9h7.1c6.5,0,7.4.2,9.7,2.7,3.9,4.4,6.3,8.3,8.7,14.8,2,5.5,2.2,7.6,2.2,25-.1,10.4-.4,22.3-.8,26.4l-.6,7.4,6.9-.5c8-.6,24.8-6,37-12l8.2-4-1.3-5.1c-.8-2.9-2.5-12-4-20.2-1.5-8.3-3-17-3.5-19.5s-1.9-9.7-3-16c-1.2-6.3-2.3-12.5-2.6-13.7-.2-1.2-3.2-4.1-7.1-6.9-3.8-2.6-10.6-8.2-15.2-12.3-4.6-4.2-11.1-9.9-14.5-12.7-6.4-5.4-15-15.3-22.7-26.4-5.4-7.6-10-20.2-13.4-36.9-1.3-6.2-2.6-11.5-2.8-11.7-.6-.6-11.9,7.2-18.2,12.5-3.2,2.8-6.2,5.1-6.6,5.1-.3,0-.9-2.7-1.3-6.1-.6-5.8-.4-6.3,3.2-11.6,2-3,5-7.5,6.5-10.1,1.6-2.5,5.3-7.4,8.3-10.8l5.5-6.3-.7-8.5-.7-8.6-8.3,4.5c-7.5,4.1-8.4,4.4-8.4,2.6,0-4.1,2-6.8,9.4-12.9l7.6-6.2v-5.5c0-3-.4-5.5-.8-5.5-1,0-15.7,12.4-23.2,19.5-5.8,5.5-13.4,10-15,9-1.4-.9-1.2-4.2.4-7.3,2.8-5.4,33.3-28.9,36.1-27.8,1.2.4,1.5-.6,1.5-5.8,0-6.2,0-6.3-3.2-7.3-1.8-.6-13.6-4.8-26.3-9.3-24.8-8.8-55.7-18-67-20-9.7-1.7-34.6-1.4-41.2.5-2.9.8-7.4,2.1-10,2.9-11.9,3.4-49.7,24.1-63.9,34.9-2.7,2.1-11.6,8.1-19.9,13.3-8.2,5.3-17.2,11.1-20,12.9-12.7,8.6-38.3,30.7-63,54.5-6.6,6.4-13.6,12.6-15.6,13.8-2.1,1.2-4.4,3.4-5.3,4.7-1.7,2.6-3.6,3.3-3.6,1.4,0-1.2,3.2-5.5,12.7-16.9,9-10.8,12.4-13.6,76.3-62,30.4-23.1,64.6-44.4,86.5-54.1,28-12.3,39.7-14.9,59.3-12.9,19,2,29.6,4.7,51.2,13.2,4.1,1.7,11.3,4.3,16,5.9,4.7,1.5,11.9,4.1,16,5.7s10.5,4.1,14.3,5.5c4.9,1.9,6.7,2.3,6.7,1.3,0-.8-1.5-1.9-3.2-2.6-1.8-.6-5.3-2-7.8-3.1-6-2.5-28.8-11.1-37-13.9-3.6-1.3-9-3.4-12-4.7-20.2-9.1-51.2-13.5-68-9.8ZM286.71,440.09c-7.1,4.8-26.6,22.1-29.8,26.3-2.8,3.8-4.4,5-7.2,5.5-5.4.9-10.3,2.1-12.2,2.9-1.5.6-1.5.2.1-5.2,3.1-10.2,5.8-15.1,9.3-17.3,12.4-7.6,29.8-13.8,38.8-13.9h3.5l-2.5,1.7ZM314.31,440.49l8.2,1.2-4.6,2.9c-10,6.3-27.4,20.2-30.5,24.4s-4,4.7-15.2,8.3c-6.5,2.2-12.1,3.8-12.3,3.6-1-1.1,4.4-8.8,10-14.3,11.4-11.2,31.1-27.1,33.7-27.2,1.4-.1,6.2.4,10.7,1.1ZM340.41,444.89c3.7.8,6.9,1.7,7.1,1.8.1.2-2.8,2.3-6.5,4.7-7.6,4.9-22.2,18.5-25.4,23.5-1.2,2-3.4,3.7-5.4,4.4-4.6,1.5-18.9,4.9-19.3,4.6-.5-.6,2.7-7.2,4.8-9.9,1.3-1.6,7-6.5,12.9-11,5.8-4.5,13.3-10.8,16.6-13.9,3.3-3.2,6.5-5.7,7.2-5.8.6,0,4.2.7,8,1.6ZM364.01,451.39l7,2.1-5.9,3.2c-8.3,4.4-11.8,7-20,14.5-4.8,4.5-10.3,8.3-17.3,11.9-9.7,5-10.2,5.2-8.3,2.5,4.1-5.7,14.9-17.2,21.7-23.1,3.9-3.3,8.6-7.6,10.4-9.6,1.9-2,3.9-3.6,4.4-3.6.6,0,4.1.9,8,2.1ZM379.61,471.09c-11.9,12.5-16.7,15.6-26.5,17.2-3,.5-5.9,1.2-6.4,1.5-1.5.9-1.2-2.2.4-5.3,2.5-4.7,13.8-14.8,24-21.5l9.9-6.4,4.8,1.5,4.8,1.5-11,11.5ZM229.01,467.49c-1.4,3.5-3,8-3.7,10.2-.9,3.1-2.3,4.7-7.1,7.9-3.3,2.3-8,6-10.5,8.2-2.5,2.3-10.1,8.4-17,13.5s-16.3,12.8-21,17c-9.9,8.9-17.3,14.2-32.3,23.1-6,3.5-14.6,9.2-19.2,12.7-7,5.2-9.4,6.5-14.2,7.2-3.1.5-5.9.8-6.1.5-.7-.7,37.2-38,48.8-48,21.9-18.9,26.4-22.2,54.8-40,6.1-3.9,15.1-9.6,19.9-12.7,4.9-3.1,9.1-5.7,9.5-5.8.3,0-.5,2.8-1.9,6.2ZM409.01,469.69c-10.6,5.7-22.3,15.3-26,21.4-1.2,2-3,4-4,4.4-2.3.9-7.3,1-7.3.1,0-1.2,5.5-7.8,13.7-16.5,4.5-4.9,9.4-10.5,10.8-12.7l2.6-3.8,8,2,8.1,2-5.9,3.1ZM248.21,483.89l-2.4,6.9-10.8,7.8c-5.9,4.3-14.2,10.6-18.3,14s-10.6,8.6-14.5,11.6c-3.8,3-11.3,9.3-16.5,14.1-10,9.1-19.7,15.4-36.8,23.9l-10.3,5.2.6-3.8c.9-5.2,2.6-9.6,4.1-10.6,1.2-.7,21.4-17.2,33.7-27.5,2.9-2.4,15-11.8,27-20.8,16.7-12.7,22.7-16.6,25.3-16.9,3.1-.3,5.3-1.4,16.8-8.6,2.2-1.4,4.2-2.5,4.3-2.5.1.1-.8,3.3-2.2,7.2ZM279.71,484.49c-1.4,3.1-3.8,5.6-10.2,10.1-12.3,8.8-23.6,18.5-39.4,33.8-9.6,9.3-16.2,14.8-20.9,17.4-3.7,2.1-10.2,6.4-14.5,9.6-11.2,8.2-16,11.3-16.7,10.6-.3-.4.7-4.6,2.3-9.4,4-11.9,5.5-13.4,45.9-43.8,13.8-10.3,25.9-19,27-19.2,4-.9,19.1-7.8,23-10.5,2.2-1.5,4.3-2.7,4.7-2.8.4,0-.1,1.9-1.2,4.2ZM310.91,497.59l3.6,1.8-17.2,16.9c-20.1,19.8-33.9,30.1-43.8,32.8-3.2.9-3.9.7-5.9-1.4l-2.2-2.4,6.4-6.6c10.3-10.6,30.3-28.9,38.2-34.7,3.9-3,9.2-7.6,11.7-10.1l4.5-4.7.5,3.3c.4,2.6,1.3,3.7,4.2,5.1ZM294.31,493.59c-4.3,3.5-28,24.6-49.5,44.1-7.3,6.6-14.1,12.5-15,13s-3.3,2.2-5.3,3.8c-3.4,2.6-9.8,5.4-9.8,4.2,0-1.4,4.7-9.5,7.7-13.2,7.8-9.6,30.7-31.3,43.1-40.9,11.4-8.8,13.5-10.1,15.5-9.4,2.3.9,9.7-1.1,14.3-3.8,3.4-1.9,3-1.1-1,2.2ZM333.41,496.19c-1.1,4.9-1,5.5.8,6.7,1.9,1.2,1.3,2.1-10.5,14.2-7.7,8-14.2,13.8-17,15.2-2.5,1.3-7.7,4.5-11.7,7.1-4,2.7-7.7,4.9-8.3,4.9-.5,0-1-1.9-1-4.2,0-4,.5-4.6,18.2-22.7,15.1-15.4,29.3-28,30.4-26.8.1.1-.3,2.6-.9,5.6ZM359.71,496.79c-2.5,4.1-2.1,8,1,9,1.8.6,1.5,1.4-4,8.3-9,11.7-20,22.5-24.8,24.6-2.3,1.1-4.5,1.6-4.8,1.3-.9-.9,1.5-12.6,3.3-16.2,4.2-8,21.3-26.4,26.8-28.7,2.2-.9,4.1-1.7,4.3-1.7.2-.1-.6,1.5-1.8,3.4ZM381.01,506.49c1.7,4.1,3.8,5.9,7.8,6.7l3.1.6-8.5,9.1c-5.3,5.5-10.4,10-13.4,11.5-2.6,1.3-6.7,3.6-9,5.1-2.3,1.6-4.4,2.8-4.7,2.8-.8,0,.1-4.3,1.7-8.5,2.3-6.3,19.2-30.3,21.4-30.5.2,0,.9,1.5,1.6,3.2ZM406.91,515.99c1.3,1.6,5.7,1.7,9.4.3,2.6-1,2.5-.9-1,3-2,2.3-4.2,5.2-4.8,6.5s-4,4.7-7.6,7.7c-3.6,2.9-9,7.5-12.1,10.1l-5.6,4.9-.8-4.5c-.8-3.9-.5-5.2,2.2-10.6,1.7-3.3,6.6-10,10.9-14.8,6.9-7.8,7.7-8.5,8-6.3.2,1.4.9,3.1,1.4,3.7ZM398.01,681.59c5.9,5.5,10.7,10.6,10.7,11.4,0,3.9-3.5,1.7-14.2-8.9-6.3-6.2-13-12.5-14.8-13.9-3.1-2.3-3.3-2.8-2.1-4.3,1.5-1.8.8-2.4,20.4,15.7ZM388.41,702.99c7.9,8.6,8.1,8.9,6.5,11-1.7,2.2-1.8,2.1-10.7-7.7-10.5-11.8-10.9-12.3-10-15.8l.7-2.7,2.6,3.1c1.5,1.7,6.4,7.2,10.9,12.1ZM370.31,725.49c2.6,4,5.9,8.9,7.2,11l2.3,3.6-4.1,7.7-4.2,7.6-1.7-2.8c-1-1.5-4.3-7.8-7.5-13.9l-5.9-11.1,3.8-5.1c2.1-2.8,4.2-4.9,4.6-4.7.4.3,2.8,3.7,5.5,7.7ZM327.51,789.79c2.7,7.7,7.2,19.5,10,26.2l5.2,12.2-1.9,4.3c-1.1,2.4-3.4,9.4-5.2,15.5-1.7,6.2-3.5,11.3-3.9,11.3-.3,0-2.5-6.4-4.9-14.3-5.8-19.1-6.4-20.9-10.6-30.7-2-4.7-5-11.6-6.6-15.4l-2.9-6.8,2.3-2.8c1.2-1.5,4.4-5.4,7.2-8.8,2.7-3.4,5.3-5.8,5.7-5.4s2.9,7,5.6,14.7ZM268.11,849.49c2,5.6,3.4,10.3,3.1,10.6-.6.6-15.5-10.9-15.5-12,0-1.4,6.4-8.8,7.6-8.8.6,0,2.8,4.6,4.8,10.2Z"/>
      <path class="cls-2" d="M773.61,608.49c-2.5-10.2-9.9-30.2-13.3-36.2-.7-1.25-1.33-2.42-1.8-3.35-.16-.15-.34-.28-.57-.34-.41-.11-.88-.09-1.32-.05-.23.07-.46.12-.7.14-.24.02-.48.01-.72,0-.13.02-.27.03-.39.06-.24.06-.45.22-.68.33-.51.78-1.5,1.87-3.01,3.31-1.9,1.8-6.1,6.8-9.2,10.9-12.2,16.2-29.8,32.6-49.2,45.8-15.6,10.6-18.7,15.6-14,22.3,1.4,1.9,3.9,3.4,7.6,4.6,9.8,3.1,25.5-.1,48.3-9.6,5.2-2.2,7.7-2.8,8.6-2.1.9.7,1.4,6.7,1.8,19.8.5,16.7.8,19.6,3.2,27.2l2.7,8.5,2.4-4.5c1.3-2.5,2.3-5.2,2.4-5.9,0-.8,1.1-2.6,2.4-4,4.6-5,8.8-29.7,8.8-51.6,0-16-.9-21.8-5.8-38.1-2-6.4-3.4-11.8-3.1-12,.6-.7,6.1,12.7,8,19.6,5.6,20.1,4.3,57.5-2.6,74.9l-2.2,5.6,2.4,2.4c2.2,2.2,2.3,2.8,1.8,10.3-.6,9,0,9.1,4.5.8,10.6-19.3,12-54.7,3.7-88.8Z"/>
      <path class="cls-2" d="M980.71,557.99c-2.5-1.7-9.2-7.4-15-12.7-14.2-12.9-28.9-25.2-32.2-26.9-1.5-.8-11.2-8-21.5-16-22.9-17.8-29.6-22.7-43.8-32.1-6-4-13-8.7-15.5-10.5-18.9-13.6-54.5-30.8-76.5-37.1-6.4-1.8-22.6-2.5-33.5-1.4-13.6,1.3-28.3,5.1-40,10.3-3,1.3-9.8,3.9-15,5.7-5.2,1.9-16.7,6.2-25.5,9.7s-16.8,6.3-17.7,6.3c-1.1,0-1.8.8-1.8,2,0,2.1-1.5,2.6,21-6.2,4.1-1.6,12.5-4.6,18.5-6.7,6.1-2.1,12.8-4.6,15-5.5,9.3-4,28.3-9.7,36.8-11,22-3.6,35.5-3.1,50.1,1.9,18.6,6.2,54.3,24.2,66.6,33.5,1.9,1.5,10.7,7.5,19.4,13.4,8.8,5.9,18.5,12.7,21.5,15,3.1,2.3,13.8,10.5,23.7,18.2,10,7.6,21.2,16.1,25,18.8,9.9,7.3,23.8,19.7,29.7,26.8,7.8,9.2,12.7,15.7,12.7,16.8,0,1.7-1.6,1.1-4.1-1.6-1.3-1.5-4.6-4.3-7.4-6.4-2.7-2-9.3-7.9-14.5-13.1-12.8-12.7-40.3-37.2-52-46.2-5.2-4-17.1-12.2-26.5-18.1-9.3-6-18.8-12.1-21-13.7-11.2-8.2-19.1-13.2-28.1-17.9-5.4-2.9-11-6-12.4-7-4.3-3-22.1-10.7-31-13.3-11.7-3.5-27.8-4.4-42.5-2.3-13.4,2-37.7,8.9-68.7,19.8-32.9,11.4-31.8,10.9-31.8,15.7s.8,7.1,2.7,7.1c3,0,31.4,21.8,34.8,26.7,1.7,2.6,2.5,6.6,1.6,8.1-1.3,2.2-7.4-1-14.4-7.6-5.2-4.8-10.9-9.8-21.9-19-1.7-1.4-1.8-1.1-1.8,4.6v6.2l7,5.7c5.4,4.4,7.1,6.5,7.6,9.1.4,1.8.4,3.6.1,3.9-.3.3-3.6-1.1-7.3-3.1-3.6-2-6.9-3.5-7.1-3.2-.3.3-.9,3.9-1.4,8.2-.8,7.6-.8,7.7,2.1,11.4,1.6,2,3.6,4.3,4.5,5,.9.7,3.4,4.3,5.6,7.9,2.2,3.6,5.5,8.7,7.4,11.4,3.5,4.9,3.7,6.6,1.5,14.6l-.6,2.5-4.5-4.1c-4.4-4.1-18.7-14.3-20-14.3-.3,0-.9,1.9-1.3,4.2-2.8,17.7-8.7,32.2-18.1,44.5l-5.5,7.2,11.2,12.1,11.1,12.1,1.9-2.8c1.1-1.5,5.5-8.4,9.8-15.3,4.3-6.9,10.4-16.4,13.4-21.3,3.1-4.8,6.3-8.7,7.1-8.7.3,0,.58.06.82.16.7-.22,1.45-.35,2.25-.38.53-.02,1.07-.01,1.61-.02.23,0,.36,0,.44,0,.06-.02.15-.05.28-.08.42-.11.85-.25,1.28-.34.04,0,.07-.01.11-.02,1.76-1.21,3.87-2.77,5.33-3.92,3-2.5,4-2.7,10.8-2.5,6.5.2,8-.1,11.6-2.4,2.2-1.4,4.5-3.7,5-5,1.1-2.8,5-3.4,9.5-1.3,2.6,1.2,6.4.4,12.2-2.4,1.8-.9,2.8-.5,6.5,2.3,1.17.93,2.27,1.83,3.1,2.56,1.7.72,3.4,1.44,5.16,1.96,1.05.31,2.14.61,3.23.72.77.08,1.51,0,2.26-.14.67-.34,1.29-.58,1.85-.69,1.02-.22,1.79-.32,2.29-.27.95-.1,1.92-.08,2.87-.06.37-.15.72-.34,1.08-.49.25-.49,1.93-1.67,4.05-2.68l4-2.1,4.5,4.1c9.3,8.5,16.8,9.7,27.9,4.3l5.1-2.5,3.5,3.2c6.1,5.7,10.8,8.2,15.6,8.2,4.3,0,10.2-1.8,11.3-3.4.3-.4,2.2-1.4,4.2-2.2,3.2-1.4,3.7-1.4,4.9,0,2.2,2.7,9.9,7.6,13.5,8.6,4.1,1.1,9.3-.3,11.9-3.2,2.6-2.9,5-2.5,10.8,2,6.9,5.1,11.5,7,17.6,7,4.7,0,5.1-.2,9.1-5,4.4-5.2,5.9-5.9,8.3-3.6,1.8,1.8,13.1,8.7,19.6,12.1,8.4,4.2,12.7,3,13.7-4,1-6.8.9-6.7,6.5-3.4,2.8,1.6,8.6,4.2,12.8,5.6,13.9,4.6,22.8,1.9,26.7-8.2,3-7.9-1.2-15.9-12.6-23.8ZM796.81,444.89c7.4,1.7,16.8,5.7,26.6,11.4,5.6,3.2,6.5,4.6,10.4,16.4,2.4,7.3,2.4,7.9.1,6.7-1-.5-4.8-1.5-8.4-2.1-6.2-1.1-6.8-1.5-10.7-6.2-4.4-5.5-11.3-11.8-23.1-21.1-4.1-3.3-7.7-6.1-7.9-6.3-1-1,6.3-.3,13,1.2ZM754.31,445.79c2.7-.4,5.4-.8,5.9-1,.6-.2,3.1-.4,5.7-.4,4.5-.1,5,.2,20,12.7,16.8,14.1,21.7,19.1,24.8,25.2,1.1,2.2,1.9,4,1.8,4-.2,0-5.7-1.8-12.3-3.9-11.3-3.7-12.2-4.2-15.5-8.5-3.6-4.6-18.7-16.8-29.4-23.6l-5.9-3.8,4.9-.7ZM730.01,449.99c10-2.4,10.7-2.3,16.2,3.4,2.8,2.8,10.2,9,16.5,13.8,13.5,10.4,14.2,11.1,16.9,17.4,1.9,4.4,1.9,4.8.3,4.3-.9-.3-5.7-1.5-10.7-2.7-7.7-1.9-9.4-2.7-12-5.7-9-10.6-16.9-18-24.7-23.2l-8.7-5.9,6.2-1.4ZM702.71,457.89c.8-.3,4.2-1.4,7.5-2.5l6-1.8,14.4,13.6c7.9,7.5,16.3,16.2,18.8,19.3,2.4,3.2,4.1,5.8,3.8,5.8-.4,0-4.6-2.1-9.3-4.7-4.8-2.5-9.6-5.1-10.7-5.7-1.1-.6-3.8-3-5.9-5.4-4.7-5.2-11.8-10.5-20-14.8-3.9-2.1-5.5-3.5-4.6-3.8ZM685.61,462.99c2.5-.8,4.8-1.6,4.9-1.6.2-.1,5,2.9,10.5,6.6,11.8,7.7,21.1,16.1,23.9,21.6,1.1,2.2,1.7,4.1,1.4,4.4-.8.8-15.9-2.6-18.3-4.2-1.2-.8-2.7-1.5-3.2-1.5s-3.8-3-7.3-6.8c-3.4-3.7-8.6-9-11.4-11.8l-5.1-5.1,4.6-1.6ZM664.21,475.19c-3.8-2.1-6.8-3.9-6.5-4,.3,0,3.7-.9,7.5-1.8l7-1.8,3.5,4.1c1.9,2.2,6.4,7.2,10,11.1,7.4,7.9,14,15.9,14,16.9,0,.3-1.9.6-4.2.6-3.9,0-4.5-.3-6.3-3.7-2.6-4.9-16.2-16.5-25-21.4ZM687.51,549.19l-1.3,4-3.5-3.4c-1.9-1.8-6.4-5.5-9.9-8.2-7.6-5.6-20.8-21.9-16.5-20.3,5.4,2.1,10.4,0,10.4-4.4,0-3.5,13.3,11.7,18,20.6,3.9,7.4,4,7.8,2.8,11.7ZM715.61,546.19c-.3.7-2,.1-4.2-1.5-2.1-1.4-6.4-4-9.6-5.7-3.8-2.1-8.6-6.2-13.6-11.7l-7.8-8.4,2.8-.8c3.8-1,7.3-4.4,8-8,.6-2.5.9-2.7,2.2-1.6.9.7,3.4,3.8,5.7,6.8,11.6,15.7,17.7,27.2,16.5,30.9ZM745.31,544.99c-.3.4-2.9-.4-5.6-1.7-5.3-2.5-17.1-14.3-25.3-25.4l-4.4-5.8,2.4-2.4c2.9-2.9,2.9-3.3-.2-7.8l-2.5-3.7,2.2.7c1.3.3,3.5,1.3,5,2,4.6,2.3,22.9,22.8,24.7,27.7,1.8,4.6,4.3,15.8,3.7,16.4ZM786.41,544.79c-.3,2.1-.8,4-1.1,4.3-.3.3-3.8-1.8-7.8-4.5-4-2.8-9.3-6.1-11.8-7.3-2.7-1.3-9.6-7.5-17.2-15.2-12.6-12.8-12.7-12.9-10.8-14.8,2.4-2.4,2.4-2.6.5-8-.8-2.3-1.5-4.4-1.5-4.6s2.6,1.4,5.8,3.5c3.1,2.2,14.4,12.8,25.1,23.5q19.4,19.4,18.8,23.1ZM824.21,552.29c-3.4,3.8-8.6,2-23.5-8.2-10.8-7.4-45.2-40.8-42.1-40.8s7.1-3.9,7.1-6.8c0-2.5.4-2.3,6.3,3.4,3.4,3.4,8.9,8.1,12.2,10.6,8.8,6.6,29.1,25.4,35.9,33.2,5.7,6.5,5.8,6.7,4.1,8.6ZM848.51,559.99c-2.4-1.8-5.4-4-6.8-4.8-1.4-.9-6.8-5.7-12.1-10.5-13.6-12.6-39.6-35.8-48.5-43.2-4.1-3.4-7.3-6.2-7.1-6.2.3,0,3.1,1.2,6.3,2.6,4.2,1.8,7,2.5,9.6,2.1,3.4-.5,4.6.2,16,9,20.4,15.6,48,44.2,50.3,52,1,3.4-2.4,3-7.7-1ZM894.31,571.09c-.7.6-7-3.3-15.7-9.9-4.2-3.2-11.1-7.8-15.5-10.4-5.5-3.3-11.9-8.6-20.9-17.4-14.1-13.8-26.1-24.1-39.5-33.8-6.5-4.7-9.1-7.3-10.7-10.7l-2.2-4.4,6.2,3.7c3.4,2.1,10,5.2,14.7,7,4.7,1.8,9.5,3.8,10.7,4.4,3.9,2.2,49.7,37,57.3,43.6,8.9,7.9,9.7,8.7,10.9,12.6.6,1.6,1.9,5.7,3.1,8.9,1.1,3.3,1.8,6.1,1.6,6.4ZM932.51,571.29c-1.3,0-19.9-9.5-28.4-14.6-4.3-2.5-11.9-8.3-16.9-12.8-4.9-4.6-12.4-10.9-16.6-14.2-4.1-3.2-10.7-8.5-14.5-11.7-3.8-3.2-12.4-9.7-19.1-14.5-10.2-7.1-12.3-9.1-12.3-11.2,0-1.4-.9-4.4-2-6.8-1-2.3-1.7-4.2-1.4-4.2.2,0,4.4,2.5,9.1,5.5,5.7,3.6,9.8,5.5,11.7,5.5,2.4,0,7.7,3.5,24.7,16.2,11.8,9,25.3,19.4,29.9,23.3,4.6,3.8,13.9,11.5,20.7,17,6.8,5.6,13,11.2,13.7,12.7,1.6,3,2.5,9.8,1.4,9.8ZM968.51,572.29c-4.9-.7-7-1.7-13.6-6.7-4.3-3.2-11.5-8.1-16.1-10.8-16-9.5-28.7-18.5-37-26.1-4.7-4.2-13.7-11.5-20-16.2-6.4-4.7-14.8-11.4-18.7-14.8-4-3.4-9-7.3-11.3-8.6-2.2-1.2-4.1-2.9-4.1-3.5,0-.7-1.7-5.5-3.9-10.7l-3.9-9.5,5.7,3.6c3.1,2,8.5,5.4,12.1,7.6,35.5,21.6,48.9,31.4,73,52.9,11.7,10.5,44.3,42.9,43.7,43.4-.1.1-2.8-.2-5.9-.6Z"/>
      <path class="cls-2" d="M309.81,575.19c-5.9,5.9-13.6,20.9-18,35.1-2.2,6.9-4.2,14.1-4.5,16-1.6,9.5-3.6,28.1-3.6,33.3,0,7.7,3.4,22.6,6.8,29.6,3.8,7.8,10.9,15.1,14.8,15.1s7.1-2.4,8.9-6.7c1.6-3.8,3.3-28.4,3.1-44,0-5,.2-9.5.6-9.9.8-.8,11.6,1.3,13.3,2.6,1.8,1.3,22,7.8,28.2,9,9.7,1.9,15.6.1,9.8-3-4.1-2.2-4.3-5.5-.6-10,1.7-2.1,3.1-4.2,3.1-4.6s.7-1.6,1.7-2.6c.9-1,1.4-2,1.2-2.1-.2-.2-4.3-3.4-9.2-7.1-13.4-10.4-35.4-34.2-48-52.1-1-1.4-2.2-2.5-2.7-2.5-.6,0-2.8,1.8-4.9,3.9ZM314.71,592.69c0,.7-1.5,4.7-3.4,8.9-5.9,12.9-9.5,26.8-10.3,39.3-.7,13.8,1.1,31.4,4.3,40.9,4.4,13,2.1,17.3-3.3,6.2-5.1-10.2-6.8-19.9-6.7-37.7,0-15.4,0-15.5,4.3-29,3.9-12,9.5-25.3,12.3-28.8,1.4-1.6,2.8-1.5,2.8.2Z"/>
      <path class="cls-2" d="M603.31,614.19l-7.9,8,11.9,13.2c6.5,7.3,14.4,16,17.4,19.5,3,3.4,11.8,13.1,19.4,21.5,7.7,8.5,19.4,21.5,26,28.9,6.7,7.4,16.2,17.9,21.2,23.4l9,9.9-8.1,8.1c-38.3,38.2-39.8,85.8-3.7,119.7,4.8,4.5,11.4,9.9,14.6,12.2,7.5,5.1,26.6,14.2,34.2,16.3,9.2,2.5,23.7,3,31.4,1,8.5-2.2,21.9-9.8,28.8-16.2l5.4-5.2,3.4,1.4c3.8,1.6,10.8,2.1,13.9,1.1,1.5-.5,2.5.1,4.3,2.9,3,4.6,6.3,5.8,10.6,4,4.6-1.9,6.6-7.4,4.1-11.3-.9-1.4-2.9-3-4.5-3.6-2.5-1-2.6-1.3-1.7-4.3.7-2.1.6-5.9,0-11.3-1.2-9-2.4-10.9-14.6-23.7-3.7-3.9-10.5-11.4-15-16.7s-12.6-14.5-18-20.3c-5.4-5.9-14-15.7-19.2-21.8-5.1-6.1-11-12.7-13.1-14.6-4.6-4.1-3.3-2.5,6.7,9.1q26.2,30.4,32.9,37.5c2.7,2.8,7.5,8.4,10.8,12.5s9.5,11,13.7,15.4c10.9,11.2,12.4,13.5,13.5,19.6.4,3,1.1,6.2,1.5,7.1.5,1.2-1.2,3.5-5.9,8.2-3.6,3.6-6.3,6.6-5.9,6.6,1.7,0,7.8-4.7,9.4-7.4,1.2-1.9,1.9-2.5,1.9-1.5,0,1.5-7,8.7-8.8,9-.4.1-1.6.3-2.7.5-5.5,1-11.3.8-13.5-.6-1.1-.7-.1-2.2,5.2-7.4,10.2-9.9,12.1-12.9,11.4-17-.7-3.6-6.6-12.1-13.2-19.1-2.1-2.2-7.5-8.7-12.1-14.5-13.6-17.1-16.1-20.2-23.1-27.5-3.7-3.8-8.3-9-10.3-11.5s-6.8-7.9-10.7-12.1c-4-4.2-7.2-8-7.2-8.5,0-.4.7-1.5,1.5-2.4,2-2.2,1.3-4-2.4-6.5-1.6-1-2.7-2.3-2.4-2.8s0-1.3-.8-1.8c-1-.6.1-2.3,4.4-6.8,8.2-8.5,12.2-17.6,14.7-33.1,1.4-8.6-.9-18.4-2.6-11.3-.4,1.5-2.2,6-3.9,9.9-5.4,11.8-21,25.8-30.9,27.6-1.9.3-11.5-9.9-53.9-57.2-12.2-13.5-14.8-16.4-26.8-29.5-3.5-3.9-11.9-13.3-18.7-20.8s-12.7-13.7-13.1-13.7c-.3,0-4.2,3.6-8.5,7.9ZM624.31,634.19c3.5,8.6,4.6,12.3,3.4,11.6-.4-.2-3.3-3.6-6.4-7.4-4.2-5.1-6-8.4-7.2-12.7-.8-3.3-1.7-6.8-2-7.9s1.6.4,4.3,3.4c3,3.5,5.9,8.2,7.9,13ZM643.91,653.79c4.5,6,5.8,8.6,6.3,13.1.2,2.4.1,2.4-3.9-.9-3.6-3-4.4-4.4-6.3-11.7-1.2-4.6-1.8-7.9-1.4-7.4s2.8,3.6,5.3,6.9ZM674.51,691.99c3,3.6,5.2,7.2,5.2,8.5l-.1,2.3-2-2.5c-1.2-1.4-4.4-5-7.1-8-4.9-5.4-5.9-7-7.2-12-.6-2.1-.2-1.9,2.6,1.4,1.8,2.2,5.7,6.8,8.6,10.3ZM755.21,712.89c-4.8,10.9-12.8,20.9-19.5,24.4-1.9,1-7.8,5.6-13.1,10.2-5.3,4.5-16.4,14.1-24.8,21.2-18,15.3-24.6,22.3-27.7,29.3-2.7,6-3.3,6.6-2.7,2.5,1.9-12,5.1-19.7,14.5-34.3,8.6-13.2,17.7-19.9,46.4-33.8,14-6.9,16.6-8.5,20.7-13.2,2.6-2.9,5.5-7.3,6.4-9.6,1-2.4,1.9-3.9,2.1-3.5.1.5-.9,3.5-2.3,6.8ZM731.21,746.09c-.6.5-3.6,3.2-6.8,6.2-3.1,2.9-6,5.1-6.3,4.7-.5-.5,12.4-11.7,13.5-11.7.3,0,.1.4-.4.8ZM735.71,746.99c0,1.8-11.8,13.3-13.7,13.3-3.1,0-1.7-2.4,4.9-8.4,4-3.6,7.6-6.6,8.1-6.6.4,0,.7.8.7,1.7ZM736.71,752.49c0,1.6-11.3,10.8-13.1,10.8-1.4-.1,10.9-12,12.4-12,.4,0,.7.6.7,1.2ZM739.01,756.59c-1,1.8-10.4,9.7-11.5,9.7-2,0-.3-2.1,5.3-6.9,5.9-5,8-5.9,6.2-2.8ZM709.51,764.99c-4.6,4.9-13.4,17-25.1,34.8-5.5,8.2-11.7,20.5-11.7,23,0,.8-.4,1.6-.9,2-1.5.8-2.5-3.4-2.3-9.7.2-12.2,9.2-25,31.2-44.4,10.7-9.5,15.3-12.4,8.8-5.7ZM720.51,767.29c.7,0,1.2.7,1.2,1.5s.8,1.9,1.9,2.4c1,.6,2.2,2.2,2.5,3.6.4,1.4,2,3.2,3.9,4.1,3.7,2,5.6,4.2,5.7,6.7,0,1,2,3.8,4.5,6.4,2.5,2.5,4.5,5.5,4.5,6.6,0,2.2,3.6,6.7,5.5,6.7.6,0,2.3,1.9,3.8,4.2,1.5,2.4,4,5.2,5.7,6.3,1.6,1.1,3,2.6,3,3.4,0,1.9,3.9,6.1,5.7,6.1.7,0,1.3.7,1.3,1.5,0,.7.6,1.8,1.4,2.2s1.5,1.6,1.7,2.6,1.8,2.6,3.4,3.5c1.7.9,3.2,2.1,3.4,2.5.1.4,2.6,3,5.5,5.7,9.1,8.8,9.8,9.5,11.5,12,1.1,1.6,1.6,4.6,1.6,9v6.5l-6.6,6.7c-9.9,10-20.6,14.3-35.9,14.2-20.6-.2-30.3-4.6-54.9-25.3-7.2-6-18.2-19.3-23.5-28.4-2.6-4.3-2.6-4.4-1-9.8.9-3,2.4-6.8,3.3-8.4,1-1.7,2.4-4.6,3.2-6.5,1.9-5,8.6-16.6,13.1-22.7,2.1-2.9,3.8-5.5,3.8-5.8,0-1.2,4.9-7.8,10.5-14.2,5.3-5.9,5.9-6.3,7.4-4.9,1,.9,2.3,1.6,2.9,1.6ZM755.61,767.69c.9,1-.4,2.3-6.1,6.2-13.4,9.1-12.8,8.7-12.8,7.2,0-.8,2.4-3.1,5.3-5.1s6.6-5,8.2-6.7c3.2-3.4,3.8-3.6,5.4-1.6ZM765.21,781.09c-.6.5-5,3.7-9.8,7.1-6.5,4.7-9.2,6-10,5.2s-.8-1.1.2-1.1c1.5,0,13.7-8.8,16.6-12,1.3-1.4,2.2-1.7,2.9-1,.6.6.6,1.3.1,1.8ZM775.41,790.89c.2.5-1.1,1.8-2.9,2.9-1.8,1-6.6,4.3-10.5,7.2-4,3-7.3,5-7.3,4.6.1-.4,2.8-2.8,6-5.2,3.3-2.5,7.4-6,9.2-7.8,3.1-3.2,4.8-3.7,5.5-1.7ZM783.51,801.49c-.5,1.5-8.3,7.6-15,11.8-7.6,4.7-6.5,1.6,1.4-4.3,4-2.9,7.9-6.1,8.7-7,1.6-2,5.5-2.3,4.9-.5ZM790.11,817.09c-4.1,3.6-14.9,10.2-16.9,10.2-.3,0-.5-.6-.5-1.3,0-.6,2.9-2.5,6.4-4,3.5-1.6,8.1-4.6,10.1-6.7,2.1-2.2,4.3-3.6,4.9-3.3.5.4-1.2,2.6-4,5.1ZM668.31,824.79c2.6,8.6,10.5,21.7,19.8,32.9,4.8,5.9,20.5,19,29.4,24.8,3.4,2.3,6.2,4.2,6.2,4.4,0,.9-15.9-8-21.8-12.3-3.6-2.6-10.5-8.5-15.2-13.2-7.5-7.4-9.3-10-13.7-19.1-5-10.2-7.4-18.2-7.2-23.8.1-2,.2-2.2.6-.7.2,1.1,1.1,4.2,1.9,7ZM800.81,828.69c-1.9,1.9-5.9,4.5-9,5.7s-6.2,2.7-6.8,3.2c-.9.6-1.3.5-1.3-.5,0-.8,1.6-2.2,3.6-3.1,5.9-2.9,14.5-9.7,13.8-11-.4-.7.1-.4,1.2.5,1.8,1.7,1.7,1.9-1.5,5.2ZM812.61,835.99c-.1,1.4-14,12.3-15.6,12.3-.8,0,1.2-1.8,4.5-4s6.7-5.1,7.6-6.5c1.6-2.4,3.7-3.4,3.5-1.8ZM830.61,876.69c.9,1,.9,1.6.1,2.1-1.6,1-4-.2-4-2,0-1.9,2.4-2,3.9-.1Z"/>
      <path class="cls-2" d="M555.21,653.39c-9.9,6.7-16.9,10.9-18.5,10.8-1.4,0-7.1-3-13-6.9-5.7-3.8-10.6-6.7-10.8-6.5s.3,3.7,1.1,7.7c.9,4,2.3,11.3,3.2,16.3,3.4,19.3,6.6,36.3,8.2,43.2,1.7,7.1,1.6,7.3-.3,8.8-8.1,6.1-37,16.4-47,16.7-10.1.4-9.7,1.7-8.9-28.4.7-25,.7-25.9-1.4-31.1l-2.2-5.3-5.7,2.8c-8.6,4.2-17.4,6.7-26.5,7.4-7.4.6-8.5,1-11.5,3.8-1.8,1.7-4.7,5.6-6.5,8.6-1.7,3-5.7,9.5-8.9,14.5-3.2,4.9-5.8,9.3-5.8,9.7,0,.8,6.2,3.7,16,7.5,3.6,1.3,15.3,4.7,26,7.4,38.5,9.6,56.4,16.8,68.6,27.3,4.2,3.5,13.4,16.3,13.4,18.4,0,2.6-2.9.9-7.4-4.3-5.8-6.8-12.7-11.6-27.1-18.8-12.6-6.3-22.6-9.5-40.5-13.1-17.3-3.5-30.5-7-43.8-11.5l-11.3-3.8-2.5,3.6c-1.3,1.9-2.4,4-2.4,4.6,0,1.9,14.6,10.5,24.6,14.6,11,4.5,29,10,40.4,12.3,16.7,3.4,38.7,13,50.8,22.1,7.7,5.8,12.4,12.2,14.7,20.2,2.4,8.2,6,14.7,8.7,16,1.8.8,3.2.7,5.9-.4,5.5-2.3,8.8-6.2,13.9-16.3,13.2-26.1,23.5-32.9,64.5-42.6,3.9-.9,10.8-3.2,15.5-5,4.7-1.9,12.8-5,18-6.9,18-6.4,44-19.8,44-22.6,0-.6-1.7-2.8-3.7-5l-3.8-4-6.5,2.9c-12.5,5.7-42.7,16.1-68.6,23.6-31.7,9.2-42.6,13.2-51.8,19.4-11.3,7.5-17.4,14.8-21.7,26.4l-2,5.3.4-4.7c1.2-13.3,14.7-27.3,34.6-35.9,8.4-3.6,25.5-9,49.9-15.9,18.7-5.2,51.4-16.9,60.8-21.8l3.3-1.7-9.1-10c-5.1-5.5-12-13.2-15.5-17l-6.4-7-12.7.3c-11.2.3-13.4.1-18.6-1.9-18.6-6.9-36.1-22-44.1-38-2-3.8-3.6-6.9-3.8-6.8-.1,0-7.4,5-16.2,11Z"/>
      <path class="cls-2" d="M724.21,652.59c-13.9,6.7-15.6,7.8-23,15.2-4.4,4.5-9.9,8.9-12.2,9.9-2.4,1.1-4.3,2.2-4.3,2.5,0,.6,8.2,10.1,18.9,21.9l5.5,6.1,5-4.2c2.8-2.2,6-5,7.1-6.2,1.1-1.1,3.3-3.2,5-4.5,4.6-3.9-3.4,5.3-10.1,11.5l-5.4,5,2.8,3.4,2.8,3.3,5.4-4.3c2.9-2.4,8.3-7.8,12-11.9l6.7-7.5,1.7-22.9c.9-12.5,1.3-23.2,1-23.7-1-1.7-4-.7-18.9,6.4Z"/>
      <path class="cls-2" d="M321.21,655.49c1.1,15.4,4.6,34.9,7.1,39.9,1.2,2.5,14.9,16.4,16.8,17.1.5.2,2.2-1.3,3.8-3.3l2.9-3.6-5.2-6.9c-9.3-12.3-21.3-41.4-17.1-41.4.4,0,3.1,4.7,5.9,10.4,3.8,7.7,7.2,12.6,12.9,19,4.2,4.7,8,8.6,8.4,8.6.3,0,1.8-2.4,3.3-5.3,2.2-4.1,3-7.3,3.5-14.7.8-8.8.7-9.6-1.3-11.6-1.1-1.1-5.4-3.1-9.5-4.3-7.6-2.3-25.5-9.5-27.4-11-.6-.4-1.9-1.1-3-1.5-1.7-.6-1.8-.1-1.1,8.6Z"/>
      <path class="cls-2" d="M455.11,668.79c-.4,1.1-2.1,1.5-5.9,1.5-5.2,0-5.4.1-12.4,7.2-3.8,4-6.9,7.3-6.8,7.4s2.9-.2,6.2-.6c6.2-.9,24.4-9.3,25.2-11.7.4-1.2-3.4-5.3-4.9-5.3-.5,0-1.1.7-1.4,1.5Z"/>
      <path class="cls-2" d="M385.61,750.49c-1.6,3.8-1.3,8.6.8,14.8.9,2.7,1.5,7.4,1.4,11.6-.3,11.5,3.8,21.8,12.6,31.8,2.4,2.6,4.5,5.8,4.7,7,3,15.5,5.7,21.7,13.2,29.6,4.1,4.4,7.9,6.9,13.7,8.9,1.5.6,2.7,1.8,2.7,2.6,0,2.9,4.8,11.2,8.3,14.2,5,4.4,14,8.4,23.2,10.3,5.6,1.2,9.6,2.8,13.1,5.2,8.9,6,18.9,8.1,39.4,8.4,9.6.1,19.9.6,22.9,1.1,8.5,1.6,17.5.1,24.9-4,5.4-3.2,7.1-3.6,13-3.6,9.5,0,17.1-2.9,27-10.3,2.9-2.2,6.2-5.4,7.2-7.1,1.5-2.4,3.1-3.4,7.2-4.4,16-4.1,27.8-16.3,30.3-31.3.6-3.4,1.7-5.4,4.7-8.3l4-3.9-.7-6.6c-.3-3.7-.2-9.8.4-13.7.6-3.8.9-7.1.7-7.3-.2-.1-2.7,1.9-5.7,4.7-5.3,5-10.9,7.5-19.2,8.4-4.7.6-3.9-.6,3.6-5.5,22.3-14.8,23-15.3,24.4-18.8.8-1.9,2.1-4.9,2.9-6.7.8-1.7,1.4-3.4,1.4-3.7,0-.4,1.8-3.5,4-6.8,3.1-4.8,4-7.2,4-10.4,0-4.9-1.3-6.3-3.8-4.1-.9.8-4.2,2.7-7.2,4.2-6.7,3.4-17.3,11-22.1,16.2-8.1,8.5-11.4,15.1-16.4,33.3-1.5,5.2-1.9,5.7-7.7,9-9.1,5.2-14.1,10.1-18.2,18-2.6,5-4.3,7-5.6,7-4.8,0-18.1,7.2-22.9,12.4-2.3,2.5-2.6,2.5-11.5,1.9-9.3-.5-21.1,1.4-29.6,5-3.3,1.4-3.6,1.4-7.7-1.5-2.4-1.6-5.8-3.5-7.6-4.3-4.5-1.9-15.3-2.7-21.4-1.7-5,.8-5.4.7-8-2-4-4.2-16.9-12.8-22.1-14.8-3.8-1.5-4.7-2.4-6.2-6.2-3.5-9.2-13-20.3-20.2-23.5-3.6-1.6-3.8-1.9-3.8-6.3,0-10.8-3.2-20.6-10.1-30.6-2-2.9-4.1-4.6-7.6-5.9-7.5-2.8-18.4-8.4-23.4-12.1-2.6-1.9-4.9-3.4-5.2-3.4-.2,0-1.1,1.4-1.8,3.2ZM418.21,781.19c-.9,2.7-2.9,6.9-4.4,9.2-2.8,4.3-4.1,7.6-5.8,14.9-1.9,7.6-5.9,1.6-4.8-7,.8-5.5,5.8-14.3,10.2-17.6,1.7-1.3,3.7-4.1,4.5-6.1,1.2-3.7,1.3-3.7,1.6-1,.2,1.5-.4,5-1.3,7.6ZM433.71,819.59c.7,11.4-.1,28.2-1.5,28.2-1.8,0-4.6-11.9-4.8-20.5-.2-9.9.6-13.7,3.1-14.2,2.3-.5,2.8.5,3.2,6.5ZM643.31,837.19c-7.1,7.4-23.5,10.1-30.9,5.1-2-1.4-3.7-2.8-3.7-3.2,0-1.8,16.5-4.4,29.4-4.6l8-.2-2.8,2.9ZM466.01,865.69c1.5,3.2,3,7.3,3.3,9l.5,3-2.2-1.9c-5.5-5.1-10.7-20.1-9.2-26.5.5-2.1,1-1.5,2.8,4,1.2,3.6,3.4,9.2,4.8,12.4ZM587.21,861.39c3.4,1.5,7.1,2.2,12.8,2.3,4.8,0,8.2.5,8.4,1.2,1.5,4.6-12.9,4.5-22.2-.1-9.4-4.7-8.5-7.6,1-3.4ZM503.71,869.39c11.8,12.6,16.2,17.1,19,19.4,2.1,1.6,2.2,2,.8,2.3-3.3.7-13.1-5.1-19.2-11.3-5.8-5.8-13.1-17.6-11.9-18.9,1.5-1.4,3.3,0,11.3,8.5ZM539.71,868.59c0,2,15.9,12.3,20.5,13.4,2.4.5,4,1.4,4,2.3,0,2.8-8.9,1.4-18.2-2.8-4-1.8-11-12.1-9-13.4,1.8-1.1,2.7-1,2.7.5Z"/>
      <path class="cls-2" d="M825.41,854.09c-4.1,6.5-8.4,10.8-13.9,14.1-2.1,1.3-3.8,2.5-3.8,2.7,0,.3.3.4.8.2,11.3-5.6,13.6-7.7,18.7-17,3.8-6.9,2.6-6.9-1.8,0Z"/>
      <path class="cls-2" d="M825.71,858.99c-1.9,2.5-5.9,6.5-8.8,8.9-6.2,5.1-5.6,5.8,1.1,1.3,3.9-2.6,12.6-13.4,11.5-14.4-.1-.1-1.9,1.7-3.8,4.2Z"/>
      <g>
        <path class="cls-4" d="M525.63,657.36c-22.8-16.01-25.18-17.75-31.87-23.23-10.31-8.45-26.68-24.71-33.68-33.45-23.15-29.15-28.43-59.1-29.76-168.64l-.2-22.74,86.81-.33c44.06-.1,96.67-.32,108.06-.55,1.76-.02,3.5-.03,5.15-.03,6.42,0,10.33.14,12.16.27.19,3.35.51,12.81,1.05,28.92l.25,7.54.04,1.03c.43,11.01.97,24.72,1.29,30.66,1.21,19.72-2.1,50.56-8.62,80.51-4.19,19.29-5.6,23.03-12.58,33.27-14.23,21.19-41.3,45.75-74.28,67.4l-11.96,7.8-11.88-8.43Z"/>
        <path class="cls-4" d="M630.14,410.38c4.76,0,8.13.08,10.24.17.2,4.41.5,13.53.96,27.14l.25,7.51.03.73c.44,11.12.98,24.96,1.31,31,1.19,19.54-2.09,50.17-8.58,79.96-4.12,18.96-5.49,22.61-12.29,32.59-14.08,20.96-40.95,45.32-73.7,66.83l-10.82,7.06-10.78-7.65c-22.73-15.97-25.1-17.7-31.74-23.14-10.23-8.38-26.45-24.49-33.38-33.15-22.8-28.72-28.01-58.45-29.33-167.42l-.19-20.74,84.79-.32c44.13-.1,96.78-.32,108.06-.56,1.78-.02,3.51-.03,5.15-.03M630.14,406.38c-1.66,0-3.4,0-5.2.03-10.55.22-59.18.44-108.03.56l-88.82.33.22,24.76c1.33,110.03,6.66,140.23,30.2,169.87,7.11,8.88,23.54,25.2,33.97,33.75,6.77,5.55,9.22,7.33,31.98,23.32l12.99,9.21,13.1-8.55c33.31-21.87,60.29-46.3,74.83-67.95,7.11-10.44,8.66-14.54,12.88-33.97,6.55-30.09,9.88-61.06,8.66-81.05-.33-6.11-.89-20.32-1.33-31.64-.89-26.42-1.22-36.97-1.44-38.08,0-.37-6.02-.58-14.01-.58h0Z"/>
      </g>
      <path class="cls-2" d="M518.05,418.32l-80,.3.2,22.3c1.2,99.1,6,126.3,27.2,153,6.4,8,21.2,22.7,30.6,30.4,6.1,5,8.3,6.6,28.8,21l11.7,8.3,11.8-7.7c30-19.7,54.3-41.7,67.4-61.2,6.4-9.4,7.8-13.1,11.6-30.6,5.9-27.1,8.9-55,7.8-73-.3-5.5-.8-18.3-1.2-28.5-.8-23.8-1.1-33.3-1.3-34.3,0-.4-7.9-.6-17.3-.5-9.5.2-53.3.4-97.3.5Z"/>
      <g>
        <path class="cls-2" d="M497.53,450.87l33.75-17.75c1.04-.55,2.25-.67,3.38-.34l45.36,13.25c1.93.56,3.26,2.34,3.26,4.35v24.61c0,.31.03.63.1.93l20.14,95.66c.53,2.53-1.16,4.99-3.71,5.4l-77.38,12.5c-.64.1-1.28.07-1.91-.1l-44.26-11.98c-2.36-.64-3.79-3.04-3.22-5.43l21.74-90.98c.08-.33.12-.67.12-1.01l.21-25.16c.01-1.67.94-3.19,2.42-3.97Z"/>
        <path class="cls-4" d="M548.22,439.61c7.6,2.2,18.2,5.2,23.5,6.8l9.8,2.8v13.7l-3.6-.6-3.5-.7.7,3.5c.6,3.5.5,3.6-2.5,3.6-3.3,0-4.2,1.4-1.5,2.4.9.3,3,.6,4.7.6,1.8,0,3.9.5,4.7,1.1,1.1.8.3.9-3,.5-8.3-1.1-29.4-3.4-36.2-4.1l-6.8-.7v-5.9c0-3.3.4-5.9,1-5.9s1,1.3,1,3c0,2,.5,3,1.5,3s1.5-1,1.5-3,.5-3,1.5-3c.8,0,1.5-.5,1.5-1,0-.6-1.8-1-4-1h-4v-4.9c0-2.6-.3-6.9-.6-9.5-.4-2.5-.4-4.6-.1-4.6.4,0,6.9,1.8,14.4,3.9ZM531.52,437.91c0,.7-2.5,2.4-5.5,3.7-5.6,2.4-7.1,4.1-3.5,4.1,1.6,0,2,.7,2,3,0,1.6.5,3,1,3,.6,0,1-1.7,1-3.8,0-3.2.5-4.1,2.5-5l2.5-1.2v13.5c0,7.4-.1,13.5-.2,13.5-.2,0-7.8,2.2-17,4.9-14.9,4.3-16.8,4.7-16.8,3.1s1.6-2.6,7.3-4.4c1.8-.6,2.4-2.6.7-2.6s-1.1-3.2.7-4.6c2.9-2.1.5-2.9-3.2-1.1-2,.9-4,1.7-4.5,1.7-.6,0-1-2.7-1-6v-6l4.1-2.1,4.2-2.1-.7,3.6c-.9,4.7.7,5.3,7.4,3.1l5-1.7v-10.7l6.3-3.5c6.8-3.9,7.7-4.2,7.7-2.4ZM513.82,449.71c2.4,0,2.2,2.7-.3,3.4-1.1.3-2.9.9-4,1.2-1.7.4-2,.1-2-2.6,0-2.9.3-3.2,2.3-2.6,1.2.3,3,.6,4,.6ZM581.52,467.21c0,1.8-.5,2.5-2,2.5s-2-.7-2-2.5.5-2.5,2-2.5,2,.7,2,2.5ZM501.12,470.21c-.7,1.9-3.6,1.9-3.6,0,0-1.7,3.3-3.8,3.8-2.4.2.5.1,1.6-.2,2.4ZM560.42,474.21c11.2,1.3,20.7,2.7,21.1,3.2.3.4,2.3,8.9,4.4,18.8s5.9,28.1,8.6,40.5c5,23.5,7.4,36.9,6.9,37.5-.3.2-24.8,4.5-26,4.5-.2,0-.4-4.6-.3-10.3,0-8.6.3-10.2,1.6-10.5,1.1-.2,1.8.5,2,1.9.2,1.2.9,2.4,1.6,2.7,1.3.4,1.5-4.4.4-8.6-.8-2.7-2.8-2.8-2.4,0,.6,3.3-3.6,2.2-5.1-1.5-2.2-5.1-5.3-7.2-10.2-7.1-2.4,0-5.6.9-7,1.8-2.1,1.4-2.9,1.5-4.1.5-1.4-1.1-1.3-1.5.8-3,1.2-1,2-2,1.7-2.3-1-1-6.9,3.4-8.9,6.6-2.1,3.5-2.7,7.8-1,7.8.6,0,1-.9,1-1.9s.8-2.9,1.8-4.1c1.5-1.9,1.9-2,3-.7.9,1.1,1,2.2.2,4.1-.5,1.5-1,5.9-1,9.7,0,6.2-.2,6.9-2,6.9-1.2,0-2-.7-2-1.6s-.6-1.4-1.2-1.2c-.8.3-1.3,2.1-1.3,4.3s.5,4,1.3,4.2c.7.3,1.2-.4,1.2-1.6,0-1.4.6-2.1,2-2.1s2,.7,2,2.4c0,1.3.3,3.8.6,5.5.6,2.9.5,3.1-2.3,3.1-1.6,0-7.6.7-13.3,1.5-5.6.9-10.4,1.4-10.6,1.2-.4-.4,2.3-32.9,7.1-84.3,1.4-15,2.5-28.1,2.5-29.2,0-1.8.5-2,3.3-1.6,1.7.3,12.4,1.6,23.6,2.9ZM530.52,474.41c0,2.3-2.9,36.2-6.6,77l-.7,7.3-7.1.1c-3.9.1-6.1.4-4.8.6,1.5.3,2.2,1.1,2.2,2.9,0,2.1-.5,2.4-3.4,2.4-1.9,0-3.8.4-4.1,1-.4.6,1.1,1,3.7,1,5.1,0,7.1,1.1,6.2,3.3-.4,1.2-.1,1.7,1,1.7.9,0,1.6-.8,1.6-2,0-1.3.7-2,1.9-2,1.7,0,1.9.6,1.5,6.2-.7,9.3-1.4,12.8-2.5,12.8-2.7,0-43.5-11.3-44.6-12.3-.7-.7,8.2-34,9.7-36.4q1-1.6.5.4c-.8,3.1,1.3,3.9,2.5.9.5-1.4,1.6-2.6,2.5-2.6.8,0,1.5-.5,1.5-1,0-.6-1.4-1-3.1-1h-3.1l.7-4.8c.5-3.8,7.4-32.4,7.9-32.8,0-.1,1.3-.4,2.9-.8,3.2-.7,3.5.4,1.2,4.8l-1.5,2.9,4.2-.6c6.6-1,11.8-2.7,11.8-3.9,0-1-5.9-.5-9.4.8-1.2.5-1.6,0-1.6-1.9,0-1.7.7-2.6,2.2-3.1,1.5-.3,1.9-.9,1.3-1.5-.7-.7-2.5-.7-5.4,0-2.4.5-4.5.8-4.7.7-.4-.4,2.4-11.9,3-12.6.7-.6,29.4-9.9,31.4-10.1.7-.1,1.2,1.1,1.2,2.6ZM522.52,563.21c0,2.1-.5,2.5-3,2.5-2.3,0-3-.5-3-1.9,0-1.8,1.4-2.7,4.8-3,.6,0,1.2,1,1.2,2.4Z"/>
        <path class="cls-2" d="M549.21,457.79c-.4,3.1-.6,5.7-.4,5.9s3.8.7,8,1.1l7.7.7.7-5.2c.4-2.8.4-5.4.1-5.7-.7-.7-9-2.2-12.8-2.2-2.5-.1-2.7.3-3.3,5.4Z"/>
        <path class="cls-2" d="M551.91,486.99c-2.2.9-.2,2.3,3.4,2.3,2.4,0,3.4.5,3.4,1.5,0,.8-.9,1.5-2,1.5s-2,.4-2,1,2.8,1,6.5,1,6.5-.4,6.5-1-1.6-1-3.5-1c-2.4,0-3.5-.5-3.5-1.4,0-.8.5-1.6,1.2-1.8.6-.2.8-1,.4-1.6-.7-1.2-7.9-1.5-10.4-.5Z"/>
        <path class="cls-2" d="M557.71,499.69c0,.9,1.1,1.6,2.8,1.8,2.1.2,2.8.9,3,3,.4,3.8,2.2,3.6,2.2-.2,0-2.8.2-3,4.1-3,2.8,0,3.9-.4,3.7-1.3-.3-.8-3.1-1.3-8.1-1.5-6.3-.2-7.7,0-7.7,1.2Z"/>
        <path class="cls-2" d="M531.01,523.99c-2.2.8-1.4,2.3,1.2,2.3,2.1,0,2.5.5,2.5,3,0,2,.5,3,1.5,3s1.5-1,1.5-2.9c0-2.5.5-3,2.7-3.3,1.4-.2,2.8-.9,3.1-1.6.3-.9-1.2-1.2-5.5-1.1-3.2,0-6.4.3-7,.6Z"/>
        <path class="cls-2" d="M572.71,532.19c0,.5,1.7,1.2,3.8,1.6,2.9.4,3.8,1.1,3.8,2.6,0,1.4-.5,1.7-1.9,1.3-1-.3-3-.2-4.5.2l-2.7.7,3,.7c4.6,1.1,12.5,1.1,12.5,0,0-.6-.9-1-2-1-1.5,0-2-.7-2-2.5,0-1.6.6-2.5,1.5-2.5.8,0,1.5-.5,1.5-1,0-.6-2.8-1-6.5-1s-6.5.4-6.5.9Z"/>
        <path class="cls-2" d="M536.71,534.29c0,1,2,1.4,5.3,1.2,1.3-.1,1.7.6,1.7,2.8,0,1.7.5,3,1,3,.6,0,1-1.3,1-3,0-2.2.4-2.9,1.8-2.8,3.2.2,5.2-.2,5.2-1.2,0-.6-3.3-1-8-1s-8,.4-8,1Z"/>
      </g>
    </g>
  </g>
  <text class="cls-6" transform="translate(1153.3 760.54)"><tspan x="0" y="0">M</tspan><tspan class="cls-8" x="437.31" y="0">V</tspan><tspan x="720.05" y="0">A</tspan></text>
</svg>