<?xml version="1.0" encoding="UTF-8"?>
<svg id="Layer_1" data-name="Layer 1" xmlns="http://www.w3.org/2000/svg" viewBox="0 0 5305.14 1449.02">
  <g id="Layer_7" data-name="Layer 7">
    <g>
      <polygon points="311.04 214.51 983.61 214.51 983.61 96.79 313.9 109.93 311.04 214.51" style="fill: #d1ac23; stroke-width: 0px;"/>
      <path d="M998.46,84.79C936.67,53.37,808.06-1.67,637.06.22c-157.95,1.74-277.37,51.22-338.6,81.75,4.19,44.18,8.39,88.36,12.58,132.53,49.32-30.4,165.83-93.06,326.86-95.43,172.03-2.53,296.66,65.2,345.71,95.43,4.95-43.24,9.9-86.48,14.85-129.71Z" style="fill: #ffd12b; stroke-width: 0px;"/>
      <polygon points="366.47 214.51 437.32 176.79 465.32 214.51 366.47 214.51" style="fill: #ffd12b; stroke-width: 0px;"/>
      <polygon points="837.9 214.51 853.9 176.79 935.61 214.51 837.9 214.51" style="fill: #ffd12b; stroke-width: 0px;"/>
      <g>
        <path d="M349.25,143.67c-6.97-7.96-14.06-15.84-21.24-23.61,3.51,9.13,7.04,18.25,10.61,27.36-2.39,1.14-3.58,1.72-5.96,2.89-5.11-12.89-10.17-25.8-15.17-38.74,3.52-1.71,5.29-2.55,8.82-4.2,6.99,7.65,13.88,15.41,20.67,23.24-1.51-10.23-2.89-20.48-4.14-30.75,3.57-1.57,5.35-2.34,8.93-3.86,6.41,12.29,12.77,24.61,19.07,36.96-2.45,1.03-3.67,1.55-6.11,2.6-4.56-8.62-9.14-17.22-13.76-25.8,1.05,10.27,2.23,20.53,3.55,30.76-2.11,1.25-3.16,1.88-5.26,3.14Z" style="stroke-width: 0px;"/>
        <path d="M383.5,128.8c-2.49.99-5,.5-7.56-1.48-2.56-1.98-4.79-5.23-6.65-9.76-2.24-5.45-2.8-10.09-1.6-13.91,1.19-3.82,4.04-6.64,8.51-8.37,2.51-.98,5.65-1.65,9.38-1.98,3.68,9.82,7.35,19.63,11.03,29.45-2.55.96-3.83,1.44-6.37,2.42-.68-1.93-1.02-2.89-1.69-4.82-.08.03-.11.04-.19.07-.21,4.4-1.81,7.18-4.84,8.38ZM382.11,121.11c1.05-.42,1.79-1.49,2.22-3.21.43-1.73.66-3.73.67-6-1.51-3.9-2.26-5.86-3.76-9.76-.6,0-1.19.08-1.78.22-.59.14-1.11.3-1.57.48-3.96,1.55-4.68,5.47-2.18,11.71.97,2.43,2.03,4.23,3.17,5.41,1.14,1.18,2.21,1.57,3.23,1.16Z" style="stroke-width: 0px;"/>
        <path d="M401.22,121.03c-1.04-2.83-1.56-4.24-2.59-7.07,1.76-.64,2.63-.96,4.39-1.59-3.43-9.55-6.86-19.1-10.3-28.65-1.73.62-2.6.94-4.33,1.57-1.03-2.81-1.54-4.21-2.57-7.02,4.61-1.69,6.92-2.51,11.55-4.12,4.15,11.94,8.31,23.87,12.46,35.81,1.76-.61,2.65-.92,4.41-1.52.97,2.85,1.46,4.28,2.43,7.13-6.2,2.11-9.3,3.21-15.46,5.47Z" style="stroke-width: 0px;"/>
        <path d="M429.82,112.2c-2.31.74-4.33.6-6.08-.42-1.74-1.02-3.06-2.85-3.93-5.49-2.11-6.36-3.16-9.54-5.27-15.9-1.59.53-2.39.79-3.98,1.33-.96-2.85-1.45-4.28-2.41-7.14,1.61-.54,2.41-.81,4.02-1.35-.86-2.6-1.29-3.9-2.16-6.5,2.28-1.28,4.54-2.41,6.77-3.39.97,3.04,1.46,4.55,2.43,7.59,2.62-.84,3.93-1.25,6.56-2.07.89,2.88,1.34,4.32,2.23,7.19-2.6.81-3.9,1.22-6.49,2.05,1.85,5.76,2.77,8.64,4.62,14.41.55,1.7,1.6,2.3,3.16,1.8.91-.29,1.87-.87,2.88-1.75,1.39,2.33,2.09,3.5,3.47,5.83-1.7,1.83-3.63,3.09-5.81,3.79Z" style="stroke-width: 0px;"/>
        <path d="M447.07,106.92c-2.55.75-4.99.01-7.34-2.2-2.35-2.22-4.25-5.66-5.69-10.34-1.72-5.64-1.85-10.3-.32-13.99,1.53-3.69,4.6-6.21,9.17-7.51,2.58-.73,5.73-1.1,9.45-1.07,2.74,10.12,5.48,20.23,8.22,30.35-2.61.71-3.92,1.07-6.52,1.8-.49-1.98-.74-2.97-1.23-4.96-.08.02-.12.03-.2.05-.61,4.35-2.45,6.97-5.55,7.87ZM446.39,99.14c1.08-.31,1.91-1.31,2.49-2.98.59-1.68.99-3.65,1.21-5.91-1.13-4.03-1.7-6.04-2.83-10.07-.59-.05-1.19-.03-1.78.05-.59.08-1.12.19-1.59.32-4.06,1.16-5.13,4.99-3.22,11.44.74,2.51,1.62,4.4,2.64,5.68,1.02,1.28,2.04,1.77,3.09,1.47Z" style="stroke-width: 0px;"/>
        <path d="M483.55,96.34c-6.92-12.59-13.97-25.09-21.16-37.52,3.31-.84,4.97-1.24,8.29-2.04,5.15,9.6,10.23,19.23,15.25,28.91.3-10.89.67-21.77,1.11-32.65,3.1-.67,4.65-1,7.76-1.64-1.04,14.32-1.93,28.64-2.65,42.98-3.44.77-5.16,1.16-8.59,1.97Z" style="stroke-width: 0px;"/>
        <path d="M517.06,90.24c-4.08.76-7.58-.08-10.54-2.53-2.97-2.45-5-6.27-6.07-11.48-.7-3.42-.79-6.47-.23-9.17.55-2.69,1.66-4.91,3.34-6.64,1.67-1.73,3.83-2.84,6.45-3.33,3.86-.72,7.1.22,9.67,2.81,2.57,2.59,4.32,6.67,5.26,12.23.06.37.12.73.18,1.07.06.35.1.69.12,1.02-6.86,1.17-10.29,1.79-17.13,3.13,1.53,4.27,4.33,6,8.42,5.25,1.26-.23,2.52-.66,3.76-1.29,1.25-.62,2.31-1.35,3.2-2.18.94,2.69,1.41,4.04,2.35,6.73-2.44,2.27-5.35,3.72-8.77,4.35ZM506.79,70.89c4.2-.82,6.3-1.21,10.51-1.97-.42-1.74-1.18-3.05-2.29-3.92-1.11-.87-2.44-1.17-3.97-.88-1.47.27-2.57,1.01-3.31,2.21-.74,1.2-1.05,2.72-.94,4.56Z" style="stroke-width: 0px;"/>
        <path d="M542.25,86.02c-2.38.35-4.34-.11-5.88-1.4-1.54-1.29-2.54-3.31-2.98-6.05-1.06-6.62-1.59-9.92-2.65-16.54-1.64.26-2.46.4-4.1.67-.49-2.97-.74-4.46-1.23-7.43,1.66-.27,2.49-.41,4.14-.67-.43-2.71-.65-4.06-1.08-6.76,2.43-.89,4.82-1.64,7.16-2.24.47,3.15.71,4.73,1.18,7.88,2.7-.4,4.05-.6,6.75-.98.42,2.98.63,4.48,1.05,7.46-2.67.38-4.01.57-6.68.97.9,5.99,1.35,8.98,2.24,14.96.26,1.77,1.2,2.53,2.8,2.29.94-.14,1.97-.56,3.1-1.26.99,2.53,1.49,3.79,2.47,6.32-1.95,1.53-4.04,2.46-6.29,2.79Z" style="stroke-width: 0px;"/>
        <path d="M564.65,83.04c-4.11.48-7.54-.59-10.33-3.24-2.79-2.65-4.56-6.59-5.28-11.86-.47-3.45-.35-6.51.38-9.16.73-2.65,1.98-4.79,3.76-6.39,1.78-1.61,4-2.57,6.64-2.89,3.89-.46,7.05.7,9.44,3.45,2.39,2.75,3.85,6.95,4.42,12.56.04.37.07.73.11,1.08.04.35.05.69.05,1.03-6.91.7-10.36,1.1-17.26,1.96,1.24,4.36,3.9,6.28,8.03,5.8,1.27-.15,2.55-.49,3.83-1.03,1.28-.54,2.39-1.19,3.33-1.96.76,2.75,1.14,4.13,1.89,6.88-2.58,2.1-5.58,3.35-9.03,3.75ZM555.72,63.05c4.24-.53,6.36-.78,10.6-1.26-.3-1.76-.97-3.12-2.02-4.07-1.05-.95-2.35-1.33-3.9-1.15-1.48.18-2.63.84-3.45,1.98-.82,1.15-1.23,2.64-1.24,4.48Z" style="stroke-width: 0px;"/>
        <path d="M580.64,80.42c-1-10.64-2-21.28-3-31.93,2.94-.28,4.41-.41,7.35-.66.18,2.08.26,3.13.44,5.21.17-.01.25-.02.41-.03.74-1.98,1.56-3.55,2.46-4.73.9-1.17,2.16-1.83,3.76-1.94.63-.05,1.16,0,1.59.13-.04,3.8-.06,5.7-.09,9.5-.39-.1-.76-.17-1.11-.23-.35-.06-.72-.07-1.09-.04-1.27.1-2.25.62-2.94,1.57-.68.95-1.46,2.21-2.33,3.78.63,7.5.95,11.24,1.58,18.74-2.82.24-4.22.36-7.04.63Z" style="stroke-width: 0px;"/>
        <path d="M607.03,79.36c-2.63.15-4.82-1.11-6.59-3.81-1.77-2.69-2.84-6.47-3.18-11.36-.41-5.88.51-10.45,2.81-13.7,2.3-3.25,5.82-5.01,10.53-5.25,2.65-.13,5.78.23,9.37,1.09.39,10.47.78,20.95,1.17,31.42-2.68.1-4.02.16-6.71.28-.03-2.04-.05-3.06-.09-5.11-.08,0-.12,0-.2,0-1.56,4.1-3.92,6.23-7.11,6.42ZM608.11,71.63c1.11-.06,2.13-.84,3.07-2.34.94-1.5,1.77-3.33,2.49-5.48-.2-4.18-.29-6.27-.49-10.45-.56-.18-1.14-.3-1.73-.35-.59-.05-1.13-.07-1.61-.04-4.18.21-6.06,3.7-5.66,10.42.16,2.61.58,4.65,1.28,6.13.7,1.48,1.58,2.19,2.66,2.13Z" style="stroke-width: 0px;"/>
        <path d="M627.99,77.54c-.29-10.68-.59-21.37-.88-32.05,2.89-.08,4.33-.11,7.22-.16.04,2.22.06,3.32.1,5.54,1.07-2.26,2.34-3.91,3.81-4.95,1.47-1.04,3.17-1.56,5.09-1.57,2.9-.02,5.17,1.01,6.8,3.07,1.63,2.06,2.42,4.92,2.4,8.57-.06,8.52-.08,12.78-.14,21.29-2.82-.02-4.24-.02-7.06-.01-.03-7.97-.04-11.95-.07-19.93,0-1.7-.35-3.01-1.05-3.92-.69-.91-1.63-1.36-2.81-1.35-1.42.01-2.73.66-3.94,1.94-1.21,1.28-2.12,2.87-2.73,4.74.13,7.45.2,11.17.33,18.61-2.82.05-4.24.08-7.06.16Z" style="stroke-width: 0px;"/>
        <path d="M666.07,78.44c-1.63-.04-3.2-.28-4.71-.73-1.51-.44-2.8-1.02-3.86-1.74.3-2.98.45-4.48.76-7.46,1.14.89,2.39,1.61,3.76,2.18,1.37.57,2.66.87,3.87.9,1.08.03,2.02-.2,2.85-.67.82-.47,1.25-1.23,1.28-2.27.03-1-.38-1.73-1.23-2.22-.85-.48-2.16-1.16-3.95-2.03-.67-.35-1.42-.74-2.25-1.17-.83-.43-1.61-1-2.35-1.69-.74-.7-1.34-1.6-1.8-2.71-.46-1.11-.69-2.49-.66-4.15.03-2.24.53-4.11,1.51-5.61.98-1.5,2.31-2.63,4-3.38,1.69-.75,3.59-1.1,5.68-1.04,1.43.04,2.83.25,4.2.63,1.37.38,2.67.86,3.9,1.45-.51,2.95-.77,4.42-1.27,7.37-.97-.74-2.08-1.35-3.33-1.83-1.25-.48-2.43-.73-3.53-.76-1.07-.03-1.97.16-2.69.58-.72.42-1.09,1.09-1.11,2-.02.75.21,1.34.68,1.79.47.45,1.11.84,1.93,1.17s1.72.79,2.69,1.29c.96.5,2.01,1.1,3.1,1.85,1.09.74,2,1.78,2.73,3.09.73,1.32,1.05,3.1.96,5.33-.1,2.36-.66,4.28-1.67,5.76-1.01,1.48-2.34,2.54-3.98,3.19-1.64.65-3.48.95-5.51.9Z" style="stroke-width: 0px;"/>
        <path d="M690.41,78.54c4.96-13.57,10.08-27.07,15.37-40.51,3.68.28,5.52.43,9.19.76,3.05,14.14,5.93,28.3,8.64,42.51-2.99-.32-4.49-.47-7.48-.76-.72-3.87-1.08-5.81-1.83-9.68-5.3-.49-7.95-.71-13.26-1.1-1.31,3.7-1.96,5.55-3.24,9.26-2.96-.21-4.44-.3-7.4-.48ZM703.77,62.23c3.62.28,5.43.43,9.05.75-1.28-6.49-1.94-9.73-3.29-16.22-2.34,6.18-3.49,9.27-5.76,15.47Z" style="stroke-width: 0px;"/>
        <path d="M734.52,83.48c-1.62-.2-3.17-.59-4.63-1.18-1.46-.59-2.69-1.29-3.68-2.11.59-2.94.88-4.41,1.47-7.35,1.05.99,2.23,1.84,3.54,2.53,1.31.7,2.57,1.12,3.77,1.26,1.07.13,2.04,0,2.9-.39.87-.39,1.37-1.1,1.5-2.13.13-.99-.21-1.76-1.01-2.32-.8-.56-2.05-1.36-3.74-2.4-.64-.41-1.35-.87-2.13-1.38-.78-.51-1.51-1.15-2.18-1.91-.67-.76-1.18-1.72-1.54-2.87s-.44-2.54-.26-4.19c.25-2.23.92-4.04,2.04-5.44,1.12-1.4,2.56-2.4,4.31-2.98,1.76-.59,3.68-.75,5.76-.49,1.42.18,2.8.52,4.13,1.03,1.33.51,2.58,1.12,3.75,1.82-.79,2.88-1.19,4.33-1.97,7.21-.9-.83-1.95-1.55-3.15-2.14-1.2-.6-2.35-.96-3.45-1.1-1.07-.13-1.98-.03-2.74.32-.76.35-1.19.98-1.3,1.88-.09.74.08,1.36.51,1.85.43.49,1.03.94,1.81,1.35.78.41,1.64.95,2.56,1.55.91.58,1.9,1.29,2.91,2.14,1.01.85,1.82,1.96,2.43,3.34.6,1.38.75,3.18.45,5.4-.32,2.34-1.07,4.2-2.22,5.57-1.15,1.37-2.58,2.3-4.28,2.79-1.7.49-3.56.61-5.58.36Z" style="stroke-width: 0px;"/>
        <path d="M757.55,86.68c-1.62-.25-3.15-.69-4.59-1.33-1.44-.63-2.65-1.37-3.61-2.22.68-2.92,1.02-4.38,1.71-7.3,1.02,1.03,2.17,1.91,3.46,2.65,1.29.74,2.53,1.2,3.73,1.39,1.07.17,2.04.07,2.92-.3.88-.37,1.4-1.06,1.57-2.08.16-.98-.15-1.77-.94-2.36-.78-.59-2-1.43-3.66-2.52-.62-.43-1.32-.92-2.08-1.45-.77-.53-1.47-1.2-2.12-1.98-.64-.79-1.13-1.76-1.45-2.92-.32-1.16-.36-2.56-.13-4.2.32-2.22,1.05-4.01,2.22-5.37,1.16-1.36,2.64-2.31,4.41-2.84,1.78-.53,3.71-.63,5.78-.31,1.42.22,2.78.61,4.09,1.16,1.31.55,2.54,1.2,3.69,1.94-.89,2.86-1.33,4.28-2.21,7.14-.87-.86-1.9-1.61-3.08-2.25-1.18-.63-2.32-1.04-3.41-1.21-1.06-.17-1.98-.09-2.75.23-.77.32-1.22.94-1.36,1.84-.11.74.04,1.36.45,1.86.41.5,1,.97,1.77,1.41.77.44,1.61,1,2.51,1.63.89.61,1.86,1.35,2.85,2.23.98.88,1.76,2.02,2.32,3.42.56,1.4.65,3.21.27,5.41-.4,2.33-1.2,4.16-2.4,5.5-1.2,1.33-2.65,2.22-4.37,2.65-1.72.43-3.58.49-5.59.18Z" style="stroke-width: 0px;"/>
        <path d="M784.89,91.47c-2.6-.51-4.73-1.63-6.42-3.38-1.69-1.75-2.86-3.96-3.52-6.65-.65-2.69-.7-5.71-.1-9.06.59-3.35,1.66-6.18,3.24-8.47,1.57-2.29,3.5-3.95,5.79-4.96,2.29-1.01,4.78-1.26,7.46-.73,2.72.53,4.95,1.69,6.67,3.46,1.73,1.78,2.89,4.01,3.49,6.71.6,2.7.54,5.69-.17,8.97-.71,3.33-1.88,6.13-3.5,8.42-1.61,2.29-3.53,3.93-5.76,4.94-2.23,1-4.62,1.25-7.18.75ZM786.29,84c1.79.35,3.4-.21,4.82-1.68,1.42-1.47,2.42-3.59,2.99-6.35.56-2.77.47-5.09-.3-6.95-.77-1.87-2.08-2.99-3.92-3.35-1.84-.36-3.47.19-4.89,1.63-1.42,1.44-2.38,3.56-2.9,6.33-.52,2.78-.39,5.11.38,7.01.76,1.9,2.04,3.02,3.83,3.37Z" style="stroke-width: 0px;"/>
        <path d="M814.9,98c-4.18-1-7.1-3.12-8.8-6.4-1.7-3.28-2.02-7.42-.91-12.45.76-3.45,1.98-6.34,3.67-8.69,1.7-2.34,3.74-4,6.11-4.97,2.38-.96,4.93-1.13,7.63-.48,1.3.31,2.59.81,3.87,1.48,1.28.68,2.24,1.33,2.88,1.97-1.27,2.74-1.9,4.11-3.17,6.85-.67-.64-1.44-1.2-2.32-1.69-.88-.49-1.71-.83-2.49-1.02-2.06-.5-3.94-.04-5.62,1.36-1.68,1.4-2.83,3.5-3.48,6.29-.65,2.83-.51,5.17.43,7,.93,1.84,2.55,3.03,4.86,3.59,1.55.37,3.3.42,5.26.14-.27,2.86-.41,4.29-.69,7.14-1.24.25-2.46.36-3.65.35-1.19-.01-2.39-.17-3.59-.46Z" style="stroke-width: 0px;"/>
        <path d="M825.98,99.79c.75-2.92,1.12-4.38,1.87-7.3,1.9.49,2.84.73,4.74,1.23,1.74-6.57,2.6-9.86,4.34-16.43-1.94-.51-2.91-.76-4.85-1.26.75-2.92,1.12-4.38,1.88-7.3,4.84,1.24,7.26,1.89,12.08,3.21-2.6,9.46-3.9,14.19-6.5,23.66,1.69.47,2.54.7,4.23,1.18-.82,2.9-1.22,4.35-2.04,7.25-6.28-1.77-9.43-2.62-15.75-4.24ZM839.29,64.65c.82-3.13,1.23-4.7,2.06-7.83,3.34.88,5.01,1.33,8.35,2.24-.86,3.12-1.29,4.68-2.15,7.8-3.3-.91-4.95-1.35-8.26-2.22Z" style="stroke-width: 0px;"/>
        <path d="M852.72,108.2c-2.55-.76-4.19-2.7-4.96-5.84-.77-3.14-.49-7.06.86-11.77,1.62-5.67,4.05-9.65,7.34-11.91,3.29-2.26,7.24-2.71,11.79-1.31,2.56.79,5.42,2.2,8.54,4.25-3.2,9.98-6.41,19.96-9.61,29.94-2.59-.83-3.88-1.24-6.47-2.04.66-1.93,1-2.9,1.66-4.83-.08-.02-.12-.04-.2-.06-2.88,3.32-5.85,4.51-8.94,3.59ZM856.39,101.3c1.08.32,2.31-.06,3.72-1.15,1.4-1.09,2.82-2.52,4.23-4.3,1.24-4,1.86-5.99,3.1-9.99-.47-.36-.98-.67-1.52-.93-.54-.25-1.05-.45-1.52-.6-4.04-1.23-7.02,1.4-8.93,7.85-.74,2.51-1.03,4.58-.88,6.2.16,1.63.75,2.6,1.8,2.91Z" style="stroke-width: 0px;"/>
        <path d="M881.95,117.63c-2.3-.8-3.84-2.12-4.62-3.98-.78-1.86-.74-4.11.14-6.75,2.13-6.35,3.19-9.53,5.31-15.88-1.59-.53-2.39-.8-3.98-1.32.94-2.86,1.41-4.29,2.35-7.16,1.61.53,2.41.8,4.02,1.33.87-2.6,1.3-3.9,2.17-6.49,2.59.34,5.08.79,7.45,1.35-1.04,3.01-1.56,4.52-2.6,7.53,2.61.9,3.91,1.36,6.51,2.28-1.01,2.84-1.52,4.26-2.53,7.1-2.57-.92-3.86-1.37-6.44-2.26-1.98,5.72-2.97,8.58-4.94,14.3-.58,1.69-.1,2.8,1.45,3.34.9.32,2.02.42,3.36.33-.28,2.7-.43,4.05-.72,6.75-2.46.44-4.77.29-6.94-.46Z" style="stroke-width: 0px;"/>
        <path d="M892.49,120.38c1.03-2.83,1.54-4.25,2.57-7.08,1.85.67,2.78,1.01,4.63,1.7,2.37-6.37,3.55-9.56,5.92-15.93-1.89-.7-2.84-1.05-4.74-1.74,1.03-2.83,1.54-4.25,2.57-7.08,4.73,1.72,7.09,2.6,11.8,4.4-3.51,9.16-5.26,13.75-8.77,22.91,1.65.63,2.48.95,4.13,1.59-1.09,2.81-1.64,4.21-2.74,7.02-6.13-2.39-9.21-3.55-15.38-5.79ZM909.18,86.71l2.81-7.59c3.27,1.21,4.9,1.82,8.15,3.07-1.16,3.02-1.74,4.54-2.89,7.56-3.22-1.23-4.83-1.84-8.06-3.04Z" style="stroke-width: 0px;"/>
        <path d="M922.69,133.15c-2.48-1.03-4.38-2.57-5.71-4.63-1.33-2.06-2.06-4.47-2.17-7.25-.12-2.77.44-5.74,1.69-8.91,1.25-3.17,2.87-5.72,4.89-7.64,2.01-1.92,4.25-3.15,6.72-3.68,2.47-.52,4.99-.25,7.56.81,2.59,1.08,4.58,2.68,5.94,4.77,1.36,2.1,2.08,4.53,2.14,7.3.06,2.77-.59,5.69-1.94,8.77-1.37,3.12-3.08,5.63-5.14,7.54-2.05,1.91-4.29,3.13-6.7,3.65-2.41.52-4.83.28-7.28-.74ZM925.56,126.12c1.71.71,3.41.5,5.12-.65,1.7-1.15,3.11-3.02,4.22-5.61,1.11-2.6,1.47-4.89,1.07-6.88-.4-1.99-1.48-3.36-3.23-4.09s-3.49-.53-5.18.59c-1.69,1.12-3.06,3-4.13,5.61-1.06,2.62-1.4,4.93-1.01,6.95.38,2.02,1.43,3.38,3.14,4.09Z" style="stroke-width: 0px;"/>
        <path d="M940.22,139.71c4.36-9.76,8.73-19.51,13.09-29.27,2.69,1.21,4.04,1.81,6.72,3.05-.93,2.01-1.39,3.02-2.31,5.04,1.97-1.56,3.85-2.49,5.66-2.77,1.8-.28,3.6,0,5.38.84,2.68,1.27,4.34,3.21,4.95,5.79.61,2.58.1,5.51-1.51,8.79-3.75,7.65-5.62,11.47-9.37,19.12-2.6-1.27-3.91-1.91-6.52-3.15,3.43-7.19,5.15-10.79,8.58-17.98.73-1.54.98-2.87.73-4-.25-1.13-.91-1.95-2-2.46-1.31-.62-2.81-.62-4.48,0-1.67.62-3.2,1.64-4.58,3.06-3.11,6.77-4.66,10.15-7.77,16.92-2.63-1.21-3.94-1.8-6.58-2.98Z" style="stroke-width: 0px;"/>
      </g>
    </g>
  </g>
</svg>