<?xml version="1.0" encoding="UTF-8"?>
<svg id="Layer_1" data-name="Layer 1" xmlns="http://www.w3.org/2000/svg" xmlns:xlink="http://www.w3.org/1999/xlink" viewBox="0 0 202.01 273.14">
  <defs>
    <clipPath id="clippath">
      <path d="M101.02,269.14h0c-1.11,0-97.04-54.25-97.04-153.7V44.39h194.08v71.04c0,99.45-97.04,153.7-97.04,153.7Z" style="fill: none; stroke-width: 0px;"/>
    </clipPath>
  </defs>
  <g id="Layer_7" data-name="Layer 7">
    <g id="Insenia_Color" data-name="Insenia Color">
      <g>
        <path d="M101.02,271.12c-.47,0-.94,0-5.52-2.81-2.41-1.49-6.33-4.01-11.27-7.6-8.33-6.03-20.9-16.1-33.59-29.78-14.12-15.21-25.35-31.57-33.44-48.67C7.11,160.92,1.98,138.43,1.98,115.44V42.41h198.03v73.02c0,22.98-5.16,45.47-15.36,66.82-8.14,17.06-19.47,33.42-33.7,48.67-12.63,13.53-25.28,23.66-33.65,29.76-9.09,6.64-15.12,10.01-15.36,10.16l-.45.25h-.47v.02Z" style="fill: #0f32b4; stroke-width: 0px;"/>
        <path d="M198.05,44.39v71.04c0,99.45-97.04,153.7-97.04,153.7h0c-1.11,0-97.04-54.25-97.04-153.7V44.39h194.08M202.01,40.43H0v75c0,23.3,5.18,46.05,15.38,67.65,8.18,17.29,19.53,33.84,33.78,49.18,12.8,13.8,25.48,23.94,33.89,30.03,5,3.62,8.95,6.16,11.4,7.67,1.6.98,2.71,1.62,3.37,1.98,1.3.72,2.09,1.13,3.19,1.13s1.62-.3,3.11-1.19c.96-.57,2.05-1.24,3.17-1.94,2.47-1.56,6.43-4.17,11.22-7.65,8.44-6.16,21.17-16.36,33.91-30.03,14.36-15.38,25.81-31.93,34.04-49.16,10.31-21.62,15.55-44.39,15.55-67.67V40.43h0Z" style="fill: #fff; stroke-width: 0px;"/>
      </g>
      <g style="clip-path: url(#clippath);">
        <polygon points="-16.3 31.07 -16.3 144.03 215.49 144.82 219.22 21.89 -16.3 31.07" style="fill: #f60202; stroke-width: 0px;"/>
      </g>
    </g>
  </g>
  <g id="Layer_7-2" data-name="Layer 7">
    <g id="Border">
      <polygon points="17.06 146.49 21.17 142.06 24.41 139.08 30.09 134.94 40.05 127.52 45.45 124.09 50.5 121.36 54.36 119.75 57.35 118.71 59.57 118.33 62.58 118.55 64.7 118.83 68.24 119.5 71.74 120.92 80.64 124.09 82.85 125.03 89.47 127.79 122.53 125.59 125.81 124.39 137.42 120.21 143.08 119.37 147.42 119.71 155.61 122.91 163.65 127.82 174.85 136.08 181 140.79 184.62 144.23 187.78 147.64 186.53 149.36 178.83 149.12 175.09 149.2 172.96 148 142.01 144.67 123.92 147.18 76.78 145.96 67.32 142.96 33.18 147.47 27.22 147.81 19.35 148.35 17.06 146.49" style="fill: #fff; stroke: #fff; stroke-miterlimit: 1.88; stroke-width: 2.26px;"/>
      <polygon points="44.88 200.36 53.6 191.17 62.46 183.66 67.79 175.52 70.65 169.43 71.73 166.48 71.74 164.75 82.31 154.84 78.78 171.07 74.18 178.63 68.72 190.14 64.05 203.28 53.07 206.74 44.88 200.36" style="fill: #fff; stroke: #fff; stroke-miterlimit: 1.88; stroke-width: 2.26px;"/>
      <polygon points="144.52 85.79 150.13 90.43 119.82 122.91 113.41 117.12 144.52 85.79" style="fill: #fff; stroke: #fff; stroke-miterlimit: 1.88; stroke-width: 2.26px;"/>
      <path d="M23.53,54.2c.41,2,4.3,6.92,15.36,19.53,4,4.54,8.61,9.82,10.27,11.72,1.66,1.92,4.2,4.79,5.65,6.39s3.07,3.39,3.58,3.98c1.34,1.53,7.16,7.99,8.39,9.33.58.62,1.77,1.94,2.64,2.92,2.62,2.94,3.05,3.43,4.15,4.62.58.62,1.72,1.88,2.54,2.83.81.92,1.96,2.21,2.54,2.83.57.62,1.51,1.66,2.07,2.3.57.66,1.07,1.19,1.13,1.19s.08-.94.04-2.07c-.09-2.24.02-2.58.83-2.68.51-.06.49-.08-5.2-6.37-3.54-3.9-6.96-7.69-7.8-8.65-.51-.58-1.75-1.94-2.75-3.03-1.02-1.09-2.24-2.45-2.73-3.02-1.7-1.92-9.63-10.63-11.61-12.72-2.11-2.24-4.75-5.18-5.18-5.79-.26-.34-.57-.72-.7-.81-.11-.11-.87-.9-1.64-1.79s-2.34-2.62-3.49-3.88c-1.13-1.24-3.56-3.92-5.37-5.94-5.22-5.82-9.82-10.25-11.39-10.99-1.36-.64-1.49-.62-1.34.11ZM31.86,62.93c.21.43.04.32-.7-.47-.53-.57-1.09-1.3-1.24-1.6-.21-.43-.06-.32.68.47.55.57,1.09,1.28,1.26,1.6ZM34.26,65.91c.09.4.08.4-.26-.06-.43-.55-.49-.9-.11-.58.15.11.3.41.38.64ZM40.27,73.07c.47,1.07.38,1.23-.25.4-.4-.53-.55-.94-.55-1.49l-.02-.75.26.57c.13.3.38.89.55,1.28ZM42.83,75.37c0,.09-.08.34-.15.55-.11.28-.19.19-.4-.47-.13-.45-.32-.9-.41-1.02-.08-.09-.15-.26-.15-.38.02-.09.26.11.57.47.32.36.57.74.55.85ZM44.87,78.78c-.06.06-.36-.13-.66-.43-.49-.47-.55-.62-.45-1.28l.09-.75.57,1.19c.3.66.51,1.23.45,1.28ZM46.81,80.06c0,.49-.11.34-.47-.57l-.3-.74.38.47c.21.26.4.64.4.83ZM52.52,86.53c.41.41.7.89.66,1.02-.09.28-2.41-2.43-2.41-2.81,0-.15.23.02.51.38.26.34.83.98,1.24,1.41ZM54.62,88.88l.36.62-.7-.64c-.38-.36-.68-.77-.68-.94,0-.38.55.13,1.02.96ZM57.56,92.26c0,.34-.53-.17-.85-.85l-.28-.58.57.62c.32.34.57.7.57.81ZM59.23,94.03l.25.57-.57-.55c-.34-.3-.53-.64-.47-.81.13-.34.43-.04.79.79ZM60.91,95.75c-.06.26-.13.19-.3-.3-.23-.6-.21-.64.08-.36.17.17.26.47.23.66ZM65.13,99.65c.21.4.72,2.26.64,2.36-.04.02-.38-.34-.75-.79-.38-.47-.81-.98-.96-1.11-.13-.15-.3-.68-.38-1.19l-.13-.92.7.66c.38.36.77.81.89,1h0ZM67.41,102.96c.09,1.15-.02,1.02-.74-.79-.57-1.45-.57-1.47.09-.79.43.43.57.79.64,1.58ZM69.41,104.85l.4,1.23-.62-.6c-.51-.49-.62-.75-.66-1.49-.02-.75,0-.85.23-.62.13.15.43.83.66,1.49ZM73.39,109.17c.21.68.34,1.26.32,1.3-.04.04-.47-.43-.94-1.06-.7-.89-.89-1.26-.89-1.83v-.72l.57.55c.34.32.7.98.94,1.75h0ZM76.78,112.88v.94l-.62-.66c-1.17-1.28-1.3-1.49-1.47-2.3-.09-.45-.23-.98-.28-1.19s.45.21,1.13.94c1.17,1.26,1.23,1.36,1.24,2.26ZM80.99,117.84c.08.4.06.58-.06.51-.11-.06-.19-.38-.19-.7,0-.72.09-.64.25.19Z" style="fill: #fff; stroke: #fff; stroke-miterlimit: 1.88; stroke-width: 2.26px;"/>
      <path d="M178.44,55.33c-5.9,6.18-6.28,6.6-6.28,7.05s-.43.9-8.33,8.99c-5.5,5.65-9.95,10.22-13.78,14.17l-1.81,1.88-.6-.6-.62-.6.41-.34c.6-.51.36-1.26-.64-1.94-1-.7-1.21-.7-1.96,0l-.58.55-.41-.4c-.23-.21-.66-.53-.94-.72-1.23-.75-3.15.57-3.15,2.17,0,.53,1,1.6,1.49,1.6.15,0-1.04,1.3-2.64,2.88-2.51,2.47-9.65,9.84-11.2,11.54-.6.66-8.46,8.78-12.1,12.54l-2.49,2.54.94.06.92.06,2.7-2.77c1.47-1.53,3.22-3.34,3.9-4.03,1.23-1.24,2.56-2.71,5.39-5.94,1.24-1.41,4.45-4.75,9.12-9.52.47-.47,1.41-1.41,2.13-2.07l1.26-1.19.47.43c.26.25.47.49.47.55-.02.06-.53.66-1.15,1.34-.92,1.02-2.13,2.64-2.88,3.92-.28.45.62-.11,2.19-1.41.81-.68,1.47-1.17,1.47-1.11,0,.08-.6.89-1.32,1.81-1.26,1.62-2.45,3.39-2.45,3.66,0,.06.74-.51,1.66-1.26,1.64-1.39,4.69-4.49,6.3-6.39,1.02-1.19,2.66-3.54,2.56-3.64-.04-.04-.92.57-1.94,1.36-1.75,1.34-2,1.41-.87.25.25-.26.83-1,1.28-1.66.47-.64.9-1.17.98-1.17s.36.23.62.51c.26.3.68.7.92.89l.43.36-1.11,1.04c-.62.57-1.51,1.28-1.94,1.58-.45.32-.94.83-1.07,1.17-.13.32-1.07,1.39-2.05,2.38-2.28,2.24-9.33,9.73-12.08,12.82-1.13,1.26-3.34,3.62-4.9,5.22-1.56,1.58-2.77,2.96-2.68,3.05.08.08.21,1.24.26,2.56l.11,2.41.85-.92c.47-.51,1.58-1.7,2.47-2.62.89-.94,2.3-2.43,3.13-3.32,2.04-2.17,7.39-7.82,9.18-9.69.79-.83,1.66-1.77,1.94-2.07.7-.75,2.62-2.79,6.16-6.52,3.68-3.88,4.45-4.79,4.69-5.65.17-.57.15-.77-.11-1.19-.38-.57-.47-.41,2.49-3.56.75-.83,1.36-1.6,1.34-1.73-.06-.25,1.56-2,7.82-8.39,9.95-10.14,11.69-11.88,12.01-11.88.21,0,1.62-1.39,3.41-3.36,1.68-1.83,3.39-3.69,3.81-4.13l.75-.77-.41-.68c-.53-.85-1.26-1.43-1.81-1.43-.28,0-.87.47-1.73,1.36ZM145.58,87.43c.21.25.17.36-.21.68-.72.62-2.05,1.53-2.05,1.38,0-.28,1.68-2.32,1.9-2.34.08,0,.23.13.36.28ZM148.68,90.34c.32.34.26.41-1.15,1.94-.81.87-1.98,2.15-2.6,2.83-.62.7-1.88,2.05-2.83,3.02-1.83,1.9-3.07,3.24-7.16,7.69-.7.77-2.66,2.85-4.34,4.62-1.68,1.75-3.47,3.66-3.98,4.18-.49.55-.98,1-1.07,1s.87-1.13,2.15-2.51c1.26-1.36,2.94-3.3,3.75-4.28s2.54-3.02,3.88-4.51c1.34-1.47,2.75-3.09,3.15-3.58.85-1,5.11-5.56,5.75-6.14,1.3-1.15,1.98-1.9,2.87-3.19.55-.79,1.06-1.43,1.13-1.43s.28.17.45.36h0Z" style="fill: #fff; stroke: #fff; stroke-miterlimit: 1.88; stroke-width: 2.26px;"/>
      <path d="M82.87,109.82c.2-.44.28-.91.45-1.36.13-.33.3-.65.56-.9.06-.06.13-.11.2-.17.01,0,.11-.06.12-.08.04-.1-.16-.33-.18-.44-.22-.79.08-1.68.21-2.45.06-.37.08-.75.14-1.12.06-.37.15-.73.29-1.07.16-.42.38-.81.66-1.15h-.03c-.48,0-.75.28-.83.85-.04.49-.13.9-.17.94s-.32.02-.64-.06c-.47-.13-.57-.28-.72-1.06l-.19-.9-1.32.13c-.74.08-1.36.13-1.36.15-.02.02.04,1.47.13,3.24.08,1.75.15,3.77.15,4.47l.02,1.28h2.35c.05-.11.1-.21.15-.33h0Z" style="fill: #fff; stroke: #fff; stroke-miterlimit: 1.88; stroke-width: 2.26px;"/>
      <path d="M100.68,89.73c-.06-1.88-.36-2.68-1.55-4.17-.34-.43-.79-1.09-1.02-1.49-.6-1.06-1.77-2.39-1.98-2.26-.3.19-.85,1.62-.98,2.64-.08.62-.02,1.55.17,2.54.15.87.32,1.77.34,2l.06.45.53-.41c.83-.66,1.64-2.22,1.66-3.2.02-.81.02-.83.19-.28.21.7-.08,2.34-.51,3.05-.66,1.06-2.09,2.36-3.56,3.26-2.9,1.75-4.24,3.3-4.64,5.3-.21,1.06-.26,1.13-1.23,1.66-.6.36-1.23.9-1.58,1.43-.26.37-.43.58-.6.7-.57.5-.93,1.17-1.13,1.9-.1.35-.15.71-.18,1.07-.03.38-.11.76-.18,1.13-.08.41-.16.83-.16,1.26,0,.21.01.42.12.61.07.13.14.26.13.42-.02.27-.32.37-.48.54-.27.29-.42.65-.52,1.03-.11.39-.23.76-.4,1.13-.05.12-.11.24-.17.36v.46c0,1.24.53,2.62,1.32,3.47.74.75.75.79.64,1.79l-.13,1h2.43c1.34,0,2.53-.08,2.62-.15.11-.08.28-.47.38-.87.11-.41.3-.79.45-.83.21-.08.25.08.15.79l-.13.87h2.9l-.57-.58c-.3-.32-.89-.83-1.32-1.11l-.77-.55c.26-1.88.18-2.68.03-3.02-.22-.49-.25-.7-.3-1.12-.02-.11-.01-.22-.01-.22.01-.57.29-.59.46-1.43.09-.45.19-.91.22-1.37.02-.32.04-.67.3-.89.1-.09.22-.14.33-.21.17-.11.32-.25.47-.39.61-.57,1.1-1.25,1.61-1.91.5-.65.97-1.35,1.22-2.14.06-.19.08-.37.08-.57,0-.1,0-.21.04-.31.08-.21.32-.29.51-.38h0c.07-.1.17-.22.3-.36.9-1.06,1.85-3.07,1.98-4.22.08-.81.23-1.11.83-1.73.4-.41.94-1.24,1.21-1.85.46-.98.51-1.28.44-2.83h0ZM86.21,113.28c-.02-.11-.13,0-.3.26l-.28.47.13-.47c.32-1.19,1.98-3.17,3.75-4.51.83-.62,1.23-.72,1.23-.32,0,.32-4.52,4.86-4.52,4.56h0ZM91.32,103.57c-1.81.58-2.83,1.15-3.92,2.13-.53.47-1.06.87-1.17.87-.58,0,.34-1.96,1.21-2.53.7-.45,2.81-1.24,4.15-1.53,1.45-.32,1.38-.32,1.53-.06.19.3-.36.64-1.79,1.11ZM94.33,96.86c-1.9.53-3.15,1.07-3.26,1.45-.04.11-.21.17-.38.09-.9-.34.94-2.09,2.45-2.32.49-.06,1.23-.19,1.64-.26,1.06-.21,1.09-.21,1.41,0,.45.28.06.49-1.87,1.04Z" style="fill: #fff; stroke: #fff; stroke-miterlimit: 1.88; stroke-width: 2.26px;"/>
      <path d="M122.27,101.25c-.81-.06-1.51-.06-1.53-.04-.04.02-.11.4-.17.81-.08.52-.38.77-.92.77h-.83v-1.72l-1.26.06-1.28.06-.06.72c-.08.81-.49,1.07-1.66,1.07-.57,0-.64-.06-.57-.43.06-.23.13-.62.15-.87.06-.53.38-.47-3.94-.55l-2.51-.04v-3.34l1.17-.72c1.39-.87,2.98-2.47,3.73-3.77.3-.53.85-1.94,1.21-3.17.58-1.94.68-2.47.68-4.15-.02-1.06-.13-2.43-.26-3.05-.4-1.83-1.56-3.98-2.94-5.43-2.51-2.68-4.88-3.92-8.43-4.45-1.53-.23-2.11-.23-3.71,0-2,.3-5.01,2.02-6.6,3.77-1.19,1.32-2.79,4.71-3.32,6.99-.36,1.51-.41,2.13-.3,3.45.15,1.75.81,3.94,1.53,5.03.53.77.68.85,1.02.45.13-.15.79-.62,1.49-1.04s1.51-.94,1.79-1.19l.53-.43-.41-1.96c-.47-2.36-.34-3.54.66-5.6,1.43-2.88,2.98-3.9,5.96-3.9,1.96,0,3.36.38,4.86,1.38,2.22,1.43,3.13,3.17,3.13,5.98-.02,1.19-.09,1.47-.66,2.43-1,1.66-1.26,1.77-4.54,1.77h-2.77l-.3,1.07c-.4,1.36-1.07,2.7-1.75,3.49-.34.4-.62,1.04-.77,1.75-.39,1.79-1.68,4.08-2.48,4.52-.02.02-.04.04-.06.05-.08.04-.28.09-.34.18-.06.08-.02.27-.03.36-.02.41-.19.79-.36,1.16-.34.73-.84,1.34-1.31,1.98-.46.63-.96,1.25-1.56,1.76-.14.12-.28.22-.43.32-.11.06-.22.12-.27.24-.08.18-.07.4-.08.6-.01.18-.04.35-.08.53-.12.63-.23,1.26-.45,1.86.37-.07,1.06-.09,2.37-.09h2.64l-.06,3.49-.08,3.49h9.65l.13-1.45c.06-.79.13-2.17.15-3.05l.02-1.62.15,1.51c.08.83.09,2.21.04,3.05l-.11,1.56h1.75v-3.3c0-3.02.04-3.3.34-3.32.17-.02,2.51-.08,5.2-.15l4.88-.11,2.7-2.79,2.71-2.81v-3.13l-1.45-.07h0ZM103.04,75.27c-.81.02-3.49.83-4.86,1.49-2.47,1.17-4.3,3.09-5.82,6.13-.53,1.04-.57,1.3-.55,2.79.04,1.79-.19,2.28-.49,1.15-.49-1.77-.15-4.35.85-6.33.62-1.21,2.36-3.43,3.24-4.13.87-.7,2.62-1.6,3.58-1.85.7-.17,3.15-.11,3.96.11.49.13.57.64.09.64ZM109.43,94.09c1.51-1.64,2.66-4.18,3.17-7.07.28-1.58.62-1.66.45-.09-.32,3.09-2.09,6.73-3.73,7.75-.34.23-.66.4-.72.4-.04,0,.32-.43.83-.98h0ZM107.32,95.44c-.09.28-.15-.51-.17-2.07,0-1.72.06-2.45.17-2.26.09.15.17,1.09.17,2.07-.02.98-.09,2-.17,2.26Z" style="fill: #fff; stroke: #fff; stroke-miterlimit: 1.88; stroke-width: 2.26px;"/>
      <path d="M133.99,98.31c-.72.4-2.62,2.64-2.92,3.45-.23.62-.09,1.17.34,1.39.66.34,1.26-.15,3.03-2.49,1.02-1.36,1.21-2.07.6-2.39-.45-.23-.58-.23-1.06.04Z" style="fill: #fff; stroke: #fff; stroke-miterlimit: 1.88; stroke-width: 2.26px;"/>
      <path d="M128.51,104.34c-.41.43-1.06,1.13-1.45,1.55-1.38,1.43-1.62,2.17-.87,2.56.51.28,1.32-.34,2.81-2.13,1.19-1.43,1.47-2.07,1.11-2.51-.38-.45-.85-.3-1.6.53h0Z" style="fill: #fff; stroke: #fff; stroke-miterlimit: 1.88; stroke-width: 2.26px;"/>
      <path d="M129.94,106.24c-1.21,1.15-2.53,2.49-2.94,2.96-1.47,1.62-7.77,7.46-7.9,7.33-.04-.04.85-1.26,1.94-2.71s1.83-2.51,1.64-2.36c-1.85,1.41-5.75,4.92-5.75,5.16,0,.06.94.09,2.09.09h2.09l1.81-1.64c3.11-2.83,4.18-4,6.37-6.92,1.38-1.83,2.94-4.05,2.87-4.05-.04,0-1.04.96-2.22,2.13h0Z" style="fill: #fff; stroke: #fff; stroke-miterlimit: 1.88; stroke-width: 2.26px;"/>
      <path d="M57.93,118.35c-3.58.77-9.97,3.69-14.14,6.43-4.96,3.24-8.09,5.45-11.12,7.8-4.58,3.58-4.98,3.88-5.94,4.43-.51.3-1.92,1.45-3.11,2.54-1.21,1.09-2.68,2.39-3.3,2.92-.62.51-1.64,1.39-2.26,1.94-.62.57-1.32,1.19-1.55,1.39-.62.55-.77,2.19-.3,3.11.62,1.19,1.19,1.47,2.94,1.47,1.3,0,1.75-.09,2.77-.57.68-.3,1.47-.7,1.75-.9.58-.4,1.09-.32,1.04.19-.09,1.3.3,1.83,1.36,1.79.55-.02,3.17-1.43,4.47-2.43.79-.6.9-.64,1.3-.41.25.15.62.57.87.92.41.62.51.66,1.62.72,1.04.06,1.32-.02,2.24-.55.58-.34,1.34-.85,1.68-1.15l.62-.55.77.6c.6.49.94.62,1.66.62.77.02,1.07-.09,1.98-.74.6-.41,1.21-.85,1.36-.94.23-.13.62,0,1.58.51.72.4,1.56.72,1.88.72.81,0,2.02-.64,2.98-1.56l.79-.77,1.04.53c1.98,1,3.37.83,5-.64.47-.41.9-.75,1-.75s.58.21,1.09.47c1.64.83,3.56.57,4.67-.66.47-.51.6-.55,1.02-.4.26.09.55.28.62.38.23.38,2.15.25,2.75-.19.6-.41,1-.32.87.21-.13.51.89,1.47,1.81,1.72.41.11,1.23.15,1.81.08,1-.11,1.07-.09,1.62.47.81.85,1.62,1.13,3.24,1.13.9,0,1.6.11,1.98.3.6.3,2.68.3,3.73-.02.32-.11-.15.51-1.6,2-1.15,1.19-2.88,2.98-3.86,3.98-.96,1.02-1.83,1.85-1.88,1.85-.08,0-.79-.55-1.6-1.23s-1.55-1.23-1.62-1.23c-.32,0-.17.38.3.68.7.45.75.94.21,1.79-.34.51-.45.89-.38,1.19.09.38-.11.75-.98,1.85-.6.75-1.3,1.58-1.53,1.85-.55.58-.55.64.08,1.04.55.36.6.32,1.49-.94.25-.34.28-.34.57-.06s.23.41-.89,1.64c-.66.74-1.32,1.38-1.51,1.43-.23.08-.34.43-.43,1.55-.06.79-.11,1.75-.11,2.13,0,1.34-2.71,6.09-5.2,9.12-.77.94-3.56,4.05-5.33,5.96-.25.26-1.58,1.72-3,3.24-2.34,2.56-4.45,4.41-6.37,5.65-.96.6-2.13,1.79-3.88,3.88-1.47,1.75-3.2,3.94-3.43,4.32-.15.26.79,1.56,1.15,1.56.13,0,.45.3.74.68s1.21,1.21,2.04,1.85c1.38,1.06,2.17,1.6,5.96,4.05.57.38,2.43,1.38,4.15,2.22l3.11,1.55.72-.7c.4-.38,1.02-1.3,1.36-2.02,1.07-2.22,3.68-9.14,4.34-11.5.34-1.26,2.36-6.99,3.07-8.77.32-.77.92-2.28,1.34-3.34,1.45-3.68,2.88-6.31,6.28-11.55.83-1.3,1.68-2.64,1.87-3,.19-.34,1.58-1.88,3.13-3.43l2.77-2.81h1.34c1.23,0,1.39.04,1.83.51.74.83,1.19,1.56,1.64,2.79.38,1.04.41,1.43.41,4.71-.02,1.96-.08,4.2-.15,4.98l-.11,1.39,1.3-.09c1.51-.11,4.67-1.13,6.97-2.26l1.55-.75-.25-.96c-.15-.55-.47-2.26-.75-3.81-.28-1.56-.57-3.2-.66-3.68s-.36-1.83-.57-3.02c-.23-1.19-.43-2.36-.49-2.58-.04-.23-.6-.77-1.34-1.3-.72-.49-2-1.55-2.87-2.32-.87-.79-2.09-1.87-2.73-2.39-1.21-1.02-2.83-2.88-4.28-4.98-1.02-1.43-1.88-3.81-2.53-6.96-.25-1.17-.49-2.17-.53-2.21-.11-.11-2.24,1.36-3.43,2.36-.6.53-1.17.96-1.24.96-.06,0-.17-.51-.25-1.15-.11-1.09-.08-1.19.6-2.19.38-.57.94-1.41,1.23-1.9.3-.47,1-1.39,1.56-2.04l1.04-1.19-.13-1.6-.13-1.62-1.56.85c-1.41.77-1.58.83-1.58.49,0-.77.38-1.28,1.77-2.43l1.43-1.17v-1.04c0-.57-.08-1.04-.15-1.04-.19,0-2.96,2.34-4.37,3.68-1.09,1.04-2.53,1.88-2.83,1.7-.26-.17-.23-.79.08-1.38.53-1.02,6.28-5.45,6.8-5.24.23.08.28-.11.28-1.09,0-1.17,0-1.19-.6-1.38-.34-.11-2.56-.9-4.96-1.75-4.67-1.66-10.5-3.39-12.63-3.77-1.83-.32-6.52-.26-7.77.09-.55.15-1.39.4-1.88.55-2.24.64-9.37,4.54-12.04,6.58-.51.4-2.19,1.53-3.75,2.51-1.55,1-3.24,2.09-3.77,2.43-2.39,1.62-7.22,5.79-11.88,10.27-1.24,1.21-2.56,2.38-2.94,2.6-.4.23-.83.64-1,.89-.32.49-.68.62-.68.26,0-.23.6-1.04,2.39-3.19,1.7-2.04,2.34-2.56,14.38-11.69,5.73-4.35,12.18-8.37,16.3-10.2,5.28-2.32,7.48-2.81,11.18-2.43,3.58.38,5.58.89,9.65,2.49.77.32,2.13.81,3.02,1.11.89.28,2.24.77,3.02,1.07s1.98.77,2.7,1.04c.92.36,1.26.43,1.26.25,0-.15-.28-.36-.6-.49-.34-.11-1-.38-1.47-.58-1.13-.47-5.43-2.09-6.97-2.62-.68-.25-1.7-.64-2.26-.89-3.81-1.72-9.65-2.54-12.82-1.85h0ZM55.29,122.74c-1.34.9-5.01,4.17-5.62,4.96-.53.72-.83.94-1.36,1.04-1.02.17-1.94.4-2.3.55-.28.11-.28.04.02-.98.58-1.92,1.09-2.85,1.75-3.26,2.34-1.43,5.62-2.6,7.31-2.62h.66s-.47.32-.47.32ZM60.5,122.81l1.55.23-.87.55c-1.88,1.19-5.16,3.81-5.75,4.6s-.75.89-2.87,1.56c-1.23.41-2.28.72-2.32.68-.19-.21.83-1.66,1.88-2.7,2.15-2.11,5.86-5.11,6.35-5.13.26-.02,1.17.08,2.02.21ZM65.42,123.64c.7.15,1.3.32,1.34.34.02.04-.53.43-1.23.89-1.43.92-4.18,3.49-4.79,4.43-.23.38-.64.7-1.02.83-.87.28-3.56.92-3.64.87-.09-.11.51-1.36.9-1.87.25-.3,1.32-1.23,2.43-2.07,1.09-.85,2.51-2.04,3.13-2.62.62-.6,1.23-1.07,1.36-1.09.11,0,.79.13,1.51.3h0ZM69.86,124.87l1.32.4-1.11.6c-1.56.83-2.22,1.32-3.77,2.73-.9.85-1.94,1.56-3.26,2.24-1.83.94-1.92.98-1.56.47.77-1.07,2.81-3.24,4.09-4.35.74-.62,1.62-1.43,1.96-1.81.36-.38.74-.68.83-.68.11,0,.77.17,1.51.4h0ZM72.81,128.58c-2.24,2.36-3.15,2.94-5,3.24-.57.09-1.11.23-1.21.28-.28.17-.23-.41.08-1,.47-.89,2.6-2.79,4.52-4.05l1.87-1.21.9.28.9.28s-2.07,2.17-2.07,2.17ZM44.42,127.9c-.26.66-.57,1.51-.7,1.92-.17.58-.43.89-1.34,1.49-.62.43-1.51,1.13-1.98,1.55-.47.43-1.9,1.58-3.2,2.54s-3.07,2.41-3.96,3.2c-1.87,1.68-3.26,2.68-6.09,4.35-1.13.66-2.75,1.73-3.62,2.39-1.32.98-1.77,1.23-2.68,1.36-.58.09-1.11.15-1.15.09-.13-.13,7.01-7.16,9.2-9.05,4.13-3.56,4.98-4.18,10.33-7.54,1.15-.74,2.85-1.81,3.75-2.39.92-.58,1.72-1.07,1.79-1.09.06,0-.09.53-.36,1.17h0ZM78.35,128.32c-2,1.07-4.2,2.88-4.9,4.03-.23.38-.57.75-.75.83-.43.17-1.38.19-1.38.02,0-.23,1.04-1.47,2.58-3.11.85-.92,1.77-1.98,2.04-2.39l.49-.72,1.51.38,1.53.38-1.11.58h0ZM48.04,130.99l-.45,1.3-2.04,1.47c-1.11.81-2.68,2-3.45,2.64s-2,1.62-2.73,2.19c-.72.57-2.13,1.75-3.11,2.66-1.88,1.72-3.71,2.9-6.94,4.51l-1.94.98.11-.72c.17-.98.49-1.81.77-2,.23-.13,4.03-3.24,6.35-5.18.55-.45,2.83-2.22,5.09-3.92,3.15-2.39,4.28-3.13,4.77-3.19.58-.06,1-.26,3.17-1.62.41-.26.79-.47.81-.47.02.02-.15.62-.41,1.36h0ZM53.97,131.11c-.26.58-.72,1.06-1.92,1.9-2.32,1.66-4.45,3.49-7.43,6.37-1.81,1.75-3.05,2.79-3.94,3.28-.7.4-1.92,1.21-2.73,1.81-2.11,1.55-3.02,2.13-3.15,2-.06-.08.13-.87.43-1.77.75-2.24,1.04-2.53,8.65-8.26,2.6-1.94,4.88-3.58,5.09-3.62.75-.17,3.6-1.47,4.34-1.98.41-.28.81-.51.89-.53.08,0-.02.36-.23.79h0ZM59.86,133.58l.68.34-3.24,3.19c-3.79,3.73-6.39,5.67-8.26,6.18-.6.17-.74.13-1.11-.26l-.41-.45,1.21-1.24c1.94-2,5.71-5.45,7.2-6.54.74-.57,1.73-1.43,2.21-1.9l.85-.89.09.62c.08.49.25.7.79.96h0ZM56.73,132.82c-.81.66-5.28,4.64-9.33,8.31-1.38,1.24-2.66,2.36-2.83,2.45s-.62.41-1,.72c-.64.49-1.85,1.02-1.85.79,0-.26.89-1.79,1.45-2.49,1.47-1.81,5.79-5.9,8.12-7.71,2.15-1.66,2.54-1.9,2.92-1.77.43.17,1.83-.21,2.7-.72.64-.36.57-.21-.19.41h0ZM64.1,133.31c-.21.92-.19,1.04.15,1.26.36.23.25.4-1.98,2.68-1.45,1.51-2.68,2.6-3.2,2.87-.47.25-1.45.85-2.21,1.34-.75.51-1.45.92-1.56.92-.09,0-.19-.36-.19-.79,0-.75.09-.87,3.43-4.28,2.85-2.9,5.52-5.28,5.73-5.05.02.02-.06.49-.17,1.06ZM69.05,133.43c-.47.77-.4,1.51.19,1.7.34.11.28.26-.75,1.56-1.7,2.21-3.77,4.24-4.67,4.64-.43.21-.85.3-.9.25-.17-.17.28-2.38.62-3.05.79-1.51,4.01-4.98,5.05-5.41.41-.17.77-.32.81-.32.04-.02-.11.28-.34.64h0ZM73.07,135.25c.32.77.72,1.11,1.47,1.26l.58.11-1.6,1.72c-1,1.04-1.96,1.88-2.53,2.17-.49.25-1.26.68-1.7.96-.43.3-.83.53-.89.53-.15,0,.02-.81.32-1.6.43-1.19,3.62-5.71,4.03-5.75.04,0,.17.28.3.6h0ZM77.95,137.04c.25.3,1.07.32,1.77.06.49-.19.47-.17-.19.57-.38.43-.79.98-.9,1.23s-.75.89-1.43,1.45c-.68.55-1.7,1.41-2.28,1.9l-1.06.92-.15-.85c-.15-.74-.09-.98.41-2,.32-.62,1.24-1.88,2.05-2.79,1.3-1.47,1.45-1.6,1.51-1.19.04.26.17.58.26.7h0ZM76.27,168.26c1.11,1.04,2.02,2,2.02,2.15,0,.74-.66.32-2.68-1.68-1.19-1.17-2.45-2.36-2.79-2.62-.58-.43-.62-.53-.4-.81.28-.34.15-.45,3.85,2.96ZM74.46,172.29c1.49,1.62,1.53,1.68,1.23,2.07-.32.41-.34.4-2.02-1.45-1.98-2.22-2.05-2.32-1.88-2.98l.13-.51.49.58c.28.32,1.21,1.36,2.05,2.28h0ZM71.05,176.53c.49.75,1.11,1.68,1.36,2.07l.43.68-.77,1.45-.79,1.43-.32-.53c-.19-.28-.81-1.47-1.41-2.62l-1.11-2.09.72-.96c.4-.53.79-.92.87-.89.08.06.53.7,1.04,1.45ZM62.98,188.66c.51,1.45,1.36,3.68,1.88,4.94l.98,2.3-.36.81c-.21.45-.64,1.77-.98,2.92-.32,1.17-.66,2.13-.74,2.13-.06,0-.47-1.21-.92-2.7-1.09-3.6-1.21-3.94-2-5.79-.38-.89-.94-2.19-1.24-2.9l-.55-1.28.43-.53c.23-.28.83-1.02,1.36-1.66.51-.64,1-1.09,1.07-1.02s.55,1.32,1.06,2.77ZM51.79,199.91c.38,1.06.64,1.94.58,2-.11.11-2.92-2.05-2.92-2.26,0-.26,1.21-1.66,1.43-1.66.11,0,.53.87.9,1.92h0Z" style="fill: #fff; stroke: #fff; stroke-miterlimit: 1.88; stroke-width: 2.26px;"/>
      <path d="M147.07,154.48c-.47-1.92-1.87-5.69-2.51-6.82-.13-.24-.25-.46-.34-.63-.03-.03-.06-.05-.11-.06-.08-.02-.17-.02-.25,0-.04.01-.09.02-.13.03s-.09,0-.14,0c-.02,0-.05,0-.07.01-.05.01-.08.04-.13.06-.1.15-.28.35-.57.62-.36.34-1.15,1.28-1.73,2.05-2.3,3.05-5.62,6.14-9.27,8.63-2.94,2-3.52,2.94-2.64,4.2.26.36.74.64,1.43.87,1.85.58,4.81-.02,9.1-1.81.98-.41,1.45-.53,1.62-.4s.26,1.26.34,3.73c.09,3.15.15,3.69.6,5.13l.51,1.6.45-.85c.25-.47.43-.98.45-1.11,0-.15.21-.49.45-.75.87-.94,1.66-5.6,1.66-9.73,0-3.02-.17-4.11-1.09-7.18-.38-1.21-.64-2.22-.58-2.26.11-.13,1.15,2.39,1.51,3.69,1.06,3.79.81,10.84-.49,14.12l-.41,1.06.45.45c.41.41.43.53.34,1.94-.11,1.7,0,1.72.85.15,2-3.64,2.26-10.31.7-16.74h0Z" style="fill: #fff; stroke: #fff; stroke-miterlimit: 1.88; stroke-width: 2.26px;"/>
      <path d="M186.11,144.96c-.47-.32-1.73-1.39-2.83-2.39-2.68-2.43-5.45-4.75-6.07-5.07-.28-.15-2.11-1.51-4.05-3.02-4.32-3.36-5.58-4.28-8.26-6.05-1.13-.75-2.45-1.64-2.92-1.98-3.56-2.56-10.27-5.81-14.42-6.99-1.21-.34-4.26-.47-6.31-.26-2.56.25-5.33.96-7.54,1.94-.57.25-1.85.74-2.83,1.07-.98.36-3.15,1.17-4.81,1.83s-3.17,1.19-3.34,1.19c-.21,0-.34.15-.34.38,0,.4-.28.49,3.96-1.17.77-.3,2.36-.87,3.49-1.26,1.15-.4,2.41-.87,2.83-1.04,1.75-.75,5.33-1.83,6.94-2.07,4.15-.68,6.69-.58,9.44.36,3.51,1.17,10.24,4.56,12.55,6.31.36.28,2.02,1.41,3.66,2.53,1.66,1.11,3.49,2.39,4.05,2.83.58.43,2.6,1.98,4.47,3.43,1.88,1.43,4,3.03,4.71,3.54,1.87,1.38,4.49,3.71,5.6,5.05,1.47,1.73,2.39,2.96,2.39,3.17,0,.32-.3.21-.77-.3-.25-.28-.87-.81-1.39-1.21-.51-.38-1.75-1.49-2.73-2.47-2.41-2.39-7.6-7.01-9.8-8.71-.98-.75-3.22-2.3-5-3.41-1.75-1.13-3.54-2.28-3.96-2.58-2.11-1.55-3.6-2.49-5.3-3.37-1.02-.55-2.07-1.13-2.34-1.32-.81-.57-4.17-2.02-5.84-2.51-2.21-.66-5.24-.83-8.01-.43-2.53.38-7.11,1.68-12.95,3.73-6.2,2.15-5.99,2.05-5.99,2.96s.15,1.34.51,1.34c.57,0,5.92,4.11,6.56,5.03.32.49.47,1.24.3,1.53-.25.41-1.39-.19-2.71-1.43-.98-.9-2.05-1.85-4.13-3.58-.32-.26-.34-.21-.34.87v1.17l1.32,1.07c1.02.83,1.34,1.23,1.43,1.72.08.34.08.68.02.74s-.68-.21-1.38-.58c-.68-.38-1.3-.66-1.34-.6-.06.06-.17.74-.26,1.55-.15,1.43-.15,1.45.4,2.15.3.38.68.81.85.94s.64.81,1.06,1.49,1.04,1.64,1.39,2.15c.66.92.7,1.24.28,2.75l-.11.47-.85-.77c-.83-.77-3.52-2.7-3.77-2.7-.06,0-.17.36-.25.79-.53,3.34-1.64,6.07-3.41,8.39l-1.04,1.36,2.11,2.28,2.09,2.28.36-.53c.21-.28,1.04-1.58,1.85-2.88s1.96-3.09,2.53-4.01c.58-.9,1.19-1.64,1.34-1.64.06,0,.11.01.15.03.13-.04.27-.07.42-.07.1,0,.2,0,.3,0,.04,0,.07,0,.08,0,.01,0,.03,0,.05-.02.08-.02.16-.05.24-.06,0,0,.01,0,.02,0,.33-.23.73-.52,1-.74.57-.47.75-.51,2.04-.47,1.23.04,1.51-.02,2.19-.45.41-.26.85-.7.94-.94.21-.53.94-.64,1.79-.25.49.23,1.21.08,2.3-.45.34-.17.53-.09,1.23.43.22.18.43.34.58.48.32.14.64.27.97.37.2.06.4.11.61.14.15.02.28,0,.43-.03.13-.06.24-.11.35-.13.19-.04.34-.06.43-.05.18-.02.36-.02.54-.01.07-.03.14-.06.2-.09.05-.09.36-.31.76-.51l.75-.4.85.77c1.75,1.6,3.17,1.83,5.26.81l.96-.47.66.6c1.15,1.07,2.04,1.55,2.94,1.55.81,0,1.92-.34,2.13-.64.06-.08.41-.26.79-.41.6-.26.7-.26.92,0,.41.51,1.87,1.43,2.54,1.62.77.21,1.75-.06,2.24-.6s.94-.47,2.04.38c1.3.96,2.17,1.32,3.32,1.32.89,0,.96-.04,1.72-.94.83-.98,1.11-1.11,1.56-.68.34.34,2.47,1.64,3.69,2.28,1.58.79,2.39.57,2.58-.75.19-1.28.17-1.26,1.23-.64.53.3,1.62.79,2.41,1.06,2.62.87,4.3.36,5.03-1.55.56-1.49-.23-3-2.38-4.49h0ZM151.45,123.64c1.39.32,3.17,1.07,5.01,2.15,1.06.6,1.23.87,1.96,3.09.45,1.38.45,1.49.02,1.26-.19-.09-.9-.28-1.58-.4-1.17-.21-1.28-.28-2.02-1.17-.83-1.04-2.13-2.22-4.35-3.98-.77-.62-1.45-1.15-1.49-1.19-.19-.19,1.19-.06,2.45.23h0ZM143.43,123.81c.51-.08,1.02-.15,1.11-.19.11-.04.58-.08,1.07-.08.85-.02.94.04,3.77,2.39,3.17,2.66,4.09,3.6,4.67,4.75.21.41.36.75.34.75-.04,0-1.07-.34-2.32-.74-2.13-.7-2.3-.79-2.92-1.6-.68-.87-3.52-3.17-5.54-4.45l-1.11-.72.92-.13ZM138.85,124.6c1.88-.45,2.02-.43,3.05.64.53.53,1.92,1.7,3.11,2.6,2.54,1.96,2.68,2.09,3.19,3.28.36.83.36.9.06.81-.17-.06-1.07-.28-2.02-.51-1.45-.36-1.77-.51-2.26-1.07-1.7-2-3.19-3.39-4.66-4.37l-1.64-1.11,1.17-.26h0ZM133.71,126.09c.15-.06.79-.26,1.41-.47l1.13-.34,2.71,2.56c1.49,1.41,3.07,3.05,3.54,3.64.45.6.77,1.09.72,1.09-.08,0-.87-.4-1.75-.89-.9-.47-1.81-.96-2.02-1.07s-.72-.57-1.11-1.02c-.89-.98-2.22-1.98-3.77-2.79-.74-.4-1.04-.66-.87-.72h0ZM130.49,127.05c.47-.15.9-.3.92-.3.04-.02.94.55,1.98,1.24,2.22,1.45,3.98,3.03,4.51,4.07.21.41.32.77.26.83-.15.15-3-.49-3.45-.79-.23-.15-.51-.28-.6-.28s-.72-.57-1.38-1.28c-.64-.7-1.62-1.7-2.15-2.22l-.96-.96.87-.3h0ZM126.45,129.35c-.72-.4-1.28-.74-1.23-.75.06,0,.7-.17,1.41-.34l1.32-.34.66.77c.36.41,1.21,1.36,1.88,2.09,1.39,1.49,2.64,3,2.64,3.19,0,.06-.36.11-.79.11-.74,0-.85-.06-1.19-.7-.49-.92-3.05-3.11-4.71-4.03h0ZM130.84,143.3l-.25.75-.66-.64c-.36-.34-1.21-1.04-1.87-1.55-1.43-1.06-3.92-4.13-3.11-3.83,1.02.4,1.96,0,1.96-.83,0-.66,2.51,2.21,3.39,3.88.74,1.39.75,1.47.53,2.21h0ZM136.14,142.74c-.06.13-.38.02-.79-.28-.4-.26-1.21-.75-1.81-1.07-.72-.4-1.62-1.17-2.56-2.21l-1.47-1.58.53-.15c.72-.19,1.38-.83,1.51-1.51.11-.47.17-.51.41-.3.17.13.64.72,1.07,1.28,2.19,2.96,3.34,5.13,3.11,5.82h0ZM141.74,142.51c-.06.08-.55-.08-1.06-.32-1-.47-3.22-2.7-4.77-4.79l-.83-1.09.45-.45c.55-.55.55-.62-.04-1.47l-.47-.7.41.13c.25.06.66.25.94.38.87.43,4.32,4.3,4.66,5.22.34.87.81,2.98.7,3.09h0ZM149.49,142.47c-.06.4-.15.75-.21.81s-.72-.34-1.47-.85c-.75-.53-1.75-1.15-2.22-1.38-.51-.25-1.81-1.41-3.24-2.87-2.38-2.41-2.39-2.43-2.04-2.79.45-.45.45-.49.09-1.51-.15-.43-.28-.83-.28-.87s.49.26,1.09.66c.58.41,2.71,2.41,4.73,4.43,2.44,2.44,3.62,3.89,3.54,4.35ZM156.61,143.89c-.64.72-1.62.38-4.43-1.55-2.04-1.39-8.52-7.69-7.94-7.69s1.34-.74,1.34-1.28c0-.47.08-.43,1.19.64.64.64,1.68,1.53,2.3,2,1.66,1.24,5.49,4.79,6.77,6.26,1.07,1.23,1.09,1.26.77,1.62ZM161.19,145.34c-.45-.34-1.02-.75-1.28-.9-.26-.17-1.28-1.07-2.28-1.98-2.56-2.38-7.46-6.75-9.14-8.14-.77-.64-1.38-1.17-1.34-1.17.06,0,.58.23,1.19.49.79.34,1.32.47,1.81.4.64-.09.87.04,3.02,1.7,3.85,2.94,9.05,8.33,9.48,9.8.19.64-.45.57-1.45-.19h0ZM169.82,147.43c-.13.11-1.32-.62-2.96-1.87-.79-.6-2.09-1.47-2.92-1.96-1.04-.62-2.24-1.62-3.94-3.28-2.66-2.6-4.92-4.54-7.45-6.37-1.23-.89-1.72-1.38-2.02-2.02l-.41-.83,1.17.7c.64.4,1.88.98,2.77,1.32s1.79.72,2.02.83c.74.41,9.37,6.97,10.8,8.22,1.68,1.49,1.83,1.64,2.05,2.38.11.3.36,1.07.58,1.68.21.62.34,1.15.3,1.21h0ZM177.03,147.47c-.25,0-3.75-1.79-5.35-2.75-.81-.47-2.24-1.56-3.19-2.41-.92-.87-2.34-2.05-3.13-2.68-.77-.6-2.02-1.6-2.73-2.21s-2.34-1.83-3.6-2.73c-1.92-1.34-2.32-1.72-2.32-2.11,0-.26-.17-.83-.38-1.28-.19-.43-.32-.79-.26-.79.04,0,.83.47,1.72,1.04,1.07.68,1.85,1.04,2.21,1.04.45,0,1.45.66,4.66,3.05,2.22,1.7,4.77,3.66,5.64,4.39.87.72,2.62,2.17,3.9,3.2,1.28,1.06,2.45,2.11,2.58,2.39.3.57.47,1.85.26,1.85ZM183.81,147.66c-.92-.13-1.32-.32-2.56-1.26-.81-.6-2.17-1.53-3.03-2.04-3.02-1.79-5.41-3.49-6.97-4.92-.89-.79-2.58-2.17-3.77-3.05-1.21-.89-2.79-2.15-3.52-2.79-.75-.64-1.7-1.38-2.13-1.62-.41-.23-.77-.55-.77-.66,0-.13-.32-1.04-.74-2.02l-.74-1.79,1.07.68c.58.38,1.6,1.02,2.28,1.43,6.69,4.07,9.22,5.92,13.76,9.97,2.21,1.98,8.35,8.09,8.24,8.18-.02.02-.53-.04-1.11-.11h0Z" style="fill: #fff; stroke: #fff; stroke-miterlimit: 1.88; stroke-width: 2.26px;"/>
      <path d="M59.65,148.2c-1.11,1.11-2.56,3.94-3.39,6.62-.41,1.3-.79,2.66-.85,3.02-.3,1.79-.68,5.3-.68,6.28,0,1.45.64,4.26,1.28,5.58.72,1.47,2.05,2.85,2.79,2.85s1.34-.45,1.68-1.26c.3-.72.62-5.35.58-8.29,0-.94.04-1.79.11-1.87.15-.15,2.19.25,2.51.49.34.25,4.15,1.47,5.32,1.7,1.83.36,2.94.02,1.85-.57-.77-.41-.81-1.04-.11-1.88.32-.4.58-.79.58-.87s.13-.3.32-.49c.17-.19.26-.38.23-.4-.04-.04-.81-.64-1.73-1.34-2.53-1.96-6.67-6.45-9.05-9.82-.19-.26-.41-.47-.51-.47-.11,0-.53.34-.92.74ZM60.57,151.5c0,.13-.28.89-.64,1.68-1.11,2.43-1.79,5.05-1.94,7.41-.13,2.6.21,5.92.81,7.71.83,2.45.4,3.26-.62,1.17-.96-1.92-1.28-3.75-1.26-7.11,0-2.9,0-2.92.81-5.47.74-2.26,1.79-4.77,2.32-5.43.26-.3.53-.28.53.04h0Z" style="fill: #fff; stroke: #fff; stroke-miterlimit: 1.88; stroke-width: 2.26px;"/>
      <path d="M114.97,155.56l-1.49,1.51,2.24,2.49c1.23,1.38,2.71,3.02,3.28,3.68.57.64,2.22,2.47,3.66,4.05,1.45,1.6,3.66,4.05,4.9,5.45,1.26,1.39,3.05,3.37,4,4.41l1.7,1.87-1.53,1.53c-7.22,7.2-7.5,16.17-.7,22.56.9.85,2.15,1.87,2.75,2.3,1.41.96,5.01,2.68,6.45,3.07,1.73.47,4.47.57,5.92.19,1.6-.41,4.13-1.85,5.43-3.05l1.02-.98.64.26c.72.3,2.04.4,2.62.21.28-.09.47.02.81.55.57.87,1.19,1.09,2,.75.87-.36,1.24-1.39.77-2.13-.17-.26-.55-.57-.85-.68-.47-.19-.49-.25-.32-.81.13-.4.11-1.11,0-2.13-.23-1.7-.45-2.05-2.75-4.47-.7-.74-1.98-2.15-2.83-3.15s-2.38-2.73-3.39-3.83c-1.02-1.11-2.64-2.96-3.62-4.11-.96-1.15-2.07-2.39-2.47-2.75-.87-.77-.62-.47,1.26,1.72,3.29,3.82,5.36,6.18,6.2,7.07.51.53,1.41,1.58,2.04,2.36s1.79,2.07,2.58,2.9c2.05,2.11,2.34,2.54,2.54,3.69.08.57.21,1.17.28,1.34.09.23-.23.66-1.11,1.55-.68.68-1.19,1.24-1.11,1.24.32,0,1.47-.89,1.77-1.39.23-.36.36-.47.36-.28,0,.28-1.32,1.64-1.66,1.7-.08.02-.3.06-.51.09-1.04.19-2.13.15-2.54-.11-.21-.13-.02-.41.98-1.39,1.92-1.87,2.28-2.43,2.15-3.2-.13-.68-1.24-2.28-2.49-3.6-.4-.41-1.41-1.64-2.28-2.73-2.56-3.22-3.03-3.81-4.35-5.18-.7-.72-1.56-1.7-1.94-2.17s-1.28-1.49-2.02-2.28c-.75-.79-1.36-1.51-1.36-1.6,0-.08.13-.28.28-.45.38-.41.25-.75-.45-1.23-.3-.19-.51-.43-.45-.53s0-.25-.15-.34c-.19-.11.02-.43.83-1.28,1.55-1.6,2.3-3.32,2.77-6.24.26-1.62-.17-3.47-.49-2.13-.08.28-.41,1.13-.74,1.87-1.02,2.22-3.96,4.86-5.82,5.2-.36.06-2.17-1.87-10.16-10.78-2.3-2.54-2.79-3.09-5.05-5.56-.66-.74-2.24-2.51-3.52-3.92s-2.39-2.58-2.47-2.58c-.06,0-.79.68-1.6,1.49h0ZM118.93,159.33c.66,1.62.87,2.32.64,2.19-.08-.04-.62-.68-1.21-1.39-.79-.96-1.13-1.58-1.36-2.39-.15-.62-.32-1.28-.38-1.49s.3.08.81.64c.57.66,1.11,1.55,1.49,2.45h0ZM122.62,163.02c.85,1.13,1.09,1.62,1.19,2.47.04.45.02.45-.74-.17-.68-.57-.83-.83-1.19-2.21-.23-.87-.34-1.49-.26-1.39s.53.68,1,1.3h0ZM128.39,170.22c.57.68.98,1.36.98,1.6l-.02.43-.38-.47c-.23-.26-.83-.94-1.34-1.51-.92-1.02-1.11-1.32-1.36-2.26-.11-.4-.04-.36.49.26.34.41,1.07,1.28,1.62,1.94ZM143.6,174.16c-.9,2.05-2.41,3.94-3.68,4.6-.36.19-1.47,1.06-2.47,1.92-1,.85-3.09,2.66-4.67,4-3.39,2.88-4.64,4.2-5.22,5.52-.51,1.13-.62,1.24-.51.47.36-2.26.96-3.71,2.73-6.47,1.62-2.49,3.34-3.75,8.75-6.37,2.64-1.3,3.13-1.6,3.9-2.49.49-.55,1.04-1.38,1.21-1.81.19-.45.36-.74.4-.66.02.09-.17.66-.43,1.28h0ZM139.08,180.42c-.11.09-.68.6-1.28,1.17-.58.55-1.13.96-1.19.89-.09-.09,2.34-2.21,2.54-2.21.06,0,.02.08-.08.15ZM139.93,180.59c0,.34-2.22,2.51-2.58,2.51-.58,0-.32-.45.92-1.58.75-.68,1.43-1.24,1.53-1.24.08,0,.13.15.13.32ZM140.12,181.62c0,.3-2.13,2.04-2.47,2.04-.26-.02,2.05-2.26,2.34-2.26.08,0,.13.11.13.23h0ZM140.55,182.4c-.19.34-1.96,1.83-2.17,1.83-.38,0-.06-.4,1-1.3,1.11-.94,1.51-1.11,1.17-.53ZM134.99,183.98c-.87.92-2.53,3.2-4.73,6.56-1.04,1.55-2.21,3.86-2.21,4.34,0,.15-.08.3-.17.38-.28.15-.47-.64-.43-1.83.04-2.3,1.73-4.71,5.88-8.37,2.02-1.79,2.88-2.34,1.66-1.07ZM137.06,184.41c.13,0,.23.13.23.28s.15.36.36.45c.19.11.41.41.47.68.08.26.38.6.74.77.7.38,1.06.79,1.07,1.26,0,.19.38.72.85,1.21.47.47.85,1.04.85,1.24,0,.41.68,1.26,1.04,1.26.11,0,.43.36.72.79.28.45.75.98,1.07,1.19.3.21.57.49.57.64,0,.36.74,1.15,1.07,1.15.13,0,.25.13.25.28,0,.13.11.34.26.41s.28.3.32.49.34.49.64.66c.32.17.6.4.64.47.02.08.49.57,1.04,1.07,1.72,1.66,1.85,1.79,2.17,2.26.21.3.3.87.3,1.7v1.23l-1.24,1.26c-1.87,1.88-3.88,2.7-6.77,2.68-3.88-.04-5.71-.87-10.35-4.77-1.36-1.13-3.43-3.64-4.43-5.35-.49-.81-.49-.83-.19-1.85.17-.57.45-1.28.62-1.58.19-.32.45-.87.6-1.23.36-.94,1.62-3.13,2.47-4.28.4-.55.72-1.04.72-1.09,0-.23.92-1.47,1.98-2.68,1-1.11,1.11-1.19,1.39-.92.19.17.43.3.55.3h0ZM143.68,184.49c.17.19-.08.43-1.15,1.17-2.53,1.72-2.41,1.64-2.41,1.36,0-.15.45-.58,1-.96s1.24-.94,1.55-1.26c.6-.64.72-.68,1.02-.3h0ZM145.49,187.02c-.11.09-.94.7-1.85,1.34-1.23.89-1.73,1.13-1.88.98s-.15-.21.04-.21c.28,0,2.58-1.66,3.13-2.26.25-.26.41-.32.55-.19.11.11.11.25.02.34ZM147.41,188.86c.04.09-.21.34-.55.55-.34.19-1.24.81-1.98,1.36-.75.57-1.38.94-1.38.87.02-.08.53-.53,1.13-.98.62-.47,1.39-1.13,1.73-1.47.58-.6.9-.7,1.04-.32ZM148.94,190.86c-.09.28-1.56,1.43-2.83,2.22-1.43.89-1.23.3.26-.81.75-.55,1.49-1.15,1.64-1.32.3-.38,1.04-.43.92-.09h0ZM150.18,193.8c-.77.68-2.81,1.92-3.19,1.92-.06,0-.09-.11-.09-.25,0-.11.55-.47,1.21-.75.66-.3,1.53-.87,1.9-1.26.4-.41.81-.68.92-.62.09.08-.23.49-.75.96h0ZM127.22,195.25c.49,1.62,1.98,4.09,3.73,6.2.9,1.11,3.86,3.58,5.54,4.67.64.43,1.17.79,1.17.83,0,.17-3-1.51-4.11-2.32-.68-.49-1.98-1.6-2.87-2.49-1.41-1.39-1.75-1.88-2.58-3.6-.94-1.92-1.39-3.43-1.36-4.49.02-.38.04-.41.11-.13.04.21.21.79.36,1.32h0ZM152.2,195.99c-.36.36-1.11.85-1.7,1.07s-1.17.51-1.28.6c-.17.11-.25.09-.25-.09,0-.15.3-.41.68-.58,1.11-.55,2.73-1.83,2.6-2.07-.08-.13.02-.08.23.09.34.32.32.36-.28.98h0ZM154.42,197.36c-.02.26-2.64,2.32-2.94,2.32-.15,0,.23-.34.85-.75s1.26-.96,1.43-1.23c.3-.45.7-.64.66-.34ZM157.82,205.04c.17.19.17.3.02.4-.3.19-.75-.04-.75-.38,0-.36.45-.38.74-.02Z" style="fill: #fff; stroke: #fff; stroke-miterlimit: 1.88; stroke-width: 2.26px;"/>
      <path d="M105.91,162.94c-1.87,1.26-3.19,2.05-3.49,2.04-.26,0-1.34-.57-2.45-1.3-1.07-.72-2-1.26-2.04-1.23s.06.7.21,1.45c.17.75.43,2.13.6,3.07.64,3.64,1.24,6.84,1.55,8.14.32,1.34.3,1.38-.06,1.66-1.53,1.15-6.97,3.09-8.86,3.15-1.9.08-1.83.32-1.68-5.35.13-4.71.13-4.88-.26-5.86l-.41-1-1.07.53c-1.62.79-3.28,1.26-5,1.39-1.39.11-1.6.19-2.17.72-.34.32-.89,1.06-1.23,1.62-.32.57-1.07,1.79-1.68,2.73-.6.92-1.09,1.75-1.09,1.83,0,.15,1.17.7,3.02,1.41.68.25,2.88.89,4.9,1.39,7.26,1.81,10.63,3.17,12.93,5.15.79.66,2.53,3.07,2.53,3.47,0,.49-.55.17-1.39-.81-1.09-1.28-2.39-2.19-5.11-3.54-2.38-1.19-4.26-1.79-7.63-2.47-3.26-.66-5.75-1.32-8.26-2.17l-2.13-.72-.47.68c-.25.36-.45.75-.45.87,0,.36,2.75,1.98,4.64,2.75,2.07.85,5.47,1.88,7.62,2.32,3.15.64,7.29,2.45,9.58,4.17,1.45,1.09,2.34,2.3,2.77,3.81.45,1.55,1.13,2.77,1.64,3.02.34.15.6.13,1.11-.08,1.04-.43,1.66-1.17,2.62-3.07,2.49-4.92,4.43-6.2,12.16-8.03.74-.17,2.04-.6,2.92-.94.89-.36,2.41-.94,3.39-1.3,3.39-1.21,8.29-3.73,8.29-4.26,0-.11-.32-.53-.7-.94l-.72-.75-1.23.55c-2.36,1.07-8.05,3.03-12.93,4.45-5.98,1.73-8.03,2.49-9.76,3.66-2.13,1.41-3.28,2.79-4.09,4.98l-.38,1,.08-.89c.23-2.51,2.77-5.15,6.52-6.77,1.58-.68,4.81-1.7,9.41-3,3.52-.98,9.69-3.19,11.46-4.11l.62-.32-1.72-1.88c-.96-1.04-2.26-2.49-2.92-3.2l-1.21-1.32-2.39.06c-2.11.06-2.53.02-3.51-.36-3.51-1.3-6.8-4.15-8.31-7.16-.38-.72-.68-1.3-.72-1.28-.02,0-1.39.94-3.05,2.07h0Z" style="fill: #fff; stroke: #fff; stroke-miterlimit: 1.88; stroke-width: 2.26px;"/>
      <path d="M137.76,162.79c-2.62,1.26-2.94,1.47-4.34,2.87-.83.85-1.87,1.68-2.3,1.87-.45.21-.81.41-.81.47,0,.11,1.55,1.9,3.56,4.13l1.04,1.15.94-.79c.53-.41,1.13-.94,1.34-1.17.21-.21.62-.6.94-.85.87-.74-.64,1-1.9,2.17l-1.02.94.53.64.53.62,1.02-.81c.55-.45,1.56-1.47,2.26-2.24l1.26-1.41.32-4.32c.17-2.36.25-4.37.19-4.47-.19-.32-.75-.13-3.56,1.21Z" style="fill: #fff; stroke: #fff; stroke-miterlimit: 1.88; stroke-width: 2.26px;"/>
      <path d="M61.8,163.34c.21,2.9.87,6.58,1.34,7.52.23.47,2.81,3.09,3.17,3.22.09.04.41-.25.72-.62l.55-.68-.98-1.3c-1.75-2.32-4.01-7.8-3.22-7.8.08,0,.58.89,1.11,1.96.72,1.45,1.36,2.38,2.43,3.58.79.89,1.51,1.62,1.58,1.62.06,0,.34-.45.62-1,.41-.77.57-1.38.66-2.77.15-1.66.13-1.81-.25-2.19-.21-.21-1.02-.58-1.79-.81-1.43-.43-4.81-1.79-5.16-2.07-.11-.08-.36-.21-.57-.28-.32-.11-.34-.02-.21,1.62h0Z" style="fill: #fff; stroke: #fff; stroke-miterlimit: 1.88; stroke-width: 2.26px;"/>
      <path d="M87.04,165.85c-.08.21-.4.28-1.11.28-.98,0-1.02.02-2.34,1.36-.72.75-1.3,1.38-1.28,1.39s.55-.04,1.17-.11c1.17-.17,4.6-1.75,4.75-2.21.08-.23-.64-1-.92-1-.09,0-.21.13-.26.28h0Z" style="fill: #fff; stroke: #fff; stroke-miterlimit: 1.88; stroke-width: 2.26px;"/>
      <path d="M73.94,181.25c-.3.72-.25,1.62.15,2.79.17.51.28,1.39.26,2.19-.06,2.17.72,4.11,2.38,5.99.45.49.85,1.09.89,1.32.57,2.92,1.07,4.09,2.49,5.58.77.83,1.49,1.3,2.58,1.68.28.11.51.34.51.49,0,.55.9,2.11,1.56,2.68.94.83,2.64,1.58,4.37,1.94,1.06.23,1.81.53,2.47.98,1.68,1.13,3.56,1.53,7.43,1.58,1.81.02,3.75.11,4.32.21,1.6.3,3.3.02,4.69-.75,1.02-.6,1.34-.68,2.45-.68,1.79,0,3.22-.55,5.09-1.94.55-.41,1.17-1.02,1.36-1.34.28-.45.58-.64,1.36-.83,3.02-.77,5.24-3.07,5.71-5.9.11-.64.32-1.02.89-1.56l.75-.74-.13-1.24c-.06-.7-.04-1.85.08-2.58.11-.72.17-1.34.13-1.38-.04-.02-.51.36-1.07.89-1,.94-2.05,1.41-3.62,1.58-.89.11-.74-.11.68-1.04,4.2-2.79,4.34-2.88,4.6-3.54.15-.36.4-.92.55-1.26.15-.32.26-.64.26-.7,0-.08.34-.66.75-1.28.58-.9.75-1.36.75-1.96,0-.92-.25-1.19-.72-.77-.17.15-.79.51-1.36.79-1.26.64-3.26,2.07-4.17,3.05-1.53,1.6-2.15,2.85-3.09,6.28-.28.98-.36,1.07-1.45,1.7-1.72.98-2.66,1.9-3.43,3.39-.49.94-.81,1.32-1.06,1.32-.9,0-3.41,1.36-4.32,2.34-.43.47-.49.47-2.17.36-1.75-.09-3.98.26-5.58.94-.62.26-.68.26-1.45-.28-.45-.3-1.09-.66-1.43-.81-.85-.36-2.88-.51-4.03-.32-.94.15-1.02.13-1.51-.38-.75-.79-3.19-2.41-4.17-2.79-.72-.28-.89-.45-1.17-1.17-.66-1.73-2.45-3.83-3.81-4.43-.68-.3-.72-.36-.72-1.19,0-2.04-.6-3.88-1.9-5.77-.38-.55-.77-.87-1.43-1.11-1.41-.53-3.47-1.58-4.41-2.28-.49-.36-.92-.64-.98-.64-.04,0-.21.26-.34.6h0ZM80.08,187.03c-.17.51-.55,1.3-.83,1.73-.53.81-.77,1.43-1.09,2.81-.36,1.43-1.11.3-.9-1.32.15-1.04,1.09-2.7,1.92-3.32.32-.25.7-.77.85-1.15.23-.7.25-.7.3-.19.04.28-.08.94-.25,1.43h0ZM83,194.27c.13,2.15-.02,5.32-.28,5.32-.34,0-.87-2.24-.9-3.86-.04-1.87.11-2.58.58-2.68.43-.09.53.09.6,1.23ZM122.51,197.59c-1.34,1.39-4.43,1.9-5.82.96-.38-.26-.7-.53-.7-.6,0-.34,3.11-.83,5.54-.87l1.51-.04-.53.55h0ZM89.09,202.96c.28.6.57,1.38.62,1.7l.09.57-.41-.36c-1.04-.96-2.02-3.79-1.73-5,.09-.4.19-.28.53.75.23.68.64,1.73.9,2.34h0ZM111.94,202.15c.64.28,1.34.41,2.41.43.9,0,1.55.09,1.58.23.28.87-2.43.85-4.18-.02-1.77-.89-1.6-1.43.19-.64ZM96.2,203.66c2.22,2.38,3.05,3.22,3.58,3.66.4.3.41.38.15.43-.62.13-2.47-.96-3.62-2.13-1.09-1.09-2.47-3.32-2.24-3.56.28-.26.62,0,2.13,1.6h0ZM102.98,203.51c0,.38,3,2.32,3.86,2.53.45.09.75.26.75.43,0,.53-1.68.26-3.43-.53-.75-.34-2.07-2.28-1.7-2.53.34-.21.51-.19.51.09Z" style="fill: #fff; stroke: #fff; stroke-miterlimit: 1.88; stroke-width: 2.26px;"/>
      <path d="M156.84,200.78c-.77,1.23-1.58,2.04-2.62,2.66-.4.25-.72.47-.72.51,0,.06.06.08.15.04,2.13-1.06,2.56-1.45,3.52-3.2.72-1.3.49-1.3-.34,0h0Z" style="fill: #fff; stroke: #fff; stroke-miterlimit: 1.88; stroke-width: 2.26px;"/>
      <path d="M156.89,201.7c-.36.47-1.11,1.23-1.66,1.68-1.17.96-1.06,1.09.21.25.74-.49,2.38-2.53,2.17-2.71-.02-.02-.36.32-.72.79Z" style="fill: #fff; stroke: #fff; stroke-miterlimit: 1.88; stroke-width: 2.26px;"/>
      <g>
        <path d="M100.87,162.92c-4.27-3-4.72-3.33-5.95-4.34-1.91-1.56-4.92-4.56-6.21-6.17-4.2-5.29-5.16-10.83-5.4-31.21l-.03-3.34,15.42-.06c8.31-.02,18.23-.06,20.39-.11.32,0,.64,0,.95,0,.57,0,1.03,0,1.39.02.04.95.09,2.51.16,4.58l.05,1.42v.2c.09,2.08.19,4.67.25,5.79.22,3.64-.39,9.36-1.6,14.93-.79,3.65-1.04,4.2-2.23,5.94-2.62,3.9-7.62,8.43-13.74,12.45l-1.71,1.12-1.71-1.22h0Z" style="fill: #fff; stroke: #fff; stroke-miterlimit: 1.88; stroke-width: 2.26px;"/>
        <path d="M120.03,119.02h.11c.03.87.07,1.99.11,3.33l.05,1.41v.16c.09,2.1.19,4.71.25,5.86v.02c.21,3.52-.39,9.1-1.58,14.56-.75,3.46-.93,3.87-2.03,5.48h0s0,.02,0,.02c-2.52,3.75-7.39,8.15-13.36,12.07l-.97.63-.98-.7h0s0,0,0,0c-4.23-2.97-4.67-3.29-5.87-4.28-1.81-1.49-4.79-4.44-6.01-5.96-3.74-4.71-4.86-9.27-5.12-30.4l-.02-2.02,14.09-.05c8.31-.02,18.22-.06,20.4-.11.33,0,.64,0,.94,0M120.03,116.38c-.31,0-.64,0-.98,0-1.99.04-11.16.08-20.36.11l-16.74.06.04,4.67c.25,20.74,1.26,26.43,5.69,32.02,1.34,1.67,4.44,4.75,6.4,6.36,1.28,1.05,1.74,1.38,6.03,4.4l2.45,1.74,2.47-1.61c6.28-4.12,11.36-8.73,14.11-12.81,1.34-1.97,1.63-2.74,2.43-6.4,1.23-5.67,1.86-11.51,1.63-15.28-.06-1.15-.17-3.83-.25-5.96-.17-4.98-.23-6.97-.27-7.18,0-.07-1.13-.11-2.64-.11h0Z" style="fill: #fff; stroke: #fff; stroke-miterlimit: 1.88; stroke-width: 2.26px;"/>
      </g>
      <g>
        <path d="M99.42,162.5c-3.91-2.75-4.32-3.05-5.5-4.01-1.85-1.52-4.7-4.34-5.96-5.93-4.22-5.32-5.19-10.58-5.42-29.65l-.05-5.53,16.41-.06c9.15-.02,16.69-.06,18.32-.09.32,0,.63,0,.91,0,.7,0,1.3,0,1.75.03.25,0,.44.02.58.04.98.1,1.26.73,1.33,1.1h0c.05.26.07.61.23,5.41l.04,1.27v.15c.08,1.87.17,4.2.22,5.2.21,3.48-.36,8.89-1.5,14.11-.75,3.44-1.08,4.31-2.38,6.23-2.57,3.82-7.21,8.05-13.07,11.9l-2.98,1.94-2.94-2.08h0Z" style="fill: #fff; stroke: #fff; stroke-miterlimit: 1.88; stroke-width: 2.26px;"/>
        <path d="M118.12,118.53c1.36,0,2.38.04,2.38.1.04.19.09,1.98.25,6.47.08,1.92.17,4.34.23,5.37.21,3.39-.36,8.65-1.47,13.76-.72,3.3-.98,4-2.19,5.77-2.47,3.68-7.05,7.82-12.7,11.54l-2.22,1.45-2.21-1.56c-3.86-2.71-4.28-3.02-5.43-3.96-1.77-1.45-4.56-4.22-5.77-5.73-4-5.03-4.9-10.16-5.13-28.84l-.04-4.2,15.08-.06c8.29-.02,16.55-.06,18.34-.09.3,0,.6,0,.88,0M118.12,115.9c-.29,0-.6,0-.91,0h-.03c-1.63.03-9.16.07-18.29.09l-15.08.06h-2.65s.02,2.66.02,2.66l.04,4.2c.22,18.32,1,24.53,5.7,30.46h0s0,0,0,0c1.31,1.64,4.25,4.56,6.16,6.12,1.21,1,1.63,1.3,5.58,4.07l2.2,1.56,1.46,1.04,1.5-.98,2.22-1.45c6.01-3.95,10.78-8.3,13.45-12.27,1.49-2.19,1.84-3.3,2.58-6.69,1.18-5.41,1.75-10.82,1.53-14.47-.05-1-.15-3.33-.22-5.21v-.11s-.05-1.26-.05-1.26c-.17-5.1-.18-5.26-.25-5.63h0c-.2-1-1-1.99-2.49-2.15-.17-.02-.39-.03-.67-.04-.47-.01-1.09-.02-1.81-.02h0Z" style="fill: #fff; stroke: #fff; stroke-miterlimit: 1.88; stroke-width: 2.26px;"/>
      </g>
      <g>
        <path d="M95.03,124.77l6.36-3.35c.2-.1.42-.13.64-.06l8.55,2.5c.36.11.61.44.61.82v4.64c0,.06,0,.12.02.18l3.8,18.03c.1.48-.22.94-.7,1.02l-14.59,2.36c-.12.02-.24.01-.36-.02l-8.34-2.26c-.44-.12-.71-.57-.61-1.02l4.1-17.15c.02-.06.02-.13.02-.19l.04-4.74c0-.31.18-.6.46-.74Z" style="fill: #fff; stroke: #fff; stroke-miterlimit: 1.88; stroke-width: 2.26px;"/>
        <path d="M104.59,122.65c1.43.41,3.43.98,4.43,1.28l1.85.53v2.58l-.68-.11-.66-.13.13.66c.11.66.09.68-.47.68-.62,0-.79.26-.28.45.17.06.57.11.89.11.34,0,.74.09.89.21.21.15.06.17-.57.09-1.56-.21-5.54-.64-6.82-.77l-1.28-.13v-1.11c0-.62.08-1.11.19-1.11s.19.25.19.57c0,.38.09.57.28.57s.28-.19.28-.57.09-.57.28-.57c.15,0,.28-.09.28-.19,0-.11-.34-.19-.75-.19h-.75v-.92c0-.49-.06-1.3-.11-1.79-.08-.47-.08-.87-.02-.87.08,0,1.3.34,2.71.74h0ZM101.44,122.33c0,.13-.47.45-1.04.7-1.06.45-1.34.77-.66.77.3,0,.38.13.38.57,0,.3.09.57.19.57.11,0,.19-.32.19-.72,0-.6.09-.77.47-.94l.47-.23v2.54c0,1.39-.02,2.54-.04,2.54-.04,0-1.47.41-3.2.92-2.81.81-3.17.89-3.17.58s.3-.49,1.38-.83c.34-.11.45-.49.13-.49s-.21-.6.13-.87c.55-.4.09-.55-.6-.21-.38.17-.75.32-.85.32-.11,0-.19-.51-.19-1.13v-1.13l.77-.4.79-.4-.13.68c-.17.89.13,1,1.39.58l.94-.32v-2.02l1.19-.66c1.28-.74,1.45-.79,1.45-.45ZM98.1,124.55c.45,0,.41.51-.06.64-.21.06-.55.17-.75.23-.32.08-.38.02-.38-.49,0-.55.06-.6.43-.49.23.06.57.11.75.11h0ZM110.86,127.85c0,.34-.09.47-.38.47s-.38-.13-.38-.47.09-.47.38-.47.38.13.38.47ZM95.71,128.42c-.13.36-.68.36-.68,0,0-.32.62-.72.72-.45.04.09.02.3-.04.45ZM106.89,129.17c2.11.25,3.9.51,3.98.6.06.08.43,1.68.83,3.54s1.11,5.3,1.62,7.63c.94,4.43,1.39,6.96,1.3,7.07-.06.04-4.67.85-4.9.85-.04,0-.08-.87-.06-1.94,0-1.62.06-1.92.3-1.98.21-.04.34.09.38.36.04.23.17.45.3.51.25.08.28-.83.08-1.62-.15-.51-.53-.53-.45,0,.11.62-.68.41-.96-.28-.41-.96-1-1.36-1.92-1.34-.45,0-1.06.17-1.32.34-.4.26-.55.28-.77.09-.26-.21-.25-.28.15-.57.23-.19.38-.38.32-.43-.19-.19-1.3.64-1.68,1.24-.4.66-.51,1.47-.19,1.47.11,0,.19-.17.19-.36s.15-.55.34-.77c.28-.36.36-.38.57-.13.17.21.19.41.04.77-.09.28-.19,1.11-.19,1.83,0,1.17-.04,1.3-.38,1.3-.23,0-.38-.13-.38-.3s-.11-.26-.23-.23c-.15.06-.25.4-.25.81s.09.75.25.79c.13.06.23-.08.23-.3,0-.26.11-.4.38-.4s.38.13.38.45c0,.25.06.72.11,1.04.11.55.09.58-.43.58-.3,0-1.43.13-2.51.28-1.06.17-1.96.26-2,.23-.08-.08.43-6.2,1.34-15.89.26-2.83.47-5.3.47-5.5,0-.34.09-.38.62-.3.32.06,2.34.3,4.45.55h0ZM101.25,129.21c0,.43-.55,6.82-1.24,14.51l-.13,1.38-1.34.02c-.74.02-1.15.08-.9.11.28.06.41.21.41.55,0,.4-.09.45-.64.45-.36,0-.72.08-.77.19-.08.11.21.19.7.19.96,0,1.34.21,1.17.62-.08.23-.02.32.19.32.17,0,.3-.15.3-.38,0-.25.13-.38.36-.38.32,0,.36.11.28,1.17-.13,1.75-.26,2.41-.47,2.41-.51,0-8.2-2.13-8.41-2.32-.13-.13,1.55-6.41,1.83-6.86.13-.2.16-.18.09.08-.15.58.25.74.47.17.09-.26.3-.49.47-.49.15,0,.28-.09.28-.19,0-.11-.26-.19-.58-.19h-.58l.13-.9c.09-.72,1.39-6.11,1.49-6.18,0-.02.25-.08.55-.15.6-.13.66.08.23.9l-.28.55.79-.11c1.24-.19,2.22-.51,2.22-.74,0-.19-1.11-.09-1.77.15-.23.09-.3,0-.3-.36,0-.32.13-.49.41-.58.28-.06.36-.17.25-.28-.13-.13-.47-.13-1.02,0-.45.09-.85.15-.89.13-.08-.08.45-2.24.57-2.38.13-.11,5.54-1.87,5.92-1.9.13-.02.23.21.23.49h0ZM99.74,145.95c0,.4-.09.47-.57.47-.43,0-.57-.09-.57-.36,0-.34.26-.51.9-.57.11,0,.23.19.23.45Z" style="fill: #fff; stroke: #fff; stroke-miterlimit: 1.88; stroke-width: 2.26px;"/>
        <path d="M104.77,126.07c-.08.58-.11,1.07-.08,1.11s.72.13,1.51.21l1.45.13.13-.98c.08-.53.08-1.02.02-1.07-.13-.13-1.7-.41-2.41-.41-.47-.02-.51.06-.62,1.02Z" style="fill: #fff; stroke: #fff; stroke-miterlimit: 1.88; stroke-width: 2.26px;"/>
        <path d="M105.28,131.58c-.41.17-.04.43.64.43.45,0,.64.09.64.28,0,.15-.17.28-.38.28s-.38.08-.38.19.53.19,1.23.19,1.23-.08,1.23-.19-.3-.19-.66-.19c-.45,0-.66-.09-.66-.26,0-.15.09-.3.23-.34.11-.04.15-.19.08-.3-.13-.23-1.49-.28-1.96-.09h0Z" style="fill: #fff; stroke: #fff; stroke-miterlimit: 1.88; stroke-width: 2.26px;"/>
        <path d="M106.38,133.97c0,.17.21.3.53.34.4.04.53.17.57.57.08.72.41.68.41-.04,0-.53.04-.57.77-.57.53,0,.74-.08.7-.25-.06-.15-.58-.25-1.53-.28-1.19-.04-1.45,0-1.45.23Z" style="fill: #fff; stroke: #fff; stroke-miterlimit: 1.88; stroke-width: 2.26px;"/>
        <path d="M101.34,138.55c-.41.15-.26.43.23.43.4,0,.47.09.47.57,0,.38.09.57.28.57s.28-.19.28-.55c0-.47.09-.57.51-.62.26-.04.53-.17.58-.3.06-.17-.23-.23-1.04-.21-.6,0-1.21.06-1.32.11Z" style="fill: #fff; stroke: #fff; stroke-miterlimit: 1.88; stroke-width: 2.26px;"/>
        <path d="M109.2,140.1c0,.09.32.23.72.3.55.08.72.21.72.49,0,.26-.09.32-.36.25-.19-.06-.57-.04-.85.04l-.51.13.57.13c.87.21,2.36.21,2.36,0,0-.11-.17-.19-.38-.19-.28,0-.38-.13-.38-.47,0-.3.11-.47.28-.47.15,0,.28-.09.28-.19,0-.11-.53-.19-1.23-.19s-1.23.08-1.23.17h0Z" style="fill: #fff; stroke: #fff; stroke-miterlimit: 1.88; stroke-width: 2.26px;"/>
        <path d="M102.42,140.49c0,.19.38.26,1,.23.25-.02.32.11.32.53,0,.32.09.57.19.57.11,0,.19-.25.19-.57,0-.41.08-.55.34-.53.6.04.98-.04.98-.23,0-.11-.62-.19-1.51-.19s-1.51.08-1.51.19Z" style="fill: #fff; stroke: #fff; stroke-miterlimit: 1.88; stroke-width: 2.26px;"/>
      </g>
    </g>
    <g id="Colored">
      <polygon points="17.06 146.49 21.17 142.06 24.41 139.08 30.09 134.94 40.05 127.52 45.45 124.09 50.5 121.36 54.36 119.75 57.35 118.71 59.57 118.33 62.58 118.55 64.7 118.83 68.24 119.5 71.74 120.92 80.64 124.09 82.85 125.03 89.47 127.79 122.53 125.59 125.81 124.39 137.42 120.21 143.08 119.37 147.42 119.71 155.61 122.91 163.65 127.82 174.85 136.08 181 140.79 184.62 144.23 187.78 147.64 186.53 149.36 178.83 149.12 175.09 149.2 172.96 148 142.01 144.67 123.92 147.18 76.78 145.96 67.32 142.96 33.18 147.47 27.22 147.81 19.35 148.35 17.06 146.49" style="fill: #ffd12b; stroke-width: 0px;"/>
      <polygon points="44.88 200.36 53.6 191.17 62.46 183.66 67.79 175.52 70.65 169.43 71.73 166.48 71.74 164.75 82.31 154.84 78.78 171.07 74.18 178.63 68.72 190.14 64.05 203.28 53.07 206.74 44.88 200.36" style="fill: #ad641f; stroke-width: 0px;"/>
      <polygon points="144.52 85.79 150.13 90.43 119.82 122.91 113.41 117.12 144.52 85.79" style="fill: #ad641f; stroke-width: 0px;"/>
      <path d="M23.53,54.2c.41,2,4.3,6.92,15.36,19.53,4,4.54,8.61,9.82,10.27,11.72,1.66,1.92,4.2,4.79,5.65,6.39s3.07,3.39,3.58,3.98c1.34,1.53,7.16,7.99,8.39,9.33.58.62,1.77,1.94,2.64,2.92,2.62,2.94,3.05,3.43,4.15,4.62.58.62,1.72,1.88,2.54,2.83.81.92,1.96,2.21,2.54,2.83.57.62,1.51,1.66,2.07,2.3.57.66,1.07,1.19,1.13,1.19s.08-.94.04-2.07c-.09-2.24.02-2.58.83-2.68.51-.06.49-.08-5.2-6.37-3.54-3.9-6.96-7.69-7.8-8.65-.51-.58-1.75-1.94-2.75-3.03-1.02-1.09-2.24-2.45-2.73-3.02-1.7-1.92-9.63-10.63-11.61-12.72-2.11-2.24-4.75-5.18-5.18-5.79-.26-.34-.57-.72-.7-.81-.11-.11-.87-.9-1.64-1.79s-2.34-2.62-3.49-3.88c-1.13-1.24-3.56-3.92-5.37-5.94-5.22-5.82-9.82-10.25-11.39-10.99-1.36-.64-1.49-.62-1.34.11ZM31.86,62.93c.21.43.04.32-.7-.47-.53-.57-1.09-1.3-1.24-1.6-.21-.43-.06-.32.68.47.55.57,1.09,1.28,1.26,1.6ZM34.26,65.91c.09.4.08.4-.26-.06-.43-.55-.49-.9-.11-.58.15.11.3.41.38.64ZM40.27,73.07c.47,1.07.38,1.23-.25.4-.4-.53-.55-.94-.55-1.49l-.02-.75.26.57c.13.3.38.89.55,1.28ZM42.83,75.37c0,.09-.08.34-.15.55-.11.28-.19.19-.4-.47-.13-.45-.32-.9-.41-1.02-.08-.09-.15-.26-.15-.38.02-.09.26.11.57.47.32.36.57.74.55.85ZM44.87,78.78c-.06.06-.36-.13-.66-.43-.49-.47-.55-.62-.45-1.28l.09-.75.57,1.19c.3.66.51,1.23.45,1.28ZM46.81,80.06c0,.49-.11.34-.47-.57l-.3-.74.38.47c.21.26.4.64.4.83ZM52.52,86.53c.41.41.7.89.66,1.02-.09.28-2.41-2.43-2.41-2.81,0-.15.23.02.51.38.26.34.83.98,1.24,1.41ZM54.62,88.88l.36.62-.7-.64c-.38-.36-.68-.77-.68-.94,0-.38.55.13,1.02.96ZM57.56,92.26c0,.34-.53-.17-.85-.85l-.28-.58.57.62c.32.34.57.7.57.81ZM59.23,94.03l.25.57-.57-.55c-.34-.3-.53-.64-.47-.81.13-.34.43-.04.79.79ZM60.91,95.75c-.06.26-.13.19-.3-.3-.23-.6-.21-.64.08-.36.17.17.26.47.23.66ZM65.13,99.65c.21.4.72,2.26.64,2.36-.04.02-.38-.34-.75-.79-.38-.47-.81-.98-.96-1.11-.13-.15-.3-.68-.38-1.19l-.13-.92.7.66c.38.36.77.81.89,1h0ZM67.41,102.96c.09,1.15-.02,1.02-.74-.79-.57-1.45-.57-1.47.09-.79.43.43.57.79.64,1.58ZM69.41,104.85l.4,1.23-.62-.6c-.51-.49-.62-.75-.66-1.49-.02-.75,0-.85.23-.62.13.15.43.83.66,1.49ZM73.39,109.17c.21.68.34,1.26.32,1.3-.04.04-.47-.43-.94-1.06-.7-.89-.89-1.26-.89-1.83v-.72l.57.55c.34.32.7.98.94,1.75h0ZM76.78,112.88v.94l-.62-.66c-1.17-1.28-1.3-1.49-1.47-2.3-.09-.45-.23-.98-.28-1.19s.45.21,1.13.94c1.17,1.26,1.23,1.36,1.24,2.26ZM80.99,117.84c.08.4.06.58-.06.51-.11-.06-.19-.38-.19-.7,0-.72.09-.64.25.19Z" style="stroke-width: 0px;"/>
      <path d="M178.44,55.33c-5.9,6.18-6.28,6.6-6.28,7.05s-.43.9-8.33,8.99c-5.5,5.65-9.95,10.22-13.78,14.17l-1.81,1.88-.6-.6-.62-.6.41-.34c.6-.51.36-1.26-.64-1.94-1-.7-1.21-.7-1.96,0l-.58.55-.41-.4c-.23-.21-.66-.53-.94-.72-1.23-.75-3.15.57-3.15,2.17,0,.53,1,1.6,1.49,1.6.15,0-1.04,1.3-2.64,2.88-2.51,2.47-9.65,9.84-11.2,11.54-.6.66-8.46,8.78-12.1,12.54l-2.49,2.54.94.06.92.06,2.7-2.77c1.47-1.53,3.22-3.34,3.9-4.03,1.23-1.24,2.56-2.71,5.39-5.94,1.24-1.41,4.45-4.75,9.12-9.52.47-.47,1.41-1.41,2.13-2.07l1.26-1.19.47.43c.26.25.47.49.47.55-.02.06-.53.66-1.15,1.34-.92,1.02-2.13,2.64-2.88,3.92-.28.45.62-.11,2.19-1.41.81-.68,1.47-1.17,1.47-1.11,0,.08-.6.89-1.32,1.81-1.26,1.62-2.45,3.39-2.45,3.66,0,.06.74-.51,1.66-1.26,1.64-1.39,4.69-4.49,6.3-6.39,1.02-1.19,2.66-3.54,2.56-3.64-.04-.04-.92.57-1.94,1.36-1.75,1.34-2,1.41-.87.25.25-.26.83-1,1.28-1.66.47-.64.9-1.17.98-1.17s.36.23.62.51c.26.3.68.7.92.89l.43.36-1.11,1.04c-.62.57-1.51,1.28-1.94,1.58-.45.32-.94.83-1.07,1.17-.13.32-1.07,1.39-2.05,2.38-2.28,2.24-9.33,9.73-12.08,12.82-1.13,1.26-3.34,3.62-4.9,5.22-1.56,1.58-2.77,2.96-2.68,3.05.08.08.21,1.24.26,2.56l.11,2.41.85-.92c.47-.51,1.58-1.7,2.47-2.62.89-.94,2.3-2.43,3.13-3.32,2.04-2.17,7.39-7.82,9.18-9.69.79-.83,1.66-1.77,1.94-2.07.7-.75,2.62-2.79,6.16-6.52,3.68-3.88,4.45-4.79,4.69-5.65.17-.57.15-.77-.11-1.19-.38-.57-.47-.41,2.49-3.56.75-.83,1.36-1.6,1.34-1.73-.06-.25,1.56-2,7.82-8.39,9.95-10.14,11.69-11.88,12.01-11.88.21,0,1.62-1.39,3.41-3.36,1.68-1.83,3.39-3.69,3.81-4.13l.75-.77-.41-.68c-.53-.85-1.26-1.43-1.81-1.43-.28,0-.87.47-1.73,1.36ZM145.58,87.43c.21.25.17.36-.21.68-.72.62-2.05,1.53-2.05,1.38,0-.28,1.68-2.32,1.9-2.34.08,0,.23.13.36.28ZM148.68,90.34c.32.34.26.41-1.15,1.94-.81.87-1.98,2.15-2.6,2.83-.62.7-1.88,2.05-2.83,3.02-1.83,1.9-3.07,3.24-7.16,7.69-.7.77-2.66,2.85-4.34,4.62-1.68,1.75-3.47,3.66-3.98,4.18-.49.55-.98,1-1.07,1s.87-1.13,2.15-2.51c1.26-1.36,2.94-3.3,3.75-4.28s2.54-3.02,3.88-4.51c1.34-1.47,2.75-3.09,3.15-3.58.85-1,5.11-5.56,5.75-6.14,1.3-1.15,1.98-1.9,2.87-3.19.55-.79,1.06-1.43,1.13-1.43s.28.17.45.36h0Z" style="stroke-width: 0px;"/>
      <path d="M82.87,109.82c.2-.44.28-.91.45-1.36.13-.33.3-.65.56-.9.06-.06.13-.11.2-.17.01,0,.11-.06.12-.08.04-.1-.16-.33-.18-.44-.22-.79.08-1.68.21-2.45.06-.37.08-.75.14-1.12.06-.37.15-.73.29-1.07.16-.42.38-.81.66-1.15h-.03c-.48,0-.75.28-.83.85-.04.49-.13.9-.17.94s-.32.02-.64-.06c-.47-.13-.57-.28-.72-1.06l-.19-.9-1.32.13c-.74.08-1.36.13-1.36.15-.02.02.04,1.47.13,3.24.08,1.75.15,3.77.15,4.47l.02,1.28h2.35c.05-.11.1-.21.15-.33h0Z" style="fill: #4b4142; stroke-width: 0px;"/>
      <path d="M100.68,89.73c-.06-1.88-.36-2.68-1.55-4.17-.34-.43-.79-1.09-1.02-1.49-.6-1.06-1.77-2.39-1.98-2.26-.3.19-.85,1.62-.98,2.64-.08.62-.02,1.55.17,2.54.15.87.32,1.77.34,2l.06.45.53-.41c.83-.66,1.64-2.22,1.66-3.2.02-.81.02-.83.19-.28.21.7-.08,2.34-.51,3.05-.66,1.06-2.09,2.36-3.56,3.26-2.9,1.75-4.24,3.3-4.64,5.3-.21,1.06-.26,1.13-1.23,1.66-.6.36-1.23.9-1.58,1.43-.26.37-.43.58-.6.7-.57.5-.93,1.17-1.13,1.9-.1.35-.15.71-.18,1.07-.03.38-.11.76-.18,1.13-.08.41-.16.83-.16,1.26,0,.21.01.42.12.61.07.13.14.26.13.42-.02.27-.32.37-.48.54-.27.29-.42.65-.52,1.03-.11.39-.23.76-.4,1.13-.05.12-.11.24-.17.36v.46c0,1.24.53,2.62,1.32,3.47.74.75.75.79.64,1.79l-.13,1h2.43c1.34,0,2.53-.08,2.62-.15.11-.08.28-.47.38-.87.11-.41.3-.79.45-.83.21-.08.25.08.15.79l-.13.87h2.9l-.57-.58c-.3-.32-.89-.83-1.32-1.11l-.77-.55c.26-1.88.18-2.68.03-3.02-.22-.49-.25-.7-.3-1.12-.02-.11-.01-.22-.01-.22.01-.57.29-.59.46-1.43.09-.45.19-.91.22-1.37.02-.32.04-.67.3-.89.1-.09.22-.14.33-.21.17-.11.32-.25.47-.39.61-.57,1.1-1.25,1.61-1.91.5-.65.97-1.35,1.22-2.14.06-.19.08-.37.08-.57,0-.1,0-.21.04-.31.08-.21.32-.29.51-.38h0c.07-.1.17-.22.3-.36.9-1.06,1.85-3.07,1.98-4.22.08-.81.23-1.11.83-1.73.4-.41.94-1.24,1.21-1.85.46-.98.51-1.28.44-2.83h0ZM86.21,113.28c-.02-.11-.13,0-.3.26l-.28.47.13-.47c.32-1.19,1.98-3.17,3.75-4.51.83-.62,1.23-.72,1.23-.32,0,.32-4.52,4.86-4.52,4.56h0ZM91.32,103.57c-1.81.58-2.83,1.15-3.92,2.13-.53.47-1.06.87-1.17.87-.58,0,.34-1.96,1.21-2.53.7-.45,2.81-1.24,4.15-1.53,1.45-.32,1.38-.32,1.53-.06.19.3-.36.64-1.79,1.11ZM94.33,96.86c-1.9.53-3.15,1.07-3.26,1.45-.04.11-.21.17-.38.09-.9-.34.94-2.09,2.45-2.32.49-.06,1.23-.19,1.64-.26,1.06-.21,1.09-.21,1.41,0,.45.28.06.49-1.87,1.04Z" style="stroke-width: 0px;"/>
      <path d="M122.27,101.25c-.81-.06-1.51-.06-1.53-.04-.04.02-.11.4-.17.81-.08.52-.38.77-.92.77h-.83v-1.72l-1.26.06-1.28.06-.06.72c-.08.81-.49,1.07-1.66,1.07-.57,0-.64-.06-.57-.43.06-.23.13-.62.15-.87.06-.53.38-.47-3.94-.55l-2.51-.04v-3.34l1.17-.72c1.39-.87,2.98-2.47,3.73-3.77.3-.53.85-1.94,1.21-3.17.58-1.94.68-2.47.68-4.15-.02-1.06-.13-2.43-.26-3.05-.4-1.83-1.56-3.98-2.94-5.43-2.51-2.68-4.88-3.92-8.43-4.45-1.53-.23-2.11-.23-3.71,0-2,.3-5.01,2.02-6.6,3.77-1.19,1.32-2.79,4.71-3.32,6.99-.36,1.51-.41,2.13-.3,3.45.15,1.75.81,3.94,1.53,5.03.53.77.68.85,1.02.45.13-.15.79-.62,1.49-1.04s1.51-.94,1.79-1.19l.53-.43-.41-1.96c-.47-2.36-.34-3.54.66-5.6,1.43-2.88,2.98-3.9,5.96-3.9,1.96,0,3.36.38,4.86,1.38,2.22,1.43,3.13,3.17,3.13,5.98-.02,1.19-.09,1.47-.66,2.43-1,1.66-1.26,1.77-4.54,1.77h-2.77l-.3,1.07c-.4,1.36-1.07,2.7-1.75,3.49-.34.4-.62,1.04-.77,1.75-.39,1.79-1.68,4.08-2.48,4.52-.02.02-.04.04-.06.05-.08.04-.28.09-.34.18-.06.08-.02.27-.03.36-.02.41-.19.79-.36,1.16-.34.73-.84,1.34-1.31,1.98-.46.63-.96,1.25-1.56,1.76-.14.12-.28.22-.43.32-.11.06-.22.12-.27.24-.08.18-.07.4-.08.6-.01.18-.04.35-.08.53-.12.63-.23,1.26-.45,1.86.37-.07,1.06-.09,2.37-.09h2.64l-.06,3.49-.08,3.49h9.65l.13-1.45c.06-.79.13-2.17.15-3.05l.02-1.62.15,1.51c.08.83.09,2.21.04,3.05l-.11,1.56h1.75v-3.3c0-3.02.04-3.3.34-3.32.17-.02,2.51-.08,5.2-.15l4.88-.11,2.7-2.79,2.71-2.81v-3.13l-1.45-.07h0ZM103.04,75.27c-.81.02-3.49.83-4.86,1.49-2.47,1.17-4.3,3.09-5.82,6.13-.53,1.04-.57,1.3-.55,2.79.04,1.79-.19,2.28-.49,1.15-.49-1.77-.15-4.35.85-6.33.62-1.21,2.36-3.43,3.24-4.13.87-.7,2.62-1.6,3.58-1.85.7-.17,3.15-.11,3.96.11.49.13.57.64.09.64ZM109.43,94.09c1.51-1.64,2.66-4.18,3.17-7.07.28-1.58.62-1.66.45-.09-.32,3.09-2.09,6.73-3.73,7.75-.34.23-.66.4-.72.4-.04,0,.32-.43.83-.98h0ZM107.32,95.44c-.09.28-.15-.51-.17-2.07,0-1.72.06-2.45.17-2.26.09.15.17,1.09.17,2.07-.02.98-.09,2-.17,2.26Z" style="fill: #4b4142; stroke-width: 0px;"/>
      <path d="M133.99,98.31c-.72.4-2.62,2.64-2.92,3.45-.23.62-.09,1.17.34,1.39.66.34,1.26-.15,3.03-2.49,1.02-1.36,1.21-2.07.6-2.39-.45-.23-.58-.23-1.06.04Z" style="stroke-width: 0px;"/>
      <path d="M128.51,104.34c-.41.43-1.06,1.13-1.45,1.55-1.38,1.43-1.62,2.17-.87,2.56.51.28,1.32-.34,2.81-2.13,1.19-1.43,1.47-2.07,1.11-2.51-.38-.45-.85-.3-1.6.53h0Z" style="stroke-width: 0px;"/>
      <path d="M129.94,106.24c-1.21,1.15-2.53,2.49-2.94,2.96-1.47,1.62-7.77,7.46-7.9,7.33-.04-.04.85-1.26,1.94-2.71s1.83-2.51,1.64-2.36c-1.85,1.41-5.75,4.92-5.75,5.16,0,.06.94.09,2.09.09h2.09l1.81-1.64c3.11-2.83,4.18-4,6.37-6.92,1.38-1.83,2.94-4.05,2.87-4.05-.04,0-1.04.96-2.22,2.13h0Z" style="stroke-width: 0px;"/>
      <path d="M57.93,118.35c-3.58.77-9.97,3.69-14.14,6.43-4.96,3.24-8.09,5.45-11.12,7.8-4.58,3.58-4.98,3.88-5.94,4.43-.51.3-1.92,1.45-3.11,2.54-1.21,1.09-2.68,2.39-3.3,2.92-.62.51-1.64,1.39-2.26,1.94-.62.57-1.32,1.19-1.55,1.39-.62.55-.77,2.19-.3,3.11.62,1.19,1.19,1.47,2.94,1.47,1.3,0,1.75-.09,2.77-.57.68-.3,1.47-.7,1.75-.9.58-.4,1.09-.32,1.04.19-.09,1.3.3,1.83,1.36,1.79.55-.02,3.17-1.43,4.47-2.43.79-.6.9-.64,1.3-.41.25.15.62.57.87.92.41.62.51.66,1.62.72,1.04.06,1.32-.02,2.24-.55.58-.34,1.34-.85,1.68-1.15l.62-.55.77.6c.6.49.94.62,1.66.62.77.02,1.07-.09,1.98-.74.6-.41,1.21-.85,1.36-.94.23-.13.62,0,1.58.51.72.4,1.56.72,1.88.72.81,0,2.02-.64,2.98-1.56l.79-.77,1.04.53c1.98,1,3.37.83,5-.64.47-.41.9-.75,1-.75s.58.21,1.09.47c1.64.83,3.56.57,4.67-.66.47-.51.6-.55,1.02-.4.26.09.55.28.62.38.23.38,2.15.25,2.75-.19.6-.41,1-.32.87.21-.13.51.89,1.47,1.81,1.72.41.11,1.23.15,1.81.08,1-.11,1.07-.09,1.62.47.81.85,1.62,1.13,3.24,1.13.9,0,1.6.11,1.98.3.6.3,2.68.3,3.73-.02.32-.11-.15.51-1.6,2-1.15,1.19-2.88,2.98-3.86,3.98-.96,1.02-1.83,1.85-1.88,1.85-.08,0-.79-.55-1.6-1.23s-1.55-1.23-1.62-1.23c-.32,0-.17.38.3.68.7.45.75.94.21,1.79-.34.51-.45.89-.38,1.19.09.38-.11.75-.98,1.85-.6.75-1.3,1.58-1.53,1.85-.55.58-.55.64.08,1.04.55.36.6.32,1.49-.94.25-.34.28-.34.57-.06s.23.41-.89,1.64c-.66.74-1.32,1.38-1.51,1.43-.23.08-.34.43-.43,1.55-.06.79-.11,1.75-.11,2.13,0,1.34-2.71,6.09-5.2,9.12-.77.94-3.56,4.05-5.33,5.96-.25.26-1.58,1.72-3,3.24-2.34,2.56-4.45,4.41-6.37,5.65-.96.6-2.13,1.79-3.88,3.88-1.47,1.75-3.2,3.94-3.43,4.32-.15.26.79,1.56,1.15,1.56.13,0,.45.3.74.68s1.21,1.21,2.04,1.85c1.38,1.06,2.17,1.6,5.96,4.05.57.38,2.43,1.38,4.15,2.22l3.11,1.55.72-.7c.4-.38,1.02-1.3,1.36-2.02,1.07-2.22,3.68-9.14,4.34-11.5.34-1.26,2.36-6.99,3.07-8.77.32-.77.92-2.28,1.34-3.34,1.45-3.68,2.88-6.31,6.28-11.55.83-1.3,1.68-2.64,1.87-3,.19-.34,1.58-1.88,3.13-3.43l2.77-2.81h1.34c1.23,0,1.39.04,1.83.51.74.83,1.19,1.56,1.64,2.79.38,1.04.41,1.43.41,4.71-.02,1.96-.08,4.2-.15,4.98l-.11,1.39,1.3-.09c1.51-.11,4.67-1.13,6.97-2.26l1.55-.75-.25-.96c-.15-.55-.47-2.26-.75-3.81-.28-1.56-.57-3.2-.66-3.68s-.36-1.83-.57-3.02c-.23-1.19-.43-2.36-.49-2.58-.04-.23-.6-.77-1.34-1.3-.72-.49-2-1.55-2.87-2.32-.87-.79-2.09-1.87-2.73-2.39-1.21-1.02-2.83-2.88-4.28-4.98-1.02-1.43-1.88-3.81-2.53-6.96-.25-1.17-.49-2.17-.53-2.21-.11-.11-2.24,1.36-3.43,2.36-.6.53-1.17.96-1.24.96-.06,0-.17-.51-.25-1.15-.11-1.09-.08-1.19.6-2.19.38-.57.94-1.41,1.23-1.9.3-.47,1-1.39,1.56-2.04l1.04-1.19-.13-1.6-.13-1.62-1.56.85c-1.41.77-1.58.83-1.58.49,0-.77.38-1.28,1.77-2.43l1.43-1.17v-1.04c0-.57-.08-1.04-.15-1.04-.19,0-2.96,2.34-4.37,3.68-1.09,1.04-2.53,1.88-2.83,1.7-.26-.17-.23-.79.08-1.38.53-1.02,6.28-5.45,6.8-5.24.23.08.28-.11.28-1.09,0-1.17,0-1.19-.6-1.38-.34-.11-2.56-.9-4.96-1.75-4.67-1.66-10.5-3.39-12.63-3.77-1.83-.32-6.52-.26-7.77.09-.55.15-1.39.4-1.88.55-2.24.64-9.37,4.54-12.04,6.58-.51.4-2.19,1.53-3.75,2.51-1.55,1-3.24,2.09-3.77,2.43-2.39,1.62-7.22,5.79-11.88,10.27-1.24,1.21-2.56,2.38-2.94,2.6-.4.23-.83.64-1,.89-.32.49-.68.62-.68.26,0-.23.6-1.04,2.39-3.19,1.7-2.04,2.34-2.56,14.38-11.69,5.73-4.35,12.18-8.37,16.3-10.2,5.28-2.32,7.48-2.81,11.18-2.43,3.58.38,5.58.89,9.65,2.49.77.32,2.13.81,3.02,1.11.89.28,2.24.77,3.02,1.07s1.98.77,2.7,1.04c.92.36,1.26.43,1.26.25,0-.15-.28-.36-.6-.49-.34-.11-1-.38-1.47-.58-1.13-.47-5.43-2.09-6.97-2.62-.68-.25-1.7-.64-2.26-.89-3.81-1.72-9.65-2.54-12.82-1.85h0ZM55.29,122.74c-1.34.9-5.01,4.17-5.62,4.96-.53.72-.83.94-1.36,1.04-1.02.17-1.94.4-2.3.55-.28.11-.28.04.02-.98.58-1.92,1.09-2.85,1.75-3.26,2.34-1.43,5.62-2.6,7.31-2.62h.66s-.47.32-.47.32ZM60.5,122.81l1.55.23-.87.55c-1.88,1.19-5.16,3.81-5.75,4.6s-.75.89-2.87,1.56c-1.23.41-2.28.72-2.32.68-.19-.21.83-1.66,1.88-2.7,2.15-2.11,5.86-5.11,6.35-5.13.26-.02,1.17.08,2.02.21ZM65.42,123.64c.7.15,1.3.32,1.34.34.02.04-.53.43-1.23.89-1.43.92-4.18,3.49-4.79,4.43-.23.38-.64.7-1.02.83-.87.28-3.56.92-3.64.87-.09-.11.51-1.36.9-1.87.25-.3,1.32-1.23,2.43-2.07,1.09-.85,2.51-2.04,3.13-2.62.62-.6,1.23-1.07,1.36-1.09.11,0,.79.13,1.51.3h0ZM69.86,124.87l1.32.4-1.11.6c-1.56.83-2.22,1.32-3.77,2.73-.9.85-1.94,1.56-3.26,2.24-1.83.94-1.92.98-1.56.47.77-1.07,2.81-3.24,4.09-4.35.74-.62,1.62-1.43,1.96-1.81.36-.38.74-.68.83-.68.11,0,.77.17,1.51.4h0ZM72.81,128.58c-2.24,2.36-3.15,2.94-5,3.24-.57.09-1.11.23-1.21.28-.28.17-.23-.41.08-1,.47-.89,2.6-2.79,4.52-4.05l1.87-1.21.9.28.9.28s-2.07,2.17-2.07,2.17ZM44.42,127.9c-.26.66-.57,1.51-.7,1.92-.17.58-.43.89-1.34,1.49-.62.43-1.51,1.13-1.98,1.55-.47.43-1.9,1.58-3.2,2.54s-3.07,2.41-3.96,3.2c-1.87,1.68-3.26,2.68-6.09,4.35-1.13.66-2.75,1.73-3.62,2.39-1.32.98-1.77,1.23-2.68,1.36-.58.09-1.11.15-1.15.09-.13-.13,7.01-7.16,9.2-9.05,4.13-3.56,4.98-4.18,10.33-7.54,1.15-.74,2.85-1.81,3.75-2.39.92-.58,1.72-1.07,1.79-1.09.06,0-.09.53-.36,1.17h0ZM78.35,128.32c-2,1.07-4.2,2.88-4.9,4.03-.23.38-.57.75-.75.83-.43.17-1.38.19-1.38.02,0-.23,1.04-1.47,2.58-3.11.85-.92,1.77-1.98,2.04-2.39l.49-.72,1.51.38,1.53.38-1.11.58h0ZM48.04,130.99l-.45,1.3-2.04,1.47c-1.11.81-2.68,2-3.45,2.64s-2,1.62-2.73,2.19c-.72.57-2.13,1.75-3.11,2.66-1.88,1.72-3.71,2.9-6.94,4.51l-1.94.98.11-.72c.17-.98.49-1.81.77-2,.23-.13,4.03-3.24,6.35-5.18.55-.45,2.83-2.22,5.09-3.92,3.15-2.39,4.28-3.13,4.77-3.19.58-.06,1-.26,3.17-1.62.41-.26.79-.47.81-.47.02.02-.15.62-.41,1.36h0ZM53.97,131.11c-.26.58-.72,1.06-1.92,1.9-2.32,1.66-4.45,3.49-7.43,6.37-1.81,1.75-3.05,2.79-3.94,3.28-.7.4-1.92,1.21-2.73,1.81-2.11,1.55-3.02,2.13-3.15,2-.06-.08.13-.87.43-1.77.75-2.24,1.04-2.53,8.65-8.26,2.6-1.94,4.88-3.58,5.09-3.62.75-.17,3.6-1.47,4.34-1.98.41-.28.81-.51.89-.53.08,0-.02.36-.23.79h0ZM59.86,133.58l.68.34-3.24,3.19c-3.79,3.73-6.39,5.67-8.26,6.18-.6.17-.74.13-1.11-.26l-.41-.45,1.21-1.24c1.94-2,5.71-5.45,7.2-6.54.74-.57,1.73-1.43,2.21-1.9l.85-.89.09.62c.08.49.25.7.79.96h0ZM56.73,132.82c-.81.66-5.28,4.64-9.33,8.31-1.38,1.24-2.66,2.36-2.83,2.45s-.62.41-1,.72c-.64.49-1.85,1.02-1.85.79,0-.26.89-1.79,1.45-2.49,1.47-1.81,5.79-5.9,8.12-7.71,2.15-1.66,2.54-1.9,2.92-1.77.43.17,1.83-.21,2.7-.72.64-.36.57-.21-.19.41h0ZM64.1,133.31c-.21.92-.19,1.04.15,1.26.36.23.25.4-1.98,2.68-1.45,1.51-2.68,2.6-3.2,2.87-.47.25-1.45.85-2.21,1.34-.75.51-1.45.92-1.56.92-.09,0-.19-.36-.19-.79,0-.75.09-.87,3.43-4.28,2.85-2.9,5.52-5.28,5.73-5.05.02.02-.06.49-.17,1.06ZM69.05,133.43c-.47.77-.4,1.51.19,1.7.34.11.28.26-.75,1.56-1.7,2.21-3.77,4.24-4.67,4.64-.43.21-.85.3-.9.25-.17-.17.28-2.38.62-3.05.79-1.51,4.01-4.98,5.05-5.41.41-.17.77-.32.81-.32.04-.02-.11.28-.34.64h0ZM73.07,135.25c.32.77.72,1.11,1.47,1.26l.58.11-1.6,1.72c-1,1.04-1.96,1.88-2.53,2.17-.49.25-1.26.68-1.7.96-.43.3-.83.53-.89.53-.15,0,.02-.81.32-1.6.43-1.19,3.62-5.71,4.03-5.75.04,0,.17.28.3.6h0ZM77.95,137.04c.25.3,1.07.32,1.77.06.49-.19.47-.17-.19.57-.38.43-.79.98-.9,1.23s-.75.89-1.43,1.45c-.68.55-1.7,1.41-2.28,1.9l-1.06.92-.15-.85c-.15-.74-.09-.98.41-2,.32-.62,1.24-1.88,2.05-2.79,1.3-1.47,1.45-1.6,1.51-1.19.04.26.17.58.26.7h0ZM76.27,168.26c1.11,1.04,2.02,2,2.02,2.15,0,.74-.66.32-2.68-1.68-1.19-1.17-2.45-2.36-2.79-2.62-.58-.43-.62-.53-.4-.81.28-.34.15-.45,3.85,2.96ZM74.46,172.29c1.49,1.62,1.53,1.68,1.23,2.07-.32.41-.34.4-2.02-1.45-1.98-2.22-2.05-2.32-1.88-2.98l.13-.51.49.58c.28.32,1.21,1.36,2.05,2.28h0ZM71.05,176.53c.49.75,1.11,1.68,1.36,2.07l.43.68-.77,1.45-.79,1.43-.32-.53c-.19-.28-.81-1.47-1.41-2.62l-1.11-2.09.72-.96c.4-.53.79-.92.87-.89.08.06.53.7,1.04,1.45ZM62.98,188.66c.51,1.45,1.36,3.68,1.88,4.94l.98,2.3-.36.81c-.21.45-.64,1.77-.98,2.92-.32,1.17-.66,2.13-.74,2.13-.06,0-.47-1.21-.92-2.7-1.09-3.6-1.21-3.94-2-5.79-.38-.89-.94-2.19-1.24-2.9l-.55-1.28.43-.53c.23-.28.83-1.02,1.36-1.66.51-.64,1-1.09,1.07-1.02s.55,1.32,1.06,2.77ZM51.79,199.91c.38,1.06.64,1.94.58,2-.11.11-2.92-2.05-2.92-2.26,0-.26,1.21-1.66,1.43-1.66.11,0,.53.87.9,1.92h0Z" style="stroke-width: 0px;"/>
      <path d="M147.07,154.48c-.47-1.92-1.87-5.69-2.51-6.82-.13-.24-.25-.46-.34-.63-.03-.03-.06-.05-.11-.06-.08-.02-.17-.02-.25,0-.04.01-.09.02-.13.03s-.09,0-.14,0c-.02,0-.05,0-.07.01-.05.01-.08.04-.13.06-.1.15-.28.35-.57.62-.36.34-1.15,1.28-1.73,2.05-2.3,3.05-5.62,6.14-9.27,8.63-2.94,2-3.52,2.94-2.64,4.2.26.36.74.64,1.43.87,1.85.58,4.81-.02,9.1-1.81.98-.41,1.45-.53,1.62-.4s.26,1.26.34,3.73c.09,3.15.15,3.69.6,5.13l.51,1.6.45-.85c.25-.47.43-.98.45-1.11,0-.15.21-.49.45-.75.87-.94,1.66-5.6,1.66-9.73,0-3.02-.17-4.11-1.09-7.18-.38-1.21-.64-2.22-.58-2.26.11-.13,1.15,2.39,1.51,3.69,1.06,3.79.81,10.84-.49,14.12l-.41,1.06.45.45c.41.41.43.53.34,1.94-.11,1.7,0,1.72.85.15,2-3.64,2.26-10.31.7-16.74h0Z" style="fill: #4b4142; stroke-width: 0px;"/>
      <path d="M186.11,144.96c-.47-.32-1.73-1.39-2.83-2.39-2.68-2.43-5.45-4.75-6.07-5.07-.28-.15-2.11-1.51-4.05-3.02-4.32-3.36-5.58-4.28-8.26-6.05-1.13-.75-2.45-1.64-2.92-1.98-3.56-2.56-10.27-5.81-14.42-6.99-1.21-.34-4.26-.47-6.31-.26-2.56.25-5.33.96-7.54,1.94-.57.25-1.85.74-2.83,1.07-.98.36-3.15,1.17-4.81,1.83s-3.17,1.19-3.34,1.19c-.21,0-.34.15-.34.38,0,.4-.28.49,3.96-1.17.77-.3,2.36-.87,3.49-1.26,1.15-.4,2.41-.87,2.83-1.04,1.75-.75,5.33-1.83,6.94-2.07,4.15-.68,6.69-.58,9.44.36,3.51,1.17,10.24,4.56,12.55,6.31.36.28,2.02,1.41,3.66,2.53,1.66,1.11,3.49,2.39,4.05,2.83.58.43,2.6,1.98,4.47,3.43,1.88,1.43,4,3.03,4.71,3.54,1.87,1.38,4.49,3.71,5.6,5.05,1.47,1.73,2.39,2.96,2.39,3.17,0,.32-.3.21-.77-.3-.25-.28-.87-.81-1.39-1.21-.51-.38-1.75-1.49-2.73-2.47-2.41-2.39-7.6-7.01-9.8-8.71-.98-.75-3.22-2.3-5-3.41-1.75-1.13-3.54-2.28-3.96-2.58-2.11-1.55-3.6-2.49-5.3-3.37-1.02-.55-2.07-1.13-2.34-1.32-.81-.57-4.17-2.02-5.84-2.51-2.21-.66-5.24-.83-8.01-.43-2.53.38-7.11,1.68-12.95,3.73-6.2,2.15-5.99,2.05-5.99,2.96s.15,1.34.51,1.34c.57,0,5.92,4.11,6.56,5.03.32.49.47,1.24.3,1.53-.25.41-1.39-.19-2.71-1.43-.98-.9-2.05-1.85-4.13-3.58-.32-.26-.34-.21-.34.87v1.17l1.32,1.07c1.02.83,1.34,1.23,1.43,1.72.08.34.08.68.02.74s-.68-.21-1.38-.58c-.68-.38-1.3-.66-1.34-.6-.06.06-.17.74-.26,1.55-.15,1.43-.15,1.45.4,2.15.3.38.68.81.85.94s.64.81,1.06,1.49,1.04,1.64,1.39,2.15c.66.92.7,1.24.28,2.75l-.11.47-.85-.77c-.83-.77-3.52-2.7-3.77-2.7-.06,0-.17.36-.25.79-.53,3.34-1.64,6.07-3.41,8.39l-1.04,1.36,2.11,2.28,2.09,2.28.36-.53c.21-.28,1.04-1.58,1.85-2.88s1.96-3.09,2.53-4.01c.58-.9,1.19-1.64,1.34-1.64.06,0,.11.01.15.03.13-.04.27-.07.42-.07.1,0,.2,0,.3,0,.04,0,.07,0,.08,0,.01,0,.03,0,.05-.02.08-.02.16-.05.24-.06,0,0,.01,0,.02,0,.33-.23.73-.52,1-.74.57-.47.75-.51,2.04-.47,1.23.04,1.51-.02,2.19-.45.41-.26.85-.7.94-.94.21-.53.94-.64,1.79-.25.49.23,1.21.08,2.3-.45.34-.17.53-.09,1.23.43.22.18.43.34.58.48.32.14.64.27.97.37.2.06.4.11.61.14.15.02.28,0,.43-.03.13-.06.24-.11.35-.13.19-.04.34-.06.43-.05.18-.02.36-.02.54-.01.07-.03.14-.06.2-.09.05-.09.36-.31.76-.51l.75-.4.85.77c1.75,1.6,3.17,1.83,5.26.81l.96-.47.66.6c1.15,1.07,2.04,1.55,2.94,1.55.81,0,1.92-.34,2.13-.64.06-.08.41-.26.79-.41.6-.26.7-.26.92,0,.41.51,1.87,1.43,2.54,1.62.77.21,1.75-.06,2.24-.6s.94-.47,2.04.38c1.3.96,2.17,1.32,3.32,1.32.89,0,.96-.04,1.72-.94.83-.98,1.11-1.11,1.56-.68.34.34,2.47,1.64,3.69,2.28,1.58.79,2.39.57,2.58-.75.19-1.28.17-1.26,1.23-.64.53.3,1.62.79,2.41,1.06,2.62.87,4.3.36,5.03-1.55.56-1.49-.23-3-2.38-4.49h0ZM151.45,123.64c1.39.32,3.17,1.07,5.01,2.15,1.06.6,1.23.87,1.96,3.09.45,1.38.45,1.49.02,1.26-.19-.09-.9-.28-1.58-.4-1.17-.21-1.28-.28-2.02-1.17-.83-1.04-2.13-2.22-4.35-3.98-.77-.62-1.45-1.15-1.49-1.19-.19-.19,1.19-.06,2.45.23h0ZM143.43,123.81c.51-.08,1.02-.15,1.11-.19.11-.04.58-.08,1.07-.08.85-.02.94.04,3.77,2.39,3.17,2.66,4.09,3.6,4.67,4.75.21.41.36.75.34.75-.04,0-1.07-.34-2.32-.74-2.13-.7-2.3-.79-2.92-1.6-.68-.87-3.52-3.17-5.54-4.45l-1.11-.72.92-.13ZM138.85,124.6c1.88-.45,2.02-.43,3.05.64.53.53,1.92,1.7,3.11,2.6,2.54,1.96,2.68,2.09,3.19,3.28.36.83.36.9.06.81-.17-.06-1.07-.28-2.02-.51-1.45-.36-1.77-.51-2.26-1.07-1.7-2-3.19-3.39-4.66-4.37l-1.64-1.11,1.17-.26h0ZM133.71,126.09c.15-.06.79-.26,1.41-.47l1.13-.34,2.71,2.56c1.49,1.41,3.07,3.05,3.54,3.64.45.6.77,1.09.72,1.09-.08,0-.87-.4-1.75-.89-.9-.47-1.81-.96-2.02-1.07s-.72-.57-1.11-1.02c-.89-.98-2.22-1.98-3.77-2.79-.74-.4-1.04-.66-.87-.72h0ZM130.49,127.05c.47-.15.9-.3.92-.3.04-.02.94.55,1.98,1.24,2.22,1.45,3.98,3.03,4.51,4.07.21.41.32.77.26.83-.15.15-3-.49-3.45-.79-.23-.15-.51-.28-.6-.28s-.72-.57-1.38-1.28c-.64-.7-1.62-1.7-2.15-2.22l-.96-.96.87-.3h0ZM126.45,129.35c-.72-.4-1.28-.74-1.23-.75.06,0,.7-.17,1.41-.34l1.32-.34.66.77c.36.41,1.21,1.36,1.88,2.09,1.39,1.49,2.64,3,2.64,3.19,0,.06-.36.11-.79.11-.74,0-.85-.06-1.19-.7-.49-.92-3.05-3.11-4.71-4.03h0ZM130.84,143.3l-.25.75-.66-.64c-.36-.34-1.21-1.04-1.87-1.55-1.43-1.06-3.92-4.13-3.11-3.83,1.02.4,1.96,0,1.96-.83,0-.66,2.51,2.21,3.39,3.88.74,1.39.75,1.47.53,2.21h0ZM136.14,142.74c-.06.13-.38.02-.79-.28-.4-.26-1.21-.75-1.81-1.07-.72-.4-1.62-1.17-2.56-2.21l-1.47-1.58.53-.15c.72-.19,1.38-.83,1.51-1.51.11-.47.17-.51.41-.3.17.13.64.72,1.07,1.28,2.19,2.96,3.34,5.13,3.11,5.82h0ZM141.74,142.51c-.06.08-.55-.08-1.06-.32-1-.47-3.22-2.7-4.77-4.79l-.83-1.09.45-.45c.55-.55.55-.62-.04-1.47l-.47-.7.41.13c.25.06.66.25.94.38.87.43,4.32,4.3,4.66,5.22.34.87.81,2.98.7,3.09h0ZM149.49,142.47c-.06.4-.15.75-.21.81s-.72-.34-1.47-.85c-.75-.53-1.75-1.15-2.22-1.38-.51-.25-1.81-1.41-3.24-2.87-2.38-2.41-2.39-2.43-2.04-2.79.45-.45.45-.49.09-1.51-.15-.43-.28-.83-.28-.87s.49.26,1.09.66c.58.41,2.71,2.41,4.73,4.43,2.44,2.44,3.62,3.89,3.54,4.35ZM156.61,143.89c-.64.72-1.62.38-4.43-1.55-2.04-1.39-8.52-7.69-7.94-7.69s1.34-.74,1.34-1.28c0-.47.08-.43,1.19.64.64.64,1.68,1.53,2.3,2,1.66,1.24,5.49,4.79,6.77,6.26,1.07,1.23,1.09,1.26.77,1.62ZM161.19,145.34c-.45-.34-1.02-.75-1.28-.9-.26-.17-1.28-1.07-2.28-1.98-2.56-2.38-7.46-6.75-9.14-8.14-.77-.64-1.38-1.17-1.34-1.17.06,0,.58.23,1.19.49.79.34,1.32.47,1.81.4.64-.09.87.04,3.02,1.7,3.85,2.94,9.05,8.33,9.48,9.8.19.64-.45.57-1.45-.19h0ZM169.82,147.43c-.13.11-1.32-.62-2.96-1.87-.79-.6-2.09-1.47-2.92-1.96-1.04-.62-2.24-1.62-3.94-3.28-2.66-2.6-4.92-4.54-7.45-6.37-1.23-.89-1.72-1.38-2.02-2.02l-.41-.83,1.17.7c.64.4,1.88.98,2.77,1.32s1.79.72,2.02.83c.74.41,9.37,6.97,10.8,8.22,1.68,1.49,1.83,1.64,2.05,2.38.11.3.36,1.07.58,1.68.21.62.34,1.15.3,1.21h0ZM177.03,147.47c-.25,0-3.75-1.79-5.35-2.75-.81-.47-2.24-1.56-3.19-2.41-.92-.87-2.34-2.05-3.13-2.68-.77-.6-2.02-1.6-2.73-2.21s-2.34-1.83-3.6-2.73c-1.92-1.34-2.32-1.72-2.32-2.11,0-.26-.17-.83-.38-1.28-.19-.43-.32-.79-.26-.79.04,0,.83.47,1.72,1.04,1.07.68,1.85,1.04,2.21,1.04.45,0,1.45.66,4.66,3.05,2.22,1.7,4.77,3.66,5.64,4.39.87.72,2.62,2.17,3.9,3.2,1.28,1.06,2.45,2.11,2.58,2.39.3.57.47,1.85.26,1.85ZM183.81,147.66c-.92-.13-1.32-.32-2.56-1.26-.81-.6-2.17-1.53-3.03-2.04-3.02-1.79-5.41-3.49-6.97-4.92-.89-.79-2.58-2.17-3.77-3.05-1.21-.89-2.79-2.15-3.52-2.79-.75-.64-1.7-1.38-2.13-1.62-.41-.23-.77-.55-.77-.66,0-.13-.32-1.04-.74-2.02l-.74-1.79,1.07.68c.58.38,1.6,1.02,2.28,1.43,6.69,4.07,9.22,5.92,13.76,9.97,2.21,1.98,8.35,8.09,8.24,8.18-.02.02-.53-.04-1.11-.11h0Z" style="stroke-width: 0px;"/>
      <path d="M59.65,148.2c-1.11,1.11-2.56,3.94-3.39,6.62-.41,1.3-.79,2.66-.85,3.02-.3,1.79-.68,5.3-.68,6.28,0,1.45.64,4.26,1.28,5.58.72,1.47,2.05,2.85,2.79,2.85s1.34-.45,1.68-1.26c.3-.72.62-5.35.58-8.29,0-.94.04-1.79.11-1.87.15-.15,2.19.25,2.51.49.34.25,4.15,1.47,5.32,1.7,1.83.36,2.94.02,1.85-.57-.77-.41-.81-1.04-.11-1.88.32-.4.58-.79.58-.87s.13-.3.32-.49c.17-.19.26-.38.23-.4-.04-.04-.81-.64-1.73-1.34-2.53-1.96-6.67-6.45-9.05-9.82-.19-.26-.41-.47-.51-.47-.11,0-.53.34-.92.74ZM60.57,151.5c0,.13-.28.89-.64,1.68-1.11,2.43-1.79,5.05-1.94,7.41-.13,2.6.21,5.92.81,7.71.83,2.45.4,3.26-.62,1.17-.96-1.92-1.28-3.75-1.26-7.11,0-2.9,0-2.92.81-5.47.74-2.26,1.79-4.77,2.32-5.43.26-.3.53-.28.53.04h0Z" style="fill: #4b4142; stroke-width: 0px;"/>
      <path d="M114.97,155.56l-1.49,1.51,2.24,2.49c1.23,1.38,2.71,3.02,3.28,3.68.57.64,2.22,2.47,3.66,4.05,1.45,1.6,3.66,4.05,4.9,5.45,1.26,1.39,3.05,3.37,4,4.41l1.7,1.87-1.53,1.53c-7.22,7.2-7.5,16.17-.7,22.56.9.85,2.15,1.87,2.75,2.3,1.41.96,5.01,2.68,6.45,3.07,1.73.47,4.47.57,5.92.19,1.6-.41,4.13-1.85,5.43-3.05l1.02-.98.64.26c.72.3,2.04.4,2.62.21.28-.09.47.02.81.55.57.87,1.19,1.09,2,.75.87-.36,1.24-1.39.77-2.13-.17-.26-.55-.57-.85-.68-.47-.19-.49-.25-.32-.81.13-.4.11-1.11,0-2.13-.23-1.7-.45-2.05-2.75-4.47-.7-.74-1.98-2.15-2.83-3.15s-2.38-2.73-3.39-3.83c-1.02-1.11-2.64-2.96-3.62-4.11-.96-1.15-2.07-2.39-2.47-2.75-.87-.77-.62-.47,1.26,1.72,3.29,3.82,5.36,6.18,6.2,7.07.51.53,1.41,1.58,2.04,2.36s1.79,2.07,2.58,2.9c2.05,2.11,2.34,2.54,2.54,3.69.08.57.21,1.17.28,1.34.09.23-.23.66-1.11,1.55-.68.68-1.19,1.24-1.11,1.24.32,0,1.47-.89,1.77-1.39.23-.36.36-.47.36-.28,0,.28-1.32,1.64-1.66,1.7-.08.02-.3.06-.51.09-1.04.19-2.13.15-2.54-.11-.21-.13-.02-.41.98-1.39,1.92-1.87,2.28-2.43,2.15-3.2-.13-.68-1.24-2.28-2.49-3.6-.4-.41-1.41-1.64-2.28-2.73-2.56-3.22-3.03-3.81-4.35-5.18-.7-.72-1.56-1.7-1.94-2.17s-1.28-1.49-2.02-2.28c-.75-.79-1.36-1.51-1.36-1.6,0-.08.13-.28.28-.45.38-.41.25-.75-.45-1.23-.3-.19-.51-.43-.45-.53s0-.25-.15-.34c-.19-.11.02-.43.83-1.28,1.55-1.6,2.3-3.32,2.77-6.24.26-1.62-.17-3.47-.49-2.13-.08.28-.41,1.13-.74,1.87-1.02,2.22-3.96,4.86-5.82,5.2-.36.06-2.17-1.87-10.16-10.78-2.3-2.54-2.79-3.09-5.05-5.56-.66-.74-2.24-2.51-3.52-3.92s-2.39-2.58-2.47-2.58c-.06,0-.79.68-1.6,1.49h0ZM118.93,159.33c.66,1.62.87,2.32.64,2.19-.08-.04-.62-.68-1.21-1.39-.79-.96-1.13-1.58-1.36-2.39-.15-.62-.32-1.28-.38-1.49s.3.08.81.64c.57.66,1.11,1.55,1.49,2.45h0ZM122.62,163.02c.85,1.13,1.09,1.62,1.19,2.47.04.45.02.45-.74-.17-.68-.57-.83-.83-1.19-2.21-.23-.87-.34-1.49-.26-1.39s.53.68,1,1.3h0ZM128.39,170.22c.57.68.98,1.36.98,1.6l-.02.43-.38-.47c-.23-.26-.83-.94-1.34-1.51-.92-1.02-1.11-1.32-1.36-2.26-.11-.4-.04-.36.49.26.34.41,1.07,1.28,1.62,1.94ZM143.6,174.16c-.9,2.05-2.41,3.94-3.68,4.6-.36.19-1.47,1.06-2.47,1.92-1,.85-3.09,2.66-4.67,4-3.39,2.88-4.64,4.2-5.22,5.52-.51,1.13-.62,1.24-.51.47.36-2.26.96-3.71,2.73-6.47,1.62-2.49,3.34-3.75,8.75-6.37,2.64-1.3,3.13-1.6,3.9-2.49.49-.55,1.04-1.38,1.21-1.81.19-.45.36-.74.4-.66.02.09-.17.66-.43,1.28h0ZM139.08,180.42c-.11.09-.68.6-1.28,1.17-.58.55-1.13.96-1.19.89-.09-.09,2.34-2.21,2.54-2.21.06,0,.02.08-.08.15ZM139.93,180.59c0,.34-2.22,2.51-2.58,2.51-.58,0-.32-.45.92-1.58.75-.68,1.43-1.24,1.53-1.24.08,0,.13.15.13.32ZM140.12,181.62c0,.3-2.13,2.04-2.47,2.04-.26-.02,2.05-2.26,2.34-2.26.08,0,.13.11.13.23h0ZM140.55,182.4c-.19.34-1.96,1.83-2.17,1.83-.38,0-.06-.4,1-1.3,1.11-.94,1.51-1.11,1.17-.53ZM134.99,183.98c-.87.92-2.53,3.2-4.73,6.56-1.04,1.55-2.21,3.86-2.21,4.34,0,.15-.08.3-.17.38-.28.15-.47-.64-.43-1.83.04-2.3,1.73-4.71,5.88-8.37,2.02-1.79,2.88-2.34,1.66-1.07ZM137.06,184.41c.13,0,.23.13.23.28s.15.36.36.45c.19.11.41.41.47.68.08.26.38.6.74.77.7.38,1.06.79,1.07,1.26,0,.19.38.72.85,1.21.47.47.85,1.04.85,1.24,0,.41.68,1.26,1.04,1.26.11,0,.43.36.72.79.28.45.75.98,1.07,1.19.3.21.57.49.57.64,0,.36.74,1.15,1.07,1.15.13,0,.25.13.25.28,0,.13.11.34.26.41s.28.3.32.49.34.49.64.66c.32.17.6.4.64.47.02.08.49.57,1.04,1.07,1.72,1.66,1.85,1.79,2.17,2.26.21.3.3.87.3,1.7v1.23l-1.24,1.26c-1.87,1.88-3.88,2.7-6.77,2.68-3.88-.04-5.71-.87-10.35-4.77-1.36-1.13-3.43-3.64-4.43-5.35-.49-.81-.49-.83-.19-1.85.17-.57.45-1.28.62-1.58.19-.32.45-.87.6-1.23.36-.94,1.62-3.13,2.47-4.28.4-.55.72-1.04.72-1.09,0-.23.92-1.47,1.98-2.68,1-1.11,1.11-1.19,1.39-.92.19.17.43.3.55.3h0ZM143.68,184.49c.17.19-.08.43-1.15,1.17-2.53,1.72-2.41,1.64-2.41,1.36,0-.15.45-.58,1-.96s1.24-.94,1.55-1.26c.6-.64.72-.68,1.02-.3h0ZM145.49,187.02c-.11.09-.94.7-1.85,1.34-1.23.89-1.73,1.13-1.88.98s-.15-.21.04-.21c.28,0,2.58-1.66,3.13-2.26.25-.26.41-.32.55-.19.11.11.11.25.02.34ZM147.41,188.86c.04.09-.21.34-.55.55-.34.19-1.24.81-1.98,1.36-.75.57-1.38.94-1.38.87.02-.08.53-.53,1.13-.98.62-.47,1.39-1.13,1.73-1.47.58-.6.9-.7,1.04-.32ZM148.94,190.86c-.09.28-1.56,1.43-2.83,2.22-1.43.89-1.23.3.26-.81.75-.55,1.49-1.15,1.64-1.32.3-.38,1.04-.43.92-.09h0ZM150.18,193.8c-.77.68-2.81,1.92-3.19,1.92-.06,0-.09-.11-.09-.25,0-.11.55-.47,1.21-.75.66-.3,1.53-.87,1.9-1.26.4-.41.81-.68.92-.62.09.08-.23.49-.75.96h0ZM127.22,195.25c.49,1.62,1.98,4.09,3.73,6.2.9,1.11,3.86,3.58,5.54,4.67.64.43,1.17.79,1.17.83,0,.17-3-1.51-4.11-2.32-.68-.49-1.98-1.6-2.87-2.49-1.41-1.39-1.75-1.88-2.58-3.6-.94-1.92-1.39-3.43-1.36-4.49.02-.38.04-.41.11-.13.04.21.21.79.36,1.32h0ZM152.2,195.99c-.36.36-1.11.85-1.7,1.07s-1.17.51-1.28.6c-.17.11-.25.09-.25-.09,0-.15.3-.41.68-.58,1.11-.55,2.73-1.83,2.6-2.07-.08-.13.02-.08.23.09.34.32.32.36-.28.98h0ZM154.42,197.36c-.02.26-2.64,2.32-2.94,2.32-.15,0,.23-.34.85-.75s1.26-.96,1.43-1.23c.3-.45.7-.64.66-.34ZM157.82,205.04c.17.19.17.3.02.4-.3.19-.75-.04-.75-.38,0-.36.45-.38.74-.02Z" style="stroke-width: 0px;"/>
      <path d="M105.91,162.94c-1.87,1.26-3.19,2.05-3.49,2.04-.26,0-1.34-.57-2.45-1.3-1.07-.72-2-1.26-2.04-1.23s.06.7.21,1.45c.17.75.43,2.13.6,3.07.64,3.64,1.24,6.84,1.55,8.14.32,1.34.3,1.38-.06,1.66-1.53,1.15-6.97,3.09-8.86,3.15-1.9.08-1.83.32-1.68-5.35.13-4.71.13-4.88-.26-5.86l-.41-1-1.07.53c-1.62.79-3.28,1.26-5,1.39-1.39.11-1.6.19-2.17.72-.34.32-.89,1.06-1.23,1.62-.32.57-1.07,1.79-1.68,2.73-.6.92-1.09,1.75-1.09,1.83,0,.15,1.17.7,3.02,1.41.68.25,2.88.89,4.9,1.39,7.26,1.81,10.63,3.17,12.93,5.15.79.66,2.53,3.07,2.53,3.47,0,.49-.55.17-1.39-.81-1.09-1.28-2.39-2.19-5.11-3.54-2.38-1.19-4.26-1.79-7.63-2.47-3.26-.66-5.75-1.32-8.26-2.17l-2.13-.72-.47.68c-.25.36-.45.75-.45.87,0,.36,2.75,1.98,4.64,2.75,2.07.85,5.47,1.88,7.62,2.32,3.15.64,7.29,2.45,9.58,4.17,1.45,1.09,2.34,2.3,2.77,3.81.45,1.55,1.13,2.77,1.64,3.02.34.15.6.13,1.11-.08,1.04-.43,1.66-1.17,2.62-3.07,2.49-4.92,4.43-6.2,12.16-8.03.74-.17,2.04-.6,2.92-.94.89-.36,2.41-.94,3.39-1.3,3.39-1.21,8.29-3.73,8.29-4.26,0-.11-.32-.53-.7-.94l-.72-.75-1.23.55c-2.36,1.07-8.05,3.03-12.93,4.45-5.98,1.73-8.03,2.49-9.76,3.66-2.13,1.41-3.28,2.79-4.09,4.98l-.38,1,.08-.89c.23-2.51,2.77-5.15,6.52-6.77,1.58-.68,4.81-1.7,9.41-3,3.52-.98,9.69-3.19,11.46-4.11l.62-.32-1.72-1.88c-.96-1.04-2.26-2.49-2.92-3.2l-1.21-1.32-2.39.06c-2.11.06-2.53.02-3.51-.36-3.51-1.3-6.8-4.15-8.31-7.16-.38-.72-.68-1.3-.72-1.28-.02,0-1.39.94-3.05,2.07h0Z" style="fill: #4b4142; stroke-width: 0px;"/>
      <path d="M137.76,162.79c-2.62,1.26-2.94,1.47-4.34,2.87-.83.85-1.87,1.68-2.3,1.87-.45.21-.81.41-.81.47,0,.11,1.55,1.9,3.56,4.13l1.04,1.15.94-.79c.53-.41,1.13-.94,1.34-1.17.21-.21.62-.6.94-.85.87-.74-.64,1-1.9,2.17l-1.02.94.53.64.53.62,1.02-.81c.55-.45,1.56-1.47,2.26-2.24l1.26-1.41.32-4.32c.17-2.36.25-4.37.19-4.47-.19-.32-.75-.13-3.56,1.21Z" style="fill: #4b4142; stroke-width: 0px;"/>
      <path d="M61.8,163.34c.21,2.9.87,6.58,1.34,7.52.23.47,2.81,3.09,3.17,3.22.09.04.41-.25.72-.62l.55-.68-.98-1.3c-1.75-2.32-4.01-7.8-3.22-7.8.08,0,.58.89,1.11,1.96.72,1.45,1.36,2.38,2.43,3.58.79.89,1.51,1.62,1.58,1.62.06,0,.34-.45.62-1,.41-.77.57-1.38.66-2.77.15-1.66.13-1.81-.25-2.19-.21-.21-1.02-.58-1.79-.81-1.43-.43-4.81-1.79-5.16-2.07-.11-.08-.36-.21-.57-.28-.32-.11-.34-.02-.21,1.62h0Z" style="fill: #4b4142; stroke-width: 0px;"/>
      <path d="M87.04,165.85c-.08.21-.4.28-1.11.28-.98,0-1.02.02-2.34,1.36-.72.75-1.3,1.38-1.28,1.39s.55-.04,1.17-.11c1.17-.17,4.6-1.75,4.75-2.21.08-.23-.64-1-.92-1-.09,0-.21.13-.26.28h0Z" style="stroke-width: 0px;"/>
      <path d="M73.94,181.25c-.3.72-.25,1.62.15,2.79.17.51.28,1.39.26,2.19-.06,2.17.72,4.11,2.38,5.99.45.49.85,1.09.89,1.32.57,2.92,1.07,4.09,2.49,5.58.77.83,1.49,1.3,2.58,1.68.28.11.51.34.51.49,0,.55.9,2.11,1.56,2.68.94.83,2.64,1.58,4.37,1.94,1.06.23,1.81.53,2.47.98,1.68,1.13,3.56,1.53,7.43,1.58,1.81.02,3.75.11,4.32.21,1.6.3,3.3.02,4.69-.75,1.02-.6,1.34-.68,2.45-.68,1.79,0,3.22-.55,5.09-1.94.55-.41,1.17-1.02,1.36-1.34.28-.45.58-.64,1.36-.83,3.02-.77,5.24-3.07,5.71-5.9.11-.64.32-1.02.89-1.56l.75-.74-.13-1.24c-.06-.7-.04-1.85.08-2.58.11-.72.17-1.34.13-1.38-.04-.02-.51.36-1.07.89-1,.94-2.05,1.41-3.62,1.58-.89.11-.74-.11.68-1.04,4.2-2.79,4.34-2.88,4.6-3.54.15-.36.4-.92.55-1.26.15-.32.26-.64.26-.7,0-.08.34-.66.75-1.28.58-.9.75-1.36.75-1.96,0-.92-.25-1.19-.72-.77-.17.15-.79.51-1.36.79-1.26.64-3.26,2.07-4.17,3.05-1.53,1.6-2.15,2.85-3.09,6.28-.28.98-.36,1.07-1.45,1.7-1.72.98-2.66,1.9-3.43,3.39-.49.94-.81,1.32-1.06,1.32-.9,0-3.41,1.36-4.32,2.34-.43.47-.49.47-2.17.36-1.75-.09-3.98.26-5.58.94-.62.26-.68.26-1.45-.28-.45-.3-1.09-.66-1.43-.81-.85-.36-2.88-.51-4.03-.32-.94.15-1.02.13-1.51-.38-.75-.79-3.19-2.41-4.17-2.79-.72-.28-.89-.45-1.17-1.17-.66-1.73-2.45-3.83-3.81-4.43-.68-.3-.72-.36-.72-1.19,0-2.04-.6-3.88-1.9-5.77-.38-.55-.77-.87-1.43-1.11-1.41-.53-3.47-1.58-4.41-2.28-.49-.36-.92-.64-.98-.64-.04,0-.21.26-.34.6h0ZM80.08,187.03c-.17.51-.55,1.3-.83,1.73-.53.81-.77,1.43-1.09,2.81-.36,1.43-1.11.3-.9-1.32.15-1.04,1.09-2.7,1.92-3.32.32-.25.7-.77.85-1.15.23-.7.25-.7.3-.19.04.28-.08.94-.25,1.43h0ZM83,194.27c.13,2.15-.02,5.32-.28,5.32-.34,0-.87-2.24-.9-3.86-.04-1.87.11-2.58.58-2.68.43-.09.53.09.6,1.23ZM122.51,197.59c-1.34,1.39-4.43,1.9-5.82.96-.38-.26-.7-.53-.7-.6,0-.34,3.11-.83,5.54-.87l1.51-.04-.53.55h0ZM89.09,202.96c.28.6.57,1.38.62,1.7l.09.57-.41-.36c-1.04-.96-2.02-3.79-1.73-5,.09-.4.19-.28.53.75.23.68.64,1.73.9,2.34h0ZM111.94,202.15c.64.28,1.34.41,2.41.43.9,0,1.55.09,1.58.23.28.87-2.43.85-4.18-.02-1.77-.89-1.6-1.43.19-.64ZM96.2,203.66c2.22,2.38,3.05,3.22,3.58,3.66.4.3.41.38.15.43-.62.13-2.47-.96-3.62-2.13-1.09-1.09-2.47-3.32-2.24-3.56.28-.26.62,0,2.13,1.6h0ZM102.98,203.51c0,.38,3,2.32,3.86,2.53.45.09.75.26.75.43,0,.53-1.68.26-3.43-.53-.75-.34-2.07-2.28-1.7-2.53.34-.21.51-.19.51.09Z" style="stroke-width: 0px;"/>
      <path d="M156.84,200.78c-.77,1.23-1.58,2.04-2.62,2.66-.4.25-.72.47-.72.51,0,.06.06.08.15.04,2.13-1.06,2.56-1.45,3.52-3.2.72-1.3.49-1.3-.34,0h0Z" style="stroke-width: 0px;"/>
      <path d="M156.89,201.7c-.36.47-1.11,1.23-1.66,1.68-1.17.96-1.06,1.09.21.25.74-.49,2.38-2.53,2.17-2.71-.02-.02-.36.32-.72.79Z" style="stroke-width: 0px;"/>
      <g>
        <path d="M100.33,163.69c-4.3-3.02-4.74-3.35-6.01-4.38-1.95-1.59-5.03-4.66-6.35-6.31-4.36-5.49-5.36-11.14-5.61-31.79l-.04-4.29,16.36-.06c8.31-.02,18.23-.06,20.37-.11.33,0,.66,0,.97,0,1.21,0,1.95.03,2.29.05.04.63.1,2.41.2,5.45l.05,1.46c.08,2.13.19,4.78.25,5.93.23,3.72-.4,9.53-1.62,15.18-.79,3.64-1.06,4.34-2.37,6.27-2.68,3.99-7.78,8.62-14,12.7l-2.25,1.47-2.24-1.59h0Z" style="fill: #ffd12b; stroke-width: 0px;"/>
        <path d="M120.03,117.14c.9,0,1.53.02,1.93.03.04.83.1,2.55.18,5.12l.05,1.41v.14c.09,2.1.19,4.71.25,5.84.22,3.68-.39,9.46-1.62,15.07-.78,3.57-1.03,4.26-2.32,6.14-2.65,3.95-7.72,8.54-13.89,12.6l-2.04,1.33-2.03-1.44c-4.28-3.01-4.73-3.33-5.98-4.36-1.93-1.58-4.99-4.62-6.29-6.25-4.3-5.41-5.28-11.02-5.53-31.56l-.04-3.91,15.98-.06c8.31-.02,18.24-.06,20.37-.11.34,0,.66,0,.97,0M120.03,116.38c-.31,0-.64,0-.98,0-1.99.04-11.16.08-20.36.1l-16.74.06.04,4.67c.25,20.74,1.26,26.43,5.69,32.02,1.34,1.67,4.44,4.75,6.4,6.36,1.28,1.05,1.74,1.38,6.03,4.4l2.45,1.74,2.47-1.61c6.28-4.12,11.36-8.73,14.11-12.81,1.34-1.97,1.63-2.74,2.43-6.4,1.23-5.67,1.86-11.51,1.63-15.28-.06-1.15-.17-3.83-.25-5.96-.17-4.98-.23-6.97-.27-7.18,0-.07-1.14-.11-2.64-.11h0Z" style="fill: #fff; stroke-width: 0px;"/>
      </g>
      <path d="M98.9,118.63l-15.08.06.04,4.2c.23,18.68,1.13,23.81,5.13,28.84,1.21,1.51,4,4.28,5.77,5.73,1.15.94,1.56,1.24,5.43,3.96l2.21,1.56,2.22-1.45c5.65-3.71,10.24-7.86,12.7-11.54,1.21-1.77,1.47-2.47,2.19-5.77,1.11-5.11,1.68-10.37,1.47-13.76-.06-1.04-.15-3.45-.23-5.37-.15-4.49-.21-6.28-.25-6.47,0-.08-1.49-.11-3.26-.09-1.79.04-10.05.08-18.34.09Z" style="fill: #f40030; stroke-width: 0px;"/>
      <g>
        <path d="M95.03,124.77l6.36-3.35c.2-.1.42-.13.64-.06l8.55,2.5c.36.11.61.44.61.82v4.64c0,.06,0,.12.02.18l3.8,18.03c.1.48-.22.94-.7,1.02l-14.59,2.36c-.12.02-.24.01-.36-.02l-8.34-2.26c-.44-.12-.71-.57-.61-1.02l4.1-17.15c.02-.06.02-.13.02-.19l.04-4.74c0-.31.18-.6.46-.74Z" style="stroke-width: 0px;"/>
        <path d="M104.59,122.65c1.43.41,3.43.98,4.43,1.28l1.85.53v2.58l-.68-.11-.66-.13.13.66c.11.66.09.68-.47.68-.62,0-.79.26-.28.45.17.06.57.11.89.11.34,0,.74.09.89.21.21.15.06.17-.57.09-1.56-.21-5.54-.64-6.82-.77l-1.28-.13v-1.11c0-.62.08-1.11.19-1.11s.19.25.19.57c0,.38.09.57.28.57s.28-.19.28-.57.09-.57.28-.57c.15,0,.28-.09.28-.19,0-.11-.34-.19-.75-.19h-.75v-.92c0-.49-.06-1.3-.11-1.79-.08-.47-.08-.87-.02-.87.08,0,1.3.34,2.71.74h0ZM101.44,122.33c0,.13-.47.45-1.04.7-1.06.45-1.34.77-.66.77.3,0,.38.13.38.57,0,.3.09.57.19.57.11,0,.19-.32.19-.72,0-.6.09-.77.47-.94l.47-.23v2.54c0,1.39-.02,2.54-.04,2.54-.04,0-1.47.41-3.2.92-2.81.81-3.17.89-3.17.58s.3-.49,1.38-.83c.34-.11.45-.49.13-.49s-.21-.6.13-.87c.55-.4.09-.55-.6-.21-.38.17-.75.32-.85.32-.11,0-.19-.51-.19-1.13v-1.13l.77-.4.79-.4-.13.68c-.17.89.13,1,1.39.58l.94-.32v-2.02l1.19-.66c1.28-.74,1.45-.79,1.45-.45ZM98.1,124.55c.45,0,.41.51-.06.64-.21.06-.55.17-.75.23-.32.08-.38.02-.38-.49,0-.55.06-.6.43-.49.23.06.57.11.75.11h0ZM110.86,127.85c0,.34-.09.47-.38.47s-.38-.13-.38-.47.09-.47.38-.47.38.13.38.47ZM95.71,128.42c-.13.36-.68.36-.68,0,0-.32.62-.72.72-.45.04.09.02.3-.04.45ZM106.89,129.17c2.11.25,3.9.51,3.98.6.06.08.43,1.68.83,3.54s1.11,5.3,1.62,7.63c.94,4.43,1.39,6.96,1.3,7.07-.06.04-4.67.85-4.9.85-.04,0-.08-.87-.06-1.94,0-1.62.06-1.92.3-1.98.21-.04.34.09.38.36.04.23.17.45.3.51.25.08.28-.83.08-1.62-.15-.51-.53-.53-.45,0,.11.62-.68.41-.96-.28-.41-.96-1-1.36-1.92-1.34-.45,0-1.06.17-1.32.34-.4.26-.55.28-.77.09-.26-.21-.25-.28.15-.57.23-.19.38-.38.32-.43-.19-.19-1.3.64-1.68,1.24-.4.66-.51,1.47-.19,1.47.11,0,.19-.17.19-.36s.15-.55.34-.77c.28-.36.36-.38.57-.13.17.21.19.41.04.77-.09.28-.19,1.11-.19,1.83,0,1.17-.04,1.3-.38,1.3-.23,0-.38-.13-.38-.3s-.11-.26-.23-.23c-.15.06-.25.4-.25.81s.09.75.25.79c.13.06.23-.08.23-.3,0-.26.11-.4.38-.4s.38.13.38.45c0,.25.06.72.11,1.04.11.55.09.58-.43.58-.3,0-1.43.13-2.51.28-1.06.17-1.96.26-2,.23-.08-.08.43-6.2,1.34-15.89.26-2.83.47-5.3.47-5.5,0-.34.09-.38.62-.3.32.06,2.34.3,4.45.55h0ZM101.25,129.21c0,.43-.55,6.82-1.24,14.51l-.13,1.38-1.34.02c-.74.02-1.15.08-.9.11.28.06.41.21.41.55,0,.4-.09.45-.64.45-.36,0-.72.08-.77.19-.08.11.21.19.7.19.96,0,1.34.21,1.17.62-.08.23-.02.32.19.32.17,0,.3-.15.3-.38,0-.25.13-.38.36-.38.32,0,.36.11.28,1.17-.13,1.75-.26,2.41-.47,2.41-.51,0-8.2-2.13-8.41-2.32-.13-.13,1.55-6.41,1.83-6.86.13-.2.16-.18.09.08-.15.58.25.74.47.17.09-.26.3-.49.47-.49.15,0,.28-.09.28-.19,0-.11-.26-.19-.58-.19h-.58l.13-.9c.09-.72,1.39-6.11,1.49-6.18,0-.02.25-.08.55-.15.6-.13.66.08.23.9l-.28.55.79-.11c1.24-.19,2.22-.51,2.22-.74,0-.19-1.11-.09-1.77.15-.23.09-.3,0-.3-.36,0-.32.13-.49.41-.58.28-.06.36-.17.25-.28-.13-.13-.47-.13-1.02,0-.45.09-.85.15-.89.13-.08-.08.45-2.24.57-2.38.13-.11,5.54-1.87,5.92-1.9.13-.02.23.21.23.49h0ZM99.74,145.95c0,.4-.09.47-.57.47-.43,0-.57-.09-.57-.36,0-.34.26-.51.9-.57.11,0,.23.19.23.45Z" style="fill: #ffd12b; stroke-width: 0px;"/>
        <path d="M104.77,126.07c-.08.58-.11,1.07-.08,1.11s.72.13,1.51.21l1.45.13.13-.98c.08-.53.08-1.02.02-1.07-.13-.13-1.7-.41-2.41-.41-.47-.02-.51.06-.62,1.02Z" style="stroke-width: 0px;"/>
        <path d="M105.28,131.58c-.41.17-.04.43.64.43.45,0,.64.09.64.28,0,.15-.17.28-.38.28s-.38.08-.38.19.53.19,1.23.19,1.23-.08,1.23-.19-.3-.19-.66-.19c-.45,0-.66-.09-.66-.26,0-.15.09-.3.23-.34.11-.04.15-.19.08-.3-.13-.23-1.49-.28-1.96-.09h0Z" style="stroke-width: 0px;"/>
        <path d="M106.38,133.97c0,.17.21.3.53.34.4.04.53.17.57.57.08.72.41.68.41-.04,0-.53.04-.57.77-.57.53,0,.74-.08.7-.25-.06-.15-.58-.25-1.53-.28-1.19-.04-1.45,0-1.45.23Z" style="stroke-width: 0px;"/>
        <path d="M101.34,138.55c-.41.15-.26.43.23.43.4,0,.47.09.47.57,0,.38.09.57.28.57s.28-.19.28-.55c0-.47.09-.57.51-.62.26-.04.53-.17.58-.3.06-.17-.23-.23-1.04-.21-.6,0-1.21.06-1.32.11Z" style="stroke-width: 0px;"/>
        <path d="M109.2,140.1c0,.09.32.23.72.3.55.08.72.21.72.49,0,.26-.09.32-.36.25-.19-.06-.57-.04-.85.04l-.51.13.57.13c.87.21,2.36.21,2.36,0,0-.11-.17-.19-.38-.19-.28,0-.38-.13-.38-.47,0-.3.11-.47.28-.47.15,0,.28-.09.28-.19,0-.11-.53-.19-1.23-.19s-1.23.08-1.23.17h0Z" style="stroke-width: 0px;"/>
        <path d="M102.42,140.49c0,.19.38.26,1,.23.25-.02.32.11.32.53,0,.32.09.57.19.57.11,0,.19-.25.19-.57,0-.41.08-.55.34-.53.6.04.98-.04.98-.23,0-.11-.62-.19-1.51-.19s-1.51.08-1.51.19Z" style="stroke-width: 0px;"/>
      </g>
    </g>
  </g>
  <g id="Layer_7-3" data-name="Layer 7">
    <g>
      <polygon points="37.84 40.4 164.61 40.4 164.61 18.21 38.38 20.68 37.84 40.4" style="fill: #d1ac23; stroke-width: 0px;"/>
      <path d="M167.41,15.94C155.77,10.02,131.52-.35,99.29,0c-29.77.33-52.28,9.65-63.82,15.41.79,8.33,1.58,16.66,2.37,24.98,9.3-5.73,31.26-17.54,61.61-17.99,32.43-.48,55.92,12.29,65.17,17.99.93-8.15,1.87-16.3,2.8-24.45h0Z" style="fill: #ffd12b; stroke-width: 0px;"/>
      <polygon points="48.29 40.4 61.64 33.29 66.92 40.4 48.29 40.4" style="fill: #ffd12b; stroke-width: 0px;"/>
      <polygon points="137.15 40.4 140.16 33.29 155.57 40.4 137.15 40.4" style="fill: #ffd12b; stroke-width: 0px;"/>
      <g>
        <path d="M45.04,27.04c-1.31-1.5-2.65-2.99-4-4.45.66,1.72,1.33,3.44,2,5.16-.45.21-.67.32-1.12.54-.96-2.43-1.92-4.86-2.86-7.3.66-.32,1-.48,1.66-.79,1.32,1.44,2.62,2.9,3.9,4.38-.28-1.93-.54-3.86-.78-5.8.67-.3,1.01-.44,1.68-.73,1.21,2.32,2.41,4.64,3.59,6.97-.46.19-.69.29-1.15.49-.86-1.62-1.72-3.25-2.59-4.86.2,1.94.42,3.87.67,5.8-.4.24-.6.35-.99.59h0Z" style="stroke-width: 0px;"/>
        <path d="M51.5,24.24c-.47.19-.94.09-1.43-.28s-.9-.99-1.25-1.84c-.42-1.03-.53-1.9-.3-2.62.22-.72.76-1.25,1.6-1.58.47-.18,1.07-.31,1.77-.37.69,1.85,1.39,3.7,2.08,5.55-.48.18-.72.27-1.2.46-.13-.36-.19-.54-.32-.91-.02,0-.02,0-.04.01-.04.83-.34,1.35-.91,1.58h0ZM51.23,22.79c.2-.08.34-.28.42-.61.08-.33.12-.7.13-1.13-.28-.74-.43-1.1-.71-1.84-.11,0-.22.02-.34.04s-.21.06-.3.09c-.75.29-.88,1.03-.41,2.21.18.46.38.8.6,1.02s.42.3.61.22h0Z" style="stroke-width: 0px;"/>
        <path d="M54.84,22.77c-.2-.53-.29-.8-.49-1.33.33-.12.5-.18.83-.3-.65-1.8-1.29-3.6-1.94-5.4-.33.12-.49.18-.82.3-.19-.53-.29-.79-.48-1.32.87-.32,1.3-.47,2.18-.78.78,2.25,1.57,4.5,2.35,6.75.33-.11.5-.17.83-.29.18.54.28.81.46,1.34-1.17.4-1.75.61-2.91,1.03h0Z" style="stroke-width: 0px;"/>
        <path d="M60.23,21.11c-.44.14-.82.11-1.15-.08-.33-.19-.58-.54-.74-1.03-.4-1.2-.6-1.8-.99-3-.3.1-.45.15-.75.25-.18-.54-.27-.81-.45-1.35.3-.1.45-.15.76-.25-.16-.49-.24-.74-.41-1.23.43-.24.86-.45,1.28-.64.18.57.28.86.46,1.43.49-.16.74-.24,1.24-.39.17.54.25.81.42,1.36-.49.15-.74.23-1.22.39.35,1.09.52,1.63.87,2.72.1.32.3.43.6.34.17-.05.35-.16.54-.33.26.44.39.66.65,1.1-.32.34-.68.58-1.1.71h0Z" style="stroke-width: 0px;"/>
        <path d="M63.48,20.11c-.48.14-.94,0-1.38-.41-.44-.42-.8-1.07-1.07-1.95-.32-1.06-.35-1.94-.06-2.64.29-.7.87-1.17,1.73-1.42.49-.14,1.08-.21,1.78-.2.52,1.91,1.03,3.81,1.55,5.72-.49.13-.74.2-1.23.34-.09-.37-.14-.56-.23-.93h-.04c-.11.83-.46,1.32-1.05,1.49h0ZM63.35,18.65c.2-.06.36-.25.47-.56.11-.32.19-.69.23-1.11-.21-.76-.32-1.14-.53-1.9-.11,0-.22,0-.34,0s-.21.04-.3.06c-.77.22-.97.94-.61,2.16.14.47.31.83.5,1.07.19.24.38.33.58.28h0Z" style="stroke-width: 0px;"/>
        <path d="M70.35,18.12c-1.3-2.37-2.63-4.73-3.99-7.07.62-.16.94-.23,1.56-.38.97,1.81,1.93,3.62,2.87,5.45.06-2.05.13-4.1.21-6.15.58-.13.88-.19,1.46-.31-.2,2.7-.36,5.4-.5,8.1-.65.15-.97.22-1.62.37h0Z" style="stroke-width: 0px;"/>
        <path d="M76.67,16.97c-.77.14-1.43-.02-1.99-.48-.56-.46-.94-1.18-1.14-2.16-.13-.64-.15-1.22-.04-1.73.1-.51.31-.93.63-1.25.31-.33.72-.54,1.22-.63.73-.14,1.34.04,1.82.53s.81,1.26.99,2.31c.01.07.02.14.03.2.01.07.02.13.02.19-1.29.22-1.94.34-3.23.59.29.8.82,1.13,1.59.99.24-.04.48-.12.71-.24.24-.12.44-.25.6-.41.18.51.27.76.44,1.27-.46.43-1.01.7-1.65.82h0ZM74.74,13.32c.79-.15,1.19-.23,1.98-.37-.08-.33-.22-.57-.43-.74-.21-.16-.46-.22-.75-.17-.28.05-.48.19-.62.42s-.2.51-.18.86Z" style="stroke-width: 0px;"/>
        <path d="M81.42,16.18c-.45.07-.82-.02-1.11-.26s-.48-.62-.56-1.14c-.2-1.25-.3-1.87-.5-3.12-.31.05-.46.08-.77.13-.09-.56-.14-.84-.23-1.4.31-.05.47-.08.78-.13-.08-.51-.12-.77-.2-1.27.46-.17.91-.31,1.35-.42.09.59.13.89.22,1.49.51-.08.76-.11,1.27-.18.08.56.12.84.2,1.41-.5.07-.76.11-1.26.18.17,1.13.25,1.69.42,2.82.05.33.23.48.53.43.18-.03.37-.11.58-.24.19.48.28.71.47,1.19-.37.29-.76.46-1.19.53h0Z" style="stroke-width: 0px;"/>
        <path d="M85.64,15.61c-.77.09-1.42-.11-1.95-.61-.53-.5-.86-1.24-1-2.24-.09-.65-.07-1.23.07-1.73.14-.5.37-.9.71-1.2.34-.3.75-.48,1.25-.54.73-.09,1.33.13,1.78.65s.73,1.31.83,2.37c0,.07.01.14.02.2s0,.13,0,.19c-1.3.13-1.95.21-3.25.37.23.82.74,1.18,1.51,1.09.24-.03.48-.09.72-.19s.45-.22.63-.37c.14.52.21.78.36,1.3-.49.4-1.05.63-1.7.71h0ZM83.96,11.85c.8-.1,1.2-.15,2-.24-.06-.33-.18-.59-.38-.77-.2-.18-.44-.25-.74-.22-.28.03-.5.16-.65.37-.15.22-.23.5-.23.84h0Z" style="stroke-width: 0px;"/>
        <path d="M88.66,15.12c-.19-2.01-.38-4.01-.57-6.02.55-.05.83-.08,1.39-.12.03.39.05.59.08.98.03,0,.05,0,.08,0,.14-.37.29-.67.46-.89.17-.22.41-.34.71-.37.12,0,.22,0,.3.02,0,.72-.01,1.07-.02,1.79-.07-.02-.14-.03-.21-.04s-.14-.01-.21,0c-.24.02-.42.12-.55.3-.13.18-.28.42-.44.71.12,1.41.18,2.12.3,3.53-.53.05-.8.07-1.33.12h0Z" style="stroke-width: 0px;"/>
        <path d="M93.63,14.92c-.5.03-.91-.21-1.24-.72-.33-.51-.54-1.22-.6-2.14-.08-1.11.1-1.97.53-2.58s1.1-.94,1.98-.99c.5-.02,1.09.04,1.77.21.07,1.97.15,3.95.22,5.92-.51.02-.76.03-1.26.05,0-.38,0-.58-.02-.96h-.04c-.29.77-.74,1.17-1.34,1.21h0ZM93.83,13.46c.21-.01.4-.16.58-.44s.33-.63.47-1.03c-.04-.79-.05-1.18-.09-1.97-.11-.03-.21-.06-.33-.07-.11,0-.21-.01-.3,0-.79.04-1.14.7-1.07,1.96.03.49.11.88.24,1.16.13.28.3.41.5.4h0Z" style="stroke-width: 0px;"/>
        <path d="M97.58,14.58c-.05-2.01-.11-4.03-.17-6.04.54-.02.82-.02,1.36-.03,0,.42.01.63.02,1.04.2-.43.44-.74.72-.93s.6-.29.96-.3c.55,0,.97.19,1.28.58s.46.93.45,1.62c-.01,1.61-.02,2.41-.03,4.01-.53,0-.8,0-1.33,0,0-1.5,0-2.25-.01-3.76,0-.32-.07-.57-.2-.74-.13-.17-.31-.26-.53-.25-.27,0-.51.12-.74.37s-.4.54-.51.89c.02,1.4.04,2.11.06,3.51-.53,0-.8.02-1.33.03h0Z" style="stroke-width: 0px;"/>
        <path d="M104.76,14.75c-.31,0-.6-.05-.89-.14-.28-.08-.53-.19-.73-.33.06-.56.08-.84.14-1.41.21.17.45.3.71.41s.5.16.73.17c.2,0,.38-.04.54-.13.15-.09.24-.23.24-.43,0-.19-.07-.33-.23-.42-.16-.09-.41-.22-.74-.38-.13-.07-.27-.14-.42-.22-.16-.08-.3-.19-.44-.32-.14-.13-.25-.3-.34-.51-.09-.21-.13-.47-.12-.78,0-.42.1-.77.28-1.06s.44-.5.75-.64.68-.21,1.07-.2c.27,0,.53.05.79.12s.5.16.74.27c-.1.56-.15.83-.24,1.39-.18-.14-.39-.25-.63-.34-.24-.09-.46-.14-.67-.14-.2,0-.37.03-.51.11-.14.08-.21.21-.21.38,0,.14.04.25.13.34s.21.16.36.22.32.15.51.24c.18.09.38.21.58.35.21.14.38.34.51.58.14.25.2.58.18,1-.02.44-.12.81-.31,1.09s-.44.48-.75.6c-.31.12-.66.18-1.04.17h0Z" style="stroke-width: 0px;"/>
        <path d="M109.35,14.77c.93-2.56,1.9-5.1,2.9-7.64.69.05,1.04.08,1.73.14.57,2.67,1.12,5.33,1.63,8.01-.56-.06-.85-.09-1.41-.14-.14-.73-.2-1.1-.34-1.82-1-.09-1.5-.13-2.5-.21-.25.7-.37,1.05-.61,1.75-.56-.04-.84-.06-1.39-.09h0ZM111.87,11.69c.68.05,1.02.08,1.71.14-.24-1.22-.37-1.83-.62-3.06-.44,1.16-.66,1.75-1.09,2.92Z" style="stroke-width: 0px;"/>
        <path d="M117.66,15.7c-.31-.04-.6-.11-.87-.22-.28-.11-.51-.24-.69-.4.11-.55.17-.83.28-1.39.2.19.42.35.67.48.25.13.48.21.71.24.2.02.38,0,.55-.07.16-.07.26-.21.28-.4.02-.19-.04-.33-.19-.44s-.39-.26-.7-.45c-.12-.08-.25-.16-.4-.26-.15-.1-.28-.22-.41-.36s-.22-.32-.29-.54-.08-.48-.05-.79c.05-.42.17-.76.38-1.03.21-.26.48-.45.81-.56.33-.11.69-.14,1.09-.09.27.03.53.1.78.19s.49.21.71.34c-.15.54-.22.82-.37,1.36-.17-.16-.37-.29-.59-.4-.23-.11-.44-.18-.65-.21-.2-.02-.37,0-.52.06s-.22.18-.25.35c-.02.14.02.26.1.35.08.09.19.18.34.25.15.08.31.18.48.29.17.11.36.24.55.4.19.16.34.37.46.63.11.26.14.6.08,1.02-.06.44-.2.79-.42,1.05-.22.26-.49.43-.81.53s-.67.11-1.05.07h0Z" style="stroke-width: 0px;"/>
        <path d="M122,16.3c-.31-.05-.59-.13-.87-.25-.27-.12-.5-.26-.68-.42.13-.55.19-.83.32-1.38.19.19.41.36.65.5.24.14.48.23.7.26.2.03.38.01.55-.06s.26-.2.3-.39c.03-.18-.03-.33-.18-.44-.15-.11-.38-.27-.69-.48-.12-.08-.25-.17-.39-.27-.15-.1-.28-.23-.4-.37-.12-.15-.21-.33-.27-.55-.06-.22-.07-.48-.02-.79.06-.42.2-.76.42-1.01.22-.26.5-.44.83-.54.34-.1.7-.12,1.09-.06.27.04.52.11.77.22s.48.23.7.37c-.17.54-.25.81-.42,1.35-.16-.16-.36-.3-.58-.42-.22-.12-.44-.2-.64-.23-.2-.03-.37-.02-.52.04s-.23.18-.26.35c-.02.14,0,.26.08.35.08.09.19.18.33.27s.3.19.47.31c.17.11.35.25.54.42.18.17.33.38.44.64s.12.61.05,1.02c-.08.44-.23.78-.45,1.04-.23.25-.5.42-.82.5s-.67.09-1.05.03Z" style="stroke-width: 0px;"/>
        <path d="M127.16,17.2c-.49-.1-.89-.31-1.21-.64s-.54-.75-.66-1.25c-.12-.51-.13-1.08-.02-1.71.11-.63.31-1.16.61-1.6.3-.43.66-.74,1.09-.93s.9-.24,1.41-.14c.51.1.93.32,1.26.65.33.34.54.76.66,1.26.11.51.1,1.07-.03,1.69-.13.63-.35,1.16-.66,1.59-.3.43-.67.74-1.09.93-.42.19-.87.24-1.35.14ZM127.42,15.79c.34.07.64-.04.91-.32s.46-.68.56-1.2c.11-.52.09-.96-.06-1.31-.15-.35-.39-.56-.74-.63-.35-.07-.65.04-.92.31-.27.27-.45.67-.55,1.19-.1.52-.07.96.07,1.32.14.36.38.57.72.64h0Z" style="stroke-width: 0px;"/>
        <path d="M132.81,18.43c-.79-.19-1.34-.59-1.66-1.21s-.38-1.4-.17-2.35c.14-.65.37-1.2.69-1.64.32-.44.7-.75,1.15-.94.45-.18.93-.21,1.44-.09.25.06.49.15.73.28.24.13.42.25.54.37-.24.52-.36.77-.6,1.29-.13-.12-.27-.23-.44-.32-.17-.09-.32-.16-.47-.19-.39-.09-.74,0-1.06.26s-.53.66-.66,1.19c-.12.53-.1.97.08,1.32.18.35.48.57.92.68.29.07.62.08.99.03-.05.54-.08.81-.13,1.35-.23.05-.46.07-.69.07s-.45-.03-.68-.09h0Z" style="stroke-width: 0px;"/>
        <path d="M134.9,18.77c.14-.55.21-.83.35-1.38.36.09.54.14.89.23.33-1.24.49-1.86.82-3.1-.37-.1-.55-.14-.91-.24.14-.55.21-.83.35-1.38.91.23,1.37.36,2.28.61-.49,1.78-.74,2.67-1.23,4.46.32.09.48.13.8.22-.15.55-.23.82-.38,1.37-1.18-.33-1.78-.49-2.97-.8h0ZM137.41,12.15c.15-.59.23-.89.39-1.48.63.17.94.25,1.57.42-.16.59-.24.88-.41,1.47-.62-.17-.93-.25-1.56-.42h0Z" style="stroke-width: 0px;"/>
        <path d="M139.94,20.36c-.48-.14-.79-.51-.93-1.1s-.09-1.33.16-2.22c.31-1.07.76-1.82,1.38-2.24.62-.43,1.36-.51,2.22-.25.48.15,1.02.41,1.61.8-.6,1.88-1.21,3.76-1.81,5.64-.49-.16-.73-.23-1.22-.38.12-.36.19-.55.31-.91-.02,0-.02,0-.04-.01-.54.63-1.1.85-1.69.68h0ZM140.63,19.06c.2.06.44-.01.7-.22.26-.21.53-.48.8-.81.23-.75.35-1.13.58-1.88-.09-.07-.18-.13-.29-.18-.1-.05-.2-.08-.29-.11-.76-.23-1.32.26-1.68,1.48-.14.47-.19.86-.17,1.17.03.31.14.49.34.55h0Z" style="stroke-width: 0px;"/>
        <path d="M145.45,22.13c-.43-.15-.72-.4-.87-.75-.15-.35-.14-.77.03-1.27.4-1.2.6-1.8,1-2.99-.3-.1-.45-.15-.75-.25.18-.54.27-.81.44-1.35.3.1.45.15.76.25.16-.49.25-.74.41-1.22.49.06.96.15,1.4.25-.2.57-.29.85-.49,1.42.49.17.74.26,1.23.43-.19.54-.29.8-.48,1.34-.48-.17-.73-.26-1.21-.43-.37,1.08-.56,1.62-.93,2.7-.11.32-.02.53.27.63.17.06.38.08.63.06-.05.51-.08.76-.14,1.27-.46.08-.9.05-1.31-.09h0Z" style="stroke-width: 0px;"/>
        <path d="M147.44,22.65c.19-.53.29-.8.48-1.33.35.13.52.19.87.32.45-1.2.67-1.8,1.12-3-.36-.13-.54-.2-.89-.33.19-.53.29-.8.48-1.33.89.32,1.34.49,2.22.83-.66,1.73-.99,2.59-1.65,4.32.31.12.47.18.78.3-.21.53-.31.79-.52,1.32-1.16-.45-1.74-.67-2.9-1.09h0ZM150.58,16.31l.53-1.43c.62.23.92.34,1.54.58-.22.57-.33.86-.54,1.43-.61-.23-.91-.35-1.52-.57h0Z" style="stroke-width: 0px;"/>
        <path d="M153.13,25.06c-.47-.19-.83-.48-1.08-.87s-.39-.84-.41-1.37c-.02-.52.08-1.08.32-1.68.24-.6.54-1.08.92-1.44.38-.36.8-.59,1.27-.69.47-.1.94-.05,1.43.15.49.2.86.51,1.12.9.26.4.39.85.4,1.38.01.52-.11,1.07-.37,1.65-.26.59-.58,1.06-.97,1.42-.39.36-.81.59-1.26.69-.45.1-.91.05-1.37-.14h0ZM153.67,23.73c.32.13.64.09.97-.12.32-.22.59-.57.8-1.06.21-.49.28-.92.2-1.3-.08-.38-.28-.63-.61-.77s-.66-.1-.98.11c-.32.21-.58.57-.78,1.06-.2.49-.26.93-.19,1.31.07.38.27.64.59.77h0Z" style="stroke-width: 0px;"/>
        <path d="M156.44,26.3c.82-1.84,1.65-3.68,2.47-5.52.51.23.76.34,1.27.57-.18.38-.26.57-.44.95.37-.29.73-.47,1.07-.52.34-.05.68,0,1.01.16.51.24.82.61.93,1.09s.02,1.04-.28,1.66c-.71,1.44-1.06,2.16-1.77,3.6-.49-.24-.74-.36-1.23-.59.65-1.36.97-2.03,1.62-3.39.14-.29.18-.54.14-.75s-.17-.37-.38-.46c-.25-.12-.53-.12-.84,0s-.6.31-.86.58c-.59,1.28-.88,1.91-1.46,3.19-.5-.23-.74-.34-1.24-.56h0Z" style="stroke-width: 0px;"/>
      </g>
    </g>
  </g>
</svg>