<?xml version="1.0" encoding="UTF-8"?>
<svg id="Layer_1" data-name="Layer 1"
  xmlns="http://www.w3.org/2000/svg"
  xmlns:xlink="http://www.w3.org/1999/xlink" viewBox="0 0 5305.14 1449.02">
  <defs>
    <clipPath id="clippath">
      <path d="M646.72,1427.92h0c-5.9,0-514.8-287.8-514.8-815.4V235.62h1029.6v376.9c0,527.6-514.8,815.4-514.8,815.4Z" style="fill: none; stroke-width: 0px;"/>
    </clipPath>
  </defs>
  <g id="Layer_7" data-name="Layer 7">
    <g id="Insenia_B_W" data-name="Insenia B&amp;amp;W">
      <g>
        <path d="M646.72,1438.42c-2.5,0-5,0-29.3-14.9-12.8-7.9-33.6-21.3-59.8-40.3-44.2-32-110.9-85.4-178.2-158-74.9-80.7-134.6-167.5-177.4-258.2-53.5-113.2-80.6-232.5-80.6-354.5V225.12h1050.6v387.4c0,121.9-27.4,241.2-81.5,354.5-43.2,90.5-103.3,177.3-178.8,258.2-67,71.8-134.1,125.5-178.5,157.9-48.2,35.2-80.2,53.1-81.5,53.9l-2.4,1.3h-2.6v.1Z" style="stroke-width: 0px;"/>
        <path class="text" d="M1161.52,235.62v376.9c0,527.6-514.8,815.4-514.8,815.4h0c-5.9,0-514.8-287.8-514.8-815.4V235.62h1029.6M1182.52,214.62H110.92v397.9c0,123.6,27.5,244.3,81.6,358.9,43.3,91.6,103.6,179.4,179.2,260.9,67.9,73.2,135.2,127,179.8,159.3,26.5,19.2,47.5,32.7,60.5,40.7,8.5,5.2,14.4,8.6,17.9,10.5,6.9,3.8,11.1,6,16.9,6s8.6-1.6,16.5-6.3c5.1-3,10.9-6.6,16.8-10.3,13.1-8.3,34.1-22.1,59.5-40.6,44.8-32.7,112.3-86.8,179.9-159.3,76.2-81.6,136.9-169.4,180.6-260.8,54.7-114.7,82.5-235.5,82.5-359V214.62h-.1Z" style="stroke-width: 0px;"/>
      </g>
      <g style="clip-path: url(#clippath);">
        <polygon points="24.32 164.92 24.32 764.22 1254.02 768.42 1273.92 116.22 24.32 164.92" style="fill: #fff; stroke-width: 0px;"/>
      </g>
    </g>
  </g>
</svg>