<?xml version="1.0" encoding="UTF-8"?>
<svg id="Layer_1" data-name="Layer 1"
  xmlns="http://www.w3.org/2000/svg" viewBox="0 0 5305.14 1449.02">
  <g id="Layer_7" data-name="Layer 7">
    <g class="text" id="Long_Circle" data-name="Long Circle" style="isolation: isolate;">
      <g style="isolation: isolate;">
        <path d="M1535.48,690.97l-53.1-146.4-12.6,141h-38.7l18.9-199.8h54l51,143.4,49.5-143.4h54l18.3,199.8h-39l-13.8-140.4-52.8,142.5-35.7,3.3Z" style="stroke-width: 0px;"/>
        <path d="M1755.08,690.07c-15.8,0-28.45-6.75-37.95-20.25-9.5-13.5-14.25-32.05-14.25-55.65,0-28.4,7.2-50.05,21.6-64.95,14.4-14.9,35.1-22.35,62.1-22.35,15.2,0,33,2.4,53.4,7.2v151.5h-40.2l.9-24.6h-1.2c-10.4,19.4-25.2,29.1-44.4,29.1ZM1764.08,653.17c6.6,0,12.9-3.5,18.9-10.5,6-7,11.4-15.6,16.2-25.8v-50.4c-3.2-1-6.5-1.7-9.9-2.1-3.4-.4-6.5-.6-9.3-.6-24.2,0-36.3,16.2-36.3,48.6,0,12.6,1.8,22.55,5.4,29.85,3.6,7.3,8.6,10.95,15,10.95Z" style="stroke-width: 0px;"/>
        <path d="M1869.08,685.57v-36.3h27.3v-146.7h-25.8v-36h68.1v182.7h27.3v36.3h-96.9Z" style="stroke-width: 0px;"/>
        <path d="M2046.07,690.07c-14.4,0-25.55-3.65-33.45-10.95-7.9-7.3-11.85-17.65-11.85-31.05v-80.7h-24v-36.3h24v-33c14.4-2.4,28.4-4.2,42-5.4v38.4h39v36.3h-39v72.9c0,8.6,4.8,12.9,14.4,12.9,5.6,0,12-1.3,19.2-3.9l9.3,31.8c-12.8,6-26,9-39.6,9Z" style="stroke-width: 0px;"/>
        <path d="M2153.18,690.07c-15.8,0-28.45-6.75-37.95-20.25-9.5-13.5-14.25-32.05-14.25-55.65,0-28.4,7.2-50.05,21.6-64.95,14.4-14.9,35.1-22.35,62.1-22.35,15.2,0,33,2.4,53.4,7.2v151.5h-40.2l.9-24.6h-1.2c-10.4,19.4-25.2,29.1-44.4,29.1ZM2162.18,653.17c6.6,0,12.9-3.5,18.9-10.5,6-7,11.4-15.6,16.2-25.8v-50.4c-3.2-1-6.5-1.7-9.9-2.1-3.4-.4-6.5-.6-9.3-.6-24.2,0-36.3,16.2-36.3,48.6,0,12.6,1.8,22.55,5.4,29.85,3.6,7.3,8.6,10.95,15,10.95Z" style="stroke-width: 0px;"/>
        <path d="M2379.07,685.57l-67.5-199.8h48l47.4,152.4,47.1-152.4h44.7l-67.2,199.8h-52.5Z" style="stroke-width: 0px;"/>
        <path d="M2582.18,690.07c-24.8,0-44.4-7.2-58.8-21.6-14.4-14.4-21.6-34.4-21.6-60,0-16.8,3.1-31.3,9.3-43.5,6.2-12.2,14.95-21.6,26.25-28.2,11.3-6.6,24.55-9.9,39.75-9.9,22.4,0,39.6,7.2,51.6,21.6,12,14.4,18,35.2,18,62.4v5.25c0,1.7-.1,3.35-.3,4.95h-102c4,21.6,18.3,32.4,42.9,32.4,7.6,0,15.35-.95,23.25-2.85,7.9-1.9,14.85-4.45,20.85-7.65l6.9,33.9c-16.6,8.8-35.3,13.2-56.1,13.2ZM2544.08,589.27h62.1c-.6-8.6-3.6-15.45-9-20.55-5.4-5.1-12.6-7.65-21.6-7.65s-15.65,2.5-21.15,7.5c-5.5,5-8.95,11.9-10.35,20.7Z" style="stroke-width: 0px;"/>
        <path d="M2734.87,690.07c-14.4,0-25.55-3.65-33.45-10.95-7.9-7.3-11.85-17.65-11.85-31.05v-80.7h-24v-36.3h24v-33c14.4-2.4,28.4-4.2,42-5.4v38.4h39v36.3h-39v72.9c0,8.6,4.8,12.9,14.4,12.9,5.6,0,12-1.3,19.2-3.9l9.3,31.8c-12.8,6-26,9-39.6,9Z" style="stroke-width: 0px;"/>
        <path d="M2870.17,690.07c-24.8,0-44.4-7.2-58.8-21.6-14.4-14.4-21.6-34.4-21.6-60,0-16.8,3.1-31.3,9.3-43.5,6.2-12.2,14.95-21.6,26.25-28.2,11.3-6.6,24.55-9.9,39.75-9.9,22.4,0,39.6,7.2,51.6,21.6,12,14.4,18,35.2,18,62.4v5.25c0,1.7-.1,3.35-.3,4.95h-102c4,21.6,18.3,32.4,42.9,32.4,7.6,0,15.35-.95,23.25-2.85,7.9-1.9,14.85-4.45,20.85-7.65l6.9,33.9c-16.6,8.8-35.3,13.2-56.1,13.2ZM2832.07,589.27h62.1c-.6-8.6-3.6-15.45-9-20.55-5.4-5.1-12.6-7.65-21.6-7.65s-15.65,2.5-21.15,7.5c-5.5,5-8.95,11.9-10.35,20.7Z" style="stroke-width: 0px;"/>
        <path d="M2967.07,685.57v-154.5h42.3v25.2h2.4c5.2-9.2,10.65-16.45,16.35-21.75,5.7-5.3,13.15-7.95,22.35-7.95,3.6,0,6.6.4,9,1.2l-4.5,45.6c-2.2-.6-4.3-1.1-6.3-1.5-2-.4-4.1-.6-6.3-.6-7.4,0-13.3,2.15-17.7,6.45-4.4,4.3-9.5,10.05-15.3,17.25v90.6h-42.3Z" style="stroke-width: 0px;"/>
        <path d="M3125.17,690.07c-15.8,0-28.45-6.75-37.95-20.25-9.5-13.5-14.25-32.05-14.25-55.65,0-28.4,7.2-50.05,21.6-64.95,14.4-14.9,35.1-22.35,62.1-22.35,15.2,0,33,2.4,53.4,7.2v151.5h-40.2l.9-24.6h-1.2c-10.4,19.4-25.2,29.1-44.4,29.1ZM3134.17,653.17c6.6,0,12.9-3.5,18.9-10.5,6-7,11.4-15.6,16.2-25.8v-50.4c-3.2-1-6.5-1.7-9.9-2.1-3.4-.4-6.5-.6-9.3-.6-24.2,0-36.3,16.2-36.3,48.6,0,12.6,1.8,22.55,5.4,29.85,3.6,7.3,8.6,10.95,15,10.95Z" style="stroke-width: 0px;"/>
        <path d="M3251.16,685.57v-154.5h41.4v26.7c6.4-10.8,13.85-18.65,22.35-23.55,8.5-4.9,18.25-7.35,29.25-7.35,16.6,0,29.6,4.95,39,14.85,9.4,9.9,14.1,23.65,14.1,41.25v102.6h-42.3v-96c0-8.2-2-14.5-6-18.9-4-4.4-9.4-6.6-16.2-6.6-8.2,0-15.85,3.05-22.95,9.15-7.1,6.1-12.55,13.65-16.35,22.65v89.7h-42.3Z" style="stroke-width: 0px;"/>
        <path d="M3479.46,690.07c-9.8,0-19.25-1-28.35-3-9.1-2-16.85-4.7-23.25-8.1l3.9-36c6.8,4.2,14.3,7.6,22.5,10.2,8.2,2.6,15.9,3.9,23.1,3.9,6.4,0,12-1.2,16.8-3.6,4.8-2.4,7.2-6.1,7.2-11.1s-2.55-8.3-7.65-10.5c-5.1-2.2-12.95-5.3-23.55-9.3-4-1.6-8.45-3.4-13.35-5.4-4.9-2-9.55-4.65-13.95-7.95-4.4-3.3-8-7.6-10.8-12.9-2.8-5.3-4.2-11.95-4.2-19.95,0-10.8,2.75-19.85,8.25-27.15,5.5-7.3,13.05-12.85,22.65-16.65,9.6-3.8,20.4-5.7,32.4-5.7,8.2,0,16.25.8,24.15,2.4,7.9,1.6,15.45,3.7,22.65,6.3l-5.7,35.7c-5.8-3.4-12.35-6.15-19.65-8.25-7.3-2.1-14.15-3.15-20.55-3.15s-11.35,1.05-15.45,3.15c-4.1,2.1-6.15,5.35-6.15,9.75,0,3.6,1.4,6.45,4.2,8.55,2.8,2.1,6.6,3.9,11.4,5.4s10.1,3.45,15.9,5.85c5.8,2.2,11.95,5,18.45,8.4,6.5,3.4,12.05,8.2,16.65,14.4,4.6,6.2,6.9,14.7,6.9,25.5,0,11.4-2.85,20.75-8.55,28.05-5.7,7.3-13.4,12.65-23.1,16.05-9.7,3.4-20.65,5.1-32.85,5.1Z" style="stroke-width: 0px;"/>
        <path d="M3625.26,685.57l73.2-199.8h52.2l74.1,199.8h-45l-16.2-45.6h-78.6l-15.3,45.6h-44.4ZM3697.56,602.77h53.1l-27-76.5-26.1,76.5Z" style="stroke-width: 0px;"/>
        <path d="M3891.05,690.07c-9.8,0-19.25-1-28.35-3-9.1-2-16.85-4.7-23.25-8.1l3.9-36c6.8,4.2,14.3,7.6,22.5,10.2,8.2,2.6,15.9,3.9,23.1,3.9,6.4,0,12-1.2,16.8-3.6,4.8-2.4,7.2-6.1,7.2-11.1s-2.55-8.3-7.65-10.5c-5.1-2.2-12.95-5.3-23.55-9.3-4-1.6-8.45-3.4-13.35-5.4-4.9-2-9.55-4.65-13.95-7.95-4.4-3.3-8-7.6-10.8-12.9-2.8-5.3-4.2-11.95-4.2-19.95,0-10.8,2.75-19.85,8.25-27.15,5.5-7.3,13.05-12.85,22.65-16.65,9.6-3.8,20.4-5.7,32.4-5.7,8.2,0,16.25.8,24.15,2.4,7.9,1.6,15.45,3.7,22.65,6.3l-5.7,35.7c-5.8-3.4-12.35-6.15-19.65-8.25-7.3-2.1-14.15-3.15-20.55-3.15s-11.35,1.05-15.45,3.15c-4.1,2.1-6.15,5.35-6.15,9.75,0,3.6,1.4,6.45,4.2,8.55,2.8,2.1,6.6,3.9,11.4,5.4s10.1,3.45,15.9,5.85c5.8,2.2,11.95,5,18.45,8.4,6.5,3.4,12.05,8.2,16.65,14.4,4.6,6.2,6.9,14.7,6.9,25.5,0,11.4-2.85,20.75-8.55,28.05-5.7,7.3-13.4,12.65-23.1,16.05-9.7,3.4-20.65,5.1-32.85,5.1Z" style="stroke-width: 0px;"/>
        <path d="M4030.25,690.07c-9.8,0-19.25-1-28.35-3-9.1-2-16.85-4.7-23.25-8.1l3.9-36c6.8,4.2,14.3,7.6,22.5,10.2,8.2,2.6,15.9,3.9,23.1,3.9,6.4,0,12-1.2,16.8-3.6,4.8-2.4,7.2-6.1,7.2-11.1s-2.55-8.3-7.65-10.5c-5.1-2.2-12.95-5.3-23.55-9.3-4-1.6-8.45-3.4-13.35-5.4-4.9-2-9.55-4.65-13.95-7.95-4.4-3.3-8-7.6-10.8-12.9-2.8-5.3-4.2-11.95-4.2-19.95,0-10.8,2.75-19.85,8.25-27.15,5.5-7.3,13.05-12.85,22.65-16.65,9.6-3.8,20.4-5.7,32.4-5.7,8.2,0,16.25.8,24.15,2.4,7.9,1.6,15.45,3.7,22.65,6.3l-5.7,35.7c-5.8-3.4-12.35-6.15-19.65-8.25-7.3-2.1-14.15-3.15-20.55-3.15s-11.35,1.05-15.45,3.15c-4.1,2.1-6.15,5.35-6.15,9.75,0,3.6,1.4,6.45,4.2,8.55,2.8,2.1,6.6,3.9,11.4,5.4s10.1,3.45,15.9,5.85c5.8,2.2,11.95,5,18.45,8.4,6.5,3.4,12.05,8.2,16.65,14.4,4.6,6.2,6.9,14.7,6.9,25.5,0,11.4-2.85,20.75-8.55,28.05-5.7,7.3-13.4,12.65-23.1,16.05-9.7,3.4-20.65,5.1-32.85,5.1Z" style="stroke-width: 0px;"/>
        <path d="M4196.16,690.07c-15.8,0-29.6-3.4-41.4-10.2-11.8-6.8-21-16.3-27.6-28.5-6.6-12.2-9.9-26.5-9.9-42.9s3.3-30.7,9.9-42.9c6.6-12.2,15.8-21.7,27.6-28.5,11.8-6.8,25.5-10.2,41.1-10.2s29.55,3.35,41.25,10.05c11.7,6.7,20.85,16.1,27.45,28.2,6.6,12.1,9.9,26.25,9.9,42.45s-3.25,30.8-9.75,43.2c-6.5,12.4-15.65,22.05-27.45,28.95-11.8,6.9-25.5,10.35-41.1,10.35ZM4195.86,653.47c10.8,0,19.45-4.15,25.95-12.45,6.5-8.3,9.75-19.25,9.75-32.85s-3.25-24.45-9.75-32.55c-6.5-8.1-15.15-12.15-25.95-12.15s-19.45,4.05-25.95,12.15c-6.5,8.1-9.75,18.95-9.75,32.55s3.25,24.55,9.75,32.85c6.5,8.3,15.15,12.45,25.95,12.45Z" style="stroke-width: 0px;"/>
        <path d="M4379.45,690.07c-25.6,0-45.45-6.8-59.55-20.4-14.1-13.6-21.15-32.8-21.15-57.6,0-17,3.3-31.9,9.9-44.7,6.6-12.8,15.9-22.75,27.9-29.85,12-7.1,25.9-10.65,41.7-10.65,7.6,0,15.4.85,23.4,2.55,8,1.7,14.2,3.65,18.6,5.85l-8.1,35.7c-4.6-2.2-9.7-3.95-15.3-5.25-5.6-1.3-10.7-1.95-15.3-1.95-12.2,0-22.1,4.2-29.7,12.6-7.6,8.4-11.4,19.5-11.4,33.3s3.9,24.8,11.7,32.4c7.8,7.6,18.7,11.4,32.7,11.4,9.4,0,19.5-1.8,30.3-5.4l6.3,34.2c-6.8,2.6-13.65,4.55-20.55,5.85-6.9,1.3-14.05,1.95-21.45,1.95Z" style="stroke-width: 0px;"/>
        <path d="M4446.05,685.57v-36.3h28.8v-81.9h-28.8v-36.3h71.1v118.2h25.8v36.3h-96.9ZM4469.45,505.57v-39h48.3v39h-48.3Z" style="stroke-width: 0px;"/>
        <path d="M4612.55,690.07c-15.8,0-28.45-6.75-37.95-20.25-9.5-13.5-14.25-32.05-14.25-55.65,0-28.4,7.2-50.05,21.6-64.95,14.4-14.9,35.1-22.35,62.1-22.35,15.2,0,33,2.4,53.4,7.2v151.5h-40.2l.9-24.6h-1.2c-10.4,19.4-25.2,29.1-44.4,29.1ZM4621.55,653.17c6.6,0,12.9-3.5,18.9-10.5,6-7,11.4-15.6,16.2-25.8v-50.4c-3.2-1-6.5-1.7-9.9-2.1-3.4-.4-6.5-.6-9.3-.6-24.2,0-36.3,16.2-36.3,48.6,0,12.6,1.8,22.55,5.4,29.85,3.6,7.3,8.6,10.95,15,10.95Z" style="stroke-width: 0px;"/>
        <path d="M4794.64,690.07c-14.4,0-25.55-3.65-33.45-10.95-7.9-7.3-11.85-17.65-11.85-31.05v-80.7h-24v-36.3h24v-33c14.4-2.4,28.4-4.2,42-5.4v38.4h39v36.3h-39v72.9c0,8.6,4.8,12.9,14.4,12.9,5.6,0,12-1.3,19.2-3.9l9.3,31.8c-12.8,6-26,9-39.6,9Z" style="stroke-width: 0px;"/>
        <path d="M4858.84,685.57v-36.3h28.8v-81.9h-28.8v-36.3h71.1v118.2h25.8v36.3h-96.9ZM4882.24,505.57v-39h48.3v39h-48.3Z" style="stroke-width: 0px;"/>
        <path d="M5052.04,690.07c-15.8,0-29.6-3.4-41.4-10.2-11.8-6.8-21-16.3-27.6-28.5-6.6-12.2-9.9-26.5-9.9-42.9s3.3-30.7,9.9-42.9c6.6-12.2,15.8-21.7,27.6-28.5,11.8-6.8,25.5-10.2,41.1-10.2s29.55,3.35,41.25,10.05c11.7,6.7,20.85,16.1,27.45,28.2,6.6,12.1,9.9,26.25,9.9,42.45s-3.25,30.8-9.75,43.2c-6.5,12.4-15.65,22.05-27.45,28.95-11.8,6.9-25.5,10.35-41.1,10.35ZM5051.74,653.47c10.8,0,19.45-4.15,25.95-12.45,6.5-8.3,9.75-19.25,9.75-32.85s-3.25-24.45-9.75-32.55c-6.5-8.1-15.15-12.15-25.95-12.15s-19.45,4.05-25.95,12.15c-6.5,8.1-9.75,18.95-9.75,32.55s3.25,24.55,9.75,32.85c6.5,8.3,15.15,12.45,25.95,12.45Z" style="stroke-width: 0px;"/>
        <path d="M5161.84,685.57v-154.5h41.4v26.7c6.4-10.8,13.85-18.65,22.35-23.55,8.5-4.9,18.25-7.35,29.25-7.35,16.6,0,29.6,4.95,39,14.85,9.4,9.9,14.1,23.65,14.1,41.25v102.6h-42.3v-96c0-8.2-2-14.5-6-18.9-4-4.4-9.4-6.6-16.2-6.6-8.2,0-15.85,3.05-22.95,9.15-7.1,6.1-12.55,13.65-16.35,22.65v89.7h-42.3Z" style="stroke-width: 0px;"/>
      </g>
      <g style="isolation: isolate;">
        <path d="M1418.98,925.57l48.8-133.2h34.8l49.4,133.2h-30l-10.8-30.4h-52.4l-10.2,30.4h-29.6ZM1467.18,870.37h35.4l-18-51-17.4,51Z" style="stroke-width: 0px;"/>
        <path d="M1596.18,928.57c-6.53,0-12.83-.67-18.9-2-6.07-1.33-11.23-3.13-15.5-5.4l2.6-24c4.53,2.8,9.53,5.07,15,6.8,5.47,1.73,10.6,2.6,15.4,2.6,4.27,0,8-.8,11.2-2.4,3.2-1.6,4.8-4.07,4.8-7.4s-1.7-5.53-5.1-7c-3.4-1.47-8.63-3.53-15.7-6.2-2.67-1.07-5.63-2.27-8.9-3.6-3.27-1.33-6.37-3.1-9.3-5.3-2.93-2.2-5.33-5.07-7.2-8.6-1.87-3.53-2.8-7.97-2.8-13.3,0-7.2,1.83-13.23,5.5-18.1,3.67-4.87,8.7-8.57,15.1-11.1,6.4-2.53,13.6-3.8,21.6-3.8,5.47,0,10.83.53,16.1,1.6,5.27,1.07,10.3,2.47,15.1,4.2l-3.8,23.8c-3.87-2.27-8.23-4.1-13.1-5.5-4.87-1.4-9.43-2.1-13.7-2.1s-7.57.7-10.3,2.1c-2.73,1.4-4.1,3.57-4.1,6.5,0,2.4.93,4.3,2.8,5.7,1.87,1.4,4.4,2.6,7.6,3.6s6.73,2.3,10.6,3.9c3.87,1.47,7.97,3.33,12.3,5.6,4.33,2.27,8.03,5.47,11.1,9.6,3.07,4.13,4.6,9.8,4.6,17,0,7.6-1.9,13.83-5.7,18.7-3.8,4.87-8.93,8.43-15.4,10.7-6.47,2.27-13.77,3.4-21.9,3.4Z" style="stroke-width: 0px;"/>
        <path d="M1688.98,928.57c-6.54,0-12.83-.67-18.9-2-6.07-1.33-11.23-3.13-15.5-5.4l2.6-24c4.53,2.8,9.53,5.07,15,6.8,5.47,1.73,10.6,2.6,15.4,2.6,4.27,0,8-.8,11.2-2.4,3.2-1.6,4.8-4.07,4.8-7.4s-1.7-5.53-5.1-7c-3.4-1.47-8.63-3.53-15.7-6.2-2.67-1.07-5.63-2.27-8.9-3.6-3.27-1.33-6.37-3.1-9.3-5.3-2.93-2.2-5.33-5.07-7.2-8.6-1.87-3.53-2.8-7.97-2.8-13.3,0-7.2,1.83-13.23,5.5-18.1,3.67-4.87,8.7-8.57,15.1-11.1,6.4-2.53,13.6-3.8,21.6-3.8,5.47,0,10.83.53,16.1,1.6,5.27,1.07,10.3,2.47,15.1,4.2l-3.8,23.8c-3.87-2.27-8.23-4.1-13.1-5.5-4.87-1.4-9.43-2.1-13.7-2.1s-7.57.7-10.3,2.1c-2.73,1.4-4.1,3.57-4.1,6.5,0,2.4.93,4.3,2.8,5.7,1.87,1.4,4.4,2.6,7.6,3.6,3.2,1,6.73,2.3,10.6,3.9,3.87,1.47,7.96,3.33,12.3,5.6,4.33,2.27,8.03,5.47,11.1,9.6,3.06,4.13,4.6,9.8,4.6,17,0,7.6-1.9,13.83-5.7,18.7-3.8,4.87-8.93,8.43-15.4,10.7-6.47,2.27-13.77,3.4-21.9,3.4Z" style="stroke-width: 0px;"/>
        <path d="M1799.58,928.57c-10.53,0-19.73-2.27-27.6-6.8-7.87-4.53-14-10.87-18.4-19-4.4-8.13-6.6-17.67-6.6-28.6s2.2-20.46,6.6-28.6c4.4-8.13,10.53-14.47,18.4-19,7.87-4.53,17-6.8,27.4-6.8s19.7,2.23,27.5,6.7c7.8,4.47,13.9,10.73,18.3,18.8,4.4,8.07,6.6,17.5,6.6,28.3s-2.17,20.53-6.5,28.8c-4.33,8.27-10.43,14.7-18.3,19.3-7.87,4.6-17,6.9-27.4,6.9ZM1799.38,904.17c7.2,0,12.97-2.77,17.3-8.3,4.33-5.53,6.5-12.83,6.5-21.9s-2.17-16.3-6.5-21.7c-4.33-5.4-10.1-8.1-17.3-8.1s-12.97,2.7-17.3,8.1c-4.33,5.4-6.5,12.63-6.5,21.7s2.17,16.37,6.5,21.9c4.33,5.53,10.1,8.3,17.3,8.3Z" style="stroke-width: 0px;"/>
        <path d="M1921.77,928.57c-17.07,0-30.3-4.53-39.7-13.6-9.4-9.07-14.1-21.87-14.1-38.4,0-11.33,2.2-21.27,6.6-29.8,4.4-8.53,10.6-15.17,18.6-19.9,8-4.73,17.27-7.1,27.8-7.1,5.07,0,10.27.57,15.6,1.7,5.33,1.13,9.47,2.43,12.4,3.9l-5.4,23.8c-3.07-1.46-6.47-2.63-10.2-3.5-3.73-.87-7.13-1.3-10.2-1.3-8.13,0-14.73,2.8-19.8,8.4-5.07,5.6-7.6,13-7.6,22.2s2.6,16.53,7.8,21.6c5.2,5.07,12.47,7.6,21.8,7.6,6.27,0,13-1.2,20.2-3.6l4.2,22.8c-4.53,1.73-9.1,3.03-13.7,3.9-4.6.87-9.37,1.3-14.3,1.3ZM1915.97,807.57c-4.13,0-7.7-1.5-10.7-4.5s-4.5-6.57-4.5-10.7,1.57-7.87,4.7-10.8c3.13-2.93,6.77-4.4,10.9-4.4s7.7,1.47,10.7,4.4c3,2.93,4.5,6.53,4.5,10.8s-1.57,7.7-4.7,10.7c-3.13,3-6.77,4.5-10.9,4.5Z" style="stroke-width: 0px;"/>
        <path d="M1968.17,972.17c-6.8,0-13.46-1.33-20-4l7.4-23.4c3.2,1.47,6.27,2.2,9.2,2.2,6.8,0,10.2-4.13,10.2-12.4v-112h28.2v114.2c0,10.93-3.17,19.57-9.5,25.9-6.33,6.33-14.83,9.5-25.5,9.5ZM1972.97,805.57v-26h32.2v26h-32.2Z" style="stroke-width: 0px;"/>
        <path d="M2060.17,928.57c-10.53,0-18.97-4.5-25.3-13.5-6.33-9-9.5-21.37-9.5-37.1,0-18.93,4.8-33.37,14.4-43.3,9.6-9.93,23.4-14.9,41.4-14.9,10.13,0,22,1.6,35.6,4.8v101h-26.8l.6-16.4h-.8c-6.93,12.93-16.8,19.4-29.6,19.4ZM2066.17,903.97c4.4,0,8.6-2.33,12.6-7,4-4.67,7.6-10.4,10.8-17.2v-33.6c-2.13-.67-4.33-1.13-6.6-1.4-2.27-.27-4.33-.4-6.2-.4-16.13,0-24.2,10.8-24.2,32.4,0,8.4,1.2,15.03,3.6,19.9,2.4,4.87,5.73,7.3,10,7.3Z" style="stroke-width: 0px;"/>
        <path d="M2136.37,925.37v-18.4l49.4-60.2h-46v-24.2h80.4v18.4l-49.2,60.4h49.2v24h-83.8Z" style="stroke-width: 0px;"/>
        <path d="M2236.97,925.37v-18.4l49.4-60.2h-46v-24.2h80.4v18.4l-49.2,60.4h49.2v24h-83.8Z" style="stroke-width: 0px;"/>
        <path d="M2338.97,972.17c-6.8,0-13.47-1.33-20-4l7.4-23.4c3.2,1.47,6.27,2.2,9.2,2.2,6.8,0,10.2-4.13,10.2-12.4v-112h28.2v114.2c0,10.93-3.17,19.57-9.5,25.9-6.33,6.33-14.83,9.5-25.5,9.5ZM2343.77,805.57v-26h32.2v26h-32.2Z" style="stroke-width: 0px;"/>
        <path d="M2448.77,928.57c-10.53,0-19.73-2.27-27.6-6.8-7.87-4.53-14-10.87-18.4-19-4.4-8.13-6.6-17.67-6.6-28.6s2.2-20.46,6.6-28.6c4.4-8.13,10.53-14.47,18.4-19,7.87-4.53,17-6.8,27.4-6.8s19.7,2.23,27.5,6.7c7.8,4.47,13.9,10.73,18.3,18.8,4.4,8.07,6.6,17.5,6.6,28.3s-2.17,20.53-6.5,28.8c-4.33,8.27-10.43,14.7-18.3,19.3-7.87,4.6-17,6.9-27.4,6.9ZM2448.57,904.17c7.2,0,12.96-2.77,17.3-8.3,4.33-5.53,6.5-12.83,6.5-21.9s-2.17-16.3-6.5-21.7c-4.33-5.4-10.1-8.1-17.3-8.1s-12.97,2.7-17.3,8.1c-4.33,5.4-6.5,12.63-6.5,21.7s2.17,16.37,6.5,21.9c4.33,5.53,10.1,8.3,17.3,8.3Z" style="stroke-width: 0px;"/>
        <path d="M2521.96,925.57v-103h27.6v17.8c4.27-7.2,9.23-12.43,14.9-15.7,5.67-3.27,12.17-4.9,19.5-4.9,11.07,0,19.73,3.3,26,9.9,6.27,6.6,9.4,15.77,9.4,27.5v68.4h-28.2v-64c0-5.47-1.33-9.67-4-12.6-2.67-2.93-6.27-4.4-10.8-4.4-5.47,0-10.57,2.03-15.3,6.1-4.73,4.07-8.37,9.1-10.9,15.1v59.8h-28.2Z" style="stroke-width: 0px;"/>
        <path d="M2640.76,925.57v-24.2h19.2v-54.6h-19.2v-24.2h47.4v78.8h17.2v24.2h-64.6ZM2656.36,805.57v-26h32.2v26h-32.2Z" style="stroke-width: 0px;"/>
        <path d="M2792.96,925.57l-45-133.2h32l31.6,101.6,31.4-101.6h29.8l-44.8,133.2h-35Z" style="stroke-width: 0px;"/>
        <path d="M2928.36,928.57c-16.53,0-29.6-4.8-39.2-14.4-9.6-9.6-14.4-22.93-14.4-40,0-11.2,2.07-20.87,6.2-29,4.13-8.13,9.97-14.4,17.5-18.8,7.53-4.4,16.37-6.6,26.5-6.6,14.93,0,26.4,4.8,34.4,14.4,8,9.6,12,23.47,12,41.6v3.5c0,1.13-.07,2.23-.2,3.3h-68c2.67,14.4,12.2,21.6,28.6,21.6,5.07,0,10.23-.63,15.5-1.9,5.27-1.27,9.9-2.97,13.9-5.1l4.6,22.6c-11.07,5.87-23.53,8.8-37.4,8.8ZM2902.96,861.37h41.4c-.4-5.73-2.4-10.3-6-13.7-3.6-3.4-8.4-5.1-14.4-5.1s-10.43,1.67-14.1,5c-3.67,3.33-5.97,7.93-6.9,13.8Z" style="stroke-width: 0px;"/>
        <path d="M3030.16,928.57c-9.6,0-17.03-2.43-22.3-7.3-5.27-4.87-7.9-11.77-7.9-20.7v-53.8h-16v-24.2h16v-22c9.6-1.6,18.93-2.8,28-3.6v25.6h26v24.2h-26v48.6c0,5.73,3.2,8.6,9.6,8.6,3.73,0,8-.87,12.8-2.6l6.2,21.2c-8.53,4-17.33,6-26.4,6Z" style="stroke-width: 0px;"/>
        <path d="M3120.36,928.57c-16.53,0-29.6-4.8-39.2-14.4-9.6-9.6-14.4-22.93-14.4-40,0-11.2,2.07-20.87,6.2-29,4.13-8.13,9.97-14.4,17.5-18.8,7.53-4.4,16.37-6.6,26.5-6.6,14.93,0,26.4,4.8,34.4,14.4,8,9.6,12,23.47,12,41.6v3.5c0,1.13-.07,2.23-.2,3.3h-68c2.67,14.4,12.2,21.6,28.6,21.6,5.07,0,10.23-.63,15.5-1.9,5.27-1.27,9.9-2.97,13.9-5.1l4.6,22.6c-11.07,5.87-23.53,8.8-37.4,8.8ZM3094.96,861.37h41.4c-.4-5.73-2.4-10.3-6-13.7-3.6-3.4-8.4-5.1-14.4-5.1s-10.43,1.67-14.1,5c-3.67,3.33-5.97,7.93-6.9,13.8Z" style="stroke-width: 0px;"/>
        <path d="M3184.96,925.57v-103h28.2v16.8h1.6c3.46-6.13,7.1-10.97,10.9-14.5,3.8-3.53,8.77-5.3,14.9-5.3,2.4,0,4.4.27,6,.8l-3,30.4c-1.47-.4-2.87-.73-4.2-1-1.33-.27-2.73-.4-4.2-.4-4.93,0-8.87,1.43-11.8,4.3-2.93,2.87-6.33,6.7-10.2,11.5v60.4h-28.2Z" style="stroke-width: 0px;"/>
        <path d="M3290.36,928.57c-10.53,0-18.97-4.5-25.3-13.5-6.33-9-9.5-21.37-9.5-37.1,0-18.93,4.8-33.37,14.4-43.3,9.6-9.93,23.4-14.9,41.4-14.9,10.13,0,22,1.6,35.6,4.8v101h-26.8l.6-16.4h-.8c-6.93,12.93-16.8,19.4-29.6,19.4ZM3296.36,903.97c4.4,0,8.6-2.33,12.6-7,4-4.67,7.6-10.4,10.8-17.2v-33.6c-2.13-.67-4.33-1.13-6.6-1.4-2.27-.27-4.33-.4-6.2-.4-16.13,0-24.2,10.8-24.2,32.4,0,8.4,1.2,15.03,3.6,19.9,2.4,4.87,5.73,7.3,10,7.3Z" style="stroke-width: 0px;"/>
        <path d="M3374.36,925.57v-103h27.6v17.8c4.27-7.2,9.23-12.43,14.9-15.7,5.67-3.27,12.17-4.9,19.5-4.9,11.07,0,19.73,3.3,26,9.9,6.27,6.6,9.4,15.77,9.4,27.5v68.4h-28.2v-64c0-5.47-1.33-9.67-4-12.6-2.67-2.93-6.27-4.4-10.8-4.4-5.47,0-10.57,2.03-15.3,6.1-4.73,4.07-8.37,9.1-10.9,15.1v59.8h-28.2Z" style="stroke-width: 0px;"/>
        <path d="M3493.16,925.57v-24.2h19.2v-54.6h-19.2v-24.2h47.4v78.8h17.2v24.2h-64.6ZM3508.76,805.57v-26h32.2v26h-32.2Z" style="stroke-width: 0px;"/>
        <path d="M3681.95,929.17l-35.4-97.6-8.4,94h-25.8l12.6-133.2h36l34,95.6,33-95.6h36l12.2,133.2h-26l-9.2-93.6-35.2,95-23.8,2.2Z" style="stroke-width: 0px;"/>
        <path d="M3828.35,928.57c-10.53,0-18.97-4.5-25.3-13.5-6.33-9-9.5-21.37-9.5-37.1,0-18.93,4.8-33.37,14.4-43.3,9.6-9.93,23.4-14.9,41.4-14.9,10.13,0,22,1.6,35.6,4.8v101h-26.8l.6-16.4h-.8c-6.93,12.93-16.8,19.4-29.6,19.4ZM3834.35,903.97c4.4,0,8.6-2.33,12.6-7,4-4.67,7.6-10.4,10.8-17.2v-33.6c-2.13-.67-4.33-1.13-6.6-1.4-2.27-.27-4.33-.4-6.2-.4-16.13,0-24.2,10.8-24.2,32.4,0,8.4,1.2,15.03,3.6,19.9,2.4,4.87,5.73,7.3,10,7.3Z" style="stroke-width: 0px;"/>
        <path d="M3904.35,925.57v-24.2h18.2v-97.8h-17.2v-24h45.4v121.8h18.2v24.2h-64.6Z" style="stroke-width: 0px;"/>
        <path d="M4022.35,928.57c-9.6,0-17.03-2.43-22.3-7.3-5.27-4.87-7.9-11.77-7.9-20.7v-53.8h-16v-24.2h16v-22c9.6-1.6,18.93-2.8,28-3.6v25.6h26v24.2h-26v48.6c0,5.73,3.2,8.6,9.6,8.6,3.73,0,8-.87,12.8-2.6l6.2,21.2c-8.53,4-17.33,6-26.4,6Z" style="stroke-width: 0px;"/>
        <path d="M4093.75,928.57c-10.53,0-18.97-4.5-25.3-13.5-6.33-9-9.5-21.37-9.5-37.1,0-18.93,4.8-33.37,14.4-43.3,9.6-9.93,23.4-14.9,41.4-14.9,10.13,0,22,1.6,35.6,4.8v101h-26.8l.6-16.4h-.8c-6.93,12.93-16.8,19.4-29.6,19.4ZM4099.75,903.97c4.4,0,8.6-2.33,12.6-7,4-4.67,7.6-10.4,10.8-17.2v-33.6c-2.13-.67-4.33-1.13-6.6-1.4-2.27-.27-4.33-.4-6.2-.4-16.13,0-24.2,10.8-24.2,32.4,0,8.4,1.2,15.03,3.6,19.9,2.4,4.87,5.73,7.3,10,7.3Z" style="stroke-width: 0px;"/>
      </g>
    </g>
  </g>
</svg>